G04 ================== begin FILE IDENTIFICATION RECORD ==================*
G04 Layout Name:  C:\PSD_data\PSD_data\Projects\DSP_M5\worklib\interf_m8_v1\physical\interf_m8_v9_nev.brd*
G04 Film Name:    BOTTOM*
G04 File Format:  Gerber RS274X*
G04 File Origin:  15.2-s015*
G04 Origin Date:  Tue May 03 13:49:25 2011*
G04 ================== end FILE IDENTIFICATION RECORD ====================*
%FSLAX55Y55*MOMM*%
%IR0*IPPOS*OFA0.00000B0.00000*MIA0B0*SFA1.00000B1.00000*%
%AMMACRO28*
4,1,5,1.6,.85,
-1.6,.85,
-1.6,-.85,
1.1,-.85,
1.6,-.35,
1.6,.85,
0.0*
%
%ADD28MACRO28*%
%AMMACRO25*
4,1,5,.85,-1.6,
.85,1.6,
-.85,1.6,
-.85,-1.1,
-.35,-1.6,
.85,-1.6,
0.0*
%
%ADD25MACRO25*%
%ADD35R,.8X2.*%
%AMMACRO24*
4,1,5,1.7,1.05,
-1.7,1.05,
-1.7,-.55,
-1.2,-1.05,
1.7,-1.05,
1.7,1.05,
0.0*
%
%ADD24MACRO24*%
%ADD37R,2.X.8*%
%ADD38R,2.X.45*%
%ADD31R,.45X1.3*%
%ADD30R,1.3X.45*%
%ADD26R,.45X1.4*%
%AMMACRO20*
4,1,5,.85,1.6,
.85,-1.6,
-.85,-1.6,
-.85,1.1,
-.35,1.6,
.85,1.6,
0.0*
%
%ADD20MACRO20*%
%ADD34R,.8X1.6*%
%ADD36R,1.6X.8*%
%ADD10C,.7*%
%ADD14R,1.5X1.*%
%ADD16R,1.X1.5*%
%AMMACRO23*
4,1,5,1.7,1.05,
-1.2,1.05,
-1.7,.55,
-1.7,-1.05,
1.7,-1.05,
1.7,1.05,
0.0*
%
%ADD23MACRO23*%
%ADD29R,1.7X1.4*%
%AMMACRO27*
4,1,5,1.6,-.85,
-1.6,-.85,
-1.6,.85,
1.1,.85,
1.6,.35,
1.6,-.85,
0.0*
%
%ADD27MACRO27*%
%AMMACRO22*
4,1,5,-.85,-1.6,
-.85,1.6,
.85,1.6,
.85,-1.1,
.35,-1.6,
-.85,-1.6,
0.0*
%
%ADD22MACRO22*%
%AMMACRO21*
4,1,5,-.85,1.6,
-.85,-1.6,
.85,-1.6,
.85,1.1,
.35,1.6,
-.85,1.6,
0.0*
%
%ADD21MACRO21*%
%ADD13C,2.*%
%ADD19R,.4X.8*%
%ADD39C,4.*%
%ADD33C,1.4*%
%ADD15R,1.9X1.8*%
%ADD11C,1.6*%
%ADD32C,2.6*%
%ADD12C,3.5*%
%ADD17C,1.8*%
%ADD40C,3.8*%
%ADD18C,1.75*%
%ADD41C,.3*%
%ADD42C,.4*%
%ADD43C,.5*%
%ADD44C,.8*%
%ADD45C,1.*%
%ADD46C,2.0002*%
G75*
%LPD*%
G75*
G36*
G01X6914530Y1741070D02*
Y1423470D01*
X6392680D01*
Y1741070D01*
X6914530D01*
G37*
G36*
G01X6713910Y4484180D02*
Y4835790D01*
X7141220D01*
Y4521070D01*
X7191510D01*
X7191990Y4520590D01*
Y4442030D01*
X7190550Y4440590D01*
X7031030D01*
X7030550Y4440110D01*
X6929000D01*
Y4484180D01*
X6713910D01*
G37*
G36*
G01X9342870Y7430880D02*
G02X9333330Y7444450I0J10138D01*
G03X9154030Y7530650I-94133J33775D01*
G01X9152550Y7528240D01*
X9072740D01*
G02X9064690Y7544530I0J10134D01*
G03X8905710I-79490J60702D01*
G02X8897660Y7528240I-8050J-6156D01*
G01X8722040D01*
Y7904180D01*
X8721360Y7904860D01*
Y8173790D01*
X8887270D01*
G02X8896280Y8159010I0J-10136D01*
G03X8962470Y8015840I88918J-45777D01*
G02X8967340Y7998790I-2299J-9877D01*
G01X8935190Y7966640D01*
Y7945880D01*
X8932780Y7944400D01*
G03X9055170Y7930690I52422J-85170D01*
G02X9055100Y7945100I7100J7240D01*
G01X9161520Y8051530D01*
Y8153220D01*
G02X9177880Y8161230I10141J0D01*
G03X9312480Y8172170I61324J79001D01*
G01X9313980Y8173790D01*
X9334920D01*
Y7981060D01*
X9335260Y7980720D01*
X9395930D01*
Y7869490D01*
X9477750D01*
Y7430880D01*
X9342870D01*
G37*
G36*
G01X9350570Y11668850D02*
Y11569200D01*
X8942430D01*
Y11668850D01*
X9350570D01*
G37*
%LPC*%
G75*
G54D46*
X9239200Y7732230D03*
%LPD*%
G75*
G54D10*
G01X1294750Y3919560D02*
X1468100D01*
G01X1294470Y4340020D02*
Y4094840D01*
X1294750Y4094560D01*
G01X1734470Y4340020D02*
X1513150D01*
G01X1734470D02*
X1984890D01*
X1989150Y4344280D01*
G01X1391890Y5288000D02*
X1734470Y4945420D01*
Y4848020D01*
G01X1294470D02*
Y5067650D01*
G01X2164150Y4344280D02*
X2306720D01*
G01X2338350Y6941660D02*
Y6586490D01*
X2338560Y6586280D01*
G01X2338350Y6941660D02*
Y7104740D01*
X2336650Y7106440D01*
G01X2118150Y9760620D02*
Y9760630D01*
X1987460Y9891320D01*
Y9974290D01*
G01D02*
X2239890D01*
X2239930Y9974250D01*
G01D02*
X2493940D01*
X2494380Y9973810D01*
G01D02*
X2747810D01*
X2749870Y9975870D01*
G01X3002040Y9977620D02*
Y9815370D01*
G01X2749870Y9975870D02*
X3000290D01*
X3002040Y9977620D01*
G01D02*
X3255980D01*
X3256480Y9978120D01*
G01X3656880Y6044060D02*
Y5640380D01*
G01X3624610Y6351170D02*
X3656880Y6318900D01*
Y6044060D01*
G01X3831880D02*
X3871350D01*
X3941350Y6114060D01*
Y6334430D01*
X3924610Y6351170D01*
G01X3434390Y6426210D02*
X3549360D01*
X3624400Y6351170D01*
X3624610D01*
G01X3921960Y6880980D02*
X4089990D01*
X4159990Y6950980D01*
Y7079630D01*
G01X3763540Y7181040D02*
X3853160D01*
X3923160Y7111040D01*
Y6882180D01*
X3921960Y6880980D01*
G01X3924610Y6351170D02*
X4135410D01*
G01X6561560Y6355790D02*
X6273640D01*
X6270470Y6358960D01*
G01X6688560Y6355790D02*
X6688920Y6356150D01*
Y6807390D01*
X6618920Y6877390D01*
X6270480D01*
G01X6994900Y2173720D02*
Y1939280D01*
X6854370Y1798750D01*
Y1630400D01*
G01D02*
X6852810Y1628840D01*
G01X6570280Y9329190D02*
X6559270Y9340200D01*
Y9566810D01*
G01X6559280Y9806790D02*
X6559270Y9806780D01*
Y9566810D01*
G01Y10045580D02*
Y9806800D01*
X6559280Y9806790D01*
G01X7375900Y2173720D02*
Y1969880D01*
G01X8082600Y2173830D02*
Y1830680D01*
X8034860Y1782940D01*
X7837420D01*
G01X7831620Y9056160D02*
Y9260610D01*
G01X8212620Y9056160D02*
X8260700Y9104240D01*
X8494550D01*
X192160Y1208890D03*
X881610Y1219630D03*
X599720Y2490630D03*
X881610Y2020120D03*
X866920Y5317520D03*
X967920Y6537520D03*
X1089010Y7086220D03*
X670290Y6525790D03*
X807540Y7813730D03*
X659550Y7419410D03*
X1100920Y8141460D03*
X853820Y8134540D03*
X1098590Y8843050D03*
X700740Y9865640D03*
X688200Y10501380D03*
X1516060Y1618980D03*
X1261890Y1459200D03*
X1776060Y2202970D03*
X1516060Y2520860D03*
X1468100Y3919560D03*
X1513150Y4340020D03*
X1391890Y5288000D03*
X1294470Y5067650D03*
X1765350Y6829020D03*
X1552030Y6537520D03*
X1531290Y6737000D03*
X1621140Y6841660D03*
X1297860Y6945500D03*
X1416670Y6843930D03*
X1531290Y7192460D03*
X1713670Y7434110D03*
X1584930Y7838650D03*
X1138560Y8523380D03*
X1607760Y8471220D03*
X1870120Y8689700D03*
X1621700Y8982380D03*
X1604460Y8683460D03*
X1599100Y9203670D03*
X1594310Y8848820D03*
X1172510Y10066940D03*
X1140170Y9500770D03*
X1779100Y9583330D03*
X1173780Y9891940D03*
X2285780Y1358930D03*
X2283320Y1239390D03*
X2544600Y1097670D03*
X2282090Y1102600D03*
X2552800Y1571440D03*
X2094990Y1614710D03*
X2257700Y2786780D03*
X2432700Y2787410D03*
X2566760Y3271900D03*
Y4006130D03*
X2560620Y4674830D03*
X2306720Y4344280D03*
X2437990Y4937350D03*
X2322310Y5903100D03*
X2568280Y6184770D03*
X2149040Y5705740D03*
X2530110Y6814010D03*
X1940530Y6537520D03*
X2338350Y6941660D03*
X1932120Y6805610D03*
X2476310Y7733040D03*
X1904550Y7588190D03*
X2314710Y7725370D03*
X2374750Y7329680D03*
X2501230Y7264130D03*
X2062410Y7418790D03*
X2480150Y7987900D03*
X2125200Y7966650D03*
X2118150Y9760620D03*
X3400880Y1124860D03*
X3196190Y1602320D03*
X3326190Y1604950D03*
X3066190Y2200760D03*
X3261190Y2196480D03*
X2806190Y2515580D03*
X3059810Y1960550D03*
X3001190Y2523130D03*
X2672610Y3005010D03*
X3060740Y4917230D03*
X3390530Y5150450D03*
X2769480Y6046810D03*
X2855550Y6887000D03*
X2734030Y6815740D03*
X3070320Y7010640D03*
X2705300Y6501900D03*
X3261590Y7657580D03*
X2748650Y8387320D03*
X2713920Y8092320D03*
X3150800Y8693050D03*
X3258100Y9070530D03*
X2830800Y8638430D03*
X3150800Y9615870D03*
X3002040Y9815370D03*
X3700460Y862080D03*
X3526780Y1380500D03*
X4051920Y1722540D03*
X3639020Y1717770D03*
X4052380Y1915320D03*
X4124190Y2337780D03*
X3761430Y2775860D03*
X3936430Y2777790D03*
X3741530Y4317730D03*
X3949700Y4866590D03*
X3656880Y5640380D03*
X3434390Y6426210D03*
X3442060Y6891840D03*
X3470800Y6568010D03*
X4135410Y6351170D03*
X4159990Y7079630D03*
X4005900Y9411540D03*
X3601100Y9413270D03*
X3914300Y10206240D03*
X4726010Y1231660D03*
X4436190Y1547960D03*
X4653640Y1962030D03*
X4436200Y1789060D03*
X4825660Y1961460D03*
X4216460Y2470030D03*
X4334790Y4013550D03*
X4590490Y4244960D03*
X4248770Y5487290D03*
X4333080Y5098310D03*
X4227690Y6165610D03*
X4613980Y5967480D03*
X4634270Y6892590D03*
X4474880Y6893760D03*
X4628160Y6736630D03*
X4334990Y6646570D03*
X4436550Y7499260D03*
X4804190Y7595420D03*
X4299090Y7419980D03*
X4185650Y7799060D03*
X4643150Y8308240D03*
X4469600Y8304540D03*
X4182070Y8456280D03*
X4507440Y9101170D03*
X4882300Y9234590D03*
X4907930Y9413270D03*
X4882040Y9616970D03*
X4887010Y10206240D03*
X4429280Y10622720D03*
X4449140Y10970930D03*
X5022170Y1542510D03*
X5338420Y1962030D03*
X5404210Y3447530D03*
X5404220Y3619980D03*
X5403740Y3780000D03*
Y3933280D03*
X5609260Y3623820D03*
X5607810Y3941900D03*
X5607320Y3785730D03*
X4945250Y3899000D03*
X5091650Y3900480D03*
X5652040Y4602260D03*
X5025780Y4804180D03*
X5536440Y4329920D03*
X5014770D03*
X5676030Y5303060D03*
X5492360Y5075320D03*
X5410570Y5544430D03*
X5666730Y5958660D03*
X5556690Y6023820D03*
X5253660Y6979990D03*
X5556560Y6985730D03*
X5329480Y6348890D03*
X5106740Y7071000D03*
X5353660Y6979250D03*
X5641830Y7280760D03*
X5465530Y8087530D03*
X4991700Y8581480D03*
X5222180Y7920820D03*
X5259750Y8133300D03*
X5212410Y8392960D03*
X5225290Y8711480D03*
X5188180Y8972310D03*
X5684690Y9236990D03*
X5442540Y8840580D03*
X5088050Y10743340D03*
X5095860Y10971360D03*
X5787460Y2465490D03*
X5994400D03*
X5902170Y1819380D03*
X5770590Y2161560D03*
X6174040Y3195470D03*
X6037990D03*
X5774520Y3450400D03*
X5905780Y3597950D03*
X6373610Y3468210D03*
X6371520Y3677930D03*
X6032720Y4278470D03*
X6311520Y5526580D03*
X6142060Y5525490D03*
X5940740Y5079140D03*
X5938830Y5979750D03*
X6331640Y5998900D03*
X6095470D03*
X5819160Y5931840D03*
X6377630Y6981900D03*
X5819160Y6503750D03*
X5950320Y7041300D03*
X6405870Y7539900D03*
X6209410Y7574100D03*
X5855060Y7757410D03*
X6059580Y7991750D03*
X5924010Y8226900D03*
X5793910Y8932330D03*
X5919440D03*
X5805610Y9571570D03*
Y10043030D03*
X6237750Y10300700D03*
X6412120Y10469330D03*
X6126610D03*
X6073770Y10671300D03*
X6705800Y1562620D03*
X7022500Y1473070D03*
X6678830Y2397740D03*
X6676560Y3210540D03*
X6882690Y3556350D03*
X6456200Y3893030D03*
X6721580Y3682260D03*
X6960150Y3822560D03*
X6518650Y3677930D03*
X6462390Y4087020D03*
X6460020Y4793630D03*
X6952480Y4639390D03*
X6784820Y4729450D03*
X6603740Y4276200D03*
X7201580Y5050400D03*
X6971620Y5474750D03*
X6832330Y5473780D03*
X6467690Y5081320D03*
X6856010Y5317250D03*
X7041160Y6150290D03*
X6571160Y5908850D03*
X6495220Y6118920D03*
X6724460Y7706210D03*
X7074010Y7454950D03*
X6898830Y7464770D03*
X6494520Y7862650D03*
X6685150Y8528530D03*
X7111400Y8442020D03*
X6942620Y8839300D03*
X6559270Y9566810D03*
X6919900Y9726880D03*
X6933790Y10349080D03*
X6789740Y10837100D03*
X6617210Y10925500D03*
X7899070Y1635790D03*
X7714880Y2409950D03*
X7375900Y1969880D03*
X7486900Y1782570D03*
X7530240Y2819280D03*
X7900990Y2687280D03*
X7300800Y3208290D03*
X7624990Y3493310D03*
X7259910Y3963930D03*
X7265950Y4611600D03*
X7311190Y4962260D03*
X7320330Y5099910D03*
X7332100Y5627850D03*
X7261250Y7012550D03*
X7832010Y7543350D03*
X7310810Y8162260D03*
X7490820Y8104380D03*
X7831620Y9260610D03*
X7526710Y10540850D03*
X7289730Y10521060D03*
X7900990Y10568350D03*
X7841900Y11364490D03*
X8464030Y1579350D03*
X8093230Y1034430D03*
X8519350Y999760D03*
X8464030Y1958970D03*
X8608460Y2557980D03*
X8290410Y3980550D03*
X8367590Y3309450D03*
X8716250Y3983660D03*
X8705170Y4461720D03*
X8098360Y4291380D03*
X8384090Y4131540D03*
X8210550Y4289220D03*
X8060530Y5386190D03*
X8557020Y5230510D03*
X8071520Y4923800D03*
X8687670Y5101660D03*
X8557020Y6055570D03*
X8652090Y6230250D03*
X8659310Y5672940D03*
X8197200Y6568970D03*
X8097390D03*
X8071240Y7703220D03*
X8379060Y7546110D03*
X8058740Y8515140D03*
X8647000Y8105570D03*
X8212620Y9247510D03*
X8337870Y8802260D03*
X8265920Y9727800D03*
X8143630Y9513880D03*
X9430200Y1882560D03*
X9145500Y3208300D03*
X9456570Y3156030D03*
X9460520Y2999300D03*
X9101460Y3629520D03*
X9453590Y3316200D03*
X8810930Y4289220D03*
X9371140Y4671270D03*
X9371150Y4498440D03*
X9372540Y5101660D03*
X9352930Y6230250D03*
X9357280Y5672940D03*
X9370660Y6639700D03*
X9369570Y6806910D03*
X9428340Y7520290D03*
X9466110Y10060800D03*
X8813090Y9517150D03*
X9149370Y11617120D03*
X9923500Y2217620D03*
X9710810Y4673160D03*
X9711200Y4501440D03*
X9547120Y4498440D03*
X9547110Y4671270D03*
X9857600Y5228820D03*
X9856840Y4990470D03*
X9857700Y5954820D03*
X9858140Y5669460D03*
X9715620Y6639700D03*
X9714840Y6810250D03*
X9542610Y6808380D03*
X9543060Y6639690D03*
X9528560Y8265120D03*
X9680700Y10542140D03*
X9677280Y10724170D03*
X10866550Y3329390D03*
G54D11*
X283600Y8592250D03*
X283700Y9342350D03*
X283600Y9092250D03*
Y8842250D03*
X600410Y3366540D03*
Y3566540D03*
X558440Y7735970D03*
Y7989970D03*
X1598840Y10065570D03*
Y9811570D03*
X5651730Y1079600D03*
X5905730D03*
X9441920Y652810D03*
X9443730Y1198720D03*
Y1452720D03*
X9691920Y652810D03*
X10659930Y5499980D03*
Y5949980D03*
G54D20*
X3924610Y6351170D03*
X3921960Y6880980D03*
G54D12*
X600000Y600000D03*
Y11150000D03*
X10560000Y600000D03*
Y11150000D03*
G54D21*
X3624610Y6351170D03*
X3621960Y6880980D03*
G54D30*
X6111570Y5146320D03*
Y5081320D03*
Y5016320D03*
X6301570D03*
Y5081320D03*
Y5146320D03*
X6412120Y10606300D03*
Y10671300D03*
Y10736300D03*
X6222120D03*
Y10671300D03*
Y10606300D03*
X8473270Y9854440D03*
Y9789440D03*
Y9724440D03*
X8663270D03*
Y9789440D03*
Y9854440D03*
G54D40*
X10270000Y7071000D03*
Y9570000D03*
G54D13*
X541350Y1721050D03*
X670300Y7002140D03*
X426750Y10205900D03*
X2564970Y3640800D03*
X3392320Y5535470D03*
X3263380Y7969180D03*
X3754060Y3991790D03*
X4189220Y8128570D03*
X5150900Y5542640D03*
X7006250Y9414430D03*
X9162310Y9632840D03*
X10079190Y1087110D03*
G54D22*
X4849810Y1961950D03*
G54D31*
X5754160Y6168740D03*
X5819160D03*
X5884160D03*
Y6358740D03*
X5819160D03*
X5754160D03*
X8399030Y1228570D03*
X8464030D03*
X8529030D03*
Y1418570D03*
X8464030D03*
X8399030D03*
X8021500Y1228590D03*
X8086500D03*
X8151500D03*
Y1418590D03*
X8086500D03*
X8021500D03*
G54D41*
G01X1776060Y2202970D02*
X1647480D01*
X1488080Y2362370D01*
X1487690D01*
X1401640Y2448420D01*
Y2448900D01*
X1089010Y2761530D01*
Y7086220D01*
G01X967920Y6537520D02*
Y10728110D01*
X1154340Y10914530D01*
X2877680D01*
X3002650Y10789560D01*
Y10787740D01*
G01X1297860Y6945500D02*
Y5755560D01*
X3066190Y3987230D01*
Y2200760D01*
G01X1416670Y6843930D02*
Y5960580D01*
X2437990Y4939260D01*
Y4937350D01*
G01X2314710Y7725370D02*
X1673440D01*
X1192470Y7244400D01*
Y5740230D01*
X2217630Y4715070D01*
Y4714850D01*
X3001190Y3931290D01*
Y2523130D01*
G01X1552030Y6537520D02*
X1940530D01*
G01X1531290Y7192460D02*
Y6737000D01*
G01X1904550Y7588190D02*
Y7125070D01*
X1621140Y6841660D01*
G01X2476310Y7733040D02*
Y7812200D01*
X1827980Y8460530D01*
X1827970D01*
X1605040Y8683460D01*
X1604460D01*
G01X2480150Y7987900D02*
Y8365370D01*
X1863140Y8982380D01*
X1621700D01*
G01X1598840Y10065570D02*
Y10065030D01*
X1907370Y9756500D01*
Y9570730D01*
X1906830Y9570190D01*
Y9151560D01*
X2609300Y8449090D01*
Y6893190D01*
X2530120Y6814010D01*
X2530110D01*
G01X1172510Y10066940D02*
X1597470D01*
X1598840Y10065570D01*
G01X2285780Y1358930D02*
X2576160D01*
X2810230Y1124860D01*
X3400880D01*
G01X3700460Y862080D02*
X2953460D01*
X2576150Y1239390D01*
X2283320D01*
G01X2544600Y1097670D02*
X2539670Y1102600D01*
X2282090D01*
G01X2322310Y5903100D02*
Y5893880D01*
X2321100Y5892670D01*
Y5372320D01*
X2560620Y5132800D01*
Y4674830D01*
G01X2568280Y6184770D02*
Y6076920D01*
X2563750Y6072390D01*
G01X2513560Y6586280D02*
X2619950D01*
X2698580Y6507650D01*
X2699550D01*
X2705300Y6501900D01*
G01X2374750Y7329680D02*
X2317270D01*
X2201350Y7445600D01*
X2201340D01*
X2123730Y7523210D01*
Y7635770D01*
X2125200Y7637240D01*
G01Y7812240D02*
Y7966650D01*
G01X2501230Y7264130D02*
Y7116860D01*
X2511650Y7106440D01*
G01X3196190Y1602320D02*
Y1518730D01*
X3260440Y1454480D01*
G01X3326190Y1604950D02*
Y1455230D01*
X3325440Y1454480D01*
G01X3261190Y2196480D02*
X3696210D01*
X4034160Y2534430D01*
Y2534660D01*
X4152960Y2653460D01*
Y3272200D01*
X5210680Y4329920D01*
X5536440D01*
G01X2855550Y6887000D02*
X2862060Y6893510D01*
Y8085990D01*
X2748650Y8199400D01*
Y8387320D01*
G01X2734030Y6815740D02*
X2903200Y6646570D01*
X4334990D01*
G01X2830800Y8638430D02*
X2903420Y8565810D01*
X4385580D01*
X4643150Y8308240D01*
G01X3150800Y8693050D02*
Y9615870D01*
G01X5822850Y10470480D02*
X5453880D01*
X5015100Y10031700D01*
X3884930D01*
X3258100Y9404870D01*
Y9070530D01*
G01X5823820Y10867400D02*
X4406100D01*
X3916040Y10377340D01*
X3913370D01*
X3467500Y9931470D01*
X3467490D01*
X3248040Y9712020D01*
Y9712010D01*
X3151900Y9615870D01*
X3150800D01*
G01X4590000Y704000D02*
Y704310D01*
X4422210Y872100D01*
X4421660D01*
X4019280Y1274480D01*
X3390440D01*
G01X3442060Y6891840D02*
X3611100D01*
G01D02*
X3588540Y6914400D01*
Y7181040D01*
G01X3621960Y6880980D02*
X3611100Y6891840D01*
G01X4005900Y9411540D02*
X3997260D01*
X3995530Y9413270D01*
G01D02*
X4907930D01*
G01X3601100D02*
X3995530D01*
G01X3914300Y10206240D02*
X4887010D01*
G01X6456200Y3893030D02*
X6210930D01*
X5084220Y5019740D01*
X5084210D01*
X4474880Y5629070D01*
Y6893760D01*
G01X4628160Y6736630D02*
X4764210D01*
X5007570Y6979990D01*
X5253660D01*
G01X6046830Y4845370D02*
X6025050D01*
X5844930Y5025490D01*
Y5521790D01*
X5214510Y6152210D01*
Y6405130D01*
X5392720Y6583340D01*
X5396550D01*
X5835350Y7022140D01*
Y7549180D01*
X5758710Y7625820D01*
Y8492240D01*
X5931170Y8664700D01*
X6059580D01*
G01X5754160Y6168740D02*
Y6046090D01*
X5666730Y5958660D01*
G01X5556560Y6985730D02*
X5553660Y6988630D01*
Y7118200D01*
X5553120Y7118740D01*
G01X5353660Y6979250D02*
X5359180Y6984770D01*
X5360590D01*
X5389780Y7013960D01*
Y7118680D01*
G01X5553110Y7442690D02*
X5482780Y7372360D01*
Y7263570D01*
X5553120Y7193230D01*
Y7118740D01*
G01X5641830Y7280760D02*
X5698120D01*
X5728120Y7250760D01*
Y7118740D01*
G01X5106740Y7071000D02*
X5183380D01*
X5214780Y7102400D01*
Y7118680D01*
G01X5186650Y7289730D02*
X5214780Y7261600D01*
Y7118680D01*
G01X5378110Y7442690D02*
X5356070Y7464730D01*
X5186650D01*
G01X5389780Y7118680D02*
Y7431020D01*
X5378110Y7442690D01*
G01X6111570Y5146320D02*
X6026840D01*
X5977160Y5196000D01*
Y5643460D01*
X6181220Y5847520D01*
Y6705250D01*
X6097870Y6788600D01*
Y6875000D01*
X6095480Y6877390D01*
G01X6095470Y5998900D02*
Y6358960D01*
G01X6331640Y5998900D02*
Y5826440D01*
X6617150Y5540930D01*
Y5008250D01*
X6460020Y4851120D01*
Y4793630D01*
G01X6095480Y6877390D02*
Y7670280D01*
X5839190Y7926570D01*
Y8364150D01*
X5887090Y8412050D01*
X6059210D01*
G01X5910080Y6647050D02*
X5738880D01*
X5708880Y6617050D01*
Y6497120D01*
X5754160Y6451840D01*
Y6358740D01*
G01X5910080Y6647050D02*
X6055470D01*
X6095470Y6607050D01*
Y6358960D01*
G01X5884160Y6358740D02*
Y6458790D01*
X5919660Y6494290D01*
Y6637470D01*
X5910080Y6647050D01*
G01X7121900Y2173720D02*
Y1576450D01*
X7160900Y1537450D01*
X7993670D01*
X8021500Y1509620D01*
Y1418590D01*
G01X6467660Y1865310D02*
Y2036600D01*
X6859900Y2428840D01*
X7244050D01*
G01X6688390Y1866680D02*
Y2113120D01*
X6904010Y2328740D01*
X7087380D01*
X7121900Y2294220D01*
Y2173720D01*
G01X6640760Y4087020D02*
X6462390D01*
G01X6971620Y5474750D02*
X6974020D01*
X6980640Y5468130D01*
X7044450D01*
X7201580Y5311000D01*
Y5050400D01*
G01X7041160Y6150290D02*
Y6150300D01*
X7261250Y6370390D01*
Y7012550D01*
G01X8060530Y5386190D02*
Y5386200D01*
X7394380Y6052350D01*
Y7303160D01*
X7253870Y7443670D01*
Y7443680D01*
X6991340Y7706210D01*
X6724460D01*
G01X8336600Y2405020D02*
X7867420D01*
X7837420Y2375020D01*
Y1957940D01*
G01X7248900Y2173720D02*
Y2423990D01*
X7244050Y2428840D01*
G01D02*
X7426490D01*
X7623780Y2231550D01*
Y1957570D01*
G01D02*
Y1900110D01*
X7653770Y1870120D01*
X7941250D01*
X7966310Y1895180D01*
Y2298120D01*
X7996310Y2328120D01*
X8179600D01*
X8209600Y2298120D01*
Y2173830D01*
G01X8401000Y654000D02*
X8399030Y655970D01*
Y1228570D01*
G01X8147000Y654000D02*
X8202020Y709020D01*
Y1067630D01*
X8151500Y1118150D01*
Y1228590D01*
G01X8020000Y400000D02*
Y781390D01*
X7972160Y829230D01*
Y1061240D01*
X8021500Y1110580D01*
Y1228590D01*
G01X8399030Y1418570D02*
X8397930Y1419670D01*
Y1539920D01*
X8336600Y1601250D01*
Y2173830D01*
G01X8209600D02*
Y1777960D01*
X8151500Y1719860D01*
Y1418590D01*
G01X8336600Y2173830D02*
Y2405020D01*
G01D02*
X9067800D01*
X9176200Y2296620D01*
Y2173720D01*
G01X8557020Y6055570D02*
Y5230510D01*
G01X8212560Y6355790D02*
Y6553610D01*
X8197200Y6568970D01*
G01D02*
Y6866720D01*
X8530910Y7200430D01*
X9095410D01*
X9216910Y7078930D01*
X9496430D01*
X9530340Y7112840D01*
Y8064310D01*
X9446950Y8147700D01*
X9445590D01*
X9353060Y8240230D01*
X9239200D01*
G01X8085560Y6355790D02*
Y6557140D01*
X8097390Y6568970D01*
G01D02*
Y6837670D01*
X8157180Y6897460D01*
X8157220D01*
X8510190Y7250430D01*
X9213000D01*
X9239200Y7224230D01*
G01Y7478230D02*
X8688990D01*
X8301990Y7865230D01*
X8198870D01*
G01X8212620Y8176160D02*
Y7878980D01*
X8198870Y7865230D01*
G01X8085620Y8176160D02*
Y8038150D01*
X8023870Y7976400D01*
Y7865230D01*
G01X8085620Y8176160D02*
Y8342160D01*
X8237690Y8494230D01*
X9239200D01*
G01X7958620Y9056160D02*
Y8808860D01*
X8136070Y8631410D01*
X8813320D01*
X8930340Y8748430D01*
X9053450D01*
X9172260Y8629620D01*
X9313400D01*
X9352690Y8590330D01*
Y8409000D01*
X9313830Y8370140D01*
X9190570D01*
X9111510Y8291080D01*
Y8072240D01*
X8985200Y7945930D01*
Y7859230D01*
G01X8085620Y9056160D02*
Y8752580D01*
X8156790Y8681410D01*
X8792600D01*
X8909600Y8798410D01*
Y8798430D01*
X8985200Y8874030D01*
Y8875230D01*
G01X8408200Y10638280D02*
X8541320D01*
X8615720Y10712680D01*
X8800390D01*
X8800580Y10712870D01*
G01Y10842870D02*
X8608900D01*
X8579310Y10813280D01*
X8408200D01*
G01X8800580Y10907870D02*
X8610230D01*
X8542260Y10975840D01*
X8408730D01*
G01X8800580Y10972870D02*
X8685100D01*
X8507130Y11150840D01*
X8408730D01*
G01X9175720Y1629720D02*
Y2173240D01*
X9176200Y2173720D01*
G54D32*
X6570000Y252000D03*
X8835000D03*
X8837200Y6790230D03*
Y9055230D03*
G54D23*
X4968020Y8163990D03*
G54D14*
X1294750Y3919560D03*
Y4094560D03*
X2563750Y6072390D03*
Y5897390D03*
X2125200Y7637240D03*
Y7812240D03*
X2494380Y9973810D03*
Y10148810D03*
X2239930Y9974250D03*
Y10149250D03*
X1987460Y9974290D03*
Y10149290D03*
X3002040Y9977620D03*
Y10152620D03*
X2749870Y9975870D03*
Y10150870D03*
X3256480Y9978120D03*
Y10153120D03*
X5556690Y6173890D03*
Y6348890D03*
X5186650Y7464730D03*
Y7289730D03*
X6467660Y1690310D03*
X6467330Y1297490D03*
Y1472490D03*
X6467660Y1865310D03*
X6688390Y1691680D03*
X6840230Y1298070D03*
Y1473070D03*
X6688390Y1866680D03*
X6680290Y2732540D03*
Y2557540D03*
X6790630Y4533970D03*
Y4358970D03*
X7108310Y10568560D03*
Y10743560D03*
X7623780Y1782570D03*
Y1957570D03*
X7837420Y1782940D03*
Y1957940D03*
X7721650Y2733660D03*
Y2558660D03*
X7676310Y4748800D03*
Y4923800D03*
X7718860Y10568350D03*
Y10743350D03*
X8757600Y2173060D03*
Y1998060D03*
X8209720Y2999020D03*
Y3174020D03*
X8757190Y2734220D03*
Y2559220D03*
X8494550Y8929240D03*
Y9104240D03*
X8408200Y10638280D03*
Y10813280D03*
X8029360Y11110430D03*
Y10935430D03*
X8408730Y10975840D03*
Y11150840D03*
X9175720Y1454720D03*
Y1629720D03*
X9466110Y10215780D03*
Y10390780D03*
X9018700Y11618460D03*
Y11443460D03*
X9276260Y11618810D03*
Y11443810D03*
X9707010Y2532090D03*
Y2357090D03*
X9680700Y10215800D03*
Y10390800D03*
G54D42*
G01X3526780Y1380500D02*
Y1385600D01*
X3457900Y1454480D01*
X3390440D01*
G01X4968020Y8163990D02*
Y7759250D01*
X4804190Y7595420D01*
G01X5611030Y4965620D02*
Y5045320D01*
X5581030Y5075320D01*
X5492360D01*
G01X5212410Y8392960D02*
X5102220D01*
X4969160Y8259900D01*
Y8178270D01*
X4983440Y8163990D01*
G01D02*
X4968020D01*
G01X5259750Y8133300D02*
X5229060Y8163990D01*
X4983440D01*
G01X5225290Y8711480D02*
X5020530D01*
X4968020Y8763990D01*
G01X6790630Y4358970D02*
X6680080D01*
X6301570Y4737480D01*
Y5016320D01*
G01X5871830Y4771120D02*
X5786740D01*
X5741030Y4816830D01*
Y4965620D01*
G01X5676030Y5145620D02*
Y5303060D01*
G01X6301570Y5146320D02*
X6317060Y5161810D01*
Y5364750D01*
G01X6311520Y5526580D02*
X6382420D01*
X6450440Y5458560D01*
Y5213290D01*
X6383360Y5146210D01*
X6301680D01*
X6301570Y5146320D01*
G01X5940740Y5079140D02*
X6109390D01*
X6111570Y5081320D01*
G01X6301570D02*
X6467690D01*
G01X5938830Y5979750D02*
Y6013220D01*
X5884160Y6067890D01*
Y6168740D01*
G01X5819160D02*
Y5931840D01*
G01Y6358740D02*
Y6503750D01*
G01X6059580Y8154040D02*
Y7991750D01*
G01X6617210Y11110480D02*
X6616440Y11111250D01*
X6483020D01*
X6412120Y11040350D01*
Y10736300D01*
G01X6237750Y10300700D02*
X6247140Y10291310D01*
X6559270D01*
G01X6222120Y10606300D02*
X6222420Y10606000D01*
Y10316030D01*
X6237750Y10300700D01*
G01X6222120Y10736300D02*
Y10772380D01*
X6128530Y10865970D01*
X6000250D01*
X5998820Y10867400D01*
G01X6412120Y10606300D02*
Y10469330D01*
G01X6126610D02*
X5999000D01*
X5997850Y10470480D01*
G01X6412120Y10671300D02*
X6610070D01*
X6614740Y10666630D01*
G01X6222120Y10671300D02*
X6073770D01*
G01X6680290Y2732540D02*
X6993720D01*
X6994900Y2733720D01*
G01X6803560Y3031660D02*
Y2907790D01*
X6841160Y2870190D01*
X7078830D01*
X7121230Y2827790D01*
Y2734390D01*
X7121900Y2733720D01*
G01X7179110Y3708050D02*
X7041800D01*
X7016220Y3682470D01*
Y3433760D01*
X6964120Y3381660D01*
X6803560D01*
G01X6790630Y4358970D02*
X7105960D01*
X7111590Y4353340D01*
G01X7311190Y4962260D02*
X7331610Y4982680D01*
X7332170D01*
X7525420Y5175930D01*
Y5791960D01*
X7408530Y5908850D01*
X6571160D01*
G01X6614740Y10666630D02*
Y10514810D01*
X6647030Y10482520D01*
X6800300D01*
X6933740Y10349080D01*
X6933790D01*
G01X6789740Y10666630D02*
Y10837100D01*
G01X6617210Y10925500D02*
Y11110480D01*
G01X7899070Y1635790D02*
X8021710D01*
X8086500Y1571000D01*
Y1418590D01*
G01X8082600Y2733830D02*
X8083410Y2734640D01*
Y2872160D01*
X8003580Y2951990D01*
X7916100D01*
G01X7721650Y2733660D02*
X7375960D01*
X7375900Y2733720D01*
G01X7248900D02*
Y2829520D01*
X7293030Y2873650D01*
X7391240D01*
X7427110Y2909520D01*
Y3030980D01*
X7427800Y3031670D01*
G01X7816530Y3665680D02*
X7587810D01*
X7427800Y3505670D01*
Y3381670D01*
G01X8384090Y4131540D02*
X8713590D01*
X8828760Y4016370D01*
Y3942250D01*
X8708220Y3821710D01*
X7641190D01*
X7527530Y3708050D01*
X7354110D01*
G01X7671590Y4226340D02*
X7866330D01*
X8036540Y4396550D01*
Y4461750D01*
G01Y4588750D02*
X8033560Y4591730D01*
X7888880D01*
X7848880Y4551730D01*
Y4407690D01*
X7794530Y4353340D01*
X7671590D01*
G01X8647960Y3148600D02*
Y3508750D01*
X8859950Y3720740D01*
Y3721050D01*
X8900950Y3762050D01*
X8901260D01*
X9026090Y3886880D01*
Y4451220D01*
X8319490Y5157820D01*
Y5366540D01*
X7785980Y5900050D01*
Y5901830D01*
X7587260Y6100550D01*
Y8222240D01*
X7880160Y8515140D01*
X8058740D01*
G01X8209720Y3174020D02*
Y3471920D01*
X8249720Y3511920D01*
X8522380D01*
X8560170Y3474130D01*
Y3028110D01*
X8602380Y2985900D01*
X8779380D01*
X8865990Y3072510D01*
Y3600880D01*
X9111810Y3846700D01*
Y4490490D01*
X8405520Y5196780D01*
Y5403070D01*
X8223270Y5585320D01*
Y5586220D01*
X7673330Y6136160D01*
Y7546970D01*
X7829580Y7703220D01*
X8071240D01*
G01X7831560Y7235790D02*
Y7542900D01*
X7832010Y7543350D01*
G01X8032300D02*
X7832010D01*
G01X8265920Y9854440D02*
X7669280D01*
X7668720Y9853880D01*
G01X8464030Y1579350D02*
Y1418570D01*
G01Y1958970D02*
Y1579350D01*
G01X8086500Y1228590D02*
Y1041160D01*
X8093230Y1034430D01*
G01X8519350Y999760D02*
X8516600D01*
X8464030Y1052330D01*
Y1228570D01*
G01X8463600Y2173830D02*
Y1959400D01*
X8464030Y1958970D01*
G01X8472960Y3148600D02*
X8472660Y3148300D01*
Y2980940D01*
X8336600Y2844880D01*
Y2733830D01*
G01X8209600D02*
Y2998900D01*
X8209720Y2999020D01*
G01X8757190Y2734220D02*
X8463990D01*
X8463600Y2733830D01*
G01X8098360Y4291380D02*
Y4318170D01*
X8149250Y4369060D01*
X8592150D01*
X8918940Y4042270D01*
Y3905640D01*
X8678980Y3665680D01*
X7991530D01*
G01X8705170Y4461720D02*
X8386570D01*
X8386540Y4461750D01*
G01Y4588750D02*
X8724250D01*
X8810930Y4502070D01*
Y4289220D01*
G01X8265920Y9854440D02*
Y9727800D01*
G01X8473270Y9854440D02*
X8265920D01*
G01X10230310Y3456000D02*
X10552110Y3777800D01*
Y4249310D01*
X10048140Y4753280D01*
Y6874000D01*
X9738580Y7183560D01*
Y9674500D01*
X9558640Y9854440D01*
X8663270D01*
G01X8143630Y9513880D02*
Y9724090D01*
X8141840Y9725880D01*
G01X8346280Y9517150D02*
Y9748520D01*
X8386280Y9788520D01*
X8472350D01*
X8473270Y9789440D01*
G01X8142880Y9981240D02*
X8777220D01*
X9196310Y10400330D01*
Y10860220D01*
X9308960Y10972870D01*
X9490580D01*
G01X8813090Y9517150D02*
Y9770270D01*
X8793920Y9789440D01*
X8663270D01*
G01X8813090Y9517150D02*
X8637810D01*
G01X8029360Y10935430D02*
Y10377350D01*
X8217140Y10189570D01*
X8843750D01*
X9104340Y10450160D01*
Y10871720D01*
X9271050Y11038430D01*
X9490020D01*
X9490580Y11037870D01*
G01X9707010Y2532090D02*
X9092410D01*
X9049200Y2575300D01*
Y2733720D01*
G01X9176200D02*
Y2823010D01*
X9273040Y2919850D01*
Y3031130D01*
X9272500Y3031670D01*
G01Y3381670D02*
Y3662120D01*
X9273380Y3663000D01*
G01X9528560Y8265120D02*
X9634960Y8158720D01*
Y7135370D01*
X9944690Y6825640D01*
Y4551000D01*
X9448380Y4054690D01*
Y3663000D01*
G01X9276260Y11443810D02*
Y11237180D01*
X8995120Y10956040D01*
Y10800830D01*
X8972160Y10777870D01*
X8800580D01*
G01X9018700Y11443460D02*
Y11105130D01*
X8951040Y11037470D01*
X8800980D01*
X8800580Y11037870D01*
G01X9923500Y2217620D02*
X9778450D01*
X9707010Y2289060D01*
Y2357090D01*
G01X10227000Y3202000D02*
X10535770D01*
X10536120Y3201650D01*
G01X10227000Y2694000D02*
X10096920Y2824080D01*
Y3325840D01*
X9973000Y3449760D01*
Y3456000D01*
G01X10227000D02*
X10230310D01*
G01D02*
X10535980D01*
X10536220Y3456240D01*
G01X10128000Y8043500D02*
X9844150Y8327350D01*
Y10702930D01*
X9704210Y10842870D01*
X9490580D01*
G01Y10907870D02*
X9759930D01*
X9951600Y10716200D01*
Y8495360D01*
X10126460Y8320500D01*
X10128000D01*
G01X9490580Y10647870D02*
Y10712870D01*
G01Y10777870D02*
X9623580D01*
X9677280Y10724170D01*
G01X10866550Y3329390D02*
Y3257940D01*
X10810260Y3201650D01*
X10711120D01*
G01X10711220Y3456240D02*
X10808480D01*
X10866550Y3398170D01*
Y3329390D01*
G54D15*
X1734470Y4340020D03*
Y4848020D03*
X1294470D03*
Y4340020D03*
G54D33*
X6750000Y400000D03*
X7004000D03*
X7131000Y654000D03*
X6877000D03*
X7258000Y400000D03*
X7512000D03*
X7766000D03*
X7893000Y654000D03*
X7639000D03*
X7385000D03*
X8020000Y400000D03*
X8274000D03*
X8528000D03*
X8655000Y654000D03*
X8401000D03*
X8147000D03*
X8985200Y7097230D03*
X9239200Y6970230D03*
X8985200Y7859230D03*
Y7605230D03*
Y7351230D03*
X9239200Y7224230D03*
Y7478230D03*
Y7732230D03*
X8985200Y8621230D03*
Y8367230D03*
Y8113230D03*
X9239200Y7986230D03*
Y8240230D03*
Y8494230D03*
X8985200Y8875230D03*
X9239200Y8748230D03*
X10128000Y7766500D03*
Y8597500D03*
Y8320500D03*
Y8043500D03*
Y8874500D03*
X10412000Y7905000D03*
Y8182000D03*
Y8459000D03*
Y8736000D03*
G54D24*
X4968020Y8763990D03*
G54D43*
G01X1262740Y8848240D02*
X1103780D01*
X1098590Y8843050D01*
G01X1599100Y9203670D02*
X1512700D01*
X1457830Y9258540D01*
Y9402470D01*
G01X1437740Y8848240D02*
X1593730D01*
X1594310Y8848820D01*
G01X1632830Y9402470D02*
Y9437060D01*
X1779100Y9583330D01*
G01X2769480Y6046810D02*
Y5977840D01*
X2689030Y5897390D01*
X2563750D01*
G01X2240650Y10787740D02*
Y10149970D01*
X2239930Y10149250D01*
G01X1986650Y10787740D02*
Y10150100D01*
X1987460Y10149290D01*
G01X2494650Y10787740D02*
Y10149080D01*
X2494380Y10148810D01*
G01X3059810Y1314020D02*
Y1960550D01*
G01X3260440Y1274480D02*
X3099350D01*
X3059810Y1314020D01*
G01X3002650Y10787740D02*
Y10153230D01*
X3002040Y10152620D01*
G01X2748650Y10787740D02*
Y10152090D01*
X2749870Y10150870D01*
G01X3256650Y10787740D02*
Y10153290D01*
X3256480Y10153120D01*
G01X5556690Y6173890D02*
Y6023820D01*
G01Y6348890D02*
X5329480D01*
G01X5871830Y4771120D02*
Y4528920D01*
X5871890Y4528860D01*
G01X6046830Y4845370D02*
Y4771120D01*
G01X6444910Y4276200D02*
Y4415930D01*
X6331980Y4528860D01*
X6046890D01*
G01X6111570Y5016320D02*
X6109370Y5014120D01*
Y4923940D01*
X6046830Y4861400D01*
Y4845370D01*
G01X6142060Y5364750D02*
Y5525490D01*
G01X6570310Y7539900D02*
X6405870D01*
G01X6234580Y8154040D02*
X6539500D01*
X6561620Y8176160D01*
G01X6234210Y8412050D02*
X6598890D01*
X6688730Y8322210D01*
Y8176270D01*
X6688620Y8176160D01*
G01X6815620D02*
Y8619750D01*
X6770670Y8664700D01*
X6234580D01*
G01X6680290Y2557540D02*
X6681410Y2558660D01*
X7721650D01*
G01X6676560Y3210540D02*
Y3381660D01*
G01Y3031660D02*
Y3210540D01*
G01X6815760Y4087020D02*
Y3868940D01*
X6816540Y3868160D01*
G01X6721580Y3682260D02*
X6715830Y3688010D01*
X6714870D01*
X6641540Y3761340D01*
Y3868160D01*
G01X7259910Y3963930D02*
X7120520D01*
X7111590Y3972860D01*
Y4099340D01*
G01Y4226340D02*
X6863020D01*
X6815760Y4179080D01*
Y4087020D01*
G01X6570310Y7539900D02*
X6561560Y7531150D01*
Y7235790D01*
G01X6942560D02*
Y7421040D01*
X6898830Y7464770D01*
G01X6745310Y7539900D02*
X6823700D01*
X6898830Y7464770D01*
G01X6942620Y8176160D02*
Y7863280D01*
X6943250Y7862650D01*
G01X6768250D02*
X6494520D01*
G01X6570280Y9329190D02*
X6561620Y9320530D01*
Y9056160D01*
G01X6909910Y9296310D02*
Y9318090D01*
X7006250Y9414430D01*
G01X6909910Y9296310D02*
X6877030Y9329190D01*
X6745280D01*
G01X6942620Y9056160D02*
Y8839300D01*
G01Y9056160D02*
Y9263600D01*
X6909910Y9296310D01*
G01X7108720Y9980880D02*
X6901480D01*
X6836780Y10045580D01*
X6734270D01*
G01Y10291310D02*
Y10045580D01*
G01X7108720Y9853880D02*
X6881770D01*
X6834680Y9806790D01*
X6734280D01*
G01X7108720Y9853880D02*
X7260810D01*
X7310810Y9803880D01*
Y8162260D01*
G01X7108720Y10107880D02*
X7082570Y10134030D01*
Y10349080D01*
G01X7108720Y9726880D02*
X6919900D01*
G01X7082570Y10349080D02*
Y10542820D01*
X7108310Y10568560D01*
G01X7082570Y10349080D02*
X6933790D01*
G01X7111410Y10983490D02*
Y10746660D01*
X7108310Y10743560D01*
G01X7111410Y11110490D02*
X6792220D01*
X6792210Y11110480D01*
G01X7741100Y2951990D02*
X7662950D01*
X7530240Y2819280D01*
G01X7900990Y2687280D02*
Y2588660D01*
X7870990Y2558660D01*
X7721650D01*
G01X7300800Y3031670D02*
Y3208290D01*
G01D02*
Y3381670D01*
G01X7986600Y4099340D02*
X7671590D01*
G01Y4480340D02*
Y4744080D01*
X7676310Y4748800D01*
G01Y4923800D02*
X8071520D01*
G01X7967880Y9981240D02*
X7967520Y9980880D01*
X7668720D01*
G01X7966840Y9725880D02*
X7954560D01*
X7953560Y9726880D01*
X7668720D01*
G01Y10107880D02*
X7782840D01*
X7818590Y10143630D01*
Y10316000D01*
X7786010Y10348580D01*
X7696960D01*
G01X7671410Y11110490D02*
X7670660Y11111240D01*
X7400870D01*
X7351710Y11062080D01*
Y10717020D01*
G01X7718860Y10743350D02*
X7834580D01*
X7864580Y10773350D01*
Y10952830D01*
X7833920Y10983490D01*
X7671410D01*
G01X7718860Y10743350D02*
X7553040D01*
X7526710Y10717020D01*
G01X7521960Y10348580D02*
X7526710Y10353330D01*
Y10540850D01*
G01Y10717020D02*
Y10540850D01*
G01X7257570Y10349080D02*
Y10488900D01*
X7289730Y10521060D01*
G01X7718860Y10568350D02*
X7900990D01*
G01X8029360Y11110430D02*
X7671470D01*
X7671410Y11110490D01*
G01Y11364490D02*
X7841900D01*
G01X8463600Y2173830D02*
X8756830D01*
X8757600Y2173060D01*
G01X8608460Y2557980D02*
X8609700Y2559220D01*
X8757190D01*
G01X8290410Y3980550D02*
Y4025140D01*
X8216210Y4099340D01*
X8161600D01*
G01X8386540Y4588750D02*
X8036540D01*
G01X8212560Y7235790D02*
Y7538090D01*
X8207300Y7543350D01*
G01X8379060Y7546110D02*
X8373070D01*
X8370310Y7543350D01*
X8207300D01*
G01X8212620Y9056160D02*
X8165620Y9103160D01*
Y9206880D01*
X8196250Y9237510D01*
X8202620D01*
X8212620Y9247510D01*
G01X8337870Y8802260D02*
X8445170D01*
X8494550Y8851640D01*
Y8929240D01*
G01X8346280Y9517150D02*
X8146900D01*
X8143630Y9513880D01*
G01X8462810Y9517150D02*
X8346280D01*
G01X9175720Y1454720D02*
X8786560D01*
X8757600Y1483680D01*
Y1998060D01*
G01X9443730Y1452720D02*
X9177720D01*
X9175720Y1454720D01*
G01X9430200Y2173720D02*
Y1882560D01*
G01X8757600Y1998060D02*
X8995890D01*
X9045890Y2048060D01*
Y2170410D01*
X9049200Y2173720D01*
G01X9145500Y3381670D02*
Y3208300D01*
G01Y3031670D02*
Y3208300D01*
G01X9466110Y10215780D02*
Y10060800D01*
G01X9490580Y10647870D02*
Y10415250D01*
X9466110Y10390780D01*
G01D02*
X9680680D01*
X9680700Y10390800D01*
G01X9466110Y10215780D02*
X9680680D01*
X9680700Y10215800D01*
G01Y10390800D02*
Y10542140D01*
G54D16*
X1457830Y9402470D03*
X1632830D03*
X1262740Y8848240D03*
X1437740D03*
X2164150Y4344280D03*
X1989150D03*
X2338560Y6586280D03*
X2513560D03*
X2336650Y7106440D03*
X2511650D03*
X2884810Y1314020D03*
X3059810D03*
X3656880Y6044060D03*
X3831880D03*
X3588540Y7181040D03*
X3763540D03*
X5553120Y7118740D03*
X5389780Y7118680D03*
X5214780D03*
X5378110Y7442690D03*
X5553110D03*
X6046890Y4528860D03*
X5871890D03*
X5871830Y4771120D03*
X6046830D03*
X6269910Y4276200D03*
X6444910D03*
X6142060Y5364750D03*
X6317060D03*
X6095470Y6358960D03*
X6270470D03*
X5728120Y7118740D03*
X6095480Y6877390D03*
X6270480D03*
X6059210Y8412050D03*
X6234210D03*
X6059580Y8154040D03*
X6234580D03*
X6059580Y8664700D03*
X6234580D03*
X5997850Y10470480D03*
X5822850D03*
X5998820Y10867400D03*
X5823820D03*
X7179110Y3708050D03*
X6641540Y3868160D03*
X6816540D03*
X6640760Y4087020D03*
X6815760D03*
X7090950Y4761580D03*
X6745310Y7539900D03*
X6570310D03*
X6768250Y7862650D03*
X6943250D03*
X6745280Y9329190D03*
X6570280D03*
X6559280Y9806790D03*
X6734280D03*
X6559270Y10045580D03*
X6734270D03*
X6614740Y10666630D03*
X6789740D03*
X6559270Y10291310D03*
X6734270D03*
X7082570Y10349080D03*
X6617210Y11110480D03*
X6792210D03*
X7916100Y2951990D03*
X7741100D03*
X7816530Y3665680D03*
X7991530D03*
X7354110Y3708050D03*
X7265950Y4761580D03*
X7986600Y4099340D03*
X7966840Y9725880D03*
X7967880Y9981240D03*
X7257570Y10349080D03*
X7696960Y10348580D03*
X7521960D03*
X7351710Y10717020D03*
X7526710D03*
X8472960Y3148600D03*
X8647960D03*
X8161600Y4099340D03*
X8032300Y7543350D03*
X8207300D03*
X8198870Y7865230D03*
X8023870D03*
X8141840Y9725880D03*
X8142880Y9981240D03*
X8462810Y9517150D03*
X8637810D03*
X9273380Y3663000D03*
X9448380D03*
X10536120Y3201650D03*
X10711120D03*
X10536220Y3456240D03*
X10711220D03*
G54D34*
X6994900Y2173720D03*
X7121900D03*
Y2733720D03*
X6994900D03*
X7248900Y2173720D03*
X7375900D03*
Y2733720D03*
X7248900D03*
X8082600Y2173830D03*
X8209600D03*
X8336600D03*
X8463600D03*
Y2733830D03*
X8336600D03*
X8209600D03*
X8082600D03*
X9049200Y2173720D03*
X9176200D03*
X9303200D03*
X9430200D03*
Y2733720D03*
X9303200D03*
X9176200D03*
X9049200D03*
G54D25*
X5149810Y1961950D03*
G54D44*
G01X2884810Y1314020D02*
X2810220D01*
X2552800Y1571440D01*
G01X4849810Y1961950D02*
Y1747940D01*
X4929810Y1667940D01*
X5898570D01*
X5902170Y1664340D01*
G01X4653640Y1962030D02*
X4653720Y1961950D01*
X4849810D01*
G01X5338420Y1962030D02*
X5149890D01*
X5149810Y1961950D01*
G01X5902170Y1664340D02*
Y1819380D01*
G01X5905730Y1079600D02*
Y1460780D01*
X5902170Y1464340D01*
G01X6032720Y4278470D02*
X6267640D01*
X6269910Y4276200D01*
G01X6603740D02*
X6444910D01*
G01X6750000Y400000D02*
X6467330Y682670D01*
Y1297490D01*
G01D02*
X6839650D01*
X6840230Y1298070D01*
G01Y1473070D02*
X7022500D01*
G01X7623780Y1782570D02*
X7486900D01*
G01X7837420Y1782940D02*
X7768990D01*
X7762440Y1776390D01*
X7698390D01*
X7691840Y1782940D01*
X7624150D01*
X7623780Y1782570D01*
G01X7265950Y4761580D02*
Y4611600D01*
G54D17*
X1478650Y10787740D03*
X1732650D03*
Y11041740D03*
X1478650D03*
X1986650Y10787740D03*
X2240650D03*
X2494650D03*
Y11041740D03*
X2240650D03*
X1986650D03*
X2748650Y10787740D03*
X3002650D03*
X3256650D03*
Y11041740D03*
X3002650D03*
X2748650D03*
X3510650Y10787740D03*
X3764650D03*
Y11041740D03*
X3510650D03*
X6273730Y983250D03*
G54D26*
X5611030Y4965620D03*
X5676030Y5145620D03*
X5741030Y4965620D03*
G54D35*
X7173800Y3031670D03*
X6803560Y3031660D03*
X6676560D03*
X6549560D03*
X7173800Y3381670D03*
X6549560Y3381660D03*
X6676560D03*
X6803560D03*
X6942560Y6355790D03*
X6815560D03*
X6688560D03*
X6561560D03*
Y7235790D03*
X6688560D03*
X6815560D03*
X6942560D03*
X6942620Y8176160D03*
X6815620D03*
X6688620D03*
X6561620D03*
Y9056160D03*
X6688620D03*
X6815620D03*
X6942620D03*
X7427800Y3031670D03*
X7300800D03*
Y3381670D03*
X7427800D03*
X7958560Y6355790D03*
X7831560D03*
Y7235790D03*
X7958560D03*
X7958620Y8176160D03*
X7831620D03*
Y9056160D03*
X7958620D03*
X8212560Y6355790D03*
X8085560D03*
Y7235790D03*
X8212560D03*
X8212620Y8176160D03*
X8085620D03*
Y9056160D03*
X8212620D03*
X9272500Y3031670D03*
X9145500D03*
X9018500D03*
Y3381670D03*
X9145500D03*
X9272500D03*
G54D45*
G01X6027420Y403430D02*
X5652570D01*
X5606000Y450000D01*
G01Y704000D02*
X6026850D01*
X6027420Y703430D01*
G01X7131000Y654000D02*
X6840230Y944770D01*
Y1298070D01*
G54D18*
X2050000Y450000D03*
X2304000D03*
X2558000D03*
Y704000D03*
X2304000D03*
X2050000D03*
X2812000Y450000D03*
X3066000D03*
X3320000D03*
Y704000D03*
X3066000D03*
X2812000D03*
X3574000Y450000D03*
X3828000D03*
X4082000D03*
Y704000D03*
X3828000D03*
X3574000D03*
X4336000Y450000D03*
X4590000D03*
X4844000D03*
Y704000D03*
X4590000D03*
X4336000D03*
X5098000Y450000D03*
X5352000D03*
X5606000D03*
Y704000D03*
X5352000D03*
X5098000D03*
X9973000Y2440000D03*
X10227000D03*
X9973000Y3202000D03*
Y2948000D03*
Y2694000D03*
X10227000D03*
Y2948000D03*
Y3202000D03*
X9973000Y3456000D03*
X10227000D03*
G54D27*
X6027420Y403430D03*
G54D36*
X7111590Y4480340D03*
Y4353340D03*
Y4226340D03*
Y4099340D03*
X7108720Y10107880D03*
Y9980880D03*
Y9853880D03*
Y9726880D03*
X7111410Y11364490D03*
Y11237490D03*
Y11110490D03*
Y10983490D03*
X7671590Y4099340D03*
Y4226340D03*
Y4353340D03*
Y4480340D03*
X7668720Y9726880D03*
Y9853880D03*
Y9980880D03*
Y10107880D03*
X7671410Y10983490D03*
Y11110490D03*
Y11237490D03*
Y11364490D03*
G54D19*
X3260440Y1454480D03*
X3325440D03*
X3390440D03*
Y1274480D03*
X3260440D03*
G54D37*
X8036540Y4461750D03*
Y4588750D03*
Y4715750D03*
X8386540D03*
Y4588750D03*
Y4461750D03*
G54D28*
X6027420Y703430D03*
G54D29*
X5902170Y1664340D03*
Y1464340D03*
G54D38*
X9490580Y10647870D03*
Y10712870D03*
Y10777870D03*
Y10842870D03*
X8800580D03*
Y10777870D03*
Y10712870D03*
Y10647870D03*
X9490580Y10907870D03*
Y10972870D03*
Y11037870D03*
Y11102870D03*
Y11167870D03*
Y11232870D03*
X8800580D03*
Y11167870D03*
Y11102870D03*
Y11037870D03*
Y10972870D03*
Y10907870D03*
G54D39*
X10150000Y1856000D03*
Y4040000D03*
M02*
