G04 ================== begin FILE IDENTIFICATION RECORD ==================*
G04 Layout Name:  C:\PSD_DATA\Projects\Modulator2\worklib\interf_m8_v1\physical\interf_m8_v9_nev_exp.brd*
G04 Film Name:    GND*
G04 File Format:  Gerber RS274X*
G04 File Origin:  15.2-s015*
G04 Origin Date:  Fri Nov 09 13:00:26 2012*
G04 ================== end FILE IDENTIFICATION RECORD ====================*
%FSLAX55Y55*MOMM*%
%IR0*IPPOS*OFA0.00000B0.00000*MIA0B0*SFA1.00000B1.00000*%
%ADD10C,.5*%
%ADD13C,2.*%
%ADD17C,4.*%
%ADD16C,1.4*%
%ADD11C,1.6*%
%ADD12C,3.5*%
%ADD14C,1.8*%
%ADD18C,3.8*%
%ADD15C,1.75*%
%ADD19C,.3*%
%ADD23C,2.2002*%
%ADD20C,1.3002*%
%ADD22C,2.4002*%
%ADD28C,4.6002*%
%ADD27C,3.3312*%
%ADD24C,3.4204*%
%ADD26C,4.8002*%
%ADD21C,7.4004*%
%ADD25C,3.3898*%
G75*
%LPD*%
G75*
G36*
G01X18680Y20570D02*
Y11797540D01*
X7361950D01*
Y8225240D01*
G02X7346280Y8216740I-10140J0D01*
G03X7248230Y8179870I-35471J-54480D01*
G01X7247870Y8178600D01*
X6799850Y7730570D01*
G02X6783470Y7733490I-7172J7169D01*
G03X6697190Y7647200I-59009J-27277D01*
G02X6700110Y7630820I-4249J-9208D01*
G01X4624560Y5555290D01*
X4623980Y5554960D01*
G03X4612550Y5546200I27460J-47667D01*
G01X4608650Y5542300D01*
X4283440D01*
X4282240Y5543020D01*
G03Y5431560I-33471J-55730D01*
G01X4283440Y5432280D01*
X4631440D01*
G03X4670340Y5448390I0J55020D01*
G01X4681250Y5459310D01*
X4681830Y5459640D01*
G03X4693260Y5468400I-27460J47667D01*
G01X6786400Y7561520D01*
G03X6788460Y7563700I-38939J38859D01*
G01X6792700Y7568430D01*
G03X6798760Y7576600I-40963J36716D01*
G01X6799080Y7577120D01*
X6854070Y7632120D01*
X6858350Y7634980D01*
G03X6866680Y7641810I-30546J45749D01*
G01X7323310Y8098450D01*
X7324760Y8098760D01*
G03X7346280Y8107780I-13963J63495D01*
G02X7361950Y8099280I5530J-8500D01*
G01Y6510430D01*
X8069090D01*
X8070110Y6509960D01*
G03X8124670I27280J59010D01*
G01X8125690Y6510430D01*
X8168900D01*
X8169920Y6509960D01*
G03X8224480I27280J59010D01*
G01X8225500Y6510430D01*
X8996910D01*
Y4813530D01*
X7361760D01*
Y3565270D01*
X7363430Y3563600D01*
X7604420D01*
Y3555080D01*
X7601200Y3553810D01*
G03X7591520Y3549040I23796J-60497D01*
G01X7590320Y3548320D01*
X7131640D01*
X6938260Y3741700D01*
G02X6947420Y3758810I7171J7168D01*
G03X6896400Y3809830I12730J63750D01*
G02X6879290Y3800670I-9942J-1989D01*
G01X6731920Y3948040D01*
X6490870D01*
X6489670Y3948760D01*
G03Y3837300I-33471J-55730D01*
G01X6490870Y3838020D01*
X6686340D01*
X6885800Y3638560D01*
G02X6879180Y3621270I-7171J-7167D01*
G03X6849220Y3612080I3523J-64916D01*
G01X6848020Y3611360D01*
X6765800D01*
G02X6759840Y3629700I0J10138D01*
G03X6683320I-38260J52560D01*
G02X6677360Y3611360I-5960J-8202D01*
G01X6307620D01*
X5707770Y4211210D01*
Y4568760D01*
X5708440Y4569930D01*
G03X5596970Y4567700I-56404J32328D01*
G01X5597750Y4566470D01*
Y4384960D01*
G02X5580710Y4377530I-10140J0D01*
G03Y4282310I-44269J-47610D01*
G02X5597750Y4274880I6900J-7430D01*
G01Y4165630D01*
X6262040Y3501340D01*
X6848020D01*
X6849220Y3500620D01*
G03X6947610Y3552840I33474J55731D01*
G02X6964900Y3559460I10123J-551D01*
G01X7086060Y3438300D01*
X7590320D01*
X7591520Y3437580D01*
G03X7663960Y3545340I33469J55729D01*
G02X7670040Y3563600I6080J8118D01*
G01X9253310D01*
Y2337270D01*
X4615910D01*
X4614720Y2334400D01*
Y2189650D01*
X4240680D01*
Y1497480D01*
X4406930Y1331230D01*
X5358490D01*
X5369950Y1319770D01*
Y907030D01*
X5374350Y902630D01*
X5963060D01*
Y20570D01*
X18680D01*
G37*
G36*
G01X6003070Y20600D02*
Y942640D01*
X5409960D01*
Y1336340D01*
X5375060Y1371240D01*
X4423500D01*
X4280690Y1514050D01*
Y2149640D01*
X4654730D01*
Y2297260D01*
X9293320D01*
Y2307240D01*
X9585050D01*
Y2098690D01*
X9815000D01*
X9815120Y2098570D01*
X9826590D01*
Y1313250D01*
X11180960D01*
Y20600D01*
X6003070D01*
G37*
G36*
G01X9866600Y1353260D02*
Y2103670D01*
X9856770Y2113500D01*
Y2130790D01*
X9839480D01*
X9831570Y2138700D01*
X9625060D01*
Y2347250D01*
X9293320D01*
Y3579050D01*
X9268760Y3603610D01*
X9174940D01*
G02X9165020Y3615880I0J10145D01*
G03X9037900I-63560J13645D01*
G02X9027980Y3603610I-9920J-2125D01*
G01X7401770D01*
Y4773520D01*
X9036920D01*
Y4779250D01*
X11179720D01*
Y2149420D01*
X11180940Y2148200D01*
Y1353280D01*
X11164110D01*
X11164090Y1353260D01*
X9866600D01*
G37*
G36*
G01X7434180Y6556290D02*
X7426950Y6556300D01*
X7399370D01*
Y11797300D01*
X11182590D01*
Y6556300D01*
X8711920D01*
Y6556290D01*
X8272310D01*
G02X8262170Y6566770I0J10146D01*
G03X8151590Y6615290I-64971J2197D01*
G01X8150890Y6614600D01*
X8147290Y6613100D01*
X8143700Y6614600D01*
X8143000Y6615290D01*
G03X8032420Y6566770I-45609J-46323D01*
G02X8022280Y6556290I-10140J-334D01*
G01X7434180D01*
G37*
G36*
G01X9038680Y4813650D02*
Y6510430D01*
X11179720D01*
Y4813650D01*
X9038680D01*
G37*
%LPC*%
G75*
G36*
G01X1596460Y10732760D02*
G02X1423670Y10905550I-117812J54978D01*
G03Y10923930I-4288J9190D01*
G02X1533630I54980J117811D01*
G03Y10905550I4288J-9190D01*
G02X1596460Y10842720I-54981J-117811D01*
G03X1614840I9190J4288D01*
G02X1850460I117810J-54982D01*
G03X1868840I9190J4288D01*
G02X2104460I117810J-54982D01*
G03X2122840I9190J4288D01*
G02X2358460I117810J-54982D01*
G03X2376840I9190J4288D01*
G02X2612460I117810J-54982D01*
G03X2630840I9190J4288D01*
G02X2866460I117810J-54982D01*
G03X2884840I9190J4288D01*
G02X3120460I117810J-54982D01*
G03X3138840I9190J4288D01*
G02X3374460I117810J-54982D01*
G03X3392840I9190J4288D01*
G02X3628460I117810J-54982D01*
G03X3646840I9190J4288D01*
G02Y10732760I117811J-54980D01*
G03X3628460I-9190J-4288D01*
G02X3392840I-117810J54982D01*
G03X3374460I-9190J-4288D01*
G02X3138840I-117810J54982D01*
G03X3120460I-9190J-4288D01*
G02X2884840I-117810J54982D01*
G03X2866460I-9190J-4288D01*
G02X2630840I-117810J54982D01*
G03X2612460I-9190J-4288D01*
G02X2376840I-117810J54982D01*
G03X2358460I-9190J-4288D01*
G02X2122840I-117810J54982D01*
G03X2104460I-9190J-4288D01*
G02X1868840I-117810J54982D01*
G03X1850460I-9190J-4288D01*
G02X1614840I-117810J54982D01*
G03X1596460I-9190J-4288D01*
G37*
G36*
G01X317030Y8707510D02*
G02X250170I-33430J-115260D01*
G03Y8726990I-2820J9740D01*
G02Y8957510I33430J115260D01*
G03Y8976990I-2820J9740D01*
G02X281020Y9212230I33432J115258D01*
G01Y9222370D01*
G02X286280I2630J119980D01*
G01Y9212230D01*
G02X317030Y8976990I-2680J-119980D01*
G03Y8957510I2820J-9740D01*
G02Y8726990I-33430J-115260D01*
G03Y8707510I2820J-9740D01*
G37*
G36*
G01X5310770Y7028100D02*
G02X5310050Y6931040I42891J-48851D01*
G03X5296550Y6931140I-6806J-7519D01*
G02X5297270Y7028200I-42891J48851D01*
G03X5310770Y7028100I6806J7519D01*
G37*
G36*
G01X1828420Y6813280D02*
G02X1744510Y6890600I-63074J15741D01*
G01X1747950Y6891760D01*
Y8645330D01*
X1806700Y8704080D01*
X1807050Y8705440D01*
G02X1885860Y8626630I63068J-15742D01*
G01X1884500Y8626280D01*
X1857970Y8599750D01*
Y7653910D01*
G03X1873030Y7645050I10136J0D01*
G02Y7531330I31519J-56860D01*
G03X1857970Y7522470I-4924J-8860D01*
G01Y6866630D01*
G02X1841860Y6827730I-55020J0D01*
G01X1828770Y6814640D01*
X1828420Y6813280D01*
G37*
G36*
G01X1589740Y6765450D02*
G02X1550560Y6799090I-58455J-28446D01*
G03X1562690Y6813210I3012J9682D01*
G02X1601870Y6779570I58455J28446D01*
G03X1589740Y6765450I-3012J-9682D01*
G37*
G36*
G01X3660800Y6286960D02*
X1450600D01*
X891930Y6845630D01*
Y8010270D01*
X1037500Y8155840D01*
X1037850Y8157200D01*
G02X1116660Y8078390I63068J-15742D01*
G01X1115300Y8078040D01*
X1001950Y7964690D01*
Y6891210D01*
X1496180Y6396980D01*
X3361710D01*
G03X3371510Y6409700I0J10135D01*
G02X3497270I62880J16508D01*
G03X3507070Y6396980I9800J-2585D01*
G01X3615220D01*
X3821110Y6602870D01*
X3827090D01*
X4324940Y7100720D01*
X4586000D01*
X4689280Y6997440D01*
Y6927260D01*
X4690000Y6926060D01*
G02X4578540I-55730J-33471D01*
G01X4579260Y6927260D01*
Y6951860D01*
X4540420Y6990700D01*
X4370520D01*
X3872670Y6492850D01*
X3866690D01*
X3660800Y6286960D01*
G37*
G36*
G01X5636540Y6016230D02*
G02X5601730Y5957450I30188J-57575D01*
G03X5586880Y5966250I-10139J-180D01*
G02X5621690Y6025030I-30188J57575D01*
G03X5636540Y6016230I10139J180D01*
G37*
G36*
G01X5883350Y5921530D02*
G02X5858500Y5983600I-64189J10311D01*
G03X5874640Y5990060I6132J8073D01*
G02X5899490Y5927990I64189J-10311D01*
G03X5883350Y5921530I-6132J-8073D01*
G37*
G36*
G01X2355780Y5847370D02*
G02Y5958830I-33471J55730D01*
G01X2356980Y5958110D01*
X3942390D01*
X4164270Y6179990D01*
X4164620Y6181350D01*
G02X4243430Y6102540I63068J-15742D01*
G01X4242070Y6102190D01*
X3987970Y5848090D01*
X2356980D01*
X2355780Y5847370D01*
G37*
G36*
G01X6892750Y5449780D02*
G02X6892410Y5498620I-60419J24001D01*
G03X6911200Y5498750I9369J3873D01*
G02X6911540Y5449910I60419J-24001D01*
G03X6892750Y5449780I-9369J-3873D01*
G37*
G36*
G01X5059250Y4748450D02*
G02Y4859910I-33471J55730D01*
G01X5060450Y4859190D01*
X5903590D01*
X6986150Y5941750D01*
Y6115620D01*
X6985430Y6116820D01*
G02X7096890I55730J33471D01*
G01X7096170Y6115620D01*
Y5896170D01*
X5949170Y4749170D01*
X5060450D01*
X5059250Y4748450D01*
G37*
G36*
G01X6518120Y4120490D02*
G02X6406660I-55730J-33471D01*
G01X6407380Y4121690D01*
Y4755450D01*
X6406490Y4756750D01*
G02X6517950Y4764130I53532J36882D01*
G01X6517400Y4763050D01*
Y4121690D01*
X6518120Y4120490D01*
G37*
G36*
G01X677220Y3458750D02*
G02X523600I-76810J-92210D01*
G03Y3474330I-6490J7790D01*
G02X677220I76810J92210D01*
G03Y3458750I6490J-7790D01*
G37*
G36*
G01X6096840Y3167840D02*
G02Y3223100I-58849J27630D01*
G03X6115190I9175J4312D01*
G02Y3167840I58849J-27630D01*
G03X6096840I-9175J-4312D01*
G37*
G36*
G01X3253080Y1570860D02*
G02X3251760Y1636060I-56890J31462D01*
G03X3269300Y1636410I8669J5260D01*
G02X3270620Y1571210I56890J-31462D01*
G03X3253080Y1570860I-8669J-5260D01*
G37*
G36*
G01X2309550Y1161520D02*
G02X2255690Y1162010I-27468J-58921D01*
G03X2255860Y1180470I-4117J9269D01*
G02X2245000Y1291910I27460J58925D01*
G03X2245330Y1308040I-5979J8191D01*
G02X2324100Y1306410I40455J50890D01*
G03X2323770Y1290280I5979J-8191D01*
G02X2309720Y1179980I-40451J-50892D01*
G03X2309550Y1161520I4117J-9269D01*
G37*
G36*
G01X2167640Y654820D02*
G02Y753180I-117641J49180D01*
G03X2186360I9360J3907D01*
G02X2421640I117640J-49183D01*
G03X2440360I9360J3907D01*
G02X2675640I117640J-49183D01*
G03X2694360I9360J3907D01*
G02X2929640I117640J-49183D01*
G03X2948360I9360J3907D01*
G02X3183640I117640J-49183D01*
G03X3202360I9360J3907D01*
G02X3437640I117640J-49183D01*
G03X3456360I9360J3907D01*
G02X3629020Y819030I117643J-49179D01*
G03X3642440Y832750I4369J9150D01*
G02X3684590Y799040I58015J29334D01*
G03X3674150Y782930I-2476J-9833D01*
G02X3691640Y753180I-100166J-78903D01*
G03X3710360I9360J3907D01*
G02X3945640I117640J-49183D01*
G03X3964360I9360J3907D01*
G02X4199640I117640J-49183D01*
G03X4218360I9360J3907D01*
G02X4453640I117640J-49183D01*
G03X4472360I9360J3907D01*
G02X4707640I117640J-49183D01*
G03X4726360I9360J3907D01*
G02X4961640I117640J-49183D01*
G03X4980360I9360J3907D01*
G02X5215640I117640J-49183D01*
G03X5234360I9360J3907D01*
G02X5469640I117640J-49183D01*
G03X5488360I9360J3907D01*
G02Y654820I117641J-49180D01*
G03X5469640I-9360J-3907D01*
G02X5234360I-117640J49183D01*
G03X5215640I-9360J-3907D01*
G02X4980360I-117640J49183D01*
G03X4961640I-9360J-3907D01*
G02X4726360I-117640J49183D01*
G03X4707640I-9360J-3907D01*
G02X4472360I-117640J49183D01*
G03X4453640I-9360J-3907D01*
G02X4218360I-117640J49183D01*
G03X4199640I-9360J-3907D01*
G02X3964360I-117640J49183D01*
G03X3945640I-9360J-3907D01*
G02X3710360I-117640J49183D01*
G03X3691640I-9360J-3907D01*
G02X3456360I-117640J49183D01*
G03X3437640I-9360J-3907D01*
G02X3202360I-117640J49183D01*
G03X3183640I-9360J-3907D01*
G02X2948360I-117640J49183D01*
G03X2929640I-9360J-3907D01*
G02X2694360I-117640J49183D01*
G03X2675640I-9360J-3907D01*
G02X2440360I-117640J49183D01*
G03X2421640I-9360J-3907D01*
G02X2186360I-117640J49183D01*
G03X2167640I-9360J-3907D01*
G37*
G36*
G01X8162860Y4333400D02*
G02X8161190Y4246910I47690J-44182D01*
G03X8146050Y4247200I-7699J-6600D01*
G02X8147720Y4333690I-47690J44182D01*
G03X8162860Y4333400I7699J6600D01*
G37*
G36*
G01X10090640Y2390820D02*
G02Y2489180I-117641J49180D01*
G03X10109360I9360J3907D01*
G02X10177820Y2557640I117641J-49181D01*
G03Y2576360I-3907J9360D01*
G02Y2811640I49183J117640D01*
G03Y2830360I-3907J9360D01*
G02X10109360Y2898820I49181J117641D01*
G03X10090640I-9360J-3907D01*
G02X9923820Y3065640I-117642J49178D01*
G03Y3084360I-3907J9360D01*
G02Y3319640I49183J117640D01*
G03Y3338360I-3907J9360D01*
G02X10090640Y3505180I49178J117642D01*
G03X10109360I9360J3907D01*
G02X10276180Y3338360I117642J-49178D01*
G03Y3319640I3907J-9360D01*
G02Y3084360I-49183J-117640D01*
G03Y3065640I3907J-9360D01*
G02Y2830360I-49183J-117640D01*
G03Y2811640I3907J-9360D01*
G02Y2576360I-49183J-117640D01*
G03Y2557640I3907J-9360D01*
G02X10109360Y2390820I-49178J-117642D01*
G03X10090640I-9360J-3907D01*
G37*
G36*
G01X8998170Y8984470D02*
G02X8875500Y8883510I-12972J-109242D01*
G03X8863710Y8894270I-10111J760D01*
G02X8989880Y8998120I-27238J161661D01*
G03X8998170Y8984470I9489J-3580D01*
G37*
G54D23*
X8147000Y654000D03*
X8401000D03*
X7004000Y400000D03*
X7258000D03*
X7766000D03*
X8020000D03*
X6877000Y654000D03*
X7385000D03*
X8655000D03*
X7639000D03*
X9239200Y6970230D03*
X8985200Y7097230D03*
X9239200Y7224230D03*
Y7478230D03*
Y7732230D03*
X10128000Y7766500D03*
X8985200Y7859230D03*
X10412000Y7905000D03*
X9239200Y7986230D03*
X10128000Y8043500D03*
X8985200Y8113230D03*
X10412000Y8182000D03*
X9239200Y8240230D03*
X10128000Y8320500D03*
X8985200Y8367230D03*
X10412000Y8459000D03*
X9239200Y8494230D03*
X10128000Y8597500D03*
X8985200Y8621230D03*
X10412000Y8736000D03*
X9239200Y8748230D03*
X8985200Y7351230D03*
G54D20*
X5095860Y10971360D03*
X4449140Y10970930D03*
X6617210Y10925500D03*
X6412120Y10469330D03*
X6126610D03*
X6933790Y10349080D03*
X6237750Y10300700D03*
X4887010Y10206240D03*
X3914300D03*
X1172510Y10066940D03*
X1173780Y9891940D03*
X3002040Y9815370D03*
X2118150Y9760620D03*
X4882040Y9616970D03*
X3150800Y9615870D03*
X1779100Y9583330D03*
X5805610Y9571570D03*
X6559270Y9566810D03*
X1140170Y9500770D03*
X4907930Y9413270D03*
X3601100D03*
X4005900Y9411540D03*
X5684690Y9236990D03*
X4507440Y9101170D03*
X3258100Y9070530D03*
X1621700Y8982380D03*
X5188180Y8972310D03*
X1098590Y8843050D03*
X5225290Y8711480D03*
X3150800Y8693050D03*
X1604460Y8683460D03*
X2830800Y8638430D03*
X4991700Y8581480D03*
X6685150Y8528530D03*
X1138560Y8523380D03*
X2748650Y8387320D03*
X4643150Y8308240D03*
X4469600Y8304540D03*
X2713920Y8092320D03*
X5465530Y8087530D03*
X6059580Y7991750D03*
X2480150Y7987900D03*
X5222180Y7920820D03*
X6494520Y7862650D03*
X807540Y7813730D03*
X2476310Y7733040D03*
X2314710Y7725370D03*
X6405870Y7539900D03*
X4436550Y7499260D03*
X7074010Y7454950D03*
X2374750Y7329680D03*
X1531290Y7192460D03*
X1089010Y7086220D03*
X5950320Y7041300D03*
X7261250Y7012550D03*
X5556560Y6985730D03*
X1297860Y6945500D03*
X2338350Y6941660D03*
X4474880Y6893760D03*
X3442060Y6891840D03*
X2855550Y6887000D03*
X1416670Y6843930D03*
X2734030Y6815740D03*
X2530110Y6814010D03*
X4628160Y6736630D03*
X4334990Y6646570D03*
X1940530Y6537520D03*
X1552030D03*
X967920D03*
X2568280Y6184770D03*
X8557020Y6055570D03*
X6331640Y5998900D03*
X6095470D03*
X6571160Y5908850D03*
X3656880Y5640380D03*
X6311520Y5526580D03*
X6142060Y5525490D03*
X8060530Y5386190D03*
X5676030Y5303060D03*
X1391890Y5288000D03*
X8557020Y5230510D03*
X4333080Y5098310D03*
X5940740Y5079140D03*
X7201580Y5050400D03*
X7311190Y4962260D03*
X2437990Y4937350D03*
X8071520Y4923800D03*
X3060740Y4917230D03*
X6784820Y4729450D03*
X2560620Y4674830D03*
X6952480Y4639390D03*
X1513150Y4340020D03*
X6032720Y4278470D03*
X5607810Y3941900D03*
X5403740Y3933280D03*
X1468100Y3919560D03*
X5607320Y3785730D03*
X5403740Y3780000D03*
X5609260Y3623820D03*
X5404220Y3619980D03*
X5905780Y3597950D03*
X5774520Y3450400D03*
X5404210Y3447530D03*
X6676560Y3210540D03*
X9145500Y3208300D03*
X7300800Y3208290D03*
X2672610Y3005010D03*
X7530240Y2819280D03*
X2257700Y2786780D03*
X3761430Y2775860D03*
X7900990Y2687280D03*
X8608460Y2557980D03*
X3001190Y2523130D03*
X4216460Y2470030D03*
X4124190Y2337780D03*
X1776060Y2202970D03*
X3066190Y2200760D03*
X3261190Y2196480D03*
X3059810Y1960550D03*
X3639020Y1717770D03*
X2094990Y1614710D03*
X1261890Y1459200D03*
X3400880Y1124860D03*
X2544600Y1103360D03*
X8519350Y999760D03*
X7022500Y1473070D03*
X6705800Y1562620D03*
X7486900Y1782570D03*
X5338420Y1962030D03*
X5770590Y2161560D03*
X8086500Y1048420D03*
X8705170Y4461720D03*
X8384090Y4131540D03*
X8290410Y3980550D03*
X10866550Y3329390D03*
X9923500Y2217620D03*
X9428340Y7520290D03*
X8379060Y7546110D03*
X9528560Y8265120D03*
X8058740Y8515140D03*
X8212620Y9247510D03*
X8143630Y9513880D03*
X8265920Y9727800D03*
X7526710Y10540850D03*
X9680700Y10542140D03*
X8071240Y7703220D03*
X9857700Y5954820D03*
X9857600Y5228820D03*
G54D22*
X1598840Y10065570D03*
Y9811570D03*
X558440Y7989970D03*
X9441920Y652810D03*
X5651730Y1079600D03*
X5905730D03*
X9443730Y1198720D03*
Y1452720D03*
G54D28*
X10270000Y7071000D03*
Y9570000D03*
G54D27*
X8836470Y6792310D03*
G54D24*
X8833780Y253970D03*
G54D26*
X10150000Y4040000D03*
Y1856000D03*
G54D21*
X600000Y11150000D03*
Y600000D03*
X10560000D03*
Y11150000D03*
G54D25*
X6570160Y253080D03*
%LPD*%
G75*
G36*
G01X10109360Y2997180D02*
G02X10090640I-9360J3907D01*
G03X10022180Y3065640I-117641J-49181D01*
G02Y3084360I3907J9360D01*
G03X10090640Y3152820I-49181J117641D01*
G02X10109360I9360J-3907D01*
G03X10177820Y3084360I117641J49181D01*
G02Y3065640I-3907J-9360D01*
G03X10109360Y2997180I49181J-117641D01*
G37*
G36*
G01Y3251180D02*
G02X10090640I-9360J3907D01*
G03X10022180Y3319640I-117641J-49181D01*
G02Y3338360I3907J9360D01*
G03X10090640Y3406820I-49181J117641D01*
G02X10109360I9360J-3907D01*
G03X10177820Y3338360I117641J49181D01*
G02Y3319640I-3907J-9360D01*
G03X10109360Y3251180I49181J-117641D01*
G37*
G54D10*
X192160Y1208890D03*
X881610Y1219630D03*
X599720Y2490630D03*
X881610Y2020120D03*
X866920Y5317520D03*
X967920Y6537520D03*
X670290Y6525790D03*
X1089010Y7086220D03*
X807540Y7813730D03*
X659550Y7419410D03*
X1100920Y8141460D03*
X853820Y8134540D03*
X1098590Y8843050D03*
X700740Y9865640D03*
X688200Y10501380D03*
X1516060Y1618980D03*
X1261890Y1459200D03*
X1776060Y2202970D03*
X1516060Y2520860D03*
X1468100Y3919560D03*
X1513150Y4340020D03*
X1391890Y5288000D03*
X1294470Y5067650D03*
X1765350Y6829020D03*
X1552030Y6537520D03*
X1531290Y6737000D03*
X1621140Y6841660D03*
X1297860Y6945500D03*
X1416670Y6843930D03*
X1531290Y7192460D03*
X1713670Y7434110D03*
X1584930Y7838650D03*
X1138560Y8523380D03*
X1607760Y8471220D03*
X1870120Y8689700D03*
X1621700Y8982380D03*
X1604460Y8683460D03*
X1599100Y9203670D03*
X1594310Y8848820D03*
X1172510Y10066940D03*
X1779100Y9583330D03*
X1173780Y9891940D03*
X1140170Y9500770D03*
X2285780Y1358930D03*
X2283320Y1239390D03*
X2544600Y1103360D03*
X2282090Y1102600D03*
X2552800Y1571440D03*
X2094990Y1614710D03*
X2257700Y2786780D03*
X2432700Y2787410D03*
X2566760Y3271900D03*
Y4006130D03*
X2560620Y4674830D03*
X2306720Y4344280D03*
X2437990Y4937350D03*
X2322310Y5903100D03*
X2568280Y6184770D03*
X2149040Y5705740D03*
X2530110Y6814010D03*
X1940530Y6537520D03*
X2338350Y6941660D03*
X1932120Y6805610D03*
X2476310Y7733040D03*
X1904550Y7588190D03*
X2314710Y7725370D03*
X2374750Y7329680D03*
X2501230Y7264130D03*
X2062410Y7418790D03*
X2480150Y7987900D03*
X2125200Y7966650D03*
X2118150Y9760620D03*
X3196190Y1602320D03*
X3326190Y1604950D03*
X3066190Y2200760D03*
X3261190Y2196480D03*
X3059810Y1960550D03*
X3001190Y2523130D03*
X2672610Y3005010D03*
X2806190Y2515580D03*
X3060740Y4917230D03*
X3390530Y5150450D03*
X2769480Y6046810D03*
X2855550Y6887000D03*
X2734030Y6815740D03*
X2705300Y6501900D03*
X3070320Y7010640D03*
X3261590Y7657580D03*
X2748650Y8387320D03*
X2713920Y8092320D03*
X3150800Y8693050D03*
X3258100Y9070530D03*
X2830800Y8638430D03*
X3150800Y9615870D03*
X3002040Y9815370D03*
X3700460Y862080D03*
X3400880Y1124860D03*
X4051920Y1722540D03*
X3526780Y1380500D03*
X3639020Y1717770D03*
X4052380Y1915320D03*
X4124190Y2337780D03*
X3761430Y2775860D03*
X3936430Y2777790D03*
X3741530Y4317730D03*
X3949700Y4866590D03*
X3656880Y5640380D03*
X3434390Y6426210D03*
X3442060Y6891840D03*
X4135410Y6351170D03*
X3470800Y6568010D03*
X3601100Y9413270D03*
X4005900Y9411540D03*
X3914300Y10206240D03*
X4726010Y1231660D03*
X4436190Y1547960D03*
X4653640Y1962030D03*
X4436200Y1789060D03*
X4216460Y2470030D03*
X4334790Y4013550D03*
X4590490Y4244960D03*
X4248770Y5487290D03*
X4333080Y5098310D03*
X4227690Y6165610D03*
X4613980Y5967480D03*
X4634270Y6892590D03*
X4474880Y6893760D03*
X4628160Y6736630D03*
X4334990Y6646570D03*
X4159990Y7079630D03*
X4436550Y7499260D03*
X4299090Y7419980D03*
X4185650Y7799060D03*
X4804190Y7595420D03*
X4643150Y8308240D03*
X4469600Y8304540D03*
X4182070Y8456280D03*
X4507440Y9101170D03*
X4882300Y9234590D03*
X4907930Y9413270D03*
X4882040Y9616970D03*
X4887010Y10206240D03*
X4429280Y10622720D03*
X4449140Y10970930D03*
X5022170Y1542510D03*
X5338420Y1962030D03*
X5001140Y1781430D03*
X5404220Y3619980D03*
X5404210Y3447530D03*
X5607810Y3941900D03*
X5403740Y3780000D03*
Y3933280D03*
X5609260Y3623820D03*
X5607320Y3785730D03*
X4945250Y3899000D03*
X5091650Y3900480D03*
X5652040Y4602260D03*
X5536440Y4329920D03*
X5014770D03*
X5676030Y5303060D03*
X5025780Y4804180D03*
X5492360Y5075320D03*
X5410570Y5544430D03*
X5666730Y5958660D03*
X5556690Y6023820D03*
X5253660Y6979990D03*
X5556560Y6985730D03*
X5329480Y6348890D03*
X5106740Y7071000D03*
X5353660Y6979250D03*
X5641830Y7280760D03*
X4991700Y8581480D03*
X5222180Y7920820D03*
X5465530Y8087530D03*
X5212410Y8392960D03*
X5259750Y8133300D03*
X5225290Y8711480D03*
X5188180Y8972310D03*
X5442540Y8840580D03*
X5088050Y10743340D03*
X5095860Y10971360D03*
X6285230Y1643930D03*
X6132920Y1734890D03*
X5787460Y2465490D03*
X5994400D03*
X5902170Y1819380D03*
X6323320Y1838550D03*
X5770590Y2161560D03*
X6174040Y3195470D03*
X6037990D03*
X5905780Y3597950D03*
X5774520Y3450400D03*
X6373610Y3468210D03*
X6371520Y3677930D03*
X6032720Y4278470D03*
X6311520Y5526580D03*
X5940740Y5079140D03*
X6142060Y5525490D03*
X5938830Y5979750D03*
X6095470Y5998900D03*
X6331640D03*
X5819160Y5931840D03*
Y6503750D03*
X6377630Y6981900D03*
X5950320Y7041300D03*
X6405870Y7539900D03*
X5855060Y7757410D03*
X6209410Y7574100D03*
X6059580Y7991750D03*
X5924010Y8226900D03*
X5684690Y9236990D03*
X5919440Y8932330D03*
X5793910D03*
X5805610Y9571570D03*
Y10043030D03*
X6237750Y10300700D03*
X6126610Y10469330D03*
X6412120D03*
X6073770Y10671300D03*
X6705800Y1562620D03*
X7022500Y1473070D03*
X6678830Y2397740D03*
X6676560Y3210540D03*
X6882690Y3556350D03*
X6456200Y3893030D03*
X6960150Y3822560D03*
X6721580Y3682260D03*
X6518650Y3677930D03*
X6460020Y4793630D03*
X6462390Y4087020D03*
X6784820Y4729450D03*
X6952480Y4639390D03*
X6603740Y4276200D03*
X7201580Y5050400D03*
X6971620Y5474750D03*
X6832330Y5473780D03*
X6856010Y5317250D03*
X6467690Y5081320D03*
X7041160Y6150290D03*
X6571160Y5908850D03*
X6495220Y6118920D03*
X6724460Y7706210D03*
X7074010Y7454950D03*
X6898830Y7464770D03*
X6494520Y7862650D03*
X6685150Y8528530D03*
X7111400Y8442020D03*
X6942620Y8839300D03*
X6559270Y9566810D03*
X6919900Y9726880D03*
X6933790Y10349080D03*
X6789740Y10837100D03*
X6617210Y10925500D03*
X7810500Y863310D03*
X7899070Y1635790D03*
X7812620Y1117170D03*
X7714880Y2409950D03*
X7375900Y1969880D03*
X7486900Y1782570D03*
X7530240Y2819280D03*
X7900990Y2687280D03*
X7300800Y3208290D03*
X7624990Y3493310D03*
X7259910Y3963930D03*
X7265950Y4611600D03*
X7311190Y4962260D03*
X7320330Y5099910D03*
X7332100Y5627850D03*
X7261250Y7012550D03*
X7831560Y7065810D03*
X7907810Y7543350D03*
X7310810Y8162260D03*
X7484720Y8142690D03*
X7486830Y8041150D03*
X7831620Y9260610D03*
X7526710Y10540850D03*
X7289730Y10521060D03*
X7900990Y10568350D03*
X7841900Y11364490D03*
X8305530Y816770D03*
X8464030Y1579350D03*
X8254760Y1650270D03*
X8519350Y999760D03*
X8086500Y1048420D03*
X8464030Y1958970D03*
X8608460Y2557980D03*
X8290410Y3980550D03*
X8367590Y3309450D03*
X8716250Y3983660D03*
X8705170Y4461720D03*
X8098360Y4291380D03*
X8384090Y4131540D03*
X8210550Y4289220D03*
X8060530Y5386190D03*
X8557020Y5230510D03*
X8071520Y4923800D03*
X8687670Y5101660D03*
X8557020Y6055570D03*
X8659310Y5672940D03*
X8652090Y6230250D03*
X8197200Y6568970D03*
X8097390D03*
X8071240Y7703220D03*
X8379060Y7546110D03*
X8493810Y7351500D03*
X8058740Y8515140D03*
X8647000Y8105570D03*
X8212620Y9247510D03*
X8337870Y8802260D03*
X8265920Y9727800D03*
X8143630Y9513880D03*
X8836510Y861200D03*
X8830170Y1119290D03*
X9430200Y1882560D03*
X9456570Y3156030D03*
X9460520Y2999300D03*
X9145500Y3208300D03*
X9101460Y3629520D03*
X9453590Y3316200D03*
X9371140Y4671270D03*
X9371150Y4498440D03*
X8810930Y4289220D03*
X9372540Y5101660D03*
X9357280Y5672940D03*
X9352930Y6230250D03*
X9369570Y6806910D03*
X9370660Y6639700D03*
X9428340Y7520290D03*
X9401350Y7799980D03*
X8762470Y7349380D03*
X8839970Y9743390D03*
X8813090Y9517150D03*
X9466110Y10060800D03*
X9333570Y10215780D03*
X9149370Y11617120D03*
X8872510Y11618460D03*
X9923500Y2217620D03*
X9710810Y4673160D03*
X9711200Y4501440D03*
X9547110Y4671270D03*
X9547120Y4498440D03*
X9857600Y5228820D03*
X9856840Y4990470D03*
X9857700Y5954820D03*
X9858140Y5669460D03*
X9542610Y6808380D03*
X9715620Y6639700D03*
X9714840Y6810250D03*
X9543060Y6639690D03*
X9528560Y8265120D03*
X9680700Y10542140D03*
X9677280Y10724170D03*
X10866550Y3329390D03*
G54D11*
X283600Y8592250D03*
X283700Y9342350D03*
X283600Y9092250D03*
Y8842250D03*
X600410Y3366540D03*
Y3566540D03*
X558440Y7735970D03*
Y7989970D03*
X1598840Y10065570D03*
Y9811570D03*
X5651730Y1079600D03*
X5905730D03*
X9441920Y652810D03*
X9443730Y1198720D03*
Y1452720D03*
X9691920Y652810D03*
X10659930Y5499980D03*
Y5949980D03*
G54D12*
X600000Y600000D03*
Y11150000D03*
X10560000Y600000D03*
Y11150000D03*
G54D13*
X541350Y1721050D03*
X670300Y7002140D03*
X426750Y10205900D03*
X2564970Y3640800D03*
X3392320Y5535470D03*
X3263380Y7969180D03*
X3754060Y3991790D03*
X4189220Y8128570D03*
X5150900Y5542640D03*
X7006250Y9414430D03*
X9162310Y9632840D03*
X10079190Y1087110D03*
G54D14*
X1478650Y10787740D03*
X1732650D03*
Y11041740D03*
X1478650D03*
X1986650Y10787740D03*
X2240650D03*
X2494650D03*
Y11041740D03*
X2240650D03*
X1986650D03*
X2748650Y10787740D03*
X3002650D03*
X3256650D03*
Y11041740D03*
X3002650D03*
X2748650D03*
X3510650Y10787740D03*
X3764650D03*
Y11041740D03*
X3510650D03*
X6273730Y983250D03*
G54D15*
X2050000Y450000D03*
X2304000D03*
X2558000D03*
Y704000D03*
X2304000D03*
X2050000D03*
X2812000Y450000D03*
X3066000D03*
X3320000D03*
Y704000D03*
X3066000D03*
X2812000D03*
X3574000Y450000D03*
X3828000D03*
X4082000D03*
Y704000D03*
X3828000D03*
X3574000D03*
X4336000Y450000D03*
X4590000D03*
X4844000D03*
Y704000D03*
X4590000D03*
X4336000D03*
X5098000Y450000D03*
X5352000D03*
X5606000D03*
Y704000D03*
X5352000D03*
X5098000D03*
X9973000Y2440000D03*
X10227000D03*
X9973000Y3202000D03*
Y2948000D03*
Y2694000D03*
X10227000D03*
Y2948000D03*
Y3202000D03*
X9973000Y3456000D03*
X10227000D03*
G54D16*
X6750000Y400000D03*
X7004000D03*
X7131000Y654000D03*
X6877000D03*
X7258000Y400000D03*
X7512000D03*
X7766000D03*
X7893000Y654000D03*
X7639000D03*
X7385000D03*
X8020000Y400000D03*
X8274000D03*
X8528000D03*
X8655000Y654000D03*
X8401000D03*
X8147000D03*
X8985200Y7097230D03*
X9239200Y6970230D03*
X8985200Y7859230D03*
Y7605230D03*
Y7351230D03*
X9239200Y7224230D03*
Y7478230D03*
Y7732230D03*
X8985200Y8621230D03*
Y8367230D03*
Y8113230D03*
X9239200Y7986230D03*
Y8240230D03*
Y8494230D03*
X8985200Y8875230D03*
X9239200Y8748230D03*
X10128000Y7766500D03*
Y8597500D03*
Y8320500D03*
Y8043500D03*
Y8874500D03*
X10412000Y7905000D03*
Y8182000D03*
Y8459000D03*
Y8736000D03*
G54D17*
X10150000Y1856000D03*
Y4040000D03*
G54D18*
X10270000Y7071000D03*
Y9570000D03*
G54D19*
G01X4634270Y6892590D02*
Y6974650D01*
X4563210Y7045710D01*
X4347730D01*
X3849880Y6547860D01*
X3843900D01*
X3638010Y6341970D01*
X1473390D01*
X946940Y6868420D01*
Y7987480D01*
X1100920Y8141460D01*
G01X1870120Y8689700D02*
X1802960Y8622540D01*
Y6866630D01*
X1765350Y6829020D01*
G01X2322310Y5903100D02*
X3965180D01*
X4227690Y6165610D01*
G01X4248770Y5487290D02*
X4631440D01*
X4651450Y5507300D01*
X4654360D01*
X6747500Y7600420D01*
X6751740Y7605150D01*
X6754990Y7610830D01*
X6819590Y7675430D01*
X6820390Y7675770D01*
X6827780Y7680710D01*
X7309330Y8162260D01*
X7310810D01*
G01X5652040Y4602260D02*
X5652760Y4601540D01*
Y4188420D01*
X6284830Y3556350D01*
X6882690D01*
G01X7041160Y6150290D02*
Y5918960D01*
X5926380Y4804180D01*
X5025780D01*
G01X7624990Y3493310D02*
X7108850D01*
X6709130Y3893030D01*
X6456200D01*
G01X6462390Y4087020D02*
Y4791260D01*
X6460020Y4793630D01*
M02*
