M48
METRIC,TZ
T01C.3
T02C.8
T03C1.
T04C1.1
T05C1.2
T06C1.3
T07C1.5
T08C3.2
T09C3.5
;LEADER: 12 
;HEADER: 
;CODE  : ASCII 
;FILE  : interf_m5-1-4.drl for board interf_m5_v4.brd ... layers TOP and BOTTOM
;T01 Holesize 1. = 0.300000 Tolerance = +0.000000/-0.000000 PLATED MM
;T02 Holesize 2. = 0.800000 Tolerance = +0.000000/-0.000000 PLATED MM
;T03 Holesize 3. = 1.000000 Tolerance = +0.000000/-0.000000 PLATED MM
;T04 Holesize 4. = 1.100000 Tolerance = +0.000000/-0.000000 PLATED MM
;T05 Holesize 5. = 1.200000 Tolerance = +0.000000/-0.000000 PLATED MM
;T06 Holesize 6. = 1.300000 Tolerance = +0.000000/-0.000000 PLATED MM
;T07 Holesize 7. = 1.500000 Tolerance = +0.000000/-0.000000 PLATED MM
;T08 Holesize 8. = 3.200000 Tolerance = +0.000000/-0.000000 PLATED MM
%
G90
T01
X68250Y74000
X68500Y72875
X65250Y75375
X30375Y85000
X71875Y74750
X86476Y46602
X58000Y65625
X76225Y74025
X57875Y67750
X80125Y49250
X97216Y34372
Y33227
X93550Y16825
X80000Y18875
X87000Y18500
X73500Y37125
X76875Y82125
X78375Y5125
Y12750
X91250Y10375
X92250Y20125
X92650Y17475
X92600Y23975
X92500Y26375
X63750Y50875
X56625Y63125
X86476Y56945
X87445
X56625Y70375
X7125Y94750
Y92625
X7000Y90500
Y88000
X9500Y87125
Y89375
X9000Y93750
X10250Y91500
X3625Y94875
X3750Y87750
X49125Y55250
X72125Y30250
X60500Y110000
X50375Y46250
X73880Y105755
X72610Y105640
X57750Y21500
X73755Y89120
X72485Y89140
X18375Y89625
X74185Y7190
X86350Y2525
X92725
X68980Y21770
X68915Y23040
X69645Y20145
X75980
X88625Y20125
X88275Y17475
X88150Y23975
X69770Y25520
X79375Y30375
X75980Y25520
X87020Y32520
X93480
X88250Y26375
X61980Y34645
X61960Y35915
X63145Y33020
X63020Y38395
X69605Y33020
X69480Y38395
X74810Y34935
X87020Y37770
X93480
X61960Y46290
X59315Y52690
X80305Y48055
X80385Y53135
X87635Y51865
X91375Y57000
X52500Y64690
X61125Y72250
X64000Y78000
X75375Y75325
X80250Y78250
X69945Y83680
X80375Y81000
X70070Y99805
X25250Y75000
Y72625
X27750Y72875
X29875Y72750
X30750Y75875
Y74125
X27750Y74625
X23250Y71500
X27875Y71250
X20625Y89625
X23000Y89500
X18375Y88250
Y86625
X20625Y87375
X23125
X6250Y98000
X4125Y98125
X2375Y98000
X13500Y103875
X16500
X16875Y107750
X19500Y109750
X26125
X31625Y109625
X29125Y106250
X29875Y104000
X39375Y109375
X67375Y104500
Y101375
X67125Y94250
X67000Y91625
X77875Y105125
X82500
X86500Y102625
X90625Y98000
X93250Y94375
X76750Y110000
X84250Y109625
X90250Y106250
X95750Y101250
X90875Y46000
X96000Y46125
X99625Y43500
X100250Y34000
X96375Y29250
X82375Y64625
X88625Y64875
X74250Y11000
X85000Y10250
X82000Y30125
X65125Y42875
X63750Y59000
X59500Y56500
X52500Y68500
X73755Y83380
X28500Y100375
X73880Y99870
X27875Y89500
X30000Y89375
Y92500
X28125Y92375
X28625Y97000
X30875Y96875
X26625Y33750
X67125Y4500
Y13500
X59375Y18500
X63625Y20500
X52125Y31625
X59375Y26000
X52125Y39000
X56375Y33375
X49250Y42500
X56250Y43750
X50375Y48750
X49625Y52750
X15125Y61375
X21125Y67750
Y64750
Y61375
Y58750
X17625Y58500
X14250
X14125Y64250
X17500Y64125
X18750Y69000
X53250Y60625
X43625Y63250
X46375Y72250
X51625Y84750
X57245Y83505
X57370Y99880
X51750Y102000
X63565Y24310
X56310Y37185
X56315Y47560
X27375Y54125
X5750Y61375
X61055Y83430
X51625Y87500
X61180Y99805
X51625Y104750
X35125Y103375
X40250
X45875Y103500
X49500
X35875Y94875
Y88250
X36125Y81375
X47625Y75625
X50125Y79000
X51500Y91625
X60500Y94375
X56000Y40000
X55500Y50125
X55625Y29875
Y26500
X62375Y17250
X64875Y14375
X64375Y5375
X64500Y2375
X11375Y72625
X7375Y72250
X4625Y72500
X4250Y67500
X7625Y67375
X10375
X29500Y49375
X30125Y42250
X30375Y31375
X51250Y18375
X51500Y12750
T02
X20500Y4500
Y7040
X23040Y4500
Y7040
X25580Y4500
Y7040
X28120Y4500
Y7040
X30660Y4500
Y7040
X33200Y4500
Y7040
X35740Y4500
Y7040
X38280Y4500
Y7040
X40820Y4500
Y7040
X43360Y4500
Y7040
X45900Y4500
Y7040
X48440Y4500
Y7040
X50980Y4500
Y7040
X53520Y4500
Y7040
X56060Y4500
Y7040
T03
X103000Y74500
R04Y2740
X105840Y75870
R03Y2740
T04
X23200Y47760
X10500
Y38240
R02Y-3180
Y16000
X23200
Y31880
R02Y3180
T05
X104875Y55625
X107415
X104875Y53085
X107415
X104875Y50545
X107415
X104875Y48005
X107415
X104875Y45465
X107415
X104875Y42925
X107415
X104875Y40385
X107415
X104875Y37845
X107415
X104875Y35305
X107415
X104875Y32765
X107415
X88250Y90500
X90790
X88250Y87960
X90790
X88250Y85420
X90790
X88250Y82880
X90790
X88250Y80340
X90790
X88250Y77800
X90790
X88250Y75260
X90790
X88250Y72720
X90790
X88250Y70180
X90790
X88250Y67640
X90790
X104875Y26250
X107415
X104875Y23710
X107415
X104875Y21170
X107415
X104875Y18630
X107415
X104875Y16090
X107415
T06
X73500Y63125
X22125Y53875
T07
X4500Y21230
Y23770
X24855Y63250
X27395
T08
X104420Y67480
Y92480
M30
