M48
METRIC,TZ
T01C.3
T02C.9
T03C1.
T04C1.1
T05C1.2
T06C1.3
T07C3.
T08C3.4
T09C3.5
;LEADER: 12 
;HEADER: 
;CODE  : ASCII 
;FILE  : m8-1-4.drl for board interf_m8_v12.brd ... layers TOP and BOTTOM
;T01 Holesize 1. = 0.300000 Tolerance = +0.000000/-0.000000 PLATED MM
;T02 Holesize 2. = 0.900000 Tolerance = +0.000000/-0.000000 PLATED MM
;T03 Holesize 3. = 1.000000 Tolerance = +0.000000/-0.000000 PLATED MM
;T04 Holesize 4. = 1.100000 Tolerance = +0.000000/-0.000000 PLATED MM
;T05 Holesize 5. = 1.200000 Tolerance = +0.000000/-0.000000 PLATED MM
;T06 Holesize 6. = 1.300000 Tolerance = +0.000000/-0.000000 PLATED MM
;T07 Holesize 7. = 3.000000 Tolerance = +0.000000/-0.000000 PLATED MM
;T08 Holesize 8. = 3.400000 Tolerance = +0.000000/-0.000000 PLATED MM
%
G90
T01
X81052Y44617
X10217Y89824
X18802Y79879
X10045Y86835
X18763Y77330
X50760Y53031
X57115Y55266
X58945Y78626
X60172Y109255
X51070Y45292
X62223Y36012
X54596Y79918
X56378Y103007
X38749Y68938
X58562Y38930
X70250Y34933
X28009Y11249
X16888Y13656
X28038Y8621
X16888Y11564
X19410Y10446
X16859
X25962Y16023
X80115Y46910
X75882Y38240
X92576Y52288
X92577Y59548
X25508Y86930
X26581Y90705
X61245Y77062
X76037Y57670
X46537Y69800
X40282Y67366
X7919Y52880
X49566Y69857
X46253Y87115
X6945Y104005
X19256Y68109
X3721Y65370
X9274
X13631
X9355Y71927
Y67370
X13034Y75807
X10428Y68458
X22308Y86384
X40432Y83082
X24662Y22008
X6979Y69455
X11761Y22030
X4890Y70862
X8167Y68439
X18380Y49374
X24012Y25231
X17063Y77287
X58121Y104693
X55266
X22366Y68870
X21347Y84114
X11578Y68497
X10313Y82926
X36488Y54873
X67108Y81623
X77915Y60775
Y52305
X27262Y16049
X44258Y48042
X66612Y70126
X64412Y61503
X30011Y94768
X31697
X43079Y94133
X6635Y85263
X40262Y68957
X87321Y78619
X92568Y49905
X87529Y62302
X87573Y56729
X87725Y51017
X92581Y56695
X66016Y50504
X63716Y54748
X37350Y66466
X20976Y68138
X49364Y43299
X26612Y21965
X40343Y103222
X32134
X50667Y59587
X36277Y61656
X19606Y46748
X17223Y59031
X67112Y49623
X59712Y59088
X53388Y59798
X58624Y40870
X58600Y47936
X57316Y59989
X54955
X76126Y92475
X77570Y75434
X69497Y25367
X80046Y21731
X28344Y64262
X17384Y69417
X30569Y56404
X37331Y50983
X75436Y95139
X69267Y105408
X74715Y49238
X90807Y105421
X73268Y23033
X80810Y25569
X76904Y39806
X76106Y42892
X58059Y75399
X16577Y27868
X7026Y102255
X62323Y54738
X51745Y34504
X48655Y80875
X38366Y74993
X9132Y43400
X64740Y74549
X60852Y85285
X31614Y27759
X28421Y68918
X4909Y93418
X17748Y73297
X19683Y61848
X13719Y101412
X2075Y78137
X21139Y80923
X24607Y49172
X20726Y30050
X8681Y39196
X43917Y85815
X46222Y79208
X45882Y89723
X39074Y91012
X38696Y83045
X50847Y92370
X40769Y95655
X52056Y95716
X42303Y109704
X55421Y55255
X53407Y50791
X52192Y59318
X49567Y60238
X59593Y95668
X63338Y103491
X61216Y36823
X63602Y38226
X63525Y46394
X55740Y31955
X54327Y42785
X61848Y47294
X54380Y31955
X45149Y109714
X4986Y88430
X23956Y101397
X48042Y34475
X48042Y36200
X48037Y37800
Y39333
X50093Y36238
X50078Y39419
X50073Y37857
X53058Y35980
X42042Y75954
X63426Y88393
X-3Y24906
X54738Y106713
X56094Y75741
X28708Y65680
X24703Y70106
X35354Y63512
X21053Y65019
X15252Y79510
X19012Y72641
X21695Y60468
X9943Y88488
X17067Y43443
X6945Y50676
X15490Y57057
X2669Y53175
X11137Y74341
X14624Y74188
X13321Y68056
X58952Y61189
X40140Y59675
X46598Y81333
X48425Y88406
X53240Y82269
X52551Y77574
X46124Y83930
X52056Y100430
X44880Y107433
X35760Y107376
X42823Y92346
X36991Y74200
X33497Y48666
X37348Y40136
X57776Y69819
X50418Y72808
X48924Y50753
X58677Y50813
X47295Y63489
X52192Y65038
X61897Y108371
X63199Y97269
X66897Y105211
X29268Y13805
X51875Y24655
X76574Y32914
X73268Y24402
X60713Y25328
X57736Y34682
X22062Y25156
X18327Y27874
X9161Y25209
Y16190
X41904Y9621
X19528Y15714
X66659Y46116
X60037Y42762
X66599Y39639
X62560Y53172
X67203Y50999
X67321Y56278
X80573Y51017
X80521Y62302
X80593Y56729
X65114Y84420
X62988Y74648
X34524Y19153
X34519Y17225
X33364Y27778
X43452Y38990
X44916Y39005
X59186Y36779
X57715
X45067Y70710
X44148Y43299
X39905Y42450
X53944Y24655
X51939Y89323
X53194
X35600Y70796
X9849Y78386
X26616Y76576
X35821Y84563
X35856Y77991
X882Y105014
X1007Y98656
X596Y74194
X703Y65258
X2816Y20201
Y12196
X-4078Y12089
X27905Y51504
X31415Y43177
X19668Y32719
Y40061
X48106Y55444
X47384Y19620
X75972Y65690
X74974
X72991Y16358
X79897Y18109
X90351Y18108
X67759Y19699
X40536Y19620
X53022Y18194
X68869Y17826
X61058Y15626
X74932Y10344
X51706Y21616
X79194Y9998
X64225Y14731
X24598Y19606
X30390Y17178
X14950Y16147
X53503Y70413
X36557Y24700
X6619Y14592
X47537Y69793
X88661Y100608
X72320Y75434
X77379Y88023
X72316Y92606
X82131Y95172
X73010Y105684
X72419Y113645
X81140Y39837
X85494Y116171
X90773Y107242
X85455Y31046
X67008Y31046
X60766Y31068
X82109Y42892
X80161Y81056
X88553Y32868
X87707Y66397
X91156
X91148Y68103
X87696Y68069
X87711Y46713
X91108Y46732
X87712Y44984
X91112Y45014
X89426Y68084
X89474Y66397
X89471Y44984
X89471Y46713
X88531Y31094
X88553Y29319
X69329Y81031
T02
X100599Y55000
Y59500
T03
X88419Y6528
X90919
X-2184Y79881
X-4724
X4Y35665
Y33665
X59700Y2520
X82350
X88437Y11987
Y14527
X50499Y11019
X53039
X10369Y104008
Y101468
X-3163Y93424
X-3164Y90922
R02Y-2500
T04
X13000Y4000
Y6540
X15540Y4000
Y6540
X18080Y4000
Y6540
X20620Y4000
Y6540
X23160Y4000
Y6540
X25700Y4000
Y6540
X28240Y4000
Y6540
X30780Y4000
Y6540
X33320Y4000
Y6540
X35860Y4000
Y6540
X38400Y4000
Y6540
X40940Y4000
Y6540
X43480Y4000
Y6540
X46020Y4000
Y6540
X48560Y4000
Y6540
X93730Y34560
X96270
X93730Y32020
X96270
X93730Y29480
X96270
X93730Y26940
X96270
X93730Y24400
X96270
T05
X703Y70021
X-1732Y102059
X-586Y17210
X19650Y36408
X31541Y39918
X27923Y55355
X26634Y79692
X35892Y81286
X45509Y55426
X64062Y94144
X94792Y10871
X85623Y96328
X61500Y4000
X62770Y6540
X64040Y4000
X65310Y6540
X66580Y4000
X67850Y6540
X69120Y4000
X70390Y6540
X71660Y4000
X72930Y6540
X74200Y4000
X75470Y6540
X76740Y4000
X78010Y6540
X79280Y4000
X80550Y6540
X82372Y90552
X84912
X82372Y88012
X84912
X82372Y85472
X84912
X82372Y82932
X84912
X82372Y80392
X84912
X82372Y77852
X84912
X82372Y75312
X84912
X82372Y72772
X84912
X82372Y70232
X84912
X82372Y67692
X84912
X95280Y77665
R04Y2770
X98120Y79050
R03Y2770
X8647Y108482
Y111022
X11187Y108482
Y111022
X13727Y108482
Y111022
X16267Y108482
Y111022
X18807Y108482
Y111022
X21347Y108482
Y111022
X23887Y108482
Y111022
X26427Y108482
Y111022
X28967Y108482
Y111022
X31507Y108482
Y111022
T06
X56737Y9832
T07
X95500Y40400
Y18560
T08
X96700Y95700
Y70710
M30
