M48
METRIC,TZ
T01C.3
T02C.9
T03C1.
T04C1.1
T05C1.2
T06C1.3
T07C1.6
T08C3.
T09C3.4
T10C3.5
;LEADER: 12 
;HEADER: 
;CODE  : ASCII 
;FILE  : m8_V3-1-4.drl for board interf_m8_v8_nev.brd ... layers TOP and BOTTOM
;T01 Holesize 1. = 0.300000 Tolerance = +0.000000/-0.000000 PLATED MM
;T02 Holesize 2. = 0.900000 Tolerance = +0.000000/-0.000000 PLATED MM
;T03 Holesize 3. = 1.000000 Tolerance = +0.000000/-0.000000 PLATED MM
;T04 Holesize 4. = 1.100000 Tolerance = +0.000000/-0.000000 PLATED MM
;T05 Holesize 5. = 1.200000 Tolerance = +0.000000/-0.000000 PLATED MM
;T06 Holesize 6. = 1.300000 Tolerance = +0.000000/-0.000000 PLATED MM
;T07 Holesize 7. = 1.600000 Tolerance = +0.000000/-0.000000 PLATED MM
;T08 Holesize 8. = 3.000000 Tolerance = +0.000000/-0.000000 PLATED MM
;T09 Holesize 9. = 3.400000 Tolerance = +0.000000/-0.000000 PLATED MM
%
G90
T01
X18701Y86897
X17654Y68290
X11009Y81415
X46343Y68926
X87052Y44617
X16217Y89824
X24802Y79879
X16045Y86835
X24763Y77330
X56760Y53031
X63115Y55266
X64945Y78626
X66172Y109255
X68827Y35564
X56520Y46023
X60596Y79918
X62378Y103007
X44749Y68938
X64562Y38930
X76250Y34933
X34009Y11249
X22858Y13589
X37005Y8621
X22833Y12394
X25446Y10977
X22821Y11026
X31962Y16023
X80984Y42914
X83841Y41315
X98576Y52288
X98577Y59548
X31508Y86930
Y96159
X32581Y90705
X67245Y77062
X80605Y53862
X52537Y69800
X46282Y67366
X13919Y52880
X55566Y69857
X52253Y87115
X11725Y100669
X25301Y68140
X9679Y65375
X15520
X19405
X15313Y71925
Y67370
X19046Y75882
X16211Y68417
X28308Y86384
X46432Y83082
X30662Y22008
X12979Y69455
X17761Y22030
X10890Y70862
X14167Y68439
X24380Y49374
X30012Y25231
X23147Y77254
X80587Y85151
X64121Y104693
X61266
X27486Y83873
X28556Y68870
X82659Y97278
X95286Y82651
X42488Y54873
X73108Y81623
X85570Y60556
Y52305
X33262Y16049
X50258Y48042
X72612Y70126
X70412Y61503
X40059Y94115
X36011Y94133
X49079
X80712Y77032
X94283Y75203
X98568Y49905
X93529Y62302
X93573Y56729
X93725Y51017
X98581Y56695
X72016Y50504
X69716Y54748
X43350Y66466
X27340Y68157
X55364Y43299
X32612Y21965
X48870Y102062
X39143
X56667Y59587
X42277Y61656
X25606Y46748
X23223Y59031
X73112Y49623
X65712Y59088
X59388Y59798
X64624Y40870
X64600Y47936
X63316Y59989
X60955
X75302Y28193
X82126Y92475
X83791Y75461
X86085Y25580
X34344Y64262
X23384Y69417
X36569Y56404
X43331Y50983
X108665Y33294
X91015Y36295
X99235Y22176
X79010Y26873
X81436Y95139
X75267Y105408
X80715Y49238
X96807Y105421
X82904Y39806
X82106Y42892
X11386Y85234
X11402Y95008
X17791Y95833
X30020Y98154
X11738Y98919
X64059Y75399
X22577Y27868
X68323Y54738
X57745Y34504
X54655Y80875
X44365Y74993
X15132Y43400
X70740Y74549
X66852Y85285
X37614Y27759
X34421Y68918
X23748Y73297
X25683Y61848
X8075Y78137
X27139Y80923
X30607Y49172
X26726Y30050
X14681Y39196
X49917Y85815
X52222Y79208
X51882Y89723
X45074Y91012
X44696Y83045
X56847Y92370
X48820Y96170
X58056Y95716
X61421Y55255
X59407Y50791
X58192Y59318
X55567Y60238
X65593Y95668
X69338Y103491
X67216Y36823
X69602Y38226
X69525Y46394
X61740Y31955
X60327Y42785
X67848Y47294
X60380Y31955
X50959Y109714
X10986Y88430
X54042Y34475
X54042Y36200
X54037Y37800
Y39333
X56093Y36238
X56078Y39419
X56073Y37857
X59058Y35980
X44491Y109709
X21182Y97606
X47260Y12317
X83676Y33094
X8538Y81345
X16078Y84712
X15991Y92037
X44293Y106227
X48042Y75954
X69426Y88393
X5997Y24906
X60738Y106713
X62094Y75741
X34708Y65680
X30703Y70106
X41354Y63512
X27053Y65019
X21252Y79666
X25012Y72641
X27695Y60468
X15943Y88488
X23067Y43443
X12945Y50676
X21490Y57057
X8669Y53175
X17137Y74341
X20624Y74188
X19321Y68056
X64952Y61189
X46140Y59675
X52597Y81333
X54425Y88406
X59240Y82269
X58551Y77574
X52124Y83930
X58056Y100430
X50880Y107433
X48823Y92346
X42991Y74200
X39497Y48666
X43348Y40136
X63776Y69819
X56418Y72808
X54924Y50753
X64677Y50813
X53295Y63489
X58192Y65038
X67897Y108371
X69199Y97269
X72897Y105211
X35268Y13805
X57875Y24655
X77149Y24100
X66788Y23977
X63736Y34682
X28062Y25156
X24327Y27874
X15161Y25209
Y16190
X25528Y15714
X72659Y46116
X66037Y42762
X72599Y39639
X68560Y53172
X73203Y50999
X73321Y56278
X86877Y51017
X86521Y62302
X86593Y56729
X71114Y84420
X68988Y74648
X40524Y19153
X40519Y17225
X39364Y27778
X49452Y38990
X50916Y39005
X65186Y36779
X63715
X51067Y70710
X50148Y43299
X45905Y42450
X59944Y24655
X57939Y89323
X59194
X41600Y70796
X15849Y78386
X32616Y76576
X41821Y84563
X41856Y77991
X6882Y105014
X7007Y98656
X6596Y74194
X6703Y65258
X8816Y20201
Y12196
X1922Y12089
X33905Y51504
X37415Y43177
X25668Y32719
Y40061
X54106Y55444
X53384Y19620
X81972Y65690
X80974
X78991Y16358
X84640Y19590
X94302Y18826
X73759Y19699
X46536Y19620
X59022Y18194
X84640Y15794
X74869Y17826
X67058Y15626
X80932Y10344
X57706Y21616
X85193Y9998
X70225Y14731
X30598Y19606
X36390Y17178
X20950Y16147
X59503Y70413
X42557Y24700
X12619Y14592
X53537Y69793
X41242Y23378
X94661Y100608
X78320Y75434
X83379Y88023
X78316Y92606
X88131Y95172
X79010Y105684
X78419Y113645
X87162Y39837
X91494Y116171
X96773Y107242
X91455Y32083
X73008Y32083
X66766Y32105
X88109Y42892
X86470Y81056
X94536Y33162
X93707Y66397
X97156
X97148Y68103
X93696Y68069
X93711Y46713
X97108Y46732
X93712Y44984
X97112Y45014
X95426Y68084
X95431Y66397
X95471Y44984
X95471Y46713
X94566Y31560
X94605Y29993
X74908Y81044
T02
X106599Y55000
Y59500
T03
X94419Y6528
X96919
X15988Y100656
Y98116
X5584Y79900
Y77360
X2837Y93424
X2836Y90922
R02Y-2500
X6004Y35665
Y33665
X94437Y11987
Y14527
X56499Y11019
X59039
T04
X20500Y4500
Y7040
X23040Y4500
Y7040
X25580Y4500
Y7040
X28120Y4500
Y7040
X30660Y4500
Y7040
X33200Y4500
Y7040
X35740Y4500
Y7040
X38280Y4500
Y7040
X40820Y4500
Y7040
X43360Y4500
Y7040
X45900Y4500
Y7040
X48440Y4500
Y7040
X50980Y4500
Y7040
X53520Y4500
Y7040
X56060Y4500
Y7040
X99730Y34560
X102270
X99730Y32020
X102270
X99730Y29480
X102270
X99730Y26940
X102270
X99730Y24400
X102270
T05
X6703Y70021
X4268Y102059
X5414Y17210
X25650Y36408
X37541Y39918
X33923Y55355
X32634Y79692
X41892Y81286
X51509Y55426
X70062Y94144
X100792Y10871
X91623Y96328
X67500Y4000
X68770Y6540
X70040Y4000
X71310Y6540
X72580Y4000
X73850Y6540
X75120Y4000
X76390Y6540
X77660Y4000
X78930Y6540
X80200Y4000
X81470Y6540
X82740Y4000
X84010Y6540
X85280Y4000
X86550Y6540
X89852Y88752
X92392Y87482
X89852Y86212
X92392Y84942
X89852Y83672
X92392Y82402
X89852Y81132
X92392Y79862
X89852Y78592
X92392Y77322
X89852Y76052
X92392Y74782
X89852Y73512
X92392Y72242
X89852Y70972
X92392Y69702
X101280Y77665
R04Y2770
X104120Y79050
R03Y2770
X14786Y107877
Y110417
X17326Y107877
Y110417
X19866Y107877
Y110417
X22406Y107877
Y110417
X24946Y107877
Y110417
X27486Y107877
Y110417
X30027Y107877
Y110417
X32566Y107877
Y110417
X35106Y107877
Y110417
X37647Y107877
Y110417
T06
X62737Y9832
T07
X65700Y2520
X88350
X88372Y90552
Y67902
T08
X101500Y40400
Y18560
T09
X102700Y95700
Y70710
M30
