G04 ================== begin FILE IDENTIFICATION RECORD ==================*
G04 Layout Name:  C:\PSD_DATA\Projects\Modulator2\worklib\interf_m8_v1\physical\interf_m8_v9_nev_exp.brd*
G04 Film Name:    mask_bottom*
G04 File Format:  Gerber RS274X*
G04 File Origin:  15.2-s015*
G04 Origin Date:  Fri Nov 09 13:00:26 2012*
G04 ================== end FILE IDENTIFICATION RECORD ====================*
%FSLAX55Y55*MOMM*%
%IR0*IPPOS*OFA0.00000B0.00000*MIA0B0*SFA1.00000B1.00000*%
%ADD17R,.6X1.*%
%ADD20R,.65X1.6*%
%ADD26R,1.X2.2*%
%ADD28R,2.2X1.*%
%ADD13R,2.1X2.*%
%ADD25R,1.X1.8*%
%ADD27R,1.8X1.*%
%ADD12R,1.7X1.2*%
%ADD14R,1.2X1.7*%
%ADD19R,3.6X2.3*%
%ADD15C,2.*%
%ADD22R,1.9X1.6*%
%ADD21R,3.4X1.9*%
%ADD30C,4.*%
%ADD18R,1.9X3.4*%
%ADD29C,4.2*%
%ADD24C,1.6*%
%ADD10C,1.8*%
%ADD23C,2.8*%
%ADD11C,3.7*%
%ADD16C,1.95*%
G75*
%LPD*%
G75*
G36*
G01X641980Y1721740D02*
G03I-101280J0D01*
G37*
G36*
G01X772020Y7002130D02*
G03I-101280J0D01*
G37*
G36*
G01X527740Y10205680D02*
G03I-101280J0D01*
G37*
G36*
G01X2665670Y3640750D02*
G03I-101280J0D01*
G37*
G36*
G01X3422940Y1506480D02*
Y1222480D01*
X3357940D01*
Y1354480D01*
X3292940D01*
Y1222480D01*
X3227940D01*
Y1506480D01*
X3422940D01*
G37*
G36*
G01X3491380Y5537250D02*
G03I-101280J0D01*
G37*
G36*
G01X3364220Y7969180D02*
G03I-101280J0D01*
G37*
G36*
G01X3854890Y3991780D02*
G03I-101280J0D01*
G37*
G36*
G01X4290070Y8129450D02*
G03I-101280J0D01*
G37*
G36*
G01X5253530Y5543520D02*
G03I-101280J0D01*
G37*
G36*
G01X6373750Y984100D02*
G03I-101280J0D01*
G37*
G36*
G01X7107010Y9414340D02*
G03I-101280J0D01*
G37*
G36*
G01X9262820Y9632620D02*
G03I-101280J0D01*
G37*
G36*
G01X10180490Y1087090D02*
G03I-101280J0D01*
G37*
G36*
G01X6186570Y4981320D02*
X6036570D01*
Y5181320D01*
X6186570D01*
Y4981320D01*
G37*
G36*
G01X6376570D02*
X6226570D01*
Y5181320D01*
X6376570D01*
Y4981320D01*
G37*
G36*
G01X5919160Y6243740D02*
Y6093740D01*
X5719160D01*
Y6243740D01*
X5919160D01*
G37*
G36*
G01Y6433740D02*
Y6283740D01*
X5719160D01*
Y6433740D01*
X5919160D01*
G37*
G36*
G01X6337120Y10771300D02*
X6487120D01*
Y10571300D01*
X6337120D01*
Y10771300D01*
G37*
G36*
G01X6147120D02*
X6297120D01*
Y10571300D01*
X6147120D01*
Y10771300D01*
G37*
G36*
G01X8564030Y1303570D02*
Y1153570D01*
X8364030D01*
Y1303570D01*
X8564030D01*
G37*
G36*
G01Y1493570D02*
Y1343570D01*
X8364030D01*
Y1493570D01*
X8564030D01*
G37*
G36*
G01X8186500Y1303590D02*
Y1153590D01*
X7986500D01*
Y1303590D01*
X8186500D01*
G37*
G36*
G01Y1493590D02*
Y1343590D01*
X7986500D01*
Y1493590D01*
X8186500D01*
G37*
G36*
G01X8548270Y9689440D02*
X8398270D01*
Y9889440D01*
X8548270D01*
Y9689440D01*
G37*
G36*
G01X8738270D02*
X8588270D01*
Y9889440D01*
X8738270D01*
Y9689440D01*
G37*
G36*
G01X8690580Y11267870D02*
X8910580D01*
Y10612870D01*
X8690580D01*
Y11267870D01*
G37*
G36*
G01X9380580D02*
X9600580D01*
Y10612870D01*
X9380580D01*
Y11267870D01*
G37*
G54D10*
X283600Y8592250D03*
X283700Y9342350D03*
X283600Y9092250D03*
Y8842250D03*
X600410Y3366540D03*
Y3566540D03*
X558440Y7735970D03*
Y7989970D03*
X1598840Y10065570D03*
Y9811570D03*
X5651730Y1079600D03*
X5905730D03*
X9441920Y652810D03*
X9443730Y1198720D03*
Y1452720D03*
X9691920Y652810D03*
X10659930Y5499980D03*
Y5949980D03*
G54D11*
X600000Y600000D03*
Y11150000D03*
X10560000Y600000D03*
Y11150000D03*
G54D20*
X5611030Y4965620D03*
X5676030Y5145620D03*
X5741030Y4965620D03*
G54D30*
X10270000Y7071000D03*
Y9570000D03*
G54D21*
X6027420Y403430D03*
Y703430D03*
G54D12*
X1294750Y3919560D03*
Y4094560D03*
X2563750Y6072390D03*
Y5897390D03*
X2125200Y7637240D03*
Y7812240D03*
X2494380Y9973810D03*
Y10148810D03*
X2239930Y9974250D03*
Y10149250D03*
X1987460Y9974290D03*
Y10149290D03*
X3002040Y9977620D03*
Y10152620D03*
X2749870Y9975870D03*
Y10150870D03*
X3256480Y9978120D03*
Y10153120D03*
X5556690Y6173890D03*
Y6348890D03*
X5186650Y7464730D03*
Y7289730D03*
X6467660Y1690310D03*
X6467330Y1297490D03*
Y1472490D03*
X6467660Y1865310D03*
X6688390Y1691680D03*
X6840230Y1298070D03*
Y1473070D03*
X6688390Y1866680D03*
X6680290Y2732540D03*
Y2557540D03*
X6790630Y4533970D03*
Y4358970D03*
X7108310Y10568560D03*
Y10743560D03*
X7623780Y1782570D03*
Y1957570D03*
X7837420Y1782940D03*
Y1957940D03*
X7721650Y2733660D03*
Y2558660D03*
X7676310Y4748800D03*
Y4923800D03*
X7718860Y10568350D03*
Y10743350D03*
X8757600Y2173060D03*
Y1998060D03*
X8209720Y2999020D03*
Y3174020D03*
X8757190Y2734220D03*
Y2559220D03*
X8494550Y8929240D03*
Y9104240D03*
X8408200Y10638280D03*
Y10813280D03*
X8029360Y11110430D03*
Y10935430D03*
X8408730Y10975840D03*
Y11150840D03*
X9175720Y1454720D03*
Y1629720D03*
X9466110Y10215780D03*
Y10390780D03*
X9018700Y11618460D03*
Y11443460D03*
X9276260Y11618810D03*
Y11443810D03*
X9707010Y2532090D03*
Y2357090D03*
X9680700Y10215800D03*
Y10390800D03*
G54D22*
X5902170Y1664340D03*
Y1464340D03*
G54D13*
X1734470Y4340020D03*
Y4848020D03*
X1294470D03*
Y4340020D03*
G54D23*
X6570000Y252000D03*
X8835000D03*
X8837200Y6790230D03*
Y9055230D03*
G54D14*
X1457830Y9402470D03*
X1632830D03*
X1262740Y8848240D03*
X1437740D03*
X2164150Y4344280D03*
X1989150D03*
X2338560Y6586280D03*
X2513560D03*
X2336650Y7106440D03*
X2511650D03*
X2884810Y1314020D03*
X3059810D03*
X3656880Y6044060D03*
X3831880D03*
X3588540Y7181040D03*
X3763540D03*
X5553120Y7118740D03*
X5389780Y7118680D03*
X5214780D03*
X5378110Y7442690D03*
X5553110D03*
X6046890Y4528860D03*
X5871890D03*
X5871830Y4771120D03*
X6046830D03*
X6269910Y4276200D03*
X6444910D03*
X6142060Y5364750D03*
X6317060D03*
X6095470Y6358960D03*
X6270470D03*
X5728120Y7118740D03*
X6095480Y6877390D03*
X6270480D03*
X6059210Y8412050D03*
X6234210D03*
X6059580Y8154040D03*
X6234580D03*
X6059580Y8664700D03*
X6234580D03*
X5997850Y10470480D03*
X5822850D03*
X5998820Y10867400D03*
X5823820D03*
X7179110Y3708050D03*
X6641540Y3868160D03*
X6816540D03*
X6640760Y4087020D03*
X6815760D03*
X7090950Y4761580D03*
X6745310Y7539900D03*
X6570310D03*
X6768250Y7862650D03*
X6943250D03*
X6745280Y9329190D03*
X6570280D03*
X6559280Y9806790D03*
X6734280D03*
X6559270Y10045580D03*
X6734270D03*
X6614740Y10666630D03*
X6789740D03*
X6559270Y10291310D03*
X6734270D03*
X7082570Y10349080D03*
X6617210Y11110480D03*
X6792210D03*
X7916100Y2951990D03*
X7741100D03*
X7816530Y3665680D03*
X7991530D03*
X7354110Y3708050D03*
X7265950Y4761580D03*
X7986600Y4099340D03*
X7966840Y9725880D03*
X7967880Y9981240D03*
X7257570Y10349080D03*
X7696960Y10348580D03*
X7521960D03*
X7351710Y10717020D03*
X7526710D03*
X8472960Y3148600D03*
X8647960D03*
X8161600Y4099340D03*
X8032300Y7543350D03*
X8207300D03*
X8198870Y7865230D03*
X8023870D03*
X8141840Y9725880D03*
X8142880Y9981240D03*
X8462810Y9517150D03*
X8637810D03*
X9273380Y3663000D03*
X9448380D03*
X10536120Y3201650D03*
X10711120D03*
X10536220Y3456240D03*
X10711220D03*
G54D24*
X6750000Y400000D03*
X7004000D03*
X7131000Y654000D03*
X6877000D03*
X7258000Y400000D03*
X7512000D03*
X7766000D03*
X7893000Y654000D03*
X7639000D03*
X7385000D03*
X8020000Y400000D03*
X8274000D03*
X8528000D03*
X8655000Y654000D03*
X8401000D03*
X8147000D03*
X8985200Y7097230D03*
X9239200Y6970230D03*
X8985200Y7859230D03*
Y7605230D03*
Y7351230D03*
X9239200Y7224230D03*
Y7478230D03*
Y7732230D03*
X8985200Y8621230D03*
Y8367230D03*
Y8113230D03*
X9239200Y7986230D03*
Y8240230D03*
Y8494230D03*
X8985200Y8875230D03*
X9239200Y8748230D03*
X10128000Y7766500D03*
Y8597500D03*
Y8320500D03*
Y8043500D03*
Y8874500D03*
X10412000Y7905000D03*
Y8182000D03*
Y8459000D03*
Y8736000D03*
G54D15*
X1478650Y10787740D03*
X1732650D03*
Y11041740D03*
X1478650D03*
X1986650Y10787740D03*
X2240650D03*
X2494650D03*
Y11041740D03*
X2240650D03*
X1986650D03*
X2748650Y10787740D03*
X3002650D03*
X3256650D03*
Y11041740D03*
X3002650D03*
X2748650D03*
X3510650Y10787740D03*
X3764650D03*
Y11041740D03*
X3510650D03*
G54D16*
X2050000Y450000D03*
X2304000D03*
X2558000D03*
Y704000D03*
X2304000D03*
X2050000D03*
X2812000Y450000D03*
X3066000D03*
X3320000D03*
Y704000D03*
X3066000D03*
X2812000D03*
X3574000Y450000D03*
X3828000D03*
X4082000D03*
Y704000D03*
X3828000D03*
X3574000D03*
X4336000Y450000D03*
X4590000D03*
X4844000D03*
Y704000D03*
X4590000D03*
X4336000D03*
X5098000Y450000D03*
X5352000D03*
X5606000D03*
Y704000D03*
X5352000D03*
X5098000D03*
X9973000Y2440000D03*
X10227000D03*
X9973000Y3202000D03*
Y2948000D03*
Y2694000D03*
X10227000D03*
Y2948000D03*
Y3202000D03*
X9973000Y3456000D03*
X10227000D03*
G54D25*
X6994900Y2173720D03*
X7121900D03*
Y2733720D03*
X6994900D03*
X7248900Y2173720D03*
X7375900D03*
Y2733720D03*
X7248900D03*
X8082600Y2173830D03*
X8209600D03*
X8336600D03*
X8463600D03*
Y2733830D03*
X8336600D03*
X8209600D03*
X8082600D03*
X9049200Y2173720D03*
X9176200D03*
X9303200D03*
X9430200D03*
Y2733720D03*
X9303200D03*
X9176200D03*
X9049200D03*
G54D26*
X7173800Y3031670D03*
X6803560Y3031660D03*
X6676560D03*
X6549560D03*
X7173800Y3381670D03*
X6549560Y3381660D03*
X6676560D03*
X6803560D03*
X6942560Y6355790D03*
X6815560D03*
X6688560D03*
X6561560D03*
Y7235790D03*
X6688560D03*
X6815560D03*
X6942560D03*
X6942620Y8176160D03*
X6815620D03*
X6688620D03*
X6561620D03*
Y9056160D03*
X6688620D03*
X6815620D03*
X6942620D03*
X7427800Y3031670D03*
X7300800D03*
Y3381670D03*
X7427800D03*
X7958560Y6355790D03*
X7831560D03*
Y7235790D03*
X7958560D03*
X7958620Y8176160D03*
X7831620D03*
Y9056160D03*
X7958620D03*
X8212560Y6355790D03*
X8085560D03*
Y7235790D03*
X8212560D03*
X8212620Y8176160D03*
X8085620D03*
Y9056160D03*
X8212620D03*
X9272500Y3031670D03*
X9145500D03*
X9018500D03*
Y3381670D03*
X9145500D03*
X9272500D03*
G54D17*
X3260440Y1454480D03*
X3325440D03*
X3390440D03*
Y1274480D03*
X3260440D03*
G54D18*
X3924610Y6351170D03*
X3624610D03*
X3921960Y6880980D03*
X3621960D03*
X4849810Y1961950D03*
X5149810D03*
G54D27*
X7111590Y4480340D03*
Y4353340D03*
Y4226340D03*
Y4099340D03*
X7108720Y10107880D03*
Y9980880D03*
Y9853880D03*
Y9726880D03*
X7111410Y11364490D03*
Y11237490D03*
Y11110490D03*
Y10983490D03*
X7671590Y4099340D03*
Y4226340D03*
Y4353340D03*
Y4480340D03*
X7668720Y9726880D03*
Y9853880D03*
Y9980880D03*
Y10107880D03*
X7671410Y10983490D03*
Y11110490D03*
Y11237490D03*
Y11364490D03*
G54D19*
X4968020Y8163990D03*
Y8763990D03*
G54D28*
X8036540Y4461750D03*
Y4588750D03*
Y4715750D03*
X8386540D03*
Y4588750D03*
Y4461750D03*
G54D29*
X10150000Y1856000D03*
Y4040000D03*
M02*
