G04 ================== begin FILE IDENTIFICATION RECORD ==================*
G04 Layout Name:  C:\PSD_data\PSD_data\Projects\DSP_M5\worklib\interf_m8_v1\physical\interf_m8_v9_nev.brd*
G04 Film Name:    Pwr*
G04 File Format:  Gerber RS274X*
G04 File Origin:  15.2-s015*
G04 Origin Date:  Tue May 03 13:49:26 2011*
G04 ================== end FILE IDENTIFICATION RECORD ====================*
%FSLAX55Y55*MOMM*%
%IR0*IPPOS*OFA0.00000B0.00000*MIA0B0*SFA1.00000B1.00000*%
%ADD10C,.7*%
%ADD13C,2.*%
%ADD17C,4.*%
%ADD16C,1.4*%
%ADD11C,1.6*%
%ADD12C,3.5*%
%ADD14C,1.8*%
%ADD18C,3.8*%
%ADD15C,1.75*%
%ADD19C,.3*%
%ADD20C,.4*%
%ADD21C,.5*%
%ADD29C,2.0002*%
%ADD27C,2.2002*%
%ADD22C,1.3002*%
%ADD26C,2.4002*%
%ADD31C,4.4002*%
%ADD23C,2.6002*%
%ADD30C,4.6002*%
%ADD24C,2.3502*%
%ADD25C,7.3004*%
%ADD28C,3.4036*%
%ADD32C,3.4218*%
G75*
%LPD*%
G75*
G36*
G01X1818650Y2153820D02*
X3021170D01*
X3022620Y2152510D01*
G03X3109760I43570J48250D01*
G01X3111210Y2153820D01*
X3212080D01*
X3213590Y2152200D01*
G03X3308790I47600J44279D01*
G01X3310300Y2153820D01*
X3962660D01*
Y2520700D01*
X4613920D01*
Y2309930D01*
X4614480Y2309370D01*
Y2188840D01*
X4240480D01*
Y1496040D01*
X4405290Y1331230D01*
X5358470D01*
X5369970Y1319730D01*
Y906930D01*
X5374230Y902670D01*
X5470590D01*
X5470800Y902460D01*
X5962980D01*
Y843970D01*
X5963020Y843930D01*
Y19850D01*
X18650D01*
Y2153820D01*
X1733470D01*
X1734870Y2152670D01*
G03X1817250I41190J50299D01*
G01X1818650Y2153820D01*
G37*
G36*
G01X18690Y2184350D02*
Y11797620D01*
X4192010D01*
Y11797580D01*
X7361990D01*
Y10563350D01*
G02X7343470Y10557650I-10137J0D01*
G03Y10484470I-53738J-36590D01*
G02X7361990Y10478770I8383J-5700D01*
G01Y8225210D01*
G02X7346310Y8216720I-10138J0D01*
G03Y8107800I-35501J-54460D01*
G02X7361990Y8099310I5542J-8490D01*
G01Y5700360D01*
G02X7349190Y5690570I-10144J0D01*
G03Y5565130I-17094J-62720D01*
G02X7361990Y5555340I2656J-9790D01*
G01Y5168130D01*
G02X7347600Y5158930I-10136J0D01*
G03X7256030Y5109520I-27271J-59017D01*
G02X7240010Y5102830I-10029J1491D01*
G03X7265880Y5040790I-38427J-52437D01*
G02X7281900Y5047480I10029J-1491D01*
G03X7290630Y5042080I38456J52414D01*
G02X7289400Y5023510I-4632J-9019D01*
G03X7346360Y4907590I21784J-61250D01*
G02X7361990Y4899060I5487J-8530D01*
G01Y3569210D01*
X6946530D01*
X6945540Y3572980D01*
G03X6819840I-62850J-16626D01*
G01X6818850Y3569210D01*
X6324230D01*
X6324220Y3569220D01*
X6307400D01*
Y3569210D01*
Y2337260D01*
X4646800D01*
Y2552450D01*
X4306440D01*
Y2986150D01*
X4850850Y3530560D01*
Y6125960D01*
X5404410Y6679520D01*
Y6938580D01*
X5405440Y6939940D01*
G03Y7018560I-51780J39310D01*
G01X5404410Y7019920D01*
Y7104350D01*
X5816550D01*
X5885560Y7035330D01*
X5885770Y7033590D01*
G03X5958030Y7105850I64550J7710D01*
G01X5956290Y7106060D01*
X5857970Y7204370D01*
X5373560D01*
G03X5338200Y7189720I0J-49998D01*
G01X5319040Y7170560D01*
G03X5304390Y7135200I35348J-35360D01*
G01Y7043240D01*
G02X5288770Y7034700I-10145J0D01*
G03Y6925280I-35112J-54710D01*
G02X5304390Y6916740I5475J-8540D01*
G01Y6720940D01*
X4750830Y6167380D01*
Y3571980D01*
X4206420Y3027570D01*
Y2552450D01*
X3931620D01*
X3931600Y2552430D01*
X3894680D01*
Y2184350D01*
X3336310D01*
G02X3326180Y2194760I0J10134D01*
G03X3196200I-64990J1720D01*
G02X3186070Y2184350I-10130J-276D01*
G01X3141080D01*
G02X3130970Y2195340I0J10145D01*
G03X3001410I-64780J5420D01*
G02X2991300Y2184350I-10110J-845D01*
G01X1850730D01*
G02X1840650Y2195630I0J10144D01*
G03X1711470I-64590J7353D01*
G02X1701390Y2184350I-10080J-1136D01*
G01X18690D01*
G37*
G36*
G01X5993030Y17840D02*
Y856360D01*
X5992990Y856400D01*
Y912080D01*
X5992960Y912110D01*
Y932520D01*
X5483180D01*
X5483020Y932680D01*
X5399980D01*
Y1332160D01*
X5398430Y1333720D01*
Y1334030D01*
X5371170Y1361290D01*
X4419790D01*
X4270800Y1510280D01*
Y2153550D01*
X4646110D01*
Y2307250D01*
X9585040D01*
Y2097330D01*
X9586090Y2096900D01*
X9826790D01*
Y1311230D01*
X11177980D01*
Y17840D01*
X5993030D01*
G37*
G36*
G01X6544110Y2901810D02*
Y3399210D01*
X6595270D01*
X6595280Y3399200D01*
X9549970D01*
Y2901810D01*
X6544110D01*
G37*
G36*
G01X9859330Y1344910D02*
Y2129860D01*
X9833080D01*
Y3437650D01*
X7684790D01*
G02X7676720Y3453930I0J10140D01*
G03X7577080Y3537260I-51731J39380D01*
G02X7559470Y3544110I-7473J6850D01*
G01Y5821520D01*
X9242370D01*
Y4339730D01*
X9859330D01*
Y4925350D01*
X9863850Y4925840D01*
G03Y5055100I-7013J64630D01*
G01X9859330Y5055590D01*
Y5162130D01*
X10023140D01*
X10024020Y5163010D01*
Y6020680D01*
X10023190Y6021020D01*
X9859330D01*
Y6960220D01*
X9825800D01*
Y6965460D01*
G03X9817130Y6969050I-5078J0D01*
G01X9808300Y6960220D01*
X9392020D01*
Y7449850D01*
G02X9405690Y7459350I10136J0D01*
G03Y7581230I22647J60940D01*
G02X9392020Y7590730I-3534J9500D01*
G01Y9391670D01*
X9391620Y9392070D01*
Y9420370D01*
X9390990Y9420630D01*
X9280860D01*
X9280830Y9420600D01*
X7399130D01*
Y11797180D01*
X11188070D01*
Y1364050D01*
X11168930Y1344910D01*
X9859330D01*
G37*
G36*
G01X7399410Y5857010D02*
Y9380070D01*
X9362010D01*
Y6959300D01*
X9349350D01*
G02X9339210Y6969510I0J10140D01*
G03X9238420Y6870220I-100009J719D01*
G01X9243450Y6870180D01*
Y5857010D01*
X7399410D01*
G37*
G36*
G01X9296880Y6197310D02*
G03Y6263190I56049J32940D01*
G02X9278000Y6268330I-8740J5140D01*
G01Y6878000D01*
X9280950Y6879350D01*
G03X9313140Y6902890I-41754J90877D01*
G01X9314650Y6904550D01*
X9752700D01*
X9752820Y6904440D01*
X9795790D01*
Y4395190D01*
X9278000D01*
Y6192170D01*
G02X9296880Y6197310I10140J0D01*
G37*
%LPC*%
G75*
G36*
G01X3253080Y1570860D02*
G02X3251760Y1636060I-56890J31462D01*
G03X3269300Y1636410I8669J5260D01*
G02X3270620Y1571210I56890J-31462D01*
G03X3253080Y1570860I-8669J-5260D01*
G37*
G36*
G01X2309550Y1161520D02*
G02X2255690Y1162010I-27468J-58921D01*
G03X2255860Y1180470I-4117J9269D01*
G02X2245000Y1291910I27460J58925D01*
G03X2245330Y1308040I-5979J8191D01*
G02X2324100Y1306410I40455J50890D01*
G03X2323770Y1290280I5979J-8191D01*
G02X2309720Y1179980I-40451J-50892D01*
G03X2309550Y1161520I4117J-9269D01*
G37*
G36*
G01X5848210Y8896580D02*
G02Y8968080I-54299J35750D01*
G03X5865140I8465J5581D01*
G02Y8896580I54299J-35750D01*
G03X5848210I-8465J-5581D01*
G37*
G36*
G01X1632960Y8901090D02*
G02X1592250Y8913800I-38657J-52268D01*
G01X1594230Y8923460D01*
G02X1636660Y8919110I27478J58919D01*
G03X1632960Y8901090I2329J-9868D01*
G37*
G36*
G01X1589740Y6765450D02*
G02X1550560Y6799090I-58455J-28446D01*
G03X1562690Y6813210I3012J9682D01*
G02X1601870Y6779570I58455J28446D01*
G03X1589740Y6765450I-3012J-9682D01*
G37*
G36*
G01X3379190Y6272000D02*
X2531520D01*
X2268340Y6535180D01*
Y6941660D01*
G02X2408360I70010J0D01*
G01Y6593180D01*
X2589520Y6412020D01*
X3321190D01*
X3384890Y6475710D01*
G02X3483890Y6376710I49500J-49500D01*
G01X3379190Y6272000D01*
G37*
G36*
G01X4333080Y5028300D02*
X4037720D01*
X3586870Y5479150D01*
Y5640380D01*
G02X3726890I70010J0D01*
G01Y5537150D01*
X4095720Y5168320D01*
X4333080D01*
G02Y5028300I0J-70010D01*
G37*
G36*
G01X661390Y3458100D02*
G02X539430I-60980J-91561D01*
G03Y3474980I-5620J8440D01*
G02X661390I60980J91561D01*
G03Y3458100I5620J-8440D01*
G37*
G36*
G01X6732900Y288020D02*
G02X6636970Y407450I-164844J-34166D01*
G03X6651150Y415160I4156J9251D01*
G02X6743490Y300200I98853J-15163D01*
G03X6732900Y288020I-661J-10119D01*
G37*
G36*
G01X8991700Y8975030D02*
G02X8886150Y8889060I-6500J-99799D01*
G03X8873780Y8900330I-10042J1401D01*
G02X8983160Y8989420I-36983J157097D01*
G03X8991700Y8975030I9199J-4270D01*
G37*
G36*
G01X8143680Y6523330D02*
G02Y6614610I-46292J45640D01*
G03X8150910I3615J3558D01*
G02Y6523330I46292J-45640D01*
G03X8143680I-3615J-3558D01*
G37*
G54D29*
X7004000Y400000D03*
X7258000D03*
X7512000D03*
X7766000D03*
X8020000D03*
X8274000D03*
X8528000D03*
X6877000Y654000D03*
X7131000D03*
X7385000D03*
X7639000D03*
X7893000D03*
X8147000D03*
X8401000D03*
X10128000Y7766500D03*
X10412000Y7905000D03*
X10128000Y8043500D03*
X10412000Y8182000D03*
X10128000Y8320500D03*
X10412000Y8459000D03*
X10128000Y8597500D03*
X10412000Y8736000D03*
X10128000Y8874500D03*
X9239200Y8748230D03*
Y8494230D03*
X8985200Y8367230D03*
X9239200Y8240230D03*
X8985200Y8113230D03*
X9239200Y7986230D03*
X8985200Y7859230D03*
X9239200Y7732230D03*
X8985200Y7605230D03*
X9239200Y7478230D03*
X8985200Y7351230D03*
X9239200Y7224230D03*
X8985200Y7097230D03*
G54D27*
X1598840Y10065570D03*
Y9811570D03*
X283700Y9342350D03*
X283600Y9092250D03*
Y8842250D03*
Y8592250D03*
X558440Y7989970D03*
Y7735970D03*
X9441920Y652810D03*
X9691920D03*
X9443730Y1198720D03*
X5651730Y1079600D03*
X10659930Y5499980D03*
Y5949980D03*
G54D22*
X881610Y2020120D03*
X4052380Y1915320D03*
X4051920Y1722540D03*
X1516060Y1618980D03*
X2552800Y1571440D03*
X3526780Y1380500D03*
X4726010Y1231660D03*
X881610Y1219630D03*
X192160Y1208890D03*
X3400880Y1124860D03*
X2544600Y1097670D03*
X3700460Y862080D03*
X6617210Y10925500D03*
X6789740Y10837100D03*
X5088050Y10743340D03*
X6073770Y10671300D03*
X4429280Y10622720D03*
X688200Y10501380D03*
X6412120Y10469330D03*
X6126610D03*
X6237750Y10300700D03*
X4887010Y10206240D03*
X3914300D03*
X1172510Y10066940D03*
X5805610Y10043030D03*
X700740Y9865640D03*
X6919900Y9726880D03*
X3150800Y9615870D03*
X4907930Y9413270D03*
X3601100D03*
X4005900Y9411540D03*
X4882300Y9234590D03*
X1599100Y9203670D03*
X3258100Y9070530D03*
X5442540Y8840580D03*
X6942620Y8839300D03*
X5225290Y8711480D03*
X3150800Y8693050D03*
X1870120Y8689700D03*
X1604460Y8683460D03*
X2830800Y8638430D03*
X1607760Y8471220D03*
X4182070Y8456280D03*
X7111400Y8442020D03*
X5212410Y8392960D03*
X2748650Y8387320D03*
X4643150Y8308240D03*
X5924010Y8226900D03*
X1100920Y8141460D03*
X853820Y8134540D03*
X5259750Y8133300D03*
X6059580Y7991750D03*
X2480150Y7987900D03*
X2125200Y7966650D03*
X6494520Y7862650D03*
X1584930Y7838650D03*
X4185650Y7799060D03*
X5855060Y7757410D03*
X2476310Y7733040D03*
X2314710Y7725370D03*
X6724460Y7706210D03*
X3261590Y7657580D03*
X4804190Y7595420D03*
X1904550Y7588190D03*
X6209410Y7574100D03*
X6898830Y7464770D03*
X1713670Y7434110D03*
X4299090Y7419980D03*
X659550Y7419410D03*
X2062410Y7418790D03*
X5641830Y7280760D03*
X2501230Y7264130D03*
X1531290Y7192460D03*
X1089010Y7086220D03*
X4159990Y7079630D03*
X5106740Y7071000D03*
X7261250Y7012550D03*
X3070320Y7010640D03*
X5556560Y6985730D03*
X6377630Y6981900D03*
X1297860Y6945500D03*
X4474880Y6893760D03*
X4634270Y6892590D03*
X2855550Y6887000D03*
X1416670Y6843930D03*
X1765350Y6829020D03*
X2734030Y6815740D03*
X2530110Y6814010D03*
X1932120Y6805610D03*
X4628160Y6736630D03*
X4334990Y6646570D03*
X3470800Y6568010D03*
X1940530Y6537520D03*
X1552030D03*
X967920D03*
X670290Y6525790D03*
X5819160Y6503750D03*
X2705300Y6501900D03*
X4135410Y6351170D03*
X5329480Y6348890D03*
X4227690Y6165610D03*
X7041160Y6150290D03*
X6495220Y6118920D03*
X2769480Y6046810D03*
X6331640Y5998900D03*
X6095470D03*
X5938830Y5979750D03*
X4613980Y5967480D03*
X5666730Y5958660D03*
X6571160Y5908850D03*
X2322310Y5903100D03*
X2149040Y5705740D03*
X5410570Y5544430D03*
X6311520Y5526580D03*
X4248770Y5487290D03*
X6971620Y5474750D03*
X866920Y5317520D03*
X6856010Y5317250D03*
X5676030Y5303060D03*
X1391890Y5288000D03*
X3390530Y5150450D03*
X6467690Y5081320D03*
X5492360Y5075320D03*
X1294470Y5067650D03*
X2437990Y4937350D03*
X3949700Y4866590D03*
X5025780Y4804180D03*
X6460020Y4793630D03*
X2560620Y4674830D03*
X7265950Y4611600D03*
X5652040Y4602260D03*
X2306720Y4344280D03*
X5536440Y4329920D03*
X5014770D03*
X3741530Y4317730D03*
X6603740Y4276200D03*
X4590490Y4244960D03*
X6462390Y4087020D03*
X4334790Y4013550D03*
X2566760Y4006130D03*
X7259910Y3963930D03*
X5091650Y3900480D03*
X4945250Y3899000D03*
X6456200Y3893030D03*
X6518650Y3677930D03*
X6371520D03*
X2566760Y3271900D03*
X2432700Y2787410D03*
X3936430Y2777790D03*
X3001190Y2523130D03*
X1516060Y2520860D03*
X2806190Y2515580D03*
X599720Y2490630D03*
X5994400Y2465490D03*
X5787460D03*
X5022170Y1542510D03*
X4436190Y1547960D03*
X8464030Y1579350D03*
X7899070Y1635790D03*
X4436200Y1789060D03*
X5902170Y1819380D03*
X9430200Y1882560D03*
X8464030Y1958970D03*
X4825660Y1961460D03*
X4653640Y1962030D03*
X5338420D03*
X7375900Y1969880D03*
X8367590Y3309450D03*
X8687670Y5101660D03*
X8557020Y5230510D03*
X8384090Y4131540D03*
X8716250Y3983660D03*
X8810930Y4289220D03*
X8705170Y4461720D03*
X8659310Y5672940D03*
X9528560Y8265120D03*
X8813090Y9517150D03*
X8265920Y9727800D03*
X9466110Y10060800D03*
X7900990Y10568350D03*
X9677280Y10724170D03*
X7841900Y11364490D03*
X9149370Y11617120D03*
X8060530Y5386190D03*
X8098360Y4291380D03*
X7831620Y9260610D03*
X8337870Y8802260D03*
X8058740Y8515140D03*
X8647000Y8105570D03*
X7490820Y8104380D03*
X8071240Y7703220D03*
X7832010Y7543350D03*
X8652090Y6230250D03*
X8557020Y6055570D03*
X9357280Y5672940D03*
X9372540Y5101660D03*
G54D26*
X3764650Y11041740D03*
X3510650D03*
X3256650D03*
X3002650D03*
X2748650D03*
X2494650D03*
X2240650D03*
X1986650D03*
X1732650D03*
X3764650Y10787740D03*
X3510650D03*
X3256650D03*
X3002650D03*
X2748650D03*
X2494650D03*
X2240650D03*
X1986650D03*
X1732650D03*
X6273730Y983250D03*
G54D31*
X10270000Y7071000D03*
Y9570000D03*
G54D23*
X541350Y1721050D03*
X426750Y10205900D03*
X7006250Y9414430D03*
X4189220Y8128570D03*
X3263380Y7969180D03*
X670300Y7002140D03*
X5150900Y5542640D03*
X3392320Y5535470D03*
X3754060Y3991790D03*
X2564970Y3640800D03*
X10079190Y1087110D03*
X9162310Y9632840D03*
G54D30*
X10150000Y1856000D03*
Y4040000D03*
G54D24*
X5098000Y704000D03*
X4844000D03*
X4590000D03*
X4336000D03*
X4082000D03*
X3828000D03*
X3574000D03*
X3320000D03*
X3066000D03*
X2812000D03*
X2558000D03*
X2304000D03*
X2050000D03*
X5606000Y450000D03*
X5352000D03*
X5098000D03*
X4844000D03*
X4590000D03*
X4336000D03*
X4082000D03*
X3828000D03*
X3574000D03*
X3320000D03*
X3066000D03*
X2812000D03*
X2558000D03*
X2304000D03*
X2050000D03*
X9973000Y2440000D03*
X10227000D03*
X9973000Y2694000D03*
X10227000D03*
X9973000Y2948000D03*
Y3202000D03*
X10227000D03*
X9973000Y3456000D03*
X10227000D03*
G54D25*
X600000Y600000D03*
Y11150000D03*
X10560000Y600000D03*
Y11150000D03*
G54D28*
X8833660Y253850D03*
G54D32*
X8836340Y6790040D03*
%LPD*%
G75*
G54D10*
G01X3434390Y6426210D02*
X3350190Y6342010D01*
X2560520D01*
X2338350Y6564180D01*
Y6941660D01*
G01X4333080Y5098310D02*
X4066720D01*
X3656880Y5508150D01*
Y5640380D01*
X192160Y1208890D03*
X881610Y1219630D03*
X599720Y2490630D03*
X881610Y2020120D03*
X866920Y5317520D03*
X967920Y6537520D03*
X1089010Y7086220D03*
X670290Y6525790D03*
X807540Y7813730D03*
X659550Y7419410D03*
X1100920Y8141460D03*
X853820Y8134540D03*
X1098590Y8843050D03*
X700740Y9865640D03*
X688200Y10501380D03*
X1516060Y1618980D03*
X1261890Y1459200D03*
X1776060Y2202970D03*
X1516060Y2520860D03*
X1468100Y3919560D03*
X1513150Y4340020D03*
X1391890Y5288000D03*
X1294470Y5067650D03*
X1765350Y6829020D03*
X1552030Y6537520D03*
X1531290Y6737000D03*
X1621140Y6841660D03*
X1297860Y6945500D03*
X1416670Y6843930D03*
X1531290Y7192460D03*
X1713670Y7434110D03*
X1584930Y7838650D03*
X1138560Y8523380D03*
X1607760Y8471220D03*
X1870120Y8689700D03*
X1621700Y8982380D03*
X1604460Y8683460D03*
X1599100Y9203670D03*
X1594310Y8848820D03*
X1172510Y10066940D03*
X1140170Y9500770D03*
X1779100Y9583330D03*
X1173780Y9891940D03*
X2285780Y1358930D03*
X2283320Y1239390D03*
X2544600Y1097670D03*
X2282090Y1102600D03*
X2552800Y1571440D03*
X2094990Y1614710D03*
X2257700Y2786780D03*
X2432700Y2787410D03*
X2566760Y3271900D03*
Y4006130D03*
X2560620Y4674830D03*
X2306720Y4344280D03*
X2437990Y4937350D03*
X2322310Y5903100D03*
X2568280Y6184770D03*
X2149040Y5705740D03*
X2530110Y6814010D03*
X1940530Y6537520D03*
X2338350Y6941660D03*
X1932120Y6805610D03*
X2476310Y7733040D03*
X1904550Y7588190D03*
X2314710Y7725370D03*
X2374750Y7329680D03*
X2501230Y7264130D03*
X2062410Y7418790D03*
X2480150Y7987900D03*
X2125200Y7966650D03*
X2118150Y9760620D03*
X3400880Y1124860D03*
X3196190Y1602320D03*
X3326190Y1604950D03*
X3066190Y2200760D03*
X3261190Y2196480D03*
X2806190Y2515580D03*
X3059810Y1960550D03*
X3001190Y2523130D03*
X2672610Y3005010D03*
X3060740Y4917230D03*
X3390530Y5150450D03*
X2769480Y6046810D03*
X2855550Y6887000D03*
X2734030Y6815740D03*
X3070320Y7010640D03*
X2705300Y6501900D03*
X3261590Y7657580D03*
X2748650Y8387320D03*
X2713920Y8092320D03*
X3150800Y8693050D03*
X3258100Y9070530D03*
X2830800Y8638430D03*
X3150800Y9615870D03*
X3002040Y9815370D03*
X3700460Y862080D03*
X3526780Y1380500D03*
X4051920Y1722540D03*
X3639020Y1717770D03*
X4052380Y1915320D03*
X4124190Y2337780D03*
X3761430Y2775860D03*
X3936430Y2777790D03*
X3741530Y4317730D03*
X3949700Y4866590D03*
X3656880Y5640380D03*
X3434390Y6426210D03*
X3442060Y6891840D03*
X3470800Y6568010D03*
X4135410Y6351170D03*
X4159990Y7079630D03*
X4005900Y9411540D03*
X3601100Y9413270D03*
X3914300Y10206240D03*
X4726010Y1231660D03*
X4436190Y1547960D03*
X4653640Y1962030D03*
X4436200Y1789060D03*
X4825660Y1961460D03*
X4216460Y2470030D03*
X4334790Y4013550D03*
X4590490Y4244960D03*
X4248770Y5487290D03*
X4333080Y5098310D03*
X4227690Y6165610D03*
X4613980Y5967480D03*
X4634270Y6892590D03*
X4474880Y6893760D03*
X4628160Y6736630D03*
X4334990Y6646570D03*
X4436550Y7499260D03*
X4804190Y7595420D03*
X4299090Y7419980D03*
X4185650Y7799060D03*
X4643150Y8308240D03*
X4469600Y8304540D03*
X4182070Y8456280D03*
X4507440Y9101170D03*
X4882300Y9234590D03*
X4907930Y9413270D03*
X4882040Y9616970D03*
X4887010Y10206240D03*
X4429280Y10622720D03*
X4449140Y10970930D03*
X5022170Y1542510D03*
X5338420Y1962030D03*
X5404210Y3447530D03*
X5404220Y3619980D03*
X5403740Y3780000D03*
Y3933280D03*
X5609260Y3623820D03*
X5607810Y3941900D03*
X5607320Y3785730D03*
X4945250Y3899000D03*
X5091650Y3900480D03*
X5652040Y4602260D03*
X5025780Y4804180D03*
X5536440Y4329920D03*
X5014770D03*
X5676030Y5303060D03*
X5492360Y5075320D03*
X5410570Y5544430D03*
X5666730Y5958660D03*
X5556690Y6023820D03*
X5253660Y6979990D03*
X5556560Y6985730D03*
X5329480Y6348890D03*
X5106740Y7071000D03*
X5353660Y6979250D03*
X5641830Y7280760D03*
X5465530Y8087530D03*
X4991700Y8581480D03*
X5222180Y7920820D03*
X5259750Y8133300D03*
X5212410Y8392960D03*
X5225290Y8711480D03*
X5188180Y8972310D03*
X5684690Y9236990D03*
X5442540Y8840580D03*
X5088050Y10743340D03*
X5095860Y10971360D03*
X5787460Y2465490D03*
X5994400D03*
X5902170Y1819380D03*
X5770590Y2161560D03*
X6174040Y3195470D03*
X6037990D03*
X5774520Y3450400D03*
X5905780Y3597950D03*
X6373610Y3468210D03*
X6371520Y3677930D03*
X6032720Y4278470D03*
X6311520Y5526580D03*
X6142060Y5525490D03*
X5940740Y5079140D03*
X5938830Y5979750D03*
X6331640Y5998900D03*
X6095470D03*
X5819160Y5931840D03*
X6377630Y6981900D03*
X5819160Y6503750D03*
X5950320Y7041300D03*
X6405870Y7539900D03*
X6209410Y7574100D03*
X5855060Y7757410D03*
X6059580Y7991750D03*
X5924010Y8226900D03*
X5793910Y8932330D03*
X5919440D03*
X5805610Y9571570D03*
Y10043030D03*
X6237750Y10300700D03*
X6412120Y10469330D03*
X6126610D03*
X6073770Y10671300D03*
X6705800Y1562620D03*
X7022500Y1473070D03*
X6678830Y2397740D03*
X6676560Y3210540D03*
X6882690Y3556350D03*
X6456200Y3893030D03*
X6721580Y3682260D03*
X6960150Y3822560D03*
X6518650Y3677930D03*
X6462390Y4087020D03*
X6460020Y4793630D03*
X6952480Y4639390D03*
X6784820Y4729450D03*
X6603740Y4276200D03*
X7201580Y5050400D03*
X6971620Y5474750D03*
X6832330Y5473780D03*
X6467690Y5081320D03*
X6856010Y5317250D03*
X7041160Y6150290D03*
X6571160Y5908850D03*
X6495220Y6118920D03*
X6724460Y7706210D03*
X7074010Y7454950D03*
X6898830Y7464770D03*
X6494520Y7862650D03*
X6685150Y8528530D03*
X7111400Y8442020D03*
X6942620Y8839300D03*
X6559270Y9566810D03*
X6919900Y9726880D03*
X6933790Y10349080D03*
X6789740Y10837100D03*
X6617210Y10925500D03*
X7899070Y1635790D03*
X7714880Y2409950D03*
X7375900Y1969880D03*
X7486900Y1782570D03*
X7530240Y2819280D03*
X7900990Y2687280D03*
X7300800Y3208290D03*
X7624990Y3493310D03*
X7259910Y3963930D03*
X7265950Y4611600D03*
X7311190Y4962260D03*
X7320330Y5099910D03*
X7332100Y5627850D03*
X7261250Y7012550D03*
X7832010Y7543350D03*
X7310810Y8162260D03*
X7490820Y8104380D03*
X7831620Y9260610D03*
X7526710Y10540850D03*
X7289730Y10521060D03*
X7900990Y10568350D03*
X7841900Y11364490D03*
X8464030Y1579350D03*
X8093230Y1034430D03*
X8519350Y999760D03*
X8464030Y1958970D03*
X8608460Y2557980D03*
X8290410Y3980550D03*
X8367590Y3309450D03*
X8716250Y3983660D03*
X8705170Y4461720D03*
X8098360Y4291380D03*
X8384090Y4131540D03*
X8210550Y4289220D03*
X8060530Y5386190D03*
X8557020Y5230510D03*
X8071520Y4923800D03*
X8687670Y5101660D03*
X8557020Y6055570D03*
X8652090Y6230250D03*
X8659310Y5672940D03*
X8197200Y6568970D03*
X8097390D03*
X8071240Y7703220D03*
X8379060Y7546110D03*
X8058740Y8515140D03*
X8647000Y8105570D03*
X8212620Y9247510D03*
X8337870Y8802260D03*
X8265920Y9727800D03*
X8143630Y9513880D03*
X9430200Y1882560D03*
X9145500Y3208300D03*
X9456570Y3156030D03*
X9460520Y2999300D03*
X9101460Y3629520D03*
X9453590Y3316200D03*
X8810930Y4289220D03*
X9371140Y4671270D03*
X9371150Y4498440D03*
X9372540Y5101660D03*
X9352930Y6230250D03*
X9357280Y5672940D03*
X9370660Y6639700D03*
X9369570Y6806910D03*
X9428340Y7520290D03*
X9466110Y10060800D03*
X8813090Y9517150D03*
X9149370Y11617120D03*
X9923500Y2217620D03*
X9710810Y4673160D03*
X9711200Y4501440D03*
X9547120Y4498440D03*
X9547110Y4671270D03*
X9857600Y5228820D03*
X9856840Y4990470D03*
X9857700Y5954820D03*
X9858140Y5669460D03*
X9715620Y6639700D03*
X9714840Y6810250D03*
X9542610Y6808380D03*
X9543060Y6639690D03*
X9528560Y8265120D03*
X9680700Y10542140D03*
X9677280Y10724170D03*
X10866550Y3329390D03*
G54D20*
G01X9910490Y2232470D02*
X9923500Y2219460D01*
G01D02*
Y2217620D01*
G01X9857700Y5954820D02*
X9952020Y5860500D01*
Y5323240D01*
X9857600Y5228820D01*
G54D11*
X283600Y8592250D03*
X283700Y9342350D03*
X283600Y9092250D03*
Y8842250D03*
X600410Y3366540D03*
Y3566540D03*
X558440Y7735970D03*
Y7989970D03*
X1598840Y10065570D03*
Y9811570D03*
X5651730Y1079600D03*
X5905730D03*
X9441920Y652810D03*
X9443730Y1198720D03*
Y1452720D03*
X9691920Y652810D03*
X10659930Y5499980D03*
Y5949980D03*
G54D21*
G01X7466680Y5872080D02*
Y3514840D01*
X7415600Y3463760D01*
X6491780D01*
X6473730Y3445710D01*
Y2860880D01*
X6515330Y2819280D01*
X7530240D01*
G01X8608460Y2557980D02*
X7572850D01*
X7530240Y2600590D01*
Y2819280D01*
G01X9869120Y2251410D02*
X9433250Y2687280D01*
X7900990D01*
G01X9872710Y2247280D02*
Y2250510D01*
G01D02*
X9870910D01*
G01D02*
Y2251410D01*
G01D02*
X9869120D01*
G54D12*
X600000Y600000D03*
Y11150000D03*
X10560000Y600000D03*
Y11150000D03*
G54D13*
X541350Y1721050D03*
X670300Y7002140D03*
X426750Y10205900D03*
X2564970Y3640800D03*
X3392320Y5535470D03*
X3263380Y7969180D03*
X3754060Y3991790D03*
X4189220Y8128570D03*
X5150900Y5542640D03*
X7006250Y9414430D03*
X9162310Y9632840D03*
X10079190Y1087110D03*
G54D14*
X1478650Y10787740D03*
X1732650D03*
Y11041740D03*
X1478650D03*
X1986650Y10787740D03*
X2240650D03*
X2494650D03*
Y11041740D03*
X2240650D03*
X1986650D03*
X2748650Y10787740D03*
X3002650D03*
X3256650D03*
Y11041740D03*
X3002650D03*
X2748650D03*
X3510650Y10787740D03*
X3764650D03*
Y11041740D03*
X3510650D03*
X6273730Y983250D03*
G54D15*
X2050000Y450000D03*
X2304000D03*
X2558000D03*
Y704000D03*
X2304000D03*
X2050000D03*
X2812000Y450000D03*
X3066000D03*
X3320000D03*
Y704000D03*
X3066000D03*
X2812000D03*
X3574000Y450000D03*
X3828000D03*
X4082000D03*
Y704000D03*
X3828000D03*
X3574000D03*
X4336000Y450000D03*
X4590000D03*
X4844000D03*
Y704000D03*
X4590000D03*
X4336000D03*
X5098000Y450000D03*
X5352000D03*
X5606000D03*
Y704000D03*
X5352000D03*
X5098000D03*
X9973000Y2440000D03*
X10227000D03*
X9973000Y3202000D03*
Y2948000D03*
Y2694000D03*
X10227000D03*
Y2948000D03*
Y3202000D03*
X9973000Y3456000D03*
X10227000D03*
G54D16*
X6750000Y400000D03*
X7004000D03*
X7131000Y654000D03*
X6877000D03*
X7258000Y400000D03*
X7512000D03*
X7766000D03*
X7893000Y654000D03*
X7639000D03*
X7385000D03*
X8020000Y400000D03*
X8274000D03*
X8528000D03*
X8655000Y654000D03*
X8401000D03*
X8147000D03*
X8985200Y7097230D03*
X9239200Y6970230D03*
X8985200Y7859230D03*
Y7605230D03*
Y7351230D03*
X9239200Y7224230D03*
Y7478230D03*
Y7732230D03*
X8985200Y8621230D03*
Y8367230D03*
Y8113230D03*
X9239200Y7986230D03*
Y8240230D03*
Y8494230D03*
X8985200Y8875230D03*
X9239200Y8748230D03*
X10128000Y7766500D03*
Y8597500D03*
Y8320500D03*
Y8043500D03*
Y8874500D03*
X10412000Y7905000D03*
Y8182000D03*
Y8459000D03*
Y8736000D03*
G54D17*
X10150000Y1856000D03*
Y4040000D03*
G54D18*
X10270000Y7071000D03*
Y9570000D03*
G54D19*
G01X4256430Y2519080D02*
X4231520Y2494170D01*
G01Y2485090D02*
X4216460Y2470030D01*
G01X4231520Y2494170D02*
Y2485090D01*
G01X5353660Y6979250D02*
X5354400Y6978510D01*
Y6700230D01*
X4800840Y6146670D01*
Y3551270D01*
X4256430Y3006860D01*
Y2519080D01*
G01X5950320Y7041300D02*
X5837260Y7154360D01*
X5373560D01*
X5354400Y7135200D01*
Y6979990D01*
X5353660Y6979250D01*
M02*
