G04 ================== begin FILE IDENTIFICATION RECORD ==================*
G04 Layout Name:  C:\PSD_DATA\Projects\Modulator2\worklib\interf_m8_v1\physical\interf_m8_v9_nev_exp.brd*
G04 Film Name:    silk_bottom*
G04 File Format:  Gerber RS274X*
G04 File Origin:  15.2-s015*
G04 Origin Date:  Fri Nov 09 13:00:26 2012*
G04 ================== end FILE IDENTIFICATION RECORD ====================*
%FSLAX55Y55*MOMM*%
%IR0*IPPOS*OFA0.00000B0.00000*MIA0B0*SFA1.00000B1.00000*%
%ADD10C,.2*%
G75*
%LPD*%
G75*
G54D10*
G01X1122640Y4021330D02*
Y4148330D01*
X1082430D01*
X1069560Y4141980D01*
X1061510Y4133510D01*
X1058300Y4116580D01*
X1061510Y4099650D01*
X1071170Y4089060D01*
X1082430Y4082710D01*
X1122640D01*
G01X1082430D02*
X1058300Y4021330D01*
G01X960930D02*
X949670Y4023450D01*
X936800Y4029790D01*
X928760Y4040380D01*
X925540Y4055200D01*
X928760Y4070010D01*
X938410Y4082710D01*
X952890Y4089060D01*
X968970D01*
X978630Y4093300D01*
X986670Y4103880D01*
X989890Y4118700D01*
X985060Y4133510D01*
X973800Y4144100D01*
X960930Y4148330D01*
X948060Y4144100D01*
X936800Y4133510D01*
X931970Y4118700D01*
X935190Y4103880D01*
X943230Y4093300D01*
X952890Y4089060D01*
X968970D01*
X983450Y4082710D01*
X993100Y4070010D01*
X996320Y4055200D01*
X993100Y4040380D01*
X985060Y4029790D01*
X972190Y4023450D01*
X960930Y4021330D01*
G01X861960Y4127160D02*
X852300Y4139860D01*
X841040Y4146210D01*
X828170Y4148330D01*
X812090Y4144100D01*
X800820Y4133510D01*
X797610Y4120820D01*
X799220Y4108110D01*
X805650Y4097530D01*
X837820Y4076360D01*
X852300Y4061550D01*
X861960Y4040380D01*
X865170Y4021330D01*
X797610D01*
G01X1093610Y4251660D02*
Y4330400D01*
X1105290Y4314650D01*
G01Y4251660D02*
X1081930D01*
G01X1754640Y4727880D02*
Y4461680D01*
X1756420Y4459900D01*
G01X1274060Y4727880D02*
Y4459900D01*
G01X1498050Y4343160D02*
G03I-35590J0D01*
G01X1695300Y5037840D02*
Y5164840D01*
X1663130D01*
X1650260Y5158490D01*
X1640610Y5150020D01*
X1632560Y5137330D01*
X1626130Y5122500D01*
X1624520Y5101340D01*
X1626130Y5080170D01*
X1632560Y5065350D01*
X1640610Y5052650D01*
X1650260Y5044190D01*
X1663130Y5037840D01*
X1695300D01*
G01X1565760D02*
Y5164840D01*
X1533590D01*
X1520720Y5158490D01*
X1511070Y5150020D01*
X1503020Y5137330D01*
X1496590Y5122500D01*
X1494980Y5101340D01*
X1496590Y5080170D01*
X1503020Y5065350D01*
X1511070Y5052650D01*
X1520720Y5044190D01*
X1533590Y5037840D01*
X1565760D01*
G01X1431400Y5143670D02*
X1421740Y5156370D01*
X1410480Y5162720D01*
X1397610Y5164840D01*
X1381530Y5160610D01*
X1370260Y5150020D01*
X1367050Y5137330D01*
X1368660Y5124620D01*
X1375090Y5114040D01*
X1407260Y5092870D01*
X1421740Y5078060D01*
X1431400Y5056890D01*
X1434610Y5037840D01*
X1367050D01*
G01X1274510D02*
X1271290Y5065350D01*
X1266460Y5088640D01*
X1260030Y5109810D01*
X1251990Y5133090D01*
X1239120Y5164840D01*
X1303460D01*
G01X1442320Y9107130D02*
X1451970Y9113480D01*
X1463230Y9117710D01*
X1476100D01*
X1490580Y9111360D01*
X1501840Y9100780D01*
X1509880Y9088080D01*
X1516320Y9066910D01*
X1517930Y9047860D01*
X1514710Y9028810D01*
X1509880Y9016110D01*
X1500230Y9003410D01*
X1488970Y8994940D01*
X1477710Y8990710D01*
X1466450D01*
X1455190Y8994940D01*
X1445540Y9001290D01*
X1437490Y9009760D01*
G01X1351390Y8990710D02*
X1348170Y9018220D01*
X1343340Y9041510D01*
X1336910Y9062680D01*
X1328870Y9085960D01*
X1316000Y9117710D01*
X1380340D01*
G01X1254020Y9016110D02*
X1244370Y9001290D01*
X1231500Y8992830D01*
X1217020Y8990710D01*
X1204150Y8992830D01*
X1191280Y9003410D01*
X1183240Y9016110D01*
X1181630Y9028810D01*
X1184850Y9043620D01*
X1196110Y9054210D01*
X1207370Y9058440D01*
X1221850D01*
G01X1207370D02*
X1197720Y9064790D01*
X1189670Y9075370D01*
X1186460Y9088080D01*
X1189670Y9100780D01*
X1197720Y9111360D01*
X1212200Y9117710D01*
X1226670Y9115590D01*
X1241150Y9107130D01*
G01X1635850Y9638590D02*
X1645500Y9644940D01*
X1656760Y9649170D01*
X1669630D01*
X1684110Y9642820D01*
X1695370Y9632240D01*
X1703410Y9619540D01*
X1709850Y9598370D01*
X1711460Y9579320D01*
X1708240Y9560270D01*
X1703410Y9547570D01*
X1693760Y9534870D01*
X1682500Y9526400D01*
X1671240Y9522170D01*
X1659980D01*
X1648720Y9526400D01*
X1639070Y9532750D01*
X1631020Y9541220D01*
G01X1544920Y9522170D02*
X1541700Y9549680D01*
X1536870Y9572970D01*
X1530440Y9594140D01*
X1522400Y9617420D01*
X1509530Y9649170D01*
X1573870D01*
G01X1442730Y9575080D02*
X1431460Y9589900D01*
X1421810Y9598370D01*
X1408940Y9602600D01*
X1397680Y9598370D01*
X1389640Y9589900D01*
X1383200Y9577200D01*
X1381590Y9562390D01*
X1383200Y9549680D01*
X1389640Y9536980D01*
X1399290Y9526400D01*
X1410550Y9522170D01*
X1423420Y9526400D01*
X1434680Y9539100D01*
X1441120Y9558150D01*
X1442730Y9579320D01*
X1439510Y9606830D01*
X1434680Y9621660D01*
X1426640Y9636470D01*
X1415380Y9647050D01*
X1404120Y9649170D01*
X1392860Y9644940D01*
X1384810Y9634350D01*
G01X2684230Y1372360D02*
X2693880Y1378710D01*
X2705140Y1382940D01*
X2718010D01*
X2732490Y1376590D01*
X2743750Y1366010D01*
X2751790Y1353310D01*
X2758230Y1332140D01*
X2759840Y1313090D01*
X2756620Y1294040D01*
X2751790Y1281340D01*
X2742140Y1268640D01*
X2730880Y1260170D01*
X2719620Y1255940D01*
X2708360D01*
X2697100Y1260170D01*
X2687450Y1266520D01*
X2679400Y1274990D01*
G01X2593300Y1255940D02*
X2590080Y1283450D01*
X2585250Y1306740D01*
X2578820Y1327910D01*
X2570780Y1351190D01*
X2557910Y1382940D01*
X2622250D01*
G01X2441240Y1255940D02*
Y1382940D01*
X2500760Y1291920D01*
X2420320D01*
G01X2164760Y4616210D02*
X2174410Y4622560D01*
X2185670Y4626790D01*
X2198540D01*
X2213020Y4620440D01*
X2224280Y4609860D01*
X2232320Y4597160D01*
X2238760Y4575990D01*
X2240370Y4556940D01*
X2237150Y4537890D01*
X2232320Y4525190D01*
X2222670Y4512490D01*
X2211410Y4504020D01*
X2200150Y4499790D01*
X2188890D01*
X2177630Y4504020D01*
X2167980Y4510370D01*
X2159930Y4518840D01*
G01X2106000D02*
X2096350Y4508250D01*
X2085090Y4501910D01*
X2070610Y4499790D01*
X2056130Y4504020D01*
X2044870Y4512490D01*
X2036830Y4527300D01*
X2035220Y4544240D01*
X2038440Y4561170D01*
X2046480Y4571760D01*
X2057740Y4580220D01*
X2069000Y4582340D01*
X2080260Y4580220D01*
X2094740Y4571760D01*
X2089910Y4626790D01*
X2046480D01*
G01X1976460Y4518840D02*
X1966810Y4508250D01*
X1955550Y4501910D01*
X1941070Y4499790D01*
X1926590Y4504020D01*
X1915330Y4512490D01*
X1907290Y4527300D01*
X1905680Y4544240D01*
X1908900Y4561170D01*
X1916940Y4571760D01*
X1928200Y4580220D01*
X1939460Y4582340D01*
X1950720Y4580220D01*
X1965200Y4571760D01*
X1960370Y4626790D01*
X1916940D01*
G01X2656580Y6311230D02*
X2666230Y6317580D01*
X2677490Y6321810D01*
X2690360D01*
X2704840Y6315460D01*
X2716100Y6304880D01*
X2724140Y6292180D01*
X2730580Y6271010D01*
X2732190Y6251960D01*
X2728970Y6232910D01*
X2724140Y6220210D01*
X2714490Y6207510D01*
X2703230Y6199040D01*
X2691970Y6194810D01*
X2680710D01*
X2669450Y6199040D01*
X2659800Y6205390D01*
X2651750Y6213860D01*
G01X2597820D02*
X2588170Y6203270D01*
X2576910Y6196930D01*
X2562430Y6194810D01*
X2547950Y6199040D01*
X2536690Y6207510D01*
X2528650Y6222320D01*
X2527040Y6239260D01*
X2530260Y6256190D01*
X2538300Y6266780D01*
X2549560Y6275240D01*
X2560820Y6277360D01*
X2572080Y6275240D01*
X2586560Y6266780D01*
X2581730Y6321810D01*
X2538300D01*
G01X2463460Y6300640D02*
X2453800Y6313340D01*
X2442540Y6319690D01*
X2429670Y6321810D01*
X2413590Y6317580D01*
X2402320Y6306990D01*
X2399110Y6294300D01*
X2400720Y6281590D01*
X2407150Y6271010D01*
X2439320Y6249840D01*
X2453800Y6235030D01*
X2463460Y6213860D01*
X2466670Y6194810D01*
X2399110D01*
G01X2521590Y6845240D02*
X2531240Y6851590D01*
X2542500Y6855820D01*
X2555370D01*
X2569850Y6849470D01*
X2581110Y6838890D01*
X2589150Y6826190D01*
X2595590Y6805020D01*
X2597200Y6785970D01*
X2593980Y6766920D01*
X2589150Y6754220D01*
X2579500Y6741520D01*
X2568240Y6733050D01*
X2556980Y6728820D01*
X2545720D01*
X2534460Y6733050D01*
X2524810Y6739400D01*
X2516760Y6747870D01*
G01X2408140Y6728820D02*
Y6855820D01*
X2467660Y6764800D01*
X2387220D01*
G01X2328470Y6781730D02*
X2317200Y6796550D01*
X2307550Y6805020D01*
X2294680Y6809250D01*
X2283420Y6805020D01*
X2275380Y6796550D01*
X2268940Y6783850D01*
X2267330Y6769040D01*
X2268940Y6756330D01*
X2275380Y6743630D01*
X2285030Y6733050D01*
X2296290Y6728820D01*
X2309160Y6733050D01*
X2320420Y6745750D01*
X2326860Y6764800D01*
X2328470Y6785970D01*
X2325250Y6813480D01*
X2320420Y6828310D01*
X2312380Y6843120D01*
X2301120Y6853700D01*
X2289860Y6855820D01*
X2278600Y6851590D01*
X2270550Y6841000D01*
G01X2512640Y7368920D02*
X2522290Y7375270D01*
X2533550Y7379500D01*
X2546420D01*
X2560900Y7373150D01*
X2572160Y7362570D01*
X2580200Y7349870D01*
X2586640Y7328700D01*
X2588250Y7309650D01*
X2585030Y7290600D01*
X2580200Y7277900D01*
X2570550Y7265200D01*
X2559290Y7256730D01*
X2548030Y7252500D01*
X2536770D01*
X2525510Y7256730D01*
X2515860Y7263080D01*
X2507810Y7271550D01*
G01X2399190Y7252500D02*
Y7379500D01*
X2458710Y7288480D01*
X2378270D01*
G01X2324340Y7271550D02*
X2314690Y7260960D01*
X2303430Y7254620D01*
X2288950Y7252500D01*
X2274470Y7256730D01*
X2263210Y7265200D01*
X2255170Y7280010D01*
X2253560Y7296950D01*
X2256780Y7313880D01*
X2264820Y7324470D01*
X2276080Y7332930D01*
X2287340Y7335050D01*
X2298600Y7332930D01*
X2313080Y7324470D01*
X2308250Y7379500D01*
X2264820D01*
G01X2213030Y8048270D02*
X2222680Y8054620D01*
X2233940Y8058850D01*
X2246810D01*
X2261290Y8052500D01*
X2272550Y8041920D01*
X2280590Y8029220D01*
X2287030Y8008050D01*
X2288640Y7989000D01*
X2285420Y7969950D01*
X2280590Y7957250D01*
X2270940Y7944550D01*
X2259680Y7936080D01*
X2248420Y7931850D01*
X2237160D01*
X2225900Y7936080D01*
X2216250Y7942430D01*
X2208200Y7950900D01*
G01X2099580Y7931850D02*
Y8058850D01*
X2159100Y7967830D01*
X2078660D01*
G01X2016690Y7946660D02*
X2005430Y7936080D01*
X1992560Y7931850D01*
X1979690Y7936080D01*
X1968430Y7948780D01*
X1960380Y7967830D01*
X1957170Y7986880D01*
Y8010170D01*
X1960380Y8029220D01*
X1968430Y8046150D01*
X1978080Y8054620D01*
X1989340Y8058850D01*
X2002210Y8054620D01*
X2011860Y8046150D01*
X2018300Y8033450D01*
X2021510Y8016510D01*
X2018300Y8001700D01*
X2010250Y7986880D01*
X2000600Y7978410D01*
X1989340Y7976300D01*
X1976470Y7980530D01*
X1966820Y7991120D01*
X1957170Y8010170D01*
G01X2340450Y10227550D02*
Y9898850D01*
X2336860Y9895260D01*
X2134990D01*
Y10229340D01*
X2136780Y10231130D01*
X2339540D01*
G01X2574660Y10264580D02*
Y10343320D01*
X2550320D01*
X2542530Y10339380D01*
X2537660Y10334130D01*
X2535720Y10323630D01*
X2537660Y10313140D01*
X2543510Y10306580D01*
X2550320Y10302640D01*
X2574660D01*
G01X2550320D02*
X2535720Y10264580D01*
G01X2478400D02*
X2476450Y10281640D01*
X2473530Y10296070D01*
X2469630Y10309200D01*
X2464770Y10323630D01*
X2456980Y10343320D01*
X2495920D01*
G01X2397710Y10264580D02*
Y10343320D01*
X2409390Y10327570D01*
G01Y10264580D02*
X2386030D01*
G01X2332200Y10262170D02*
Y10340910D01*
X2307860D01*
X2300070Y10336970D01*
X2295200Y10331720D01*
X2293260Y10321220D01*
X2295200Y10310730D01*
X2301050Y10304170D01*
X2307860Y10300230D01*
X2332200D01*
G01X2307860D02*
X2293260Y10262170D01*
G01X2235940D02*
X2233990Y10279230D01*
X2231070Y10293660D01*
X2227170Y10306790D01*
X2222310Y10321220D01*
X2214520Y10340910D01*
X2253460D01*
G01X2155250D02*
X2163040Y10338290D01*
X2168880Y10331720D01*
X2172780Y10323850D01*
X2175700Y10313350D01*
X2176670Y10301540D01*
X2175700Y10289730D01*
X2172780Y10279230D01*
X2168880Y10271350D01*
X2163040Y10264790D01*
X2155250Y10262170D01*
X2147460Y10264790D01*
X2141620Y10271350D01*
X2137720Y10279230D01*
X2134800Y10289730D01*
X2133830Y10301540D01*
X2134800Y10313350D01*
X2137720Y10323850D01*
X2141620Y10331720D01*
X2147460Y10338290D01*
X2155250Y10340910D01*
G01X2075230Y10264680D02*
Y10343420D01*
X2050890D01*
X2043100Y10339480D01*
X2038230Y10334230D01*
X2036290Y10323730D01*
X2038230Y10313240D01*
X2044080Y10306680D01*
X2050890Y10302740D01*
X2075230D01*
G01X2050890D02*
X2036290Y10264680D01*
G01X1995520Y10297490D02*
X1988700Y10306680D01*
X1982860Y10311920D01*
X1975070Y10314550D01*
X1968260Y10311920D01*
X1963390Y10306680D01*
X1959490Y10298800D01*
X1958520Y10289610D01*
X1959490Y10281740D01*
X1963390Y10273860D01*
X1969230Y10267300D01*
X1976050Y10264680D01*
X1983840Y10267300D01*
X1990650Y10275180D01*
X1994550Y10286990D01*
X1995520Y10300110D01*
X1993570Y10317170D01*
X1990650Y10326360D01*
X1985780Y10335550D01*
X1978970Y10342110D01*
X1972150Y10343420D01*
X1965340Y10340800D01*
X1960470Y10334230D01*
G01X1914830Y10273860D02*
X1908020Y10267300D01*
X1900230Y10264680D01*
X1892440Y10267300D01*
X1885620Y10275180D01*
X1880750Y10286990D01*
X1878810Y10298800D01*
Y10313240D01*
X1880750Y10325050D01*
X1885620Y10335550D01*
X1891460Y10340800D01*
X1898280Y10343420D01*
X1906070Y10340800D01*
X1911910Y10335550D01*
X1915810Y10327670D01*
X1917750Y10317170D01*
X1915810Y10307990D01*
X1910940Y10298800D01*
X1905100Y10293550D01*
X1898280Y10292240D01*
X1890490Y10294860D01*
X1884650Y10301420D01*
X1878810Y10313240D01*
G01X3562630Y1576360D02*
Y1703360D01*
X3530460D01*
X3517590Y1697010D01*
X3507940Y1688540D01*
X3499890Y1675850D01*
X3493460Y1661020D01*
X3491850Y1639860D01*
X3493460Y1618690D01*
X3499890Y1603870D01*
X3507940Y1591170D01*
X3517590Y1582710D01*
X3530460Y1576360D01*
X3562630D01*
G01X3433090D02*
Y1703360D01*
X3400920D01*
X3388050Y1697010D01*
X3378400Y1688540D01*
X3370350Y1675850D01*
X3363920Y1661020D01*
X3362310Y1639860D01*
X3363920Y1618690D01*
X3370350Y1603870D01*
X3378400Y1591170D01*
X3388050Y1582710D01*
X3400920Y1576360D01*
X3433090D01*
G01X3303550Y1601760D02*
X3293900Y1586940D01*
X3281030Y1578480D01*
X3266550Y1576360D01*
X3253680Y1578480D01*
X3240810Y1589060D01*
X3232770Y1601760D01*
X3231160Y1614460D01*
X3234380Y1629270D01*
X3245640Y1639860D01*
X3256900Y1644090D01*
X3271380D01*
G01X3256900D02*
X3247250Y1650440D01*
X3239200Y1661020D01*
X3235990Y1673730D01*
X3239200Y1686430D01*
X3247250Y1697010D01*
X3261730Y1703360D01*
X3276200Y1701240D01*
X3290680Y1692780D01*
G01X3119320Y1576360D02*
Y1703360D01*
X3178840Y1612340D01*
X3098400D01*
G01X3164740Y1419180D02*
Y1497920D01*
X3176420Y1482170D01*
G01Y1419180D02*
X3153060D01*
G01X3396470Y6093600D02*
X3406120Y6099950D01*
X3417380Y6104180D01*
X3430250D01*
X3444730Y6097830D01*
X3455990Y6087250D01*
X3464030Y6074550D01*
X3470470Y6053380D01*
X3472080Y6034330D01*
X3468860Y6015280D01*
X3464030Y6002580D01*
X3454380Y5989880D01*
X3443120Y5981410D01*
X3431860Y5977180D01*
X3420600D01*
X3409340Y5981410D01*
X3399690Y5987760D01*
X3391640Y5996230D01*
G01X3283020Y5977180D02*
Y6104180D01*
X3342540Y6013160D01*
X3262100D01*
G01X3153480Y5977180D02*
Y6104180D01*
X3213000Y6013160D01*
X3132560D01*
G01X3369200Y6295650D02*
Y6195350D01*
G01Y6295650D02*
Y6195350D01*
G01X3420240Y6244630D02*
X3319940D01*
G01X3374320Y7031440D02*
X3383970Y7037790D01*
X3395230Y7042020D01*
X3408100D01*
X3422580Y7035670D01*
X3433840Y7025090D01*
X3441880Y7012390D01*
X3448320Y6991220D01*
X3449930Y6972170D01*
X3446710Y6953120D01*
X3441880Y6940420D01*
X3432230Y6927720D01*
X3420970Y6919250D01*
X3409710Y6915020D01*
X3398450D01*
X3387190Y6919250D01*
X3377540Y6925600D01*
X3369490Y6934070D01*
G01X3260870Y6915020D02*
Y7042020D01*
X3320390Y6951000D01*
X3239950D01*
G01X3153850Y6915020D02*
X3150630Y6942530D01*
X3145800Y6965820D01*
X3139370Y6986990D01*
X3131330Y7010270D01*
X3118460Y7042020D01*
X3182800D01*
G01X3392820Y6498110D02*
X3402470Y6504460D01*
X3413730Y6508690D01*
X3426600D01*
X3441080Y6502340D01*
X3452340Y6491760D01*
X3460380Y6479060D01*
X3466820Y6457890D01*
X3468430Y6438840D01*
X3465210Y6419790D01*
X3460380Y6407090D01*
X3450730Y6394390D01*
X3439470Y6385920D01*
X3428210Y6381690D01*
X3416950D01*
X3405690Y6385920D01*
X3396040Y6392270D01*
X3387990Y6400740D01*
G01X3279370Y6381690D02*
Y6508690D01*
X3338890Y6417670D01*
X3258450D01*
G01X3204520Y6407090D02*
X3194870Y6392270D01*
X3182000Y6383810D01*
X3167520Y6381690D01*
X3154650Y6383810D01*
X3141780Y6394390D01*
X3133740Y6407090D01*
X3132130Y6419790D01*
X3135350Y6434600D01*
X3146610Y6445190D01*
X3157870Y6449420D01*
X3172350D01*
G01X3157870D02*
X3148220Y6455770D01*
X3140170Y6466350D01*
X3136960Y6479060D01*
X3140170Y6491760D01*
X3148220Y6502340D01*
X3162700Y6508690D01*
X3177170Y6506570D01*
X3191650Y6498110D01*
G01X3369200Y6823590D02*
Y6723290D01*
G01Y6823590D02*
Y6723290D01*
G01X3420240Y6772570D02*
X3319940D01*
G01X3358780Y10231130D02*
Y9902430D01*
X3355190Y9898840D01*
X3153320D01*
Y10232920D01*
X3155110Y10234710D01*
X3357870D01*
G01X2849620Y10229340D02*
Y9900640D01*
X2846030Y9897050D01*
X2644160D01*
Y10231130D01*
X2645950Y10232920D01*
X2848710D01*
G01X3105560Y10271550D02*
Y10350290D01*
X3081220D01*
X3073430Y10346350D01*
X3068560Y10341100D01*
X3066620Y10330600D01*
X3068560Y10320110D01*
X3074410Y10313550D01*
X3081220Y10309610D01*
X3105560D01*
G01X3081220D02*
X3066620Y10271550D01*
G01X3009300D02*
X3007350Y10288610D01*
X3004430Y10303040D01*
X3000530Y10316170D01*
X2995670Y10330600D01*
X2987880Y10350290D01*
X3026820D01*
G01X2950030Y10287300D02*
X2944190Y10278110D01*
X2936400Y10272860D01*
X2927640Y10271550D01*
X2919850Y10272860D01*
X2912060Y10279420D01*
X2907190Y10287300D01*
X2906220Y10295170D01*
X2908160Y10304360D01*
X2914980Y10310920D01*
X2921790Y10313550D01*
X2930560D01*
G01X2921790D02*
X2915950Y10317480D01*
X2911080Y10324040D01*
X2909140Y10331920D01*
X2911080Y10339790D01*
X2915950Y10346350D01*
X2924720Y10350290D01*
X2933480Y10348980D01*
X2942240Y10343730D01*
G01X2846940Y10270330D02*
Y10349070D01*
X2822600D01*
X2814810Y10345130D01*
X2809940Y10339880D01*
X2808000Y10329380D01*
X2809940Y10318890D01*
X2815790Y10312330D01*
X2822600Y10308390D01*
X2846940D01*
G01X2822600D02*
X2808000Y10270330D01*
G01X2750680D02*
X2748730Y10287390D01*
X2745810Y10301820D01*
X2741910Y10314950D01*
X2737050Y10329380D01*
X2729260Y10349070D01*
X2768200D01*
G01X2688490Y10335950D02*
X2682650Y10343820D01*
X2675830Y10347760D01*
X2668040Y10349070D01*
X2658310Y10346450D01*
X2651490Y10339880D01*
X2649540Y10332010D01*
X2650520Y10324130D01*
X2654410Y10317570D01*
X2673880Y10304450D01*
X2682650Y10295260D01*
X2688490Y10282140D01*
X2690440Y10270330D01*
X2649540D01*
G01X3360250Y10273200D02*
Y10351940D01*
X3335910D01*
X3328120Y10348000D01*
X3323250Y10342750D01*
X3321310Y10332250D01*
X3323250Y10321760D01*
X3329100Y10315200D01*
X3335910Y10311260D01*
X3360250D01*
G01X3335910D02*
X3321310Y10273200D01*
G01X3280540Y10306010D02*
X3273720Y10315200D01*
X3267880Y10320440D01*
X3260090Y10323070D01*
X3253280Y10320440D01*
X3248410Y10315200D01*
X3244510Y10307320D01*
X3243540Y10298130D01*
X3244510Y10290260D01*
X3248410Y10282380D01*
X3254250Y10275820D01*
X3261070Y10273200D01*
X3268860Y10275820D01*
X3275670Y10283700D01*
X3279570Y10295510D01*
X3280540Y10308630D01*
X3278590Y10325690D01*
X3275670Y10334880D01*
X3270800Y10344070D01*
X3263990Y10350630D01*
X3257170Y10351940D01*
X3250360Y10349320D01*
X3245490Y10342750D01*
G01X3185250Y10273200D02*
X3183300Y10290260D01*
X3180380Y10304690D01*
X3176480Y10317820D01*
X3171620Y10332250D01*
X3163830Y10351940D01*
X3202770D01*
G01X3743430Y7439980D02*
X3753080Y7446330D01*
X3764340Y7450560D01*
X3777210D01*
X3791690Y7444210D01*
X3802950Y7433630D01*
X3810990Y7420930D01*
X3817430Y7399760D01*
X3819040Y7380710D01*
X3815820Y7361660D01*
X3810990Y7348960D01*
X3801340Y7336260D01*
X3790080Y7327790D01*
X3778820Y7323560D01*
X3767560D01*
X3756300Y7327790D01*
X3746650Y7334140D01*
X3738600Y7342610D01*
G01X3629980Y7323560D02*
Y7450560D01*
X3689500Y7359540D01*
X3609060D01*
G01X3519740Y7323560D02*
X3508480Y7325680D01*
X3495610Y7332020D01*
X3487570Y7342610D01*
X3484350Y7357430D01*
X3487570Y7372240D01*
X3497220Y7384940D01*
X3511700Y7391290D01*
X3527780D01*
X3537440Y7395530D01*
X3545480Y7406110D01*
X3548700Y7420930D01*
X3543870Y7435740D01*
X3532610Y7446330D01*
X3519740Y7450560D01*
X3506870Y7446330D01*
X3495610Y7435740D01*
X3490780Y7420930D01*
X3494000Y7406110D01*
X3502040Y7395530D01*
X3511700Y7391290D01*
X3527780D01*
X3542260Y7384940D01*
X3551910Y7372240D01*
X3555130Y7357430D01*
X3551910Y7342610D01*
X3543870Y7332020D01*
X3531000Y7325680D01*
X3519740Y7323560D01*
G01X5034210Y2323520D02*
X5043860Y2329870D01*
X5055120Y2334100D01*
X5067990D01*
X5082470Y2327750D01*
X5093730Y2317170D01*
X5101770Y2304470D01*
X5108210Y2283300D01*
X5109820Y2264250D01*
X5106600Y2245200D01*
X5101770Y2232500D01*
X5092120Y2219800D01*
X5080860Y2211330D01*
X5069600Y2207100D01*
X5058340D01*
X5047080Y2211330D01*
X5037430Y2217680D01*
X5029380Y2226150D01*
G01X4970630Y2312930D02*
X4960970Y2325630D01*
X4949710Y2331980D01*
X4936840Y2334100D01*
X4920760Y2329870D01*
X4909490Y2319280D01*
X4906280Y2306590D01*
X4907890Y2293880D01*
X4914320Y2283300D01*
X4946490Y2262130D01*
X4960970Y2247320D01*
X4970630Y2226150D01*
X4973840Y2207100D01*
X4906280D01*
G01X4975020Y7177320D02*
X4984670Y7183670D01*
X4995930Y7187900D01*
X5008800D01*
X5023280Y7181550D01*
X5034540Y7170970D01*
X5042580Y7158270D01*
X5049020Y7137100D01*
X5050630Y7118050D01*
X5047410Y7099000D01*
X5042580Y7086300D01*
X5032930Y7073600D01*
X5021670Y7065130D01*
X5010410Y7060900D01*
X4999150D01*
X4987890Y7065130D01*
X4978240Y7071480D01*
X4970190Y7079950D01*
G01X4911440Y7113810D02*
X4900170Y7128630D01*
X4890520Y7137100D01*
X4877650Y7141330D01*
X4866390Y7137100D01*
X4858350Y7128630D01*
X4851910Y7115930D01*
X4850300Y7101120D01*
X4851910Y7088410D01*
X4858350Y7075710D01*
X4868000Y7065130D01*
X4879260Y7060900D01*
X4892130Y7065130D01*
X4903390Y7077830D01*
X4909830Y7096880D01*
X4911440Y7118050D01*
X4908220Y7145560D01*
X4903390Y7160390D01*
X4895350Y7175200D01*
X4884090Y7185780D01*
X4872830Y7187900D01*
X4861570Y7183670D01*
X4853520Y7173080D01*
G01X4786720Y7086300D02*
X4777070Y7071480D01*
X4764200Y7063020D01*
X4749720Y7060900D01*
X4736850Y7063020D01*
X4723980Y7073600D01*
X4715940Y7086300D01*
X4714330Y7099000D01*
X4717550Y7113810D01*
X4728810Y7124400D01*
X4740070Y7128630D01*
X4754550D01*
G01X4740070D02*
X4730420Y7134980D01*
X4722370Y7145560D01*
X4719160Y7158270D01*
X4722370Y7170970D01*
X4730420Y7181550D01*
X4744900Y7187900D01*
X4759370Y7185780D01*
X4773850Y7177320D01*
G01X4977300Y7510510D02*
X4986950Y7516860D01*
X4998210Y7521090D01*
X5011080D01*
X5025560Y7514740D01*
X5036820Y7504160D01*
X5044860Y7491460D01*
X5051300Y7470290D01*
X5052910Y7451240D01*
X5049690Y7432190D01*
X5044860Y7419490D01*
X5035210Y7406790D01*
X5023950Y7398320D01*
X5012690Y7394090D01*
X5001430D01*
X4990170Y7398320D01*
X4980520Y7404670D01*
X4972470Y7413140D01*
G01X4913720Y7447000D02*
X4902450Y7461820D01*
X4892800Y7470290D01*
X4879930Y7474520D01*
X4868670Y7470290D01*
X4860630Y7461820D01*
X4854190Y7449120D01*
X4852580Y7434310D01*
X4854190Y7421600D01*
X4860630Y7408900D01*
X4870280Y7398320D01*
X4881540Y7394090D01*
X4894410Y7398320D01*
X4905670Y7411020D01*
X4912110Y7430070D01*
X4913720Y7451240D01*
X4910500Y7478750D01*
X4905670Y7493580D01*
X4897630Y7508390D01*
X4886370Y7518970D01*
X4875110Y7521090D01*
X4863850Y7516860D01*
X4855800Y7506270D01*
G01X4756830Y7394090D02*
X4753610Y7421600D01*
X4748780Y7444890D01*
X4742350Y7466060D01*
X4734310Y7489340D01*
X4721440Y7521090D01*
X4785780D01*
G01X5026390Y9073290D02*
X5036040Y9079640D01*
X5047300Y9083870D01*
X5060170D01*
X5074650Y9077520D01*
X5085910Y9066940D01*
X5093950Y9054240D01*
X5100390Y9033070D01*
X5102000Y9014020D01*
X5098780Y8994970D01*
X5093950Y8982270D01*
X5084300Y8969570D01*
X5073040Y8961100D01*
X5061780Y8956870D01*
X5050520D01*
X5039260Y8961100D01*
X5029610Y8967450D01*
X5021560Y8975920D01*
G01X4967630D02*
X4957980Y8965330D01*
X4946720Y8958990D01*
X4932240Y8956870D01*
X4917760Y8961100D01*
X4906500Y8969570D01*
X4898460Y8984380D01*
X4896850Y9001320D01*
X4900070Y9018250D01*
X4908110Y9028840D01*
X4919370Y9037300D01*
X4930630Y9039420D01*
X4941890Y9037300D01*
X4956370Y9028840D01*
X4951540Y9083870D01*
X4908110D01*
G01X4805920Y8956870D02*
X4802700Y8984380D01*
X4797870Y9007670D01*
X4791440Y9028840D01*
X4783400Y9052120D01*
X4770530Y9083870D01*
X4834870D01*
G01X5395200Y2076860D02*
X5294900D01*
G01X5344160Y2127880D02*
Y2027580D01*
G01Y2127880D02*
Y2027580D01*
G01X5748110Y4468960D02*
Y4595960D01*
X5707900D01*
X5695030Y4589610D01*
X5686980Y4581140D01*
X5683770Y4564210D01*
X5686980Y4547280D01*
X5696640Y4536690D01*
X5707900Y4530340D01*
X5748110D01*
G01X5707900D02*
X5683770Y4468960D01*
G01X5613750Y4483770D02*
X5602490Y4473190D01*
X5589620Y4468960D01*
X5576750Y4473190D01*
X5565490Y4485890D01*
X5557440Y4504940D01*
X5554230Y4523990D01*
Y4547280D01*
X5557440Y4566330D01*
X5565490Y4583260D01*
X5575140Y4591730D01*
X5586400Y4595960D01*
X5599270Y4591730D01*
X5608920Y4583260D01*
X5615360Y4570560D01*
X5618570Y4553620D01*
X5615360Y4538810D01*
X5607310Y4523990D01*
X5597660Y4515520D01*
X5586400Y4513410D01*
X5573530Y4517640D01*
X5563880Y4528230D01*
X5554230Y4547280D01*
G01X5437560Y4468960D02*
Y4595960D01*
X5497080Y4504940D01*
X5416640D01*
G01X5752840Y4695450D02*
Y4822450D01*
X5712630D01*
X5699760Y4816100D01*
X5691710Y4807630D01*
X5688500Y4790700D01*
X5691710Y4773770D01*
X5701370Y4763180D01*
X5712630Y4756830D01*
X5752840D01*
G01X5712630D02*
X5688500Y4695450D01*
G01X5618480Y4710260D02*
X5607220Y4699680D01*
X5594350Y4695450D01*
X5581480Y4699680D01*
X5570220Y4712380D01*
X5562170Y4731430D01*
X5558960Y4750480D01*
Y4773770D01*
X5562170Y4792820D01*
X5570220Y4809750D01*
X5579870Y4818220D01*
X5591130Y4822450D01*
X5604000Y4818220D01*
X5613650Y4809750D01*
X5620090Y4797050D01*
X5623300Y4780110D01*
X5620090Y4765300D01*
X5612040Y4750480D01*
X5602390Y4742010D01*
X5591130Y4739900D01*
X5578260Y4744130D01*
X5568610Y4754720D01*
X5558960Y4773770D01*
G01X5496980Y4720850D02*
X5487330Y4706030D01*
X5474460Y4697570D01*
X5459980Y4695450D01*
X5447110Y4697570D01*
X5434240Y4708150D01*
X5426200Y4720850D01*
X5424590Y4733550D01*
X5427810Y4748360D01*
X5439070Y4758950D01*
X5450330Y4763180D01*
X5464810D01*
G01X5450330D02*
X5440680Y4769530D01*
X5432630Y4780110D01*
X5429420Y4792820D01*
X5432630Y4805520D01*
X5440680Y4816100D01*
X5455160Y4822450D01*
X5469630Y4820330D01*
X5484110Y4811870D01*
G01X5822420Y5415340D02*
X5782200Y5288340D01*
X5741980Y5415340D01*
G01X5652660D02*
Y5288340D01*
G01X5689660Y5415340D02*
X5615660D01*
G01X5523120Y5288340D02*
Y5415340D01*
X5542420Y5389940D01*
G01Y5288340D02*
X5503820D01*
G01X5609930Y5124480D02*
X5561700D01*
X5559910Y5122690D01*
Y4986920D01*
G01X5328510Y6392870D02*
X5338160Y6399220D01*
X5349420Y6403450D01*
X5362290D01*
X5376770Y6397100D01*
X5388030Y6386520D01*
X5396070Y6373820D01*
X5402510Y6352650D01*
X5404120Y6333600D01*
X5400900Y6314550D01*
X5396070Y6301850D01*
X5386420Y6289150D01*
X5375160Y6280680D01*
X5363900Y6276450D01*
X5352640D01*
X5341380Y6280680D01*
X5331730Y6287030D01*
X5323680Y6295500D01*
G01X5264930Y6382280D02*
X5255270Y6394980D01*
X5244010Y6401330D01*
X5231140Y6403450D01*
X5215060Y6399220D01*
X5203790Y6388630D01*
X5200580Y6375940D01*
X5202190Y6363230D01*
X5208620Y6352650D01*
X5240790Y6331480D01*
X5255270Y6316670D01*
X5264930Y6295500D01*
X5268140Y6276450D01*
X5200580D01*
G01X5085520D02*
Y6403450D01*
X5145040Y6312430D01*
X5064600D01*
G01X5741810Y6950260D02*
X5751460Y6956610D01*
X5762720Y6960840D01*
X5775590D01*
X5790070Y6954490D01*
X5801330Y6943910D01*
X5809370Y6931210D01*
X5815810Y6910040D01*
X5817420Y6890990D01*
X5814200Y6871940D01*
X5809370Y6859240D01*
X5799720Y6846540D01*
X5788460Y6838070D01*
X5777200Y6833840D01*
X5765940D01*
X5754680Y6838070D01*
X5745030Y6844420D01*
X5736980Y6852890D01*
G01X5678230Y6886750D02*
X5666960Y6901570D01*
X5657310Y6910040D01*
X5644440Y6914270D01*
X5633180Y6910040D01*
X5625140Y6901570D01*
X5618700Y6888870D01*
X5617090Y6874060D01*
X5618700Y6861350D01*
X5625140Y6848650D01*
X5634790Y6838070D01*
X5646050Y6833840D01*
X5658920Y6838070D01*
X5670180Y6850770D01*
X5676620Y6869820D01*
X5678230Y6890990D01*
X5675010Y6918500D01*
X5670180Y6933330D01*
X5662140Y6948140D01*
X5650880Y6958720D01*
X5639620Y6960840D01*
X5628360Y6956610D01*
X5620310Y6946020D01*
G01X5518120Y6833840D02*
X5506860Y6835960D01*
X5493990Y6842300D01*
X5485950Y6852890D01*
X5482730Y6867710D01*
X5485950Y6882520D01*
X5495600Y6895220D01*
X5510080Y6901570D01*
X5526160D01*
X5535820Y6905810D01*
X5543860Y6916390D01*
X5547080Y6931210D01*
X5542250Y6946020D01*
X5530990Y6956610D01*
X5518120Y6960840D01*
X5505250Y6956610D01*
X5493990Y6946020D01*
X5489160Y6931210D01*
X5492380Y6916390D01*
X5500420Y6905810D01*
X5510080Y6901570D01*
X5526160D01*
X5540640Y6895220D01*
X5550290Y6882520D01*
X5553510Y6867710D01*
X5550290Y6852890D01*
X5542250Y6842300D01*
X5529380Y6835960D01*
X5518120Y6833840D01*
G01X5471330Y7225340D02*
Y7018110D01*
X5471320Y7018100D01*
X5475790Y7013630D01*
X5802720D01*
Y7224440D01*
X5800930Y7226230D01*
X5470430D01*
G01X5674370Y6347580D02*
Y6426320D01*
X5686050Y6410570D01*
G01Y6347580D02*
X5662690D01*
G01X5607570Y7581720D02*
Y7708720D01*
X5567360D01*
X5554490Y7702370D01*
X5546440Y7693900D01*
X5543230Y7676970D01*
X5546440Y7660040D01*
X5556100Y7649450D01*
X5567360Y7643100D01*
X5607570D01*
G01X5567360D02*
X5543230Y7581720D01*
G01X5445860D02*
X5434600Y7583840D01*
X5421730Y7590180D01*
X5413690Y7600770D01*
X5410470Y7615590D01*
X5413690Y7630400D01*
X5423340Y7643100D01*
X5437820Y7649450D01*
X5453900D01*
X5463560Y7653690D01*
X5471600Y7664270D01*
X5474820Y7679090D01*
X5469990Y7693900D01*
X5458730Y7704490D01*
X5445860Y7708720D01*
X5432990Y7704490D01*
X5421730Y7693900D01*
X5416900Y7679090D01*
X5420120Y7664270D01*
X5428160Y7653690D01*
X5437820Y7649450D01*
X5453900D01*
X5468380Y7643100D01*
X5478030Y7630400D01*
X5481250Y7615590D01*
X5478030Y7600770D01*
X5469990Y7590180D01*
X5457120Y7583840D01*
X5445860Y7581720D01*
G01X5319540D02*
X5316320Y7609230D01*
X5311490Y7632520D01*
X5305060Y7653690D01*
X5297020Y7676970D01*
X5284150Y7708720D01*
X5348490D01*
G01X5296260Y7548700D02*
Y7341470D01*
X5296250Y7341460D01*
X5300720Y7336990D01*
X5627650D01*
Y7547800D01*
X5625860Y7549590D01*
X5295360D01*
G01X5940260Y8353980D02*
Y8480980D01*
X5900050D01*
X5887180Y8474630D01*
X5879130Y8466160D01*
X5875920Y8449230D01*
X5879130Y8432300D01*
X5888790Y8421710D01*
X5900050Y8415360D01*
X5940260D01*
G01X5900050D02*
X5875920Y8353980D01*
G01X5813940Y8373030D02*
X5804290Y8362440D01*
X5793030Y8356100D01*
X5778550Y8353980D01*
X5764070Y8358210D01*
X5752810Y8366680D01*
X5744770Y8381490D01*
X5743160Y8398430D01*
X5746380Y8415360D01*
X5754420Y8425950D01*
X5765680Y8434410D01*
X5776940Y8436530D01*
X5788200Y8434410D01*
X5802680Y8425950D01*
X5797850Y8480980D01*
X5754420D01*
G01X5679580Y8459810D02*
X5669920Y8472510D01*
X5658660Y8478860D01*
X5645790Y8480980D01*
X5629710Y8476750D01*
X5618440Y8466160D01*
X5615230Y8453470D01*
X5616840Y8440760D01*
X5623270Y8430180D01*
X5655440Y8409010D01*
X5669920Y8394200D01*
X5679580Y8373030D01*
X5682790Y8353980D01*
X5615230D01*
G01X5940630Y8095970D02*
Y8222970D01*
X5900420D01*
X5887550Y8216620D01*
X5879500Y8208150D01*
X5876290Y8191220D01*
X5879500Y8174290D01*
X5889160Y8163700D01*
X5900420Y8157350D01*
X5940630D01*
G01X5900420D02*
X5876290Y8095970D01*
G01X5814310Y8115020D02*
X5804660Y8104430D01*
X5793400Y8098090D01*
X5778920Y8095970D01*
X5764440Y8100200D01*
X5753180Y8108670D01*
X5745140Y8123480D01*
X5743530Y8140420D01*
X5746750Y8157350D01*
X5754790Y8167940D01*
X5766050Y8176400D01*
X5777310Y8178520D01*
X5788570Y8176400D01*
X5803050Y8167940D01*
X5798220Y8222970D01*
X5754790D01*
G01X5649380Y8095970D02*
Y8222970D01*
X5668680Y8197570D01*
G01Y8095970D02*
X5630080D01*
G01X5341940Y8835050D02*
Y8734750D01*
G01Y8835050D02*
Y8734750D01*
G01X5392980Y8784030D02*
X5292680D01*
G01X6043970Y958720D02*
X6053620Y965070D01*
X6064880Y969300D01*
X6077750D01*
X6092230Y962950D01*
X6103490Y952370D01*
X6111530Y939670D01*
X6117970Y918500D01*
X6119580Y899450D01*
X6116360Y880400D01*
X6111530Y867700D01*
X6101880Y855000D01*
X6090620Y846530D01*
X6079360Y842300D01*
X6068100D01*
X6056840Y846530D01*
X6047190Y852880D01*
X6039140Y861350D01*
G01X5985210Y867700D02*
X5975560Y852880D01*
X5962690Y844420D01*
X5948210Y842300D01*
X5935340Y844420D01*
X5922470Y855000D01*
X5914430Y867700D01*
X5912820Y880400D01*
X5916040Y895210D01*
X5927300Y905800D01*
X5938560Y910030D01*
X5953040D01*
G01X5938560D02*
X5928910Y916380D01*
X5920860Y926960D01*
X5917650Y939670D01*
X5920860Y952370D01*
X5928910Y962950D01*
X5943390Y969300D01*
X5957860Y967180D01*
X5972340Y958720D01*
G01X6337560Y728750D02*
X6237260D01*
G01X6286520Y779770D02*
Y679470D01*
G01Y779770D02*
Y679470D01*
G01X6285220Y1519050D02*
X6291060Y1522990D01*
X6297880Y1525610D01*
X6305670D01*
X6314430Y1521670D01*
X6321240Y1515110D01*
X6326110Y1507240D01*
X6330010Y1494110D01*
X6330980Y1482300D01*
X6329030Y1470490D01*
X6326110Y1462620D01*
X6320270Y1454740D01*
X6313460Y1449490D01*
X6306640Y1446870D01*
X6299820D01*
X6293010Y1449490D01*
X6287170Y1453430D01*
X6282300Y1458680D01*
G01X6227900Y1446870D02*
Y1525610D01*
X6239580Y1509860D01*
G01Y1446870D02*
X6216220D01*
G01X6170580Y1462620D02*
X6164740Y1453430D01*
X6156950Y1448180D01*
X6148190Y1446870D01*
X6140400Y1448180D01*
X6132610Y1454740D01*
X6127740Y1462620D01*
X6126770Y1470490D01*
X6128710Y1479680D01*
X6135530Y1486240D01*
X6142340Y1488870D01*
X6151110D01*
G01X6142340D02*
X6136500Y1492800D01*
X6131630Y1499360D01*
X6129690Y1507240D01*
X6131630Y1515110D01*
X6136500Y1521670D01*
X6145270Y1525610D01*
X6154030Y1524300D01*
X6162790Y1519050D01*
G01X5930290Y1920140D02*
X5939940Y1926490D01*
X5951200Y1930720D01*
X5964070D01*
X5978550Y1924370D01*
X5989810Y1913790D01*
X5997850Y1901090D01*
X6004290Y1879920D01*
X6005900Y1860870D01*
X6002680Y1841820D01*
X5997850Y1829120D01*
X5988200Y1816420D01*
X5976940Y1807950D01*
X5965680Y1803720D01*
X5954420D01*
X5943160Y1807950D01*
X5933510Y1814300D01*
X5925460Y1822770D01*
G01X5816840Y1803720D02*
Y1930720D01*
X5876360Y1839700D01*
X5795920D01*
G01X6546490Y1976470D02*
Y2055210D01*
X6522150D01*
X6514360Y2051270D01*
X6509490Y2046020D01*
X6507550Y2035520D01*
X6509490Y2025030D01*
X6515340Y2018470D01*
X6522150Y2014530D01*
X6546490D01*
G01X6522150D02*
X6507550Y1976470D01*
G01X6448280D02*
Y2055210D01*
X6459960Y2039460D01*
G01Y1976470D02*
X6436600D01*
G01X6388040Y2042090D02*
X6382200Y2049960D01*
X6375380Y2053900D01*
X6367590Y2055210D01*
X6357860Y2052590D01*
X6351040Y2046020D01*
X6349090Y2038150D01*
X6350070Y2030270D01*
X6353960Y2023710D01*
X6373430Y2010590D01*
X6382200Y2001400D01*
X6388040Y1988280D01*
X6389990Y1976470D01*
X6349090D01*
G01X6512440Y2656560D02*
Y2783560D01*
X6472230D01*
X6459360Y2777210D01*
X6451310Y2768740D01*
X6448100Y2751810D01*
X6451310Y2734880D01*
X6460970Y2724290D01*
X6472230Y2717940D01*
X6512440D01*
G01X6472230D02*
X6448100Y2656560D01*
G01X6386120Y2681960D02*
X6376470Y2667140D01*
X6363600Y2658680D01*
X6349120Y2656560D01*
X6336250Y2658680D01*
X6323380Y2669260D01*
X6315340Y2681960D01*
X6313730Y2694660D01*
X6316950Y2709470D01*
X6328210Y2720060D01*
X6339470Y2724290D01*
X6353950D01*
G01X6339470D02*
X6329820Y2730640D01*
X6321770Y2741220D01*
X6318560Y2753930D01*
X6321770Y2766630D01*
X6329820Y2777210D01*
X6344300Y2783560D01*
X6358770Y2781440D01*
X6373250Y2772980D01*
G01X6251760Y2762390D02*
X6242100Y2775090D01*
X6230840Y2781440D01*
X6217970Y2783560D01*
X6201890Y2779330D01*
X6190620Y2768740D01*
X6187410Y2756050D01*
X6189020Y2743340D01*
X6195450Y2732760D01*
X6227620Y2711590D01*
X6242100Y2696780D01*
X6251760Y2675610D01*
X6254970Y2656560D01*
X6187410D01*
G01X6521800Y4013100D02*
Y4140100D01*
X6481590D01*
X6468720Y4133750D01*
X6460670Y4125280D01*
X6457460Y4108350D01*
X6460670Y4091420D01*
X6470330Y4080830D01*
X6481590Y4074480D01*
X6521800D01*
G01X6481590D02*
X6457460Y4013100D01*
G01X6390660Y4118930D02*
X6381000Y4131630D01*
X6369740Y4137980D01*
X6356870Y4140100D01*
X6340790Y4135870D01*
X6329520Y4125280D01*
X6326310Y4112590D01*
X6327920Y4099880D01*
X6334350Y4089300D01*
X6366520Y4068130D01*
X6381000Y4053320D01*
X6390660Y4032150D01*
X6393870Y4013100D01*
X6326310D01*
G01X6261120Y4066010D02*
X6249850Y4080830D01*
X6240200Y4089300D01*
X6227330Y4093530D01*
X6216070Y4089300D01*
X6208030Y4080830D01*
X6201590Y4068130D01*
X6199980Y4053320D01*
X6201590Y4040610D01*
X6208030Y4027910D01*
X6217680Y4017330D01*
X6228940Y4013100D01*
X6241810Y4017330D01*
X6253070Y4030030D01*
X6259510Y4049080D01*
X6261120Y4070250D01*
X6257900Y4097760D01*
X6253070Y4112590D01*
X6245030Y4127400D01*
X6233770Y4137980D01*
X6222510Y4140100D01*
X6211250Y4135870D01*
X6203200Y4125280D01*
G01X6522600Y3790730D02*
Y3917730D01*
X6482390D01*
X6469520Y3911380D01*
X6461470Y3902910D01*
X6458260Y3885980D01*
X6461470Y3869050D01*
X6471130Y3858460D01*
X6482390Y3852110D01*
X6522600D01*
G01X6482390D02*
X6458260Y3790730D01*
G01X6391460Y3896560D02*
X6381800Y3909260D01*
X6370540Y3915610D01*
X6357670Y3917730D01*
X6341590Y3913500D01*
X6330320Y3902910D01*
X6327110Y3890220D01*
X6328720Y3877510D01*
X6335150Y3866930D01*
X6367320Y3845760D01*
X6381800Y3830950D01*
X6391460Y3809780D01*
X6394670Y3790730D01*
X6327110D01*
G01X6266740Y3809780D02*
X6257090Y3799190D01*
X6245830Y3792850D01*
X6231350Y3790730D01*
X6216870Y3794960D01*
X6205610Y3803430D01*
X6197570Y3818240D01*
X6195960Y3835180D01*
X6199180Y3852110D01*
X6207220Y3862700D01*
X6218480Y3871160D01*
X6229740Y3873280D01*
X6241000Y3871160D01*
X6255480Y3862700D01*
X6250650Y3917730D01*
X6207220D01*
G01X6405930Y3354840D02*
Y3481840D01*
X6373760D01*
X6360890Y3475490D01*
X6351240Y3467020D01*
X6343190Y3454330D01*
X6336760Y3439500D01*
X6335150Y3418340D01*
X6336760Y3397170D01*
X6343190Y3382350D01*
X6351240Y3369650D01*
X6360890Y3361190D01*
X6373760Y3354840D01*
X6405930D01*
G01X6281220D02*
X6241000Y3481840D01*
X6200780Y3354840D01*
G01X6215260Y3399290D02*
X6266740D01*
G01X6142030Y3407750D02*
X6130760Y3422570D01*
X6121110Y3431040D01*
X6108240Y3435270D01*
X6096980Y3431040D01*
X6088940Y3422570D01*
X6082500Y3409870D01*
X6080890Y3395060D01*
X6082500Y3382350D01*
X6088940Y3369650D01*
X6098590Y3359070D01*
X6109850Y3354840D01*
X6122720Y3359070D01*
X6133980Y3371770D01*
X6140420Y3390820D01*
X6142030Y3411990D01*
X6138810Y3439500D01*
X6133980Y3454330D01*
X6125940Y3469140D01*
X6114680Y3479720D01*
X6103420Y3481840D01*
X6092160Y3477610D01*
X6084110Y3467020D01*
G01X6456470Y4517560D02*
X6466120Y4523910D01*
X6477380Y4528140D01*
X6490250D01*
X6504730Y4521790D01*
X6515990Y4511210D01*
X6524030Y4498510D01*
X6530470Y4477340D01*
X6532080Y4458290D01*
X6528860Y4439240D01*
X6524030Y4426540D01*
X6514380Y4413840D01*
X6503120Y4405370D01*
X6491860Y4401140D01*
X6480600D01*
X6469340Y4405370D01*
X6459690Y4411720D01*
X6451640Y4420190D01*
G01X6392890Y4506970D02*
X6383230Y4519670D01*
X6371970Y4526020D01*
X6359100Y4528140D01*
X6343020Y4523910D01*
X6331750Y4513320D01*
X6328540Y4500630D01*
X6330150Y4487920D01*
X6336580Y4477340D01*
X6368750Y4456170D01*
X6383230Y4441360D01*
X6392890Y4420190D01*
X6396100Y4401140D01*
X6328540D01*
G01X6268170Y4420190D02*
X6258520Y4409600D01*
X6247260Y4403260D01*
X6232780Y4401140D01*
X6218300Y4405370D01*
X6207040Y4413840D01*
X6199000Y4428650D01*
X6197390Y4445590D01*
X6200610Y4462520D01*
X6208650Y4473110D01*
X6219910Y4481570D01*
X6231170Y4483690D01*
X6242430Y4481570D01*
X6256910Y4473110D01*
X6252080Y4528140D01*
X6208650D01*
G01X5792020Y4633990D02*
Y4426760D01*
X5792010Y4426750D01*
X5796480Y4422280D01*
X6123410D01*
Y4633090D01*
X6121620Y4634880D01*
X5791120D01*
G01X6371540Y5507280D02*
Y5634280D01*
X6331330D01*
X6318460Y5627930D01*
X6310410Y5619460D01*
X6307200Y5602530D01*
X6310410Y5585600D01*
X6320070Y5575010D01*
X6331330Y5568660D01*
X6371540D01*
G01X6331330D02*
X6307200Y5507280D01*
G01X6209830D02*
X6198570Y5509400D01*
X6185700Y5515740D01*
X6177660Y5526330D01*
X6174440Y5541150D01*
X6177660Y5555960D01*
X6187310Y5568660D01*
X6201790Y5575010D01*
X6217870D01*
X6227530Y5579250D01*
X6235570Y5589830D01*
X6238790Y5604650D01*
X6233960Y5619460D01*
X6222700Y5630050D01*
X6209830Y5634280D01*
X6196960Y5630050D01*
X6185700Y5619460D01*
X6180870Y5604650D01*
X6184090Y5589830D01*
X6192130Y5579250D01*
X6201790Y5575010D01*
X6217870D01*
X6232350Y5568660D01*
X6242000Y5555960D01*
X6245220Y5541150D01*
X6242000Y5526330D01*
X6233960Y5515740D01*
X6221090Y5509400D01*
X6209830Y5507280D01*
G01X6107640Y5522090D02*
X6096380Y5511510D01*
X6083510Y5507280D01*
X6070640Y5511510D01*
X6059380Y5524210D01*
X6051330Y5543260D01*
X6048120Y5562310D01*
Y5585600D01*
X6051330Y5604650D01*
X6059380Y5621580D01*
X6069030Y5630050D01*
X6080290Y5634280D01*
X6093160Y5630050D01*
X6102810Y5621580D01*
X6109250Y5608880D01*
X6112460Y5591940D01*
X6109250Y5577130D01*
X6101200Y5562310D01*
X6091550Y5553840D01*
X6080290Y5551730D01*
X6067420Y5555960D01*
X6057770Y5566550D01*
X6048120Y5585600D01*
G01X6851820Y5000700D02*
Y5127700D01*
X6819650D01*
X6806780Y5121350D01*
X6797130Y5112880D01*
X6789080Y5100190D01*
X6782650Y5085360D01*
X6781040Y5064200D01*
X6782650Y5043030D01*
X6789080Y5028210D01*
X6797130Y5015510D01*
X6806780Y5007050D01*
X6819650Y5000700D01*
X6851820D01*
G01X6722280D02*
Y5127700D01*
X6690110D01*
X6677240Y5121350D01*
X6667590Y5112880D01*
X6659540Y5100190D01*
X6653110Y5085360D01*
X6651500Y5064200D01*
X6653110Y5043030D01*
X6659540Y5028210D01*
X6667590Y5015510D01*
X6677240Y5007050D01*
X6690110Y5000700D01*
X6722280D01*
G01X6592740Y5026100D02*
X6583090Y5011280D01*
X6570220Y5002820D01*
X6555740Y5000700D01*
X6542870Y5002820D01*
X6530000Y5013400D01*
X6521960Y5026100D01*
X6520350Y5038800D01*
X6523570Y5053610D01*
X6534830Y5064200D01*
X6546090Y5068430D01*
X6560570D01*
G01X6546090D02*
X6536440Y5074780D01*
X6528390Y5085360D01*
X6525180Y5098070D01*
X6528390Y5110770D01*
X6536440Y5121350D01*
X6550920Y5127700D01*
X6565390Y5125580D01*
X6579870Y5117120D01*
G01X6427810Y5000700D02*
Y5127700D01*
X6447110Y5102300D01*
G01Y5000700D02*
X6408510D01*
G01X5734990Y5122690D02*
X5785910D01*
X5790370Y5118230D01*
Y4988700D01*
G01X6432830Y5173790D02*
Y5252530D01*
X6444510Y5236780D01*
G01Y5173790D02*
X6421150D01*
G01X6349590Y6084440D02*
Y6211440D01*
X6309380D01*
X6296510Y6205090D01*
X6288460Y6196620D01*
X6285250Y6179690D01*
X6288460Y6162760D01*
X6298120Y6152170D01*
X6309380Y6145820D01*
X6349590D01*
G01X6309380D02*
X6285250Y6084440D01*
G01X6223270Y6103490D02*
X6213620Y6092900D01*
X6202360Y6086560D01*
X6187880Y6084440D01*
X6173400Y6088670D01*
X6162140Y6097140D01*
X6154100Y6111950D01*
X6152490Y6128890D01*
X6155710Y6145820D01*
X6163750Y6156410D01*
X6175010Y6164870D01*
X6186270Y6166990D01*
X6197530Y6164870D01*
X6212010Y6156410D01*
X6207180Y6211440D01*
X6163750D01*
G01X6093730Y6103490D02*
X6084080Y6092900D01*
X6072820Y6086560D01*
X6058340Y6084440D01*
X6043860Y6088670D01*
X6032600Y6097140D01*
X6024560Y6111950D01*
X6022950Y6128890D01*
X6026170Y6145820D01*
X6034210Y6156410D01*
X6045470Y6164870D01*
X6056730Y6166990D01*
X6067990Y6164870D01*
X6082470Y6156410D01*
X6077640Y6211440D01*
X6034210D01*
G01X6321440Y7016410D02*
Y7143410D01*
X6281230D01*
X6268360Y7137060D01*
X6260310Y7128590D01*
X6257100Y7111660D01*
X6260310Y7094730D01*
X6269970Y7084140D01*
X6281230Y7077790D01*
X6321440D01*
G01X6281230D02*
X6257100Y7016410D01*
G01X6195120Y7035460D02*
X6185470Y7024870D01*
X6174210Y7018530D01*
X6159730Y7016410D01*
X6145250Y7020640D01*
X6133990Y7029110D01*
X6125950Y7043920D01*
X6124340Y7060860D01*
X6127560Y7077790D01*
X6135600Y7088380D01*
X6146860Y7096840D01*
X6158120Y7098960D01*
X6169380Y7096840D01*
X6183860Y7088380D01*
X6179030Y7143410D01*
X6135600D01*
G01X6060760Y7069320D02*
X6049490Y7084140D01*
X6039840Y7092610D01*
X6026970Y7096840D01*
X6015710Y7092610D01*
X6007670Y7084140D01*
X6001230Y7071440D01*
X5999620Y7056630D01*
X6001230Y7043920D01*
X6007670Y7031220D01*
X6017320Y7020640D01*
X6028580Y7016410D01*
X6041450Y7020640D01*
X6052710Y7033340D01*
X6059150Y7052390D01*
X6060760Y7073560D01*
X6057540Y7101070D01*
X6052710Y7115900D01*
X6044670Y7130710D01*
X6033410Y7141290D01*
X6022150Y7143410D01*
X6010890Y7139180D01*
X6002840Y7128590D01*
G01X5952520Y6492960D02*
Y6571700D01*
X5933050D01*
X5925260Y6567760D01*
X5919420Y6562510D01*
X5914550Y6554640D01*
X5910650Y6545450D01*
X5909680Y6532330D01*
X5910650Y6519210D01*
X5914550Y6510020D01*
X5919420Y6502140D01*
X5925260Y6496900D01*
X5933050Y6492960D01*
X5952520D01*
G01X5873780D02*
Y6571700D01*
X5854310D01*
X5846520Y6567760D01*
X5840680Y6562510D01*
X5835810Y6554640D01*
X5831910Y6545450D01*
X5830940Y6532330D01*
X5831910Y6519210D01*
X5835810Y6510020D01*
X5840680Y6502140D01*
X5846520Y6496900D01*
X5854310Y6492960D01*
X5873780D01*
G01X5773620D02*
Y6571700D01*
X5785300Y6555950D01*
G01Y6492960D02*
X5761940D01*
G01X5713380Y6525770D02*
X5706560Y6534960D01*
X5700720Y6540200D01*
X5692930Y6542830D01*
X5686120Y6540200D01*
X5681250Y6534960D01*
X5677350Y6527080D01*
X5676380Y6517890D01*
X5677350Y6510020D01*
X5681250Y6502140D01*
X5687090Y6495580D01*
X5693910Y6492960D01*
X5701700Y6495580D01*
X5708510Y6503460D01*
X5712410Y6515270D01*
X5713380Y6528390D01*
X5711430Y6545450D01*
X5708510Y6554640D01*
X5703640Y6563830D01*
X5696830Y6570390D01*
X5690010Y6571700D01*
X5683200Y6569080D01*
X5678330Y6562510D01*
G01X6382280Y7607820D02*
X6391930Y7614170D01*
X6403190Y7618400D01*
X6416060D01*
X6430540Y7612050D01*
X6441800Y7601470D01*
X6449840Y7588770D01*
X6456280Y7567600D01*
X6457890Y7548550D01*
X6454670Y7529500D01*
X6449840Y7516800D01*
X6440190Y7504100D01*
X6428930Y7495630D01*
X6417670Y7491400D01*
X6406410D01*
X6395150Y7495630D01*
X6385500Y7501980D01*
X6377450Y7510450D01*
G01X6323520Y7516800D02*
X6313870Y7501980D01*
X6301000Y7493520D01*
X6286520Y7491400D01*
X6273650Y7493520D01*
X6260780Y7504100D01*
X6252740Y7516800D01*
X6251130Y7529500D01*
X6254350Y7544310D01*
X6265610Y7554900D01*
X6276870Y7559130D01*
X6291350D01*
G01X6276870D02*
X6267220Y7565480D01*
X6259170Y7576060D01*
X6255960Y7588770D01*
X6259170Y7601470D01*
X6267220Y7612050D01*
X6281700Y7618400D01*
X6296170Y7616280D01*
X6310650Y7607820D01*
G01X6161810Y7491400D02*
X6158590Y7518910D01*
X6153760Y7542200D01*
X6147330Y7563370D01*
X6139290Y7586650D01*
X6126420Y7618400D01*
X6190760D01*
G01X6638750Y7794020D02*
Y7921020D01*
X6598540D01*
X6585670Y7914670D01*
X6577620Y7906200D01*
X6574410Y7889270D01*
X6577620Y7872340D01*
X6587280Y7861750D01*
X6598540Y7855400D01*
X6638750D01*
G01X6598540D02*
X6574410Y7794020D01*
G01X6512430Y7813070D02*
X6502780Y7802480D01*
X6491520Y7796140D01*
X6477040Y7794020D01*
X6462560Y7798250D01*
X6451300Y7806720D01*
X6443260Y7821530D01*
X6441650Y7838470D01*
X6444870Y7855400D01*
X6452910Y7865990D01*
X6464170Y7874450D01*
X6475430Y7876570D01*
X6486690Y7874450D01*
X6501170Y7865990D01*
X6496340Y7921020D01*
X6452910D01*
G01X6328200Y7794020D02*
Y7921020D01*
X6387720Y7830000D01*
X6307280D01*
G01X6388850Y7248590D02*
Y7327330D01*
X6400530Y7311580D01*
G01Y7248590D02*
X6377170D01*
G01X5977080Y8517090D02*
Y8309860D01*
X5977070Y8309850D01*
X5981540Y8305380D01*
X6308470D01*
Y8516190D01*
X6306680Y8517980D01*
X5976180D01*
G01X6296100Y8796680D02*
Y8923680D01*
X6255890D01*
X6243020Y8917330D01*
X6234970Y8908860D01*
X6231760Y8891930D01*
X6234970Y8875000D01*
X6244630Y8864410D01*
X6255890Y8858060D01*
X6296100D01*
G01X6255890D02*
X6231760Y8796680D01*
G01X6169780Y8815730D02*
X6160130Y8805140D01*
X6148870Y8798800D01*
X6134390Y8796680D01*
X6119910Y8800910D01*
X6108650Y8809380D01*
X6100610Y8824190D01*
X6099000Y8841130D01*
X6102220Y8858060D01*
X6110260Y8868650D01*
X6121520Y8877110D01*
X6132780Y8879230D01*
X6144040Y8877110D01*
X6158520Y8868650D01*
X6153690Y8923680D01*
X6110260D01*
G01X6040240Y8822080D02*
X6030590Y8807260D01*
X6017720Y8798800D01*
X6003240Y8796680D01*
X5990370Y8798800D01*
X5977500Y8809380D01*
X5969460Y8822080D01*
X5967850Y8834780D01*
X5971070Y8849590D01*
X5982330Y8860180D01*
X5993590Y8864410D01*
X6008070D01*
G01X5993590D02*
X5983940Y8870760D01*
X5975890Y8881340D01*
X5972680Y8894050D01*
X5975890Y8906750D01*
X5983940Y8917330D01*
X5998420Y8923680D01*
X6012890Y8921560D01*
X6027370Y8913100D01*
G01X6409970Y9085820D02*
Y9164560D01*
X6421650Y9148810D01*
G01Y9085820D02*
X6398290D01*
G01X6426260Y9752240D02*
Y9879240D01*
X6386050D01*
X6373180Y9872890D01*
X6365130Y9864420D01*
X6361920Y9847490D01*
X6365130Y9830560D01*
X6374790Y9819970D01*
X6386050Y9813620D01*
X6426260D01*
G01X6386050D02*
X6361920Y9752240D01*
G01X6295120Y9858070D02*
X6285460Y9870770D01*
X6274200Y9877120D01*
X6261330Y9879240D01*
X6245250Y9875010D01*
X6233980Y9864420D01*
X6230770Y9851730D01*
X6232380Y9839020D01*
X6238810Y9828440D01*
X6270980Y9807270D01*
X6285460Y9792460D01*
X6295120Y9771290D01*
X6298330Y9752240D01*
X6230770D01*
G01X6135010D02*
Y9879240D01*
X6154310Y9853840D01*
G01Y9752240D02*
X6115710D01*
G01X6426240Y9994540D02*
Y10121540D01*
X6386030D01*
X6373160Y10115190D01*
X6365110Y10106720D01*
X6361900Y10089790D01*
X6365110Y10072860D01*
X6374770Y10062270D01*
X6386030Y10055920D01*
X6426240D01*
G01X6386030D02*
X6361900Y9994540D01*
G01X6295100Y10100370D02*
X6285440Y10113070D01*
X6274180Y10119420D01*
X6261310Y10121540D01*
X6245230Y10117310D01*
X6233960Y10106720D01*
X6230750Y10094030D01*
X6232360Y10081320D01*
X6238790Y10070740D01*
X6270960Y10049570D01*
X6285440Y10034760D01*
X6295100Y10013590D01*
X6298310Y9994540D01*
X6230750D01*
G01X6134990Y10121540D02*
X6147860Y10117310D01*
X6157510Y10106720D01*
X6163950Y10094030D01*
X6168770Y10077090D01*
X6170380Y10058040D01*
X6168770Y10038990D01*
X6163950Y10022050D01*
X6157510Y10009350D01*
X6147860Y9998770D01*
X6134990Y9994540D01*
X6122120Y9998770D01*
X6112470Y10009350D01*
X6106030Y10022050D01*
X6101210Y10038990D01*
X6099600Y10058040D01*
X6101210Y10077090D01*
X6106030Y10094030D01*
X6112470Y10106720D01*
X6122120Y10117310D01*
X6134990Y10121540D01*
G01X6062260Y10602000D02*
Y10729000D01*
X6022050D01*
X6009180Y10722650D01*
X6001130Y10714180D01*
X5997920Y10697250D01*
X6001130Y10680320D01*
X6010790Y10669730D01*
X6022050Y10663380D01*
X6062260D01*
G01X6022050D02*
X5997920Y10602000D01*
G01X5900550D02*
X5889290Y10604120D01*
X5876420Y10610460D01*
X5868380Y10621050D01*
X5865160Y10635870D01*
X5868380Y10650680D01*
X5878030Y10663380D01*
X5892510Y10669730D01*
X5908590D01*
X5918250Y10673970D01*
X5926290Y10684550D01*
X5929510Y10699370D01*
X5924680Y10714180D01*
X5913420Y10724770D01*
X5900550Y10729000D01*
X5887680Y10724770D01*
X5876420Y10714180D01*
X5871590Y10699370D01*
X5874810Y10684550D01*
X5882850Y10673970D01*
X5892510Y10669730D01*
X5908590D01*
X5923070Y10663380D01*
X5932720Y10650680D01*
X5935940Y10635870D01*
X5932720Y10621050D01*
X5924680Y10610460D01*
X5911810Y10604120D01*
X5900550Y10602000D01*
G01X5771010Y10729000D02*
X5783880Y10724770D01*
X5793530Y10714180D01*
X5799970Y10701490D01*
X5804790Y10684550D01*
X5806400Y10665500D01*
X5804790Y10646450D01*
X5799970Y10629510D01*
X5793530Y10616810D01*
X5783880Y10606230D01*
X5771010Y10602000D01*
X5758140Y10606230D01*
X5748490Y10616810D01*
X5742050Y10629510D01*
X5737230Y10646450D01*
X5735620Y10665500D01*
X5737230Y10684550D01*
X5742050Y10701490D01*
X5748490Y10714180D01*
X5758140Y10724770D01*
X5771010Y10729000D01*
G01X6426230Y10240270D02*
Y10367270D01*
X6386020D01*
X6373150Y10360920D01*
X6365100Y10352450D01*
X6361890Y10335520D01*
X6365100Y10318590D01*
X6374760Y10308000D01*
X6386020Y10301650D01*
X6426230D01*
G01X6386020D02*
X6361890Y10240270D01*
G01X6264520D02*
Y10367270D01*
X6283820Y10341870D01*
G01Y10240270D02*
X6245220D01*
G01X6162330Y10255080D02*
X6151070Y10244500D01*
X6138200Y10240270D01*
X6125330Y10244500D01*
X6114070Y10257200D01*
X6106020Y10276250D01*
X6102810Y10295300D01*
Y10318590D01*
X6106020Y10337640D01*
X6114070Y10354570D01*
X6123720Y10363040D01*
X6134980Y10367270D01*
X6147850Y10363040D01*
X6157500Y10354570D01*
X6163940Y10341870D01*
X6167150Y10324930D01*
X6163940Y10310120D01*
X6155890Y10295300D01*
X6146240Y10286830D01*
X6134980Y10284720D01*
X6122110Y10288950D01*
X6112460Y10299540D01*
X6102810Y10318590D01*
G01X6433070Y10830900D02*
Y10909640D01*
X6413600D01*
X6405810Y10905700D01*
X6399970Y10900450D01*
X6395100Y10892580D01*
X6391200Y10883390D01*
X6390230Y10870270D01*
X6391200Y10857150D01*
X6395100Y10847960D01*
X6399970Y10840080D01*
X6405810Y10834840D01*
X6413600Y10830900D01*
X6433070D01*
G01X6354330D02*
Y10909640D01*
X6334860D01*
X6327070Y10905700D01*
X6321230Y10900450D01*
X6316360Y10892580D01*
X6312460Y10883390D01*
X6311490Y10870270D01*
X6312460Y10857150D01*
X6316360Y10847960D01*
X6321230Y10840080D01*
X6327070Y10834840D01*
X6334860Y10830900D01*
X6354330D01*
G01X6254170D02*
Y10909640D01*
X6265850Y10893890D01*
G01Y10830900D02*
X6242490D01*
G01X6175430D02*
X6168610Y10832210D01*
X6160830Y10836150D01*
X6155960Y10842710D01*
X6154010Y10851900D01*
X6155960Y10861080D01*
X6161800Y10868960D01*
X6170560Y10872900D01*
X6180300D01*
X6186140Y10875520D01*
X6191010Y10882080D01*
X6192960Y10891270D01*
X6190030Y10900450D01*
X6183220Y10907020D01*
X6175430Y10909640D01*
X6167640Y10907020D01*
X6160830Y10900450D01*
X6157900Y10891270D01*
X6159850Y10882080D01*
X6164720Y10875520D01*
X6170560Y10872900D01*
X6180300D01*
X6189060Y10868960D01*
X6194900Y10861080D01*
X6196850Y10851900D01*
X6194900Y10842710D01*
X6190030Y10836150D01*
X6182250Y10832210D01*
X6175430Y10830900D01*
G01X6165350Y10458470D02*
Y10537210D01*
X6177030Y10521460D01*
G01Y10458470D02*
X6153670D01*
G01X6061290Y11002230D02*
Y11129230D01*
X6021080D01*
X6008210Y11122880D01*
X6000160Y11114410D01*
X5996950Y11097480D01*
X6000160Y11080550D01*
X6009820Y11069960D01*
X6021080Y11063610D01*
X6061290D01*
G01X6021080D02*
X5996950Y11002230D01*
G01X5902800D02*
X5899580Y11029740D01*
X5894750Y11053030D01*
X5888320Y11074200D01*
X5880280Y11097480D01*
X5867410Y11129230D01*
X5931750D01*
G01X5770040Y11002230D02*
X5758780Y11004350D01*
X5745910Y11010690D01*
X5737870Y11021280D01*
X5734650Y11036100D01*
X5737870Y11050910D01*
X5747520Y11063610D01*
X5762000Y11069960D01*
X5778080D01*
X5787740Y11074200D01*
X5795780Y11084780D01*
X5799000Y11099600D01*
X5794170Y11114410D01*
X5782910Y11125000D01*
X5770040Y11129230D01*
X5757170Y11125000D01*
X5745910Y11114410D01*
X5741080Y11099600D01*
X5744300Y11084780D01*
X5752340Y11074200D01*
X5762000Y11069960D01*
X5778080D01*
X5792560Y11063610D01*
X5802210Y11050910D01*
X5805430Y11036100D01*
X5802210Y11021280D01*
X5794170Y11010690D01*
X5781300Y11004350D01*
X5770040Y11002230D01*
G01X6921480Y1158700D02*
X6931130Y1165050D01*
X6942390Y1169280D01*
X6955260D01*
X6969740Y1162930D01*
X6981000Y1152350D01*
X6989040Y1139650D01*
X6995480Y1118480D01*
X6997090Y1099430D01*
X6993870Y1080380D01*
X6989040Y1067680D01*
X6979390Y1054980D01*
X6968130Y1046510D01*
X6956870Y1042280D01*
X6945610D01*
X6934350Y1046510D01*
X6924700Y1052860D01*
X6916650Y1061330D01*
G01X6827330Y1042280D02*
Y1169280D01*
X6846630Y1143880D01*
G01Y1042280D02*
X6808030D01*
G01X6678490D02*
Y1169280D01*
X6738010Y1078260D01*
X6657570D01*
G01X6791720Y1944450D02*
Y1615750D01*
X6788130Y1612160D01*
X6586260D01*
Y1946240D01*
X6588050Y1948030D01*
X6790810D01*
G01X6790660Y1979250D02*
Y2057990D01*
X6766320D01*
X6758530Y2054050D01*
X6753660Y2048800D01*
X6751720Y2038300D01*
X6753660Y2027810D01*
X6759510Y2021250D01*
X6766320Y2017310D01*
X6790660D01*
G01X6766320D02*
X6751720Y1979250D01*
G01X6692450D02*
Y2057990D01*
X6704130Y2042240D01*
G01Y1979250D02*
X6680770D01*
G01X6635130Y1991060D02*
X6629290Y1984500D01*
X6622470Y1980560D01*
X6613710Y1979250D01*
X6604950Y1981870D01*
X6598130Y1987120D01*
X6593260Y1996310D01*
X6592290Y2006810D01*
X6594240Y2017310D01*
X6599110Y2023870D01*
X6605920Y2029120D01*
X6612740Y2030430D01*
X6619550Y2029120D01*
X6628310Y2023870D01*
X6625390Y2057990D01*
X6599110D01*
G01X6822070Y2158860D02*
Y2285860D01*
X6789900D01*
X6777030Y2279510D01*
X6767380Y2271040D01*
X6759330Y2258350D01*
X6752900Y2243520D01*
X6751290Y2222360D01*
X6752900Y2201190D01*
X6759330Y2186370D01*
X6767380Y2173670D01*
X6777030Y2165210D01*
X6789900Y2158860D01*
X6822070D01*
G01X6692530D02*
Y2285860D01*
X6660360D01*
X6647490Y2279510D01*
X6637840Y2271040D01*
X6629790Y2258350D01*
X6623360Y2243520D01*
X6621750Y2222360D01*
X6623360Y2201190D01*
X6629790Y2186370D01*
X6637840Y2173670D01*
X6647490Y2165210D01*
X6660360Y2158860D01*
X6692530D01*
G01X6530820D02*
X6527600Y2186370D01*
X6522770Y2209660D01*
X6516340Y2230830D01*
X6508300Y2254110D01*
X6495430Y2285860D01*
X6559770D01*
G01X6929280Y2659980D02*
X6910530D01*
X6910520Y2659970D01*
Y2249080D01*
X6931070D01*
G01X7099890Y3402280D02*
Y3013710D01*
X7099000Y3012820D01*
G01X6877470Y3402280D02*
Y3015500D01*
X6876580Y3014610D01*
G01X6477290Y3401380D02*
Y3012810D01*
G01X6819240Y3171650D02*
G03I-14190J0D01*
G01X7031730Y2583200D02*
G03I-35590J0D01*
G01X6929360Y2928460D02*
Y3007200D01*
X6941040Y2991450D01*
G01Y2928460D02*
X6917680D01*
G01X6869980Y2735600D02*
Y2814340D01*
X6881660Y2798590D01*
G01Y2735600D02*
X6858300D01*
G01X7075540Y3635150D02*
Y3713890D01*
X7051200D01*
X7043410Y3709950D01*
X7038540Y3704700D01*
X7036600Y3694200D01*
X7038540Y3683710D01*
X7044390Y3677150D01*
X7051200Y3673210D01*
X7075540D01*
G01X7051200D02*
X7036600Y3635150D01*
G01X6977330D02*
Y3713890D01*
X6989010Y3698140D01*
G01Y3635150D02*
X6965650D01*
G01X6898590Y3713890D02*
X6906380Y3711270D01*
X6912220Y3704700D01*
X6916120Y3696830D01*
X6919040Y3686330D01*
X6920010Y3674520D01*
X6919040Y3662710D01*
X6916120Y3652210D01*
X6912220Y3644330D01*
X6906380Y3637770D01*
X6898590Y3635150D01*
X6890800Y3637770D01*
X6884960Y3644330D01*
X6881060Y3652210D01*
X6878140Y3662710D01*
X6877170Y3674520D01*
X6878140Y3686330D01*
X6881060Y3696830D01*
X6884960Y3704700D01*
X6890800Y3711270D01*
X6898590Y3713890D01*
G01X6821800Y3635150D02*
X6819850Y3652210D01*
X6816930Y3666640D01*
X6813030Y3679770D01*
X6808170Y3694200D01*
X6800380Y3713890D01*
X6839320D01*
G01X7611890Y3842510D02*
Y3969510D01*
X7579720D01*
X7566850Y3963160D01*
X7557200Y3954690D01*
X7549150Y3942000D01*
X7542720Y3927170D01*
X7541110Y3906010D01*
X7542720Y3884840D01*
X7549150Y3870020D01*
X7557200Y3857320D01*
X7566850Y3848860D01*
X7579720Y3842510D01*
X7611890D01*
G01X7482350D02*
Y3969510D01*
X7450180D01*
X7437310Y3963160D01*
X7427660Y3954690D01*
X7419610Y3942000D01*
X7413180Y3927170D01*
X7411570Y3906010D01*
X7413180Y3884840D01*
X7419610Y3870020D01*
X7427660Y3857320D01*
X7437310Y3848860D01*
X7450180Y3842510D01*
X7482350D01*
G01X7317420D02*
Y3969510D01*
X7336720Y3944110D01*
G01Y3842510D02*
X7298120D01*
G01X7218450Y3948340D02*
X7208790Y3961040D01*
X7197530Y3967390D01*
X7184660Y3969510D01*
X7168580Y3965280D01*
X7157310Y3954690D01*
X7154100Y3942000D01*
X7155710Y3929290D01*
X7162140Y3918710D01*
X7194310Y3897540D01*
X7208790Y3882730D01*
X7218450Y3861560D01*
X7221660Y3842510D01*
X7154100D01*
G01X6944400Y4649750D02*
Y4776750D01*
X6904190D01*
X6891320Y4770400D01*
X6883270Y4761930D01*
X6880060Y4745000D01*
X6883270Y4728070D01*
X6892930Y4717480D01*
X6904190Y4711130D01*
X6944400D01*
G01X6904190D02*
X6880060Y4649750D01*
G01X6813260Y4755580D02*
X6803600Y4768280D01*
X6792340Y4774630D01*
X6779470Y4776750D01*
X6763390Y4772520D01*
X6752120Y4761930D01*
X6748910Y4749240D01*
X6750520Y4736530D01*
X6756950Y4725950D01*
X6789120Y4704780D01*
X6803600Y4689970D01*
X6813260Y4668800D01*
X6816470Y4649750D01*
X6748910D01*
G01X6633850D02*
Y4776750D01*
X6693370Y4685730D01*
X6612930D01*
G01X7264150Y5017180D02*
X7273800Y5023530D01*
X7285060Y5027760D01*
X7297930D01*
X7312410Y5021410D01*
X7323670Y5010830D01*
X7331710Y4998130D01*
X7338150Y4976960D01*
X7339760Y4957910D01*
X7336540Y4938860D01*
X7331710Y4926160D01*
X7322060Y4913460D01*
X7310800Y4904990D01*
X7299540Y4900760D01*
X7288280D01*
X7277020Y4904990D01*
X7267370Y4911340D01*
X7259320Y4919810D01*
G01X7170000Y4900760D02*
Y5027760D01*
X7189300Y5002360D01*
G01Y4900760D02*
X7150700D01*
G01X7040460D02*
X7029200Y4902880D01*
X7016330Y4909220D01*
X7008290Y4919810D01*
X7005070Y4934630D01*
X7008290Y4949440D01*
X7017940Y4962140D01*
X7032420Y4968490D01*
X7048500D01*
X7058160Y4972730D01*
X7066200Y4983310D01*
X7069420Y4998130D01*
X7064590Y5012940D01*
X7053330Y5023530D01*
X7040460Y5027760D01*
X7027590Y5023530D01*
X7016330Y5012940D01*
X7011500Y4998130D01*
X7014720Y4983310D01*
X7022760Y4972730D01*
X7032420Y4968490D01*
X7048500D01*
X7062980Y4962140D01*
X7072630Y4949440D01*
X7075850Y4934630D01*
X7072630Y4919810D01*
X7064590Y4909220D01*
X7051720Y4902880D01*
X7040460Y4900760D01*
G01X7003420Y6416130D02*
X7764480D01*
G01X6496050Y7177190D02*
X6481760D01*
Y6416130D01*
X6494270D01*
G01X6601460Y7011020D02*
G03I-35590J0D01*
G01X7623250Y7222940D02*
Y7349940D01*
X7591080D01*
X7578210Y7343590D01*
X7568560Y7335120D01*
X7560510Y7322430D01*
X7554080Y7307600D01*
X7552470Y7286440D01*
X7554080Y7265270D01*
X7560510Y7250450D01*
X7568560Y7237750D01*
X7578210Y7229290D01*
X7591080Y7222940D01*
X7623250D01*
G01X7493710D02*
Y7349940D01*
X7461540D01*
X7448670Y7343590D01*
X7439020Y7335120D01*
X7430970Y7322430D01*
X7424540Y7307600D01*
X7422930Y7286440D01*
X7424540Y7265270D01*
X7430970Y7250450D01*
X7439020Y7237750D01*
X7448670Y7229290D01*
X7461540Y7222940D01*
X7493710D01*
G01X7359350Y7328770D02*
X7349690Y7341470D01*
X7338430Y7347820D01*
X7325560Y7349940D01*
X7309480Y7345710D01*
X7298210Y7335120D01*
X7295000Y7322430D01*
X7296610Y7309720D01*
X7303040Y7299140D01*
X7335210Y7277970D01*
X7349690Y7263160D01*
X7359350Y7241990D01*
X7362560Y7222940D01*
X7295000D01*
G01X7234630Y7248340D02*
X7224980Y7233520D01*
X7212110Y7225060D01*
X7197630Y7222940D01*
X7184760Y7225060D01*
X7171890Y7235640D01*
X7163850Y7248340D01*
X7162240Y7261040D01*
X7165460Y7275850D01*
X7176720Y7286440D01*
X7187980Y7290670D01*
X7202460D01*
G01X7187980D02*
X7178330Y7297020D01*
X7170280Y7307600D01*
X7167070Y7320310D01*
X7170280Y7333010D01*
X7178330Y7343590D01*
X7192810Y7349940D01*
X7207280Y7347820D01*
X7221760Y7339360D01*
G01X7006990Y7175410D02*
X7764470D01*
G01X6492480Y8997650D02*
X6481760D01*
Y8238380D01*
X6483550Y8236590D01*
X6499630D01*
G01X7006990D02*
X7762680D01*
X7764470Y8238380D01*
G01X7617020Y9038930D02*
Y9165930D01*
X7584850D01*
X7571980Y9159580D01*
X7562330Y9151110D01*
X7554280Y9138420D01*
X7547850Y9123590D01*
X7546240Y9102430D01*
X7547850Y9081260D01*
X7554280Y9066440D01*
X7562330Y9053740D01*
X7571980Y9045280D01*
X7584850Y9038930D01*
X7617020D01*
G01X7487480D02*
Y9165930D01*
X7455310D01*
X7442440Y9159580D01*
X7432790Y9151110D01*
X7424740Y9138420D01*
X7418310Y9123590D01*
X7416700Y9102430D01*
X7418310Y9081260D01*
X7424740Y9066440D01*
X7432790Y9053740D01*
X7442440Y9045280D01*
X7455310Y9038930D01*
X7487480D01*
G01X7353120Y9144760D02*
X7343460Y9157460D01*
X7332200Y9163810D01*
X7319330Y9165930D01*
X7303250Y9161700D01*
X7291980Y9151110D01*
X7288770Y9138420D01*
X7290380Y9125710D01*
X7296810Y9115130D01*
X7328980Y9093960D01*
X7343460Y9079150D01*
X7353120Y9057980D01*
X7356330Y9038930D01*
X7288770D01*
G01X7223580Y9144760D02*
X7213920Y9157460D01*
X7202660Y9163810D01*
X7189790Y9165930D01*
X7173710Y9161700D01*
X7162440Y9151110D01*
X7159230Y9138420D01*
X7160840Y9125710D01*
X7167270Y9115130D01*
X7199440Y9093960D01*
X7213920Y9079150D01*
X7223580Y9057980D01*
X7226790Y9038930D01*
X7159230D01*
G01X7008780Y8995860D02*
X7766270D01*
G01X6594430Y8841200D02*
G03I-35590J0D01*
G01X6749010Y9576560D02*
X6758660Y9582910D01*
X6769920Y9587140D01*
X6782790D01*
X6797270Y9580790D01*
X6808530Y9570210D01*
X6816570Y9557510D01*
X6823010Y9536340D01*
X6824620Y9517290D01*
X6821400Y9498240D01*
X6816570Y9485540D01*
X6806920Y9472840D01*
X6795660Y9464370D01*
X6784400Y9460140D01*
X6773140D01*
X6761880Y9464370D01*
X6752230Y9470720D01*
X6744180Y9479190D01*
G01X6690250Y9485540D02*
X6680600Y9470720D01*
X6667730Y9462260D01*
X6653250Y9460140D01*
X6640380Y9462260D01*
X6627510Y9472840D01*
X6619470Y9485540D01*
X6617860Y9498240D01*
X6621080Y9513050D01*
X6632340Y9523640D01*
X6643600Y9527870D01*
X6658080D01*
G01X6643600D02*
X6633950Y9534220D01*
X6625900Y9544800D01*
X6622690Y9557510D01*
X6625900Y9570210D01*
X6633950Y9580790D01*
X6648430Y9587140D01*
X6662900Y9585020D01*
X6677380Y9576560D01*
G01X6555890Y9513050D02*
X6544620Y9527870D01*
X6534970Y9536340D01*
X6522100Y9540570D01*
X6510840Y9536340D01*
X6502800Y9527870D01*
X6496360Y9515170D01*
X6494750Y9500360D01*
X6496360Y9487650D01*
X6502800Y9474950D01*
X6512450Y9464370D01*
X6523710Y9460140D01*
X6536580Y9464370D01*
X6547840Y9477070D01*
X6554280Y9496120D01*
X6555890Y9517290D01*
X6552670Y9544800D01*
X6547840Y9559630D01*
X6539800Y9574440D01*
X6528540Y9585020D01*
X6517280Y9587140D01*
X6506020Y9582910D01*
X6497970Y9572320D01*
G01X7638250Y9457370D02*
Y9584370D01*
X7606080D01*
X7593210Y9578020D01*
X7583560Y9569550D01*
X7575510Y9556860D01*
X7569080Y9542030D01*
X7567470Y9520870D01*
X7569080Y9499700D01*
X7575510Y9484880D01*
X7583560Y9472180D01*
X7593210Y9463720D01*
X7606080Y9457370D01*
X7638250D01*
G01X7508710D02*
Y9584370D01*
X7476540D01*
X7463670Y9578020D01*
X7454020Y9569550D01*
X7445970Y9556860D01*
X7439540Y9542030D01*
X7437930Y9520870D01*
X7439540Y9499700D01*
X7445970Y9484880D01*
X7454020Y9472180D01*
X7463670Y9463720D01*
X7476540Y9457370D01*
X7508710D01*
G01X7343780D02*
Y9584370D01*
X7363080Y9558970D01*
G01Y9457370D02*
X7324480D01*
G01X7214240Y9584370D02*
X7227110Y9580140D01*
X7236760Y9569550D01*
X7243200Y9556860D01*
X7248020Y9539920D01*
X7249630Y9520870D01*
X7248020Y9501820D01*
X7243200Y9484880D01*
X7236760Y9472180D01*
X7227110Y9461600D01*
X7214240Y9457370D01*
X7201370Y9461600D01*
X7191720Y9472180D01*
X7185280Y9484880D01*
X7180460Y9501820D01*
X7178850Y9520870D01*
X7180460Y9539920D01*
X7185280Y9556860D01*
X7191720Y9569550D01*
X7201370Y9580140D01*
X7214240Y9584370D01*
G01X6477310Y10151750D02*
Y9944520D01*
X6477300Y9944510D01*
X6481770Y9940040D01*
X6808700D01*
Y10150850D01*
X6806910Y10152640D01*
X6476410D01*
G01X7183860Y9662230D02*
Y9642580D01*
X7185650Y9640790D01*
X7592970D01*
Y9658660D01*
G01X6797780Y10923830D02*
X6807430Y10930180D01*
X6818690Y10934410D01*
X6831560D01*
X6846040Y10928060D01*
X6857300Y10917480D01*
X6865340Y10904780D01*
X6871780Y10883610D01*
X6873390Y10864560D01*
X6870170Y10845510D01*
X6865340Y10832810D01*
X6855690Y10820110D01*
X6844430Y10811640D01*
X6833170Y10807410D01*
X6821910D01*
X6810650Y10811640D01*
X6801000Y10817990D01*
X6792950Y10826460D01*
G01X6734200Y10913240D02*
X6724540Y10925940D01*
X6713280Y10932290D01*
X6700410Y10934410D01*
X6684330Y10930180D01*
X6673060Y10919590D01*
X6669850Y10906900D01*
X6671460Y10894190D01*
X6677890Y10883610D01*
X6710060Y10862440D01*
X6724540Y10847630D01*
X6734200Y10826460D01*
X6737410Y10807410D01*
X6669850D01*
G01X6604660Y10860320D02*
X6593390Y10875140D01*
X6583740Y10883610D01*
X6570870Y10887840D01*
X6559610Y10883610D01*
X6551570Y10875140D01*
X6545130Y10862440D01*
X6543520Y10847630D01*
X6545130Y10834920D01*
X6551570Y10822220D01*
X6561220Y10811640D01*
X6572480Y10807410D01*
X6585350Y10811640D01*
X6596610Y10824340D01*
X6603050Y10843390D01*
X6604660Y10864560D01*
X6601440Y10892070D01*
X6596610Y10906900D01*
X6588570Y10921710D01*
X6577310Y10932290D01*
X6566050Y10934410D01*
X6554790Y10930180D01*
X6546740Y10919590D01*
G01X6900980Y10396390D02*
X6897040Y10402230D01*
X6894420Y10409050D01*
Y10416840D01*
X6898360Y10425600D01*
X6904920Y10432410D01*
X6912790Y10437280D01*
X6925920Y10441180D01*
X6937730Y10442150D01*
X6949540Y10440200D01*
X6957410Y10437280D01*
X6965290Y10431440D01*
X6970540Y10424630D01*
X6973160Y10417810D01*
Y10410990D01*
X6970540Y10404180D01*
X6966600Y10398340D01*
X6961350Y10393470D01*
G01X6973160Y10339070D02*
X6894420D01*
X6910170Y10350750D01*
G01X6973160D02*
Y10327390D01*
G01X6940350Y10278830D02*
X6931160Y10272010D01*
X6925920Y10266170D01*
X6923290Y10258380D01*
X6925920Y10251570D01*
X6931160Y10246700D01*
X6939040Y10242800D01*
X6948230Y10241830D01*
X6956100Y10242800D01*
X6963980Y10246700D01*
X6970540Y10252540D01*
X6973160Y10259360D01*
X6970540Y10267150D01*
X6962660Y10273960D01*
X6950850Y10277860D01*
X6937730Y10278830D01*
X6920670Y10276880D01*
X6911480Y10273960D01*
X6902290Y10269090D01*
X6895730Y10262280D01*
X6894420Y10255460D01*
X6897040Y10248650D01*
X6903610Y10243780D01*
G01X6983380Y10744560D02*
X6904640D01*
Y10720220D01*
X6908580Y10712430D01*
X6913830Y10707560D01*
X6924330Y10705620D01*
X6934820Y10707560D01*
X6941380Y10713410D01*
X6945320Y10720220D01*
Y10744560D01*
G01Y10720220D02*
X6983380Y10705620D01*
G01X6917760Y10664850D02*
X6909890Y10659010D01*
X6905950Y10652190D01*
X6904640Y10644400D01*
X6907260Y10634670D01*
X6913830Y10627850D01*
X6921700Y10625900D01*
X6929580Y10626880D01*
X6936140Y10630770D01*
X6949260Y10650240D01*
X6958450Y10659010D01*
X6971570Y10664850D01*
X6983380Y10666800D01*
Y10625900D01*
G01Y10569560D02*
X6966320Y10567610D01*
X6951890Y10564690D01*
X6938760Y10560790D01*
X6924330Y10555930D01*
X6904640Y10548140D01*
Y10587080D01*
G01X7185640Y10178530D02*
Y10191030D01*
X7187430Y10192820D01*
X7591190D01*
X7592970Y10191040D01*
Y10176750D01*
X7591180Y10174960D01*
G01X6864280Y11256530D02*
Y11383530D01*
X6824070D01*
X6811200Y11377180D01*
X6803150Y11368710D01*
X6799940Y11351780D01*
X6803150Y11334850D01*
X6812810Y11324260D01*
X6824070Y11317910D01*
X6864280D01*
G01X6824070D02*
X6799940Y11256530D01*
G01X6733140Y11362360D02*
X6723480Y11375060D01*
X6712220Y11381410D01*
X6699350Y11383530D01*
X6683270Y11379300D01*
X6672000Y11368710D01*
X6668790Y11356020D01*
X6670400Y11343310D01*
X6676830Y11332730D01*
X6709000Y11311560D01*
X6723480Y11296750D01*
X6733140Y11275580D01*
X6736350Y11256530D01*
X6668790D01*
G01X6573030D02*
X6561770Y11258650D01*
X6548900Y11264990D01*
X6540860Y11275580D01*
X6537640Y11290400D01*
X6540860Y11305210D01*
X6550510Y11317910D01*
X6564990Y11324260D01*
X6581070D01*
X6590730Y11328500D01*
X6598770Y11339080D01*
X6601990Y11353900D01*
X6597160Y11368710D01*
X6585900Y11379300D01*
X6573030Y11383530D01*
X6560160Y11379300D01*
X6548900Y11368710D01*
X6544070Y11353900D01*
X6547290Y11339080D01*
X6555330Y11328500D01*
X6564990Y11324260D01*
X6581070D01*
X6595550Y11317910D01*
X6605200Y11305210D01*
X6608420Y11290400D01*
X6605200Y11275580D01*
X6597160Y11264990D01*
X6584290Y11258650D01*
X6573030Y11256530D01*
G01X7185650Y10918160D02*
Y10900290D01*
X7189220Y10896720D01*
X7598340D01*
Y10914580D01*
G01X6943180Y10940650D02*
Y11019390D01*
X6954860Y11003640D01*
G01Y10940650D02*
X6931500D01*
G01X7941190Y2034590D02*
Y1705890D01*
X7937600Y1702300D01*
X7735730D01*
Y2036380D01*
X7737520Y2038170D01*
X7940280D01*
G01X7900350Y1398940D02*
Y1477680D01*
X7912030Y1461930D01*
G01Y1398940D02*
X7888670D01*
G01X7713080Y2064510D02*
Y2143250D01*
X7688740D01*
X7680950Y2139310D01*
X7676080Y2134060D01*
X7674140Y2123560D01*
X7676080Y2113070D01*
X7681930Y2106510D01*
X7688740Y2102570D01*
X7713080D01*
G01X7688740D02*
X7674140Y2064510D01*
G01X7614870D02*
Y2143250D01*
X7626550Y2127500D01*
G01Y2064510D02*
X7603190D01*
G01X7554630Y2097320D02*
X7547810Y2106510D01*
X7541970Y2111750D01*
X7534180Y2114380D01*
X7527370Y2111750D01*
X7522500Y2106510D01*
X7518600Y2098630D01*
X7517630Y2089440D01*
X7518600Y2081570D01*
X7522500Y2073690D01*
X7528340Y2067130D01*
X7535160Y2064510D01*
X7542950Y2067130D01*
X7549760Y2075010D01*
X7553660Y2086820D01*
X7554630Y2099940D01*
X7552680Y2117000D01*
X7549760Y2126190D01*
X7544890Y2135380D01*
X7538080Y2141940D01*
X7531260Y2143250D01*
X7524450Y2140630D01*
X7519580Y2134060D01*
G01X7953620Y2064640D02*
Y2143380D01*
X7929280D01*
X7921490Y2139440D01*
X7916620Y2134190D01*
X7914680Y2123690D01*
X7916620Y2113200D01*
X7922470Y2106640D01*
X7929280Y2102700D01*
X7953620D01*
G01X7929280D02*
X7914680Y2064640D01*
G01X7855410D02*
Y2143380D01*
X7867090Y2127630D01*
G01Y2064640D02*
X7843730D01*
G01X7798090Y2080390D02*
X7792250Y2071200D01*
X7784460Y2065950D01*
X7775700Y2064640D01*
X7767910Y2065950D01*
X7760120Y2072510D01*
X7755250Y2080390D01*
X7754280Y2088260D01*
X7756220Y2097450D01*
X7763040Y2104010D01*
X7769850Y2106640D01*
X7778620D01*
G01X7769850D02*
X7764010Y2110570D01*
X7759140Y2117130D01*
X7757200Y2125010D01*
X7759140Y2132880D01*
X7764010Y2139440D01*
X7772780Y2143380D01*
X7781540Y2142070D01*
X7790300Y2136820D01*
G01X7821090Y2364970D02*
Y2443710D01*
X7796750D01*
X7788960Y2439770D01*
X7784090Y2434520D01*
X7782150Y2424020D01*
X7784090Y2413530D01*
X7789940Y2406970D01*
X7796750Y2403030D01*
X7821090D01*
G01X7796750D02*
X7782150Y2364970D01*
G01X7744300Y2380720D02*
X7738460Y2371530D01*
X7730670Y2366280D01*
X7721910Y2364970D01*
X7714120Y2366280D01*
X7706330Y2372840D01*
X7701460Y2380720D01*
X7700490Y2388590D01*
X7702430Y2397780D01*
X7709250Y2404340D01*
X7716060Y2406970D01*
X7724830D01*
G01X7716060D02*
X7710220Y2410900D01*
X7705350Y2417460D01*
X7703410Y2425340D01*
X7705350Y2433210D01*
X7710220Y2439770D01*
X7718990Y2443710D01*
X7727750Y2442400D01*
X7736510Y2437150D01*
G01X7665560Y2380720D02*
X7659720Y2371530D01*
X7651930Y2366280D01*
X7643170Y2364970D01*
X7635380Y2366280D01*
X7627590Y2372840D01*
X7622720Y2380720D01*
X7621750Y2388590D01*
X7623690Y2397780D01*
X7630510Y2404340D01*
X7637320Y2406970D01*
X7646090D01*
G01X7637320D02*
X7631480Y2410900D01*
X7626610Y2417460D01*
X7624670Y2425340D01*
X7626610Y2433210D01*
X7631480Y2439770D01*
X7640250Y2443710D01*
X7649010Y2442400D01*
X7657770Y2437150D01*
G01X7439330Y2659090D02*
X7460770D01*
Y2248190D01*
X7441120D01*
G01X7979510Y3078590D02*
Y3205590D01*
X7939300D01*
X7926430Y3199240D01*
X7918380Y3190770D01*
X7915170Y3173840D01*
X7918380Y3156910D01*
X7928040Y3146320D01*
X7939300Y3139970D01*
X7979510D01*
G01X7939300D02*
X7915170Y3078590D01*
G01X7848370Y3184420D02*
X7838710Y3197120D01*
X7827450Y3203470D01*
X7814580Y3205590D01*
X7798500Y3201360D01*
X7787230Y3190770D01*
X7784020Y3178080D01*
X7785630Y3165370D01*
X7792060Y3154790D01*
X7824230Y3133620D01*
X7838710Y3118810D01*
X7848370Y3097640D01*
X7851580Y3078590D01*
X7784020D01*
G01X7715610Y3093400D02*
X7704350Y3082820D01*
X7691480Y3078590D01*
X7678610Y3082820D01*
X7667350Y3095520D01*
X7659300Y3114570D01*
X7656090Y3133620D01*
Y3156910D01*
X7659300Y3175960D01*
X7667350Y3192890D01*
X7677000Y3201360D01*
X7688260Y3205590D01*
X7701130Y3201360D01*
X7710780Y3192890D01*
X7717220Y3180190D01*
X7720430Y3163250D01*
X7717220Y3148440D01*
X7709170Y3133620D01*
X7699520Y3125150D01*
X7688260Y3123040D01*
X7675390Y3127270D01*
X7665740Y3137860D01*
X7656090Y3156910D01*
G01X7500970Y3401380D02*
Y3013710D01*
G01X7442740Y3172880D02*
G03I-14190J0D01*
G01X7557330Y2928400D02*
Y3007140D01*
X7569010Y2991390D01*
G01Y2928400D02*
X7545650D01*
G01X7958590Y2741250D02*
Y2819990D01*
X7970270Y2804240D01*
G01Y2741250D02*
X7946910D01*
G01X8031070Y3790740D02*
Y3869480D01*
X8006730D01*
X7998940Y3865540D01*
X7994070Y3860290D01*
X7992130Y3849790D01*
X7994070Y3839300D01*
X7999920Y3832740D01*
X8006730Y3828800D01*
X8031070D01*
G01X8006730D02*
X7992130Y3790740D01*
G01X7932860D02*
Y3869480D01*
X7944540Y3853730D01*
G01Y3790740D02*
X7921180D01*
G01X7854120Y3869480D02*
X7861910Y3866860D01*
X7867750Y3860290D01*
X7871650Y3852420D01*
X7874570Y3841920D01*
X7875540Y3830110D01*
X7874570Y3818300D01*
X7871650Y3807800D01*
X7867750Y3799920D01*
X7861910Y3793360D01*
X7854120Y3790740D01*
X7846330Y3793360D01*
X7840490Y3799920D01*
X7836590Y3807800D01*
X7833670Y3818300D01*
X7832700Y3830110D01*
X7833670Y3841920D01*
X7836590Y3852420D01*
X7840490Y3860290D01*
X7846330Y3866860D01*
X7854120Y3869480D01*
G01X7775380Y3790740D02*
X7768560Y3792050D01*
X7760780Y3795990D01*
X7755910Y3802550D01*
X7753960Y3811740D01*
X7755910Y3820920D01*
X7761750Y3828800D01*
X7770510Y3832740D01*
X7780250D01*
X7786090Y3835360D01*
X7790960Y3841920D01*
X7792910Y3851110D01*
X7789980Y3860290D01*
X7783170Y3866860D01*
X7775380Y3869480D01*
X7767590Y3866860D01*
X7760780Y3860290D01*
X7757850Y3851110D01*
X7759800Y3841920D01*
X7764670Y3835360D01*
X7770510Y3832740D01*
X7780250D01*
X7789010Y3828800D01*
X7794850Y3820920D01*
X7796800Y3811740D01*
X7794850Y3802550D01*
X7789980Y3795990D01*
X7782200Y3792050D01*
X7775380Y3790740D01*
G01X7863360Y3343030D02*
Y3470030D01*
X7831190D01*
X7818320Y3463680D01*
X7808670Y3455210D01*
X7800620Y3442520D01*
X7794190Y3427690D01*
X7792580Y3406530D01*
X7794190Y3385360D01*
X7800620Y3370540D01*
X7808670Y3357840D01*
X7818320Y3349380D01*
X7831190Y3343030D01*
X7863360D01*
G01X7738650D02*
X7698430Y3470030D01*
X7658210Y3343030D01*
G01X7672690Y3387480D02*
X7724170D01*
G01X7572110Y3343030D02*
X7568890Y3370540D01*
X7564060Y3393830D01*
X7557630Y3415000D01*
X7549590Y3438280D01*
X7536720Y3470030D01*
X7601060D01*
G01X7186540Y4543870D02*
Y4562630D01*
X7596550D01*
Y4543870D01*
G01X7189210Y4031130D02*
Y4016840D01*
X7191000Y4015050D01*
X7598330D01*
Y4032920D01*
G01X7557030Y4479540D02*
G03I-35590J0D01*
G01X7691100Y4570180D02*
Y4648920D01*
X7702780Y4633170D01*
G01Y4570180D02*
X7679420D01*
G01X7831840Y5033170D02*
Y5160170D01*
X7791630D01*
X7778760Y5153820D01*
X7770710Y5145350D01*
X7767500Y5128420D01*
X7770710Y5111490D01*
X7780370Y5100900D01*
X7791630Y5094550D01*
X7831840D01*
G01X7791630D02*
X7767500Y5033170D01*
G01X7650830D02*
Y5160170D01*
X7710350Y5069150D01*
X7629910D01*
G01X7575980Y5058570D02*
X7566330Y5043750D01*
X7553460Y5035290D01*
X7538980Y5033170D01*
X7526110Y5035290D01*
X7513240Y5045870D01*
X7505200Y5058570D01*
X7503590Y5071270D01*
X7506810Y5086080D01*
X7518070Y5096670D01*
X7529330Y5100900D01*
X7543810D01*
G01X7529330D02*
X7519680Y5107250D01*
X7511630Y5117830D01*
X7508420Y5130540D01*
X7511630Y5143240D01*
X7519680Y5153820D01*
X7534160Y5160170D01*
X7548630Y5158050D01*
X7563110Y5149590D01*
G01X7835230Y7598180D02*
X7844880Y7604530D01*
X7856140Y7608760D01*
X7869010D01*
X7883490Y7602410D01*
X7894750Y7591830D01*
X7902790Y7579130D01*
X7909230Y7557960D01*
X7910840Y7538910D01*
X7907620Y7519860D01*
X7902790Y7507160D01*
X7893140Y7494460D01*
X7881880Y7485990D01*
X7870620Y7481760D01*
X7859360D01*
X7848100Y7485990D01*
X7838450Y7492340D01*
X7830400Y7500810D01*
G01X7776470Y7507160D02*
X7766820Y7492340D01*
X7753950Y7483880D01*
X7739470Y7481760D01*
X7726600Y7483880D01*
X7713730Y7494460D01*
X7705690Y7507160D01*
X7704080Y7519860D01*
X7707300Y7534670D01*
X7718560Y7545260D01*
X7729820Y7549490D01*
X7744300D01*
G01X7729820D02*
X7720170Y7555840D01*
X7712120Y7566420D01*
X7708910Y7579130D01*
X7712120Y7591830D01*
X7720170Y7602410D01*
X7734650Y7608760D01*
X7749120Y7606640D01*
X7763600Y7598180D01*
G01X7638890Y7496570D02*
X7627630Y7485990D01*
X7614760Y7481760D01*
X7601890Y7485990D01*
X7590630Y7498690D01*
X7582580Y7517740D01*
X7579370Y7536790D01*
Y7560080D01*
X7582580Y7579130D01*
X7590630Y7596060D01*
X7600280Y7604530D01*
X7611540Y7608760D01*
X7624410Y7604530D01*
X7634060Y7596060D01*
X7640500Y7583360D01*
X7643710Y7566420D01*
X7640500Y7551610D01*
X7632450Y7536790D01*
X7622800Y7528320D01*
X7611540Y7526210D01*
X7598670Y7530440D01*
X7589020Y7541030D01*
X7579370Y7560080D01*
G01X7899840Y7799570D02*
Y7926570D01*
X7859630D01*
X7846760Y7920220D01*
X7838710Y7911750D01*
X7835500Y7894820D01*
X7838710Y7877890D01*
X7848370Y7867300D01*
X7859630Y7860950D01*
X7899840D01*
G01X7859630D02*
X7835500Y7799570D01*
G01X7773520Y7818620D02*
X7763870Y7808030D01*
X7752610Y7801690D01*
X7738130Y7799570D01*
X7723650Y7803800D01*
X7712390Y7812270D01*
X7704350Y7827080D01*
X7702740Y7844020D01*
X7705960Y7860950D01*
X7714000Y7871540D01*
X7725260Y7880000D01*
X7736520Y7882120D01*
X7747780Y7880000D01*
X7762260Y7871540D01*
X7757430Y7926570D01*
X7714000D01*
G01X7611810Y7799570D02*
X7608590Y7827080D01*
X7603760Y7850370D01*
X7597330Y7871540D01*
X7589290Y7894820D01*
X7576420Y7926570D01*
X7640760D01*
G01X8203360Y9435520D02*
Y9562520D01*
X8163150D01*
X8150280Y9556170D01*
X8142230Y9547700D01*
X8139020Y9530770D01*
X8142230Y9513840D01*
X8151890Y9503250D01*
X8163150Y9496900D01*
X8203360D01*
G01X8163150D02*
X8139020Y9435520D01*
G01X8022350D02*
Y9562520D01*
X8081870Y9471500D01*
X8001430D01*
G01X7912110Y9562520D02*
X7924980Y9558290D01*
X7934630Y9547700D01*
X7941070Y9535010D01*
X7945890Y9518070D01*
X7947500Y9499020D01*
X7945890Y9479970D01*
X7941070Y9463030D01*
X7934630Y9450330D01*
X7924980Y9439750D01*
X7912110Y9435520D01*
X7899240Y9439750D01*
X7889590Y9450330D01*
X7883150Y9463030D01*
X7878330Y9479970D01*
X7876720Y9499020D01*
X7878330Y9518070D01*
X7883150Y9535010D01*
X7889590Y9547700D01*
X7899240Y9558290D01*
X7912110Y9562520D01*
G01X8204410Y10125530D02*
Y10252530D01*
X8164200D01*
X8151330Y10246180D01*
X8143280Y10237710D01*
X8140070Y10220780D01*
X8143280Y10203850D01*
X8152940Y10193260D01*
X8164200Y10186910D01*
X8204410D01*
G01X8164200D02*
X8140070Y10125530D01*
G01X8078090Y10150930D02*
X8068440Y10136110D01*
X8055570Y10127650D01*
X8041090Y10125530D01*
X8028220Y10127650D01*
X8015350Y10138230D01*
X8007310Y10150930D01*
X8005700Y10163630D01*
X8008920Y10178440D01*
X8020180Y10189030D01*
X8031440Y10193260D01*
X8045920D01*
G01X8031440D02*
X8021790Y10199610D01*
X8013740Y10210190D01*
X8010530Y10222900D01*
X8013740Y10235600D01*
X8021790Y10246180D01*
X8036270Y10252530D01*
X8050740Y10250410D01*
X8065220Y10241950D01*
G01X7940510Y10140340D02*
X7929250Y10129760D01*
X7916380Y10125530D01*
X7903510Y10129760D01*
X7892250Y10142460D01*
X7884200Y10161510D01*
X7880990Y10180560D01*
Y10203850D01*
X7884200Y10222900D01*
X7892250Y10239830D01*
X7901900Y10248300D01*
X7913160Y10252530D01*
X7926030Y10248300D01*
X7935680Y10239830D01*
X7942120Y10227130D01*
X7945330Y10210190D01*
X7942120Y10195380D01*
X7934070Y10180560D01*
X7924420Y10172090D01*
X7913160Y10169980D01*
X7900290Y10174210D01*
X7890640Y10184800D01*
X7880990Y10203850D01*
G01X7888650Y9830170D02*
Y9622940D01*
X7888640Y9622930D01*
X7893110Y9618460D01*
X8220040D01*
Y9829270D01*
X8218250Y9831060D01*
X7887750D01*
G01X7555110Y10108150D02*
G03I-35590J0D01*
G01X7817800Y10074820D02*
Y10153560D01*
X7829480Y10137810D01*
G01Y10074820D02*
X7806120D01*
G01X8003290Y10600680D02*
X8009130Y10604620D01*
X8015950Y10607240D01*
X8023740D01*
X8032500Y10603300D01*
X8039310Y10596740D01*
X8044180Y10588870D01*
X8048080Y10575740D01*
X8049050Y10563930D01*
X8047100Y10552120D01*
X8044180Y10544250D01*
X8038340Y10536370D01*
X8031530Y10531120D01*
X8024710Y10528500D01*
X8017890D01*
X8011080Y10531120D01*
X8005240Y10535060D01*
X8000370Y10540310D01*
G01X7945970Y10528500D02*
Y10607240D01*
X7957650Y10591490D01*
G01Y10528500D02*
X7934290D01*
G01X7883780Y10537680D02*
X7876970Y10531120D01*
X7869180Y10528500D01*
X7861390Y10531120D01*
X7854570Y10539000D01*
X7849700Y10550810D01*
X7847760Y10562620D01*
Y10577060D01*
X7849700Y10588870D01*
X7854570Y10599370D01*
X7860410Y10604620D01*
X7867230Y10607240D01*
X7875020Y10604620D01*
X7880860Y10599370D01*
X7884760Y10591490D01*
X7886700Y10580990D01*
X7884760Y10571810D01*
X7879890Y10562620D01*
X7874050Y10557370D01*
X7867230Y10556060D01*
X7859440Y10558680D01*
X7853600Y10565240D01*
X7847760Y10577060D01*
G01X8001620Y10349090D02*
Y10427830D01*
X7977280D01*
X7969490Y10423890D01*
X7964620Y10418640D01*
X7962680Y10408140D01*
X7964620Y10397650D01*
X7970470Y10391090D01*
X7977280Y10387150D01*
X8001620D01*
G01X7977280D02*
X7962680Y10349090D01*
G01X7924830Y10364840D02*
X7918990Y10355650D01*
X7911200Y10350400D01*
X7902440Y10349090D01*
X7894650Y10350400D01*
X7886860Y10356960D01*
X7881990Y10364840D01*
X7881020Y10372710D01*
X7882960Y10381900D01*
X7889780Y10388460D01*
X7896590Y10391090D01*
X7905360D01*
G01X7896590D02*
X7890750Y10395020D01*
X7885880Y10401580D01*
X7883940Y10409460D01*
X7885880Y10417330D01*
X7890750Y10423890D01*
X7899520Y10427830D01*
X7908280Y10426520D01*
X7917040Y10421270D01*
G01X7824670Y10349090D02*
X7817850Y10350400D01*
X7810070Y10354340D01*
X7805200Y10360900D01*
X7803250Y10370090D01*
X7805200Y10379270D01*
X7811040Y10387150D01*
X7819800Y10391090D01*
X7829540D01*
X7835380Y10393710D01*
X7840250Y10400270D01*
X7842200Y10409460D01*
X7839270Y10418640D01*
X7832460Y10425210D01*
X7824670Y10427830D01*
X7816880Y10425210D01*
X7810070Y10418640D01*
X7807140Y10409460D01*
X7809090Y10400270D01*
X7813960Y10393710D01*
X7819800Y10391090D01*
X7829540D01*
X7838300Y10387150D01*
X7844140Y10379270D01*
X7846090Y10370090D01*
X7844140Y10360900D01*
X7839270Y10354340D01*
X7831490Y10350400D01*
X7824670Y10349090D01*
G01X7527710Y10518160D02*
Y10596900D01*
X7503370D01*
X7495580Y10592960D01*
X7490710Y10587710D01*
X7488770Y10577210D01*
X7490710Y10566720D01*
X7496560Y10560160D01*
X7503370Y10556220D01*
X7527710D01*
G01X7503370D02*
X7488770Y10518160D01*
G01X7450920Y10533910D02*
X7445080Y10524720D01*
X7437290Y10519470D01*
X7428530Y10518160D01*
X7420740Y10519470D01*
X7412950Y10526030D01*
X7408080Y10533910D01*
X7407110Y10541780D01*
X7409050Y10550970D01*
X7415870Y10557530D01*
X7422680Y10560160D01*
X7431450D01*
G01X7422680D02*
X7416840Y10564090D01*
X7411970Y10570650D01*
X7410030Y10578530D01*
X7411970Y10586400D01*
X7416840Y10592960D01*
X7425610Y10596900D01*
X7434370Y10595590D01*
X7443130Y10590340D01*
G01X7352710Y10518160D02*
X7350760Y10535220D01*
X7347840Y10549650D01*
X7343940Y10562780D01*
X7339080Y10577210D01*
X7331290Y10596900D01*
X7370230D01*
G01X8163580Y11255680D02*
Y11382680D01*
X8123370D01*
X8110500Y11376330D01*
X8102450Y11367860D01*
X8099240Y11350930D01*
X8102450Y11334000D01*
X8112110Y11323410D01*
X8123370Y11317060D01*
X8163580D01*
G01X8123370D02*
X8099240Y11255680D01*
G01X8037260Y11281080D02*
X8027610Y11266260D01*
X8014740Y11257800D01*
X8000260Y11255680D01*
X7987390Y11257800D01*
X7974520Y11268380D01*
X7966480Y11281080D01*
X7964870Y11293780D01*
X7968090Y11308590D01*
X7979350Y11319180D01*
X7990610Y11323410D01*
X8005090D01*
G01X7990610D02*
X7980960Y11329760D01*
X7972910Y11340340D01*
X7969700Y11353050D01*
X7972910Y11365750D01*
X7980960Y11376330D01*
X7995440Y11382680D01*
X8009910Y11380560D01*
X8024390Y11372100D01*
G01X7902900Y11308590D02*
X7891630Y11323410D01*
X7881980Y11331880D01*
X7869110Y11336110D01*
X7857850Y11331880D01*
X7849810Y11323410D01*
X7843370Y11310710D01*
X7841760Y11295900D01*
X7843370Y11283190D01*
X7849810Y11270490D01*
X7859460Y11259910D01*
X7870720Y11255680D01*
X7883590Y11259910D01*
X7894850Y11272610D01*
X7901290Y11291660D01*
X7902900Y11312830D01*
X7899680Y11340340D01*
X7894850Y11355170D01*
X7886810Y11369980D01*
X7875550Y11380560D01*
X7864290Y11382680D01*
X7853030Y11378450D01*
X7844980Y11367860D01*
G01X7544810Y11522010D02*
Y11649010D01*
X7512640D01*
X7499770Y11642660D01*
X7490120Y11634190D01*
X7482070Y11621500D01*
X7475640Y11606670D01*
X7474030Y11585510D01*
X7475640Y11564340D01*
X7482070Y11549520D01*
X7490120Y11536820D01*
X7499770Y11528360D01*
X7512640Y11522010D01*
X7544810D01*
G01X7415270D02*
Y11649010D01*
X7383100D01*
X7370230Y11642660D01*
X7360580Y11634190D01*
X7352530Y11621500D01*
X7346100Y11606670D01*
X7344490Y11585510D01*
X7346100Y11564340D01*
X7352530Y11549520D01*
X7360580Y11536820D01*
X7370230Y11528360D01*
X7383100Y11522010D01*
X7415270D01*
G01X7277690Y11536820D02*
X7266430Y11526240D01*
X7253560Y11522010D01*
X7240690Y11526240D01*
X7229430Y11538940D01*
X7221380Y11557990D01*
X7218170Y11577040D01*
Y11600330D01*
X7221380Y11619380D01*
X7229430Y11636310D01*
X7239080Y11644780D01*
X7250340Y11649010D01*
X7263210Y11644780D01*
X7272860Y11636310D01*
X7279300Y11623610D01*
X7282510Y11606670D01*
X7279300Y11591860D01*
X7271250Y11577040D01*
X7261600Y11568570D01*
X7250340Y11566460D01*
X7237470Y11570690D01*
X7227820Y11581280D01*
X7218170Y11600330D01*
G01X7183860Y11438030D02*
Y11448750D01*
X7596560D01*
X7598340Y11446970D01*
Y11432670D01*
G01X7299940Y10979250D02*
G03I-35590J0D01*
G01X8566890Y1539320D02*
Y1618060D01*
X8547420D01*
X8539630Y1614120D01*
X8533790Y1608870D01*
X8528920Y1601000D01*
X8525020Y1591810D01*
X8524050Y1578690D01*
X8525020Y1565570D01*
X8528920Y1556380D01*
X8533790Y1548500D01*
X8539630Y1543260D01*
X8547420Y1539320D01*
X8566890D01*
G01X8488150D02*
Y1618060D01*
X8468680D01*
X8460890Y1614120D01*
X8455050Y1608870D01*
X8450180Y1601000D01*
X8446280Y1591810D01*
X8445310Y1578690D01*
X8446280Y1565570D01*
X8450180Y1556380D01*
X8455050Y1548500D01*
X8460890Y1543260D01*
X8468680Y1539320D01*
X8488150D01*
G01X8409410Y1555070D02*
X8403570Y1545880D01*
X8395780Y1540630D01*
X8387020Y1539320D01*
X8379230Y1540630D01*
X8371440Y1547190D01*
X8366570Y1555070D01*
X8365600Y1562940D01*
X8367540Y1572130D01*
X8374360Y1578690D01*
X8381170Y1581320D01*
X8389940D01*
G01X8381170D02*
X8375330Y1585250D01*
X8370460Y1591810D01*
X8368520Y1599690D01*
X8370460Y1607560D01*
X8375330Y1614120D01*
X8384100Y1618060D01*
X8392860Y1616750D01*
X8401620Y1611500D01*
G01X8186810Y1538490D02*
Y1617230D01*
X8167340D01*
X8159550Y1613290D01*
X8153710Y1608040D01*
X8148840Y1600170D01*
X8144940Y1590980D01*
X8143970Y1577860D01*
X8144940Y1564740D01*
X8148840Y1555550D01*
X8153710Y1547670D01*
X8159550Y1542430D01*
X8167340Y1538490D01*
X8186810D01*
G01X8108070D02*
Y1617230D01*
X8088600D01*
X8080810Y1613290D01*
X8074970Y1608040D01*
X8070100Y1600170D01*
X8066200Y1590980D01*
X8065230Y1577860D01*
X8066200Y1564740D01*
X8070100Y1555550D01*
X8074970Y1547670D01*
X8080810Y1542430D01*
X8088600Y1538490D01*
X8108070D01*
G01X7996230D02*
Y1617230D01*
X8032250Y1560800D01*
X7983570D01*
G01X8301580Y1405980D02*
Y1484720D01*
X8313260Y1468970D01*
G01Y1405980D02*
X8289900D01*
G01X8811260Y2355170D02*
X8817100Y2359110D01*
X8823920Y2361730D01*
X8831710D01*
X8840470Y2357790D01*
X8847280Y2351230D01*
X8852150Y2343360D01*
X8856050Y2330230D01*
X8857020Y2318420D01*
X8855070Y2306610D01*
X8852150Y2298740D01*
X8846310Y2290860D01*
X8839500Y2285610D01*
X8832680Y2282990D01*
X8825860D01*
X8819050Y2285610D01*
X8813210Y2289550D01*
X8808340Y2294800D01*
G01X8753940Y2282990D02*
Y2361730D01*
X8765620Y2345980D01*
G01Y2282990D02*
X8742260D01*
G01X8693700Y2348610D02*
X8687860Y2356480D01*
X8681040Y2360420D01*
X8673250Y2361730D01*
X8663520Y2359110D01*
X8656700Y2352540D01*
X8654750Y2344670D01*
X8655730Y2336790D01*
X8659620Y2330230D01*
X8679090Y2317110D01*
X8687860Y2307920D01*
X8693700Y2294800D01*
X8695650Y2282990D01*
X8654750D01*
G01X8430500Y1892650D02*
Y2019650D01*
X8398330D01*
X8385460Y2013300D01*
X8375810Y2004830D01*
X8367760Y1992140D01*
X8361330Y1977310D01*
X8359720Y1956150D01*
X8361330Y1934980D01*
X8367760Y1920160D01*
X8375810Y1907460D01*
X8385460Y1899000D01*
X8398330Y1892650D01*
X8430500D01*
G01X8300960D02*
Y2019650D01*
X8268790D01*
X8255920Y2013300D01*
X8246270Y2004830D01*
X8238220Y1992140D01*
X8231790Y1977310D01*
X8230180Y1956150D01*
X8231790Y1934980D01*
X8238220Y1920160D01*
X8246270Y1907460D01*
X8255920Y1899000D01*
X8268790Y1892650D01*
X8300960D01*
G01X8171420Y1911700D02*
X8161770Y1901110D01*
X8150510Y1894770D01*
X8136030Y1892650D01*
X8121550Y1896880D01*
X8110290Y1905350D01*
X8102250Y1920160D01*
X8100640Y1937100D01*
X8103860Y1954030D01*
X8111900Y1964620D01*
X8123160Y1973080D01*
X8134420Y1975200D01*
X8145680Y1973080D01*
X8160160Y1964620D01*
X8155330Y2019650D01*
X8111900D01*
G01X8017270Y2659090D02*
X7998510D01*
Y2249080D01*
X8017270D01*
G01X8530000Y2659990D02*
X8547860D01*
X8553220Y2654630D01*
Y2250870D01*
X8552330Y2249980D01*
X8530890D01*
G01X8845640Y2833860D02*
Y2912600D01*
X8821300D01*
X8813510Y2908660D01*
X8808640Y2903410D01*
X8806700Y2892910D01*
X8808640Y2882420D01*
X8814490Y2875860D01*
X8821300Y2871920D01*
X8845640D01*
G01X8821300D02*
X8806700Y2833860D01*
G01X8768850Y2849610D02*
X8763010Y2840420D01*
X8755220Y2835170D01*
X8746460Y2833860D01*
X8738670Y2835170D01*
X8730880Y2841730D01*
X8726010Y2849610D01*
X8725040Y2857480D01*
X8726980Y2866670D01*
X8733800Y2873230D01*
X8740610Y2875860D01*
X8749380D01*
G01X8740610D02*
X8734770Y2879790D01*
X8729900Y2886350D01*
X8727960Y2894230D01*
X8729900Y2902100D01*
X8734770Y2908660D01*
X8743540Y2912600D01*
X8752300Y2911290D01*
X8761060Y2906040D01*
G01X8668690Y2912600D02*
X8676480Y2909980D01*
X8682320Y2903410D01*
X8686220Y2895540D01*
X8689140Y2885040D01*
X8690110Y2873230D01*
X8689140Y2861420D01*
X8686220Y2850920D01*
X8682320Y2843040D01*
X8676480Y2836480D01*
X8668690Y2833860D01*
X8660900Y2836480D01*
X8655060Y2843040D01*
X8651160Y2850920D01*
X8648240Y2861420D01*
X8647270Y2873230D01*
X8648240Y2885040D01*
X8651160Y2895540D01*
X8655060Y2903410D01*
X8660900Y2909980D01*
X8668690Y2912600D01*
G01X8117530Y2583200D02*
G03I-35590J0D01*
G01X8682300Y3282180D02*
Y3360920D01*
X8657960D01*
X8650170Y3356980D01*
X8645300Y3351730D01*
X8643360Y3341230D01*
X8645300Y3330740D01*
X8651150Y3324180D01*
X8657960Y3320240D01*
X8682300D01*
G01X8657960D02*
X8643360Y3282180D01*
G01X8584090D02*
Y3360920D01*
X8595770Y3345170D01*
G01Y3282180D02*
X8572410D01*
G01X8505350Y3360920D02*
X8513140Y3358300D01*
X8518980Y3351730D01*
X8522880Y3343860D01*
X8525800Y3333360D01*
X8526770Y3321550D01*
X8525800Y3309740D01*
X8522880Y3299240D01*
X8518980Y3291360D01*
X8513140Y3284800D01*
X8505350Y3282180D01*
X8497560Y3284800D01*
X8491720Y3291360D01*
X8487820Y3299240D01*
X8484900Y3309740D01*
X8483930Y3321550D01*
X8484900Y3333360D01*
X8487820Y3343860D01*
X8491720Y3351730D01*
X8497560Y3358300D01*
X8505350Y3360920D01*
G01X8448030Y3293990D02*
X8442190Y3287430D01*
X8435370Y3283490D01*
X8426610Y3282180D01*
X8417850Y3284800D01*
X8411030Y3290050D01*
X8406160Y3299240D01*
X8405190Y3309740D01*
X8407140Y3320240D01*
X8412010Y3326800D01*
X8418820Y3332050D01*
X8425640Y3333360D01*
X8432450Y3332050D01*
X8441210Y3326800D01*
X8438290Y3360920D01*
X8412010D01*
G01X8333940Y3279260D02*
Y3358000D01*
X8309600D01*
X8301810Y3354060D01*
X8296940Y3348810D01*
X8295000Y3338310D01*
X8296940Y3327820D01*
X8302790Y3321260D01*
X8309600Y3317320D01*
X8333940D01*
G01X8309600D02*
X8295000Y3279260D01*
G01X8235730D02*
Y3358000D01*
X8247410Y3342250D01*
G01Y3279260D02*
X8224050D01*
G01X8156990Y3358000D02*
X8164780Y3355380D01*
X8170620Y3348810D01*
X8174520Y3340940D01*
X8177440Y3330440D01*
X8178410Y3318630D01*
X8177440Y3306820D01*
X8174520Y3296320D01*
X8170620Y3288440D01*
X8164780Y3281880D01*
X8156990Y3279260D01*
X8149200Y3281880D01*
X8143360Y3288440D01*
X8139460Y3296320D01*
X8136540Y3306820D01*
X8135570Y3318630D01*
X8136540Y3330440D01*
X8139460Y3340940D01*
X8143360Y3348810D01*
X8149200Y3355380D01*
X8156990Y3358000D01*
G01X8066570Y3279260D02*
Y3358000D01*
X8102590Y3301570D01*
X8053910D01*
G01X8612090Y4032290D02*
Y4159290D01*
X8571880D01*
X8559010Y4152940D01*
X8550960Y4144470D01*
X8547750Y4127540D01*
X8550960Y4110610D01*
X8560620Y4100020D01*
X8571880Y4093670D01*
X8612090D01*
G01X8571880D02*
X8547750Y4032290D01*
G01X8431080D02*
Y4159290D01*
X8490600Y4068270D01*
X8410160D01*
G01X8301540Y4032290D02*
Y4159290D01*
X8361060Y4068270D01*
X8280620D01*
G01X8016380Y4400940D02*
Y4389330D01*
X8019060Y4386650D01*
X8407630D01*
X8408520Y4387540D01*
Y4398260D01*
G01X8189240Y4460990D02*
G03I-14190J0D01*
G01X7974590Y4267200D02*
Y4345940D01*
X7986270Y4330190D01*
G01Y4267200D02*
X7962910D01*
G01X8365770Y4840030D02*
Y4967030D01*
X8333600D01*
X8320730Y4960680D01*
X8311080Y4952210D01*
X8303030Y4939520D01*
X8296600Y4924690D01*
X8294990Y4903530D01*
X8296600Y4882360D01*
X8303030Y4867540D01*
X8311080Y4854840D01*
X8320730Y4846380D01*
X8333600Y4840030D01*
X8365770D01*
G01X8241060D02*
X8200840Y4967030D01*
X8160620Y4840030D01*
G01X8175100Y4884480D02*
X8226580D01*
G01X8071300Y4840030D02*
X8060040Y4842150D01*
X8047170Y4848490D01*
X8039130Y4859080D01*
X8035910Y4873900D01*
X8039130Y4888710D01*
X8048780Y4901410D01*
X8063260Y4907760D01*
X8079340D01*
X8089000Y4912000D01*
X8097040Y4922580D01*
X8100260Y4937400D01*
X8095430Y4952210D01*
X8084170Y4962800D01*
X8071300Y4967030D01*
X8058430Y4962800D01*
X8047170Y4952210D01*
X8042340Y4937400D01*
X8045560Y4922580D01*
X8053600Y4912000D01*
X8063260Y4907760D01*
X8079340D01*
X8093820Y4901410D01*
X8103470Y4888710D01*
X8106690Y4873900D01*
X8103470Y4859080D01*
X8095430Y4848490D01*
X8082560Y4842150D01*
X8071300Y4840030D01*
G01X8016380Y4778790D02*
Y4788610D01*
X8405840D01*
Y4778790D01*
G01X8273630Y7177190D02*
X8289710D01*
Y6419700D01*
X8286150Y6416140D01*
X8275420D01*
G01Y8995860D02*
X8291500D01*
X8293280Y8994080D01*
Y8238380D01*
X8291490Y8236590D01*
X8277200D01*
G01X8576590Y9334280D02*
X8586240Y9340630D01*
X8597500Y9344860D01*
X8610370D01*
X8624850Y9338510D01*
X8636110Y9327930D01*
X8644150Y9315230D01*
X8650590Y9294060D01*
X8652200Y9275010D01*
X8648980Y9255960D01*
X8644150Y9243260D01*
X8634500Y9230560D01*
X8623240Y9222090D01*
X8611980Y9217860D01*
X8600720D01*
X8589460Y9222090D01*
X8579810Y9228440D01*
X8571760Y9236910D01*
G01X8517830Y9243260D02*
X8508180Y9228440D01*
X8495310Y9219980D01*
X8480830Y9217860D01*
X8467960Y9219980D01*
X8455090Y9230560D01*
X8447050Y9243260D01*
X8445440Y9255960D01*
X8448660Y9270770D01*
X8459920Y9281360D01*
X8471180Y9285590D01*
X8485660D01*
G01X8471180D02*
X8461530Y9291940D01*
X8453480Y9302520D01*
X8450270Y9315230D01*
X8453480Y9327930D01*
X8461530Y9338510D01*
X8476010Y9344860D01*
X8490480Y9342740D01*
X8504960Y9334280D01*
G01X8352900Y9217860D02*
X8341640Y9219980D01*
X8328770Y9226320D01*
X8320730Y9236910D01*
X8317510Y9251730D01*
X8320730Y9266540D01*
X8330380Y9279240D01*
X8344860Y9285590D01*
X8360940D01*
X8370600Y9289830D01*
X8378640Y9300410D01*
X8381860Y9315230D01*
X8377030Y9330040D01*
X8365770Y9340630D01*
X8352900Y9344860D01*
X8340030Y9340630D01*
X8328770Y9330040D01*
X8323940Y9315230D01*
X8327160Y9300410D01*
X8335200Y9289830D01*
X8344860Y9285590D01*
X8360940D01*
X8375420Y9279240D01*
X8385070Y9266540D01*
X8388290Y9251730D01*
X8385070Y9236910D01*
X8377030Y9226320D01*
X8364160Y9219980D01*
X8352900Y9217860D01*
G01X8773580Y9948160D02*
Y10075160D01*
X8741410D01*
X8728540Y10068810D01*
X8718890Y10060340D01*
X8710840Y10047650D01*
X8704410Y10032820D01*
X8702800Y10011660D01*
X8704410Y9990490D01*
X8710840Y9975670D01*
X8718890Y9962970D01*
X8728540Y9954510D01*
X8741410Y9948160D01*
X8773580D01*
G01X8644040D02*
Y10075160D01*
X8611870D01*
X8599000Y10068810D01*
X8589350Y10060340D01*
X8581300Y10047650D01*
X8574870Y10032820D01*
X8573260Y10011660D01*
X8574870Y9990490D01*
X8581300Y9975670D01*
X8589350Y9962970D01*
X8599000Y9954510D01*
X8611870Y9948160D01*
X8644040D01*
G01X8509680Y10053990D02*
X8500020Y10066690D01*
X8488760Y10073040D01*
X8475890Y10075160D01*
X8459810Y10070930D01*
X8448540Y10060340D01*
X8445330Y10047650D01*
X8446940Y10034940D01*
X8453370Y10024360D01*
X8485540Y10003190D01*
X8500020Y9988380D01*
X8509680Y9967210D01*
X8512890Y9948160D01*
X8445330D01*
G01X8349570D02*
Y10075160D01*
X8368870Y10049760D01*
G01Y9948160D02*
X8330270D01*
G01X8490690Y10497590D02*
X8500340Y10503940D01*
X8511600Y10508170D01*
X8524470D01*
X8538950Y10501820D01*
X8550210Y10491240D01*
X8558250Y10478540D01*
X8564690Y10457370D01*
X8566300Y10438320D01*
X8563080Y10419270D01*
X8558250Y10406570D01*
X8548600Y10393870D01*
X8537340Y10385400D01*
X8526080Y10381170D01*
X8514820D01*
X8503560Y10385400D01*
X8493910Y10391750D01*
X8485860Y10400220D01*
G01X8427110Y10487000D02*
X8417450Y10499700D01*
X8406190Y10506050D01*
X8393320Y10508170D01*
X8377240Y10503940D01*
X8365970Y10493350D01*
X8362760Y10480660D01*
X8364370Y10467950D01*
X8370800Y10457370D01*
X8402970Y10436200D01*
X8417450Y10421390D01*
X8427110Y10400220D01*
X8430320Y10381170D01*
X8362760D01*
G01X8267000Y10508170D02*
X8279870Y10503940D01*
X8289520Y10493350D01*
X8295960Y10480660D01*
X8300780Y10463720D01*
X8302390Y10444670D01*
X8300780Y10425620D01*
X8295960Y10408680D01*
X8289520Y10395980D01*
X8279870Y10385400D01*
X8267000Y10381170D01*
X8254130Y10385400D01*
X8244480Y10395980D01*
X8238040Y10408680D01*
X8233220Y10425620D01*
X8231610Y10444670D01*
X8233220Y10463720D01*
X8238040Y10480660D01*
X8244480Y10493350D01*
X8254130Y10503940D01*
X8267000Y10508170D01*
G01X8510020Y10889340D02*
Y10560640D01*
X8506430Y10557050D01*
X8304560D01*
Y10891130D01*
X8306350Y10892920D01*
X8509110D01*
G01X8611490Y10620360D02*
Y10699100D01*
X8623170Y10683350D01*
G01Y10620360D02*
X8599810D01*
G01X8493890Y11380450D02*
X8503540Y11386800D01*
X8514800Y11391030D01*
X8527670D01*
X8542150Y11384680D01*
X8553410Y11374100D01*
X8561450Y11361400D01*
X8567890Y11340230D01*
X8569500Y11321180D01*
X8566280Y11302130D01*
X8561450Y11289430D01*
X8551800Y11276730D01*
X8540540Y11268260D01*
X8529280Y11264030D01*
X8518020D01*
X8506760Y11268260D01*
X8497110Y11274610D01*
X8489060Y11283080D01*
G01X8430310Y11369860D02*
X8420650Y11382560D01*
X8409390Y11388910D01*
X8396520Y11391030D01*
X8380440Y11386800D01*
X8369170Y11376210D01*
X8365960Y11363520D01*
X8367570Y11350810D01*
X8374000Y11340230D01*
X8406170Y11319060D01*
X8420650Y11304250D01*
X8430310Y11283080D01*
X8433520Y11264030D01*
X8365960D01*
G01X8270200D02*
Y11391030D01*
X8289500Y11365630D01*
G01Y11264030D02*
X8250900D01*
G01X9270270Y1732620D02*
Y1811360D01*
X9245930D01*
X9238140Y1807420D01*
X9233270Y1802170D01*
X9231330Y1791670D01*
X9233270Y1781180D01*
X9239120Y1774620D01*
X9245930Y1770680D01*
X9270270D01*
G01X9245930D02*
X9231330Y1732620D01*
G01X9172060D02*
Y1811360D01*
X9183740Y1795610D01*
G01Y1732620D02*
X9160380D01*
G01X9081640D02*
Y1811360D01*
X9117660Y1754930D01*
X9068980D01*
G01X9409060Y1898550D02*
Y2025550D01*
X9376890D01*
X9364020Y2019200D01*
X9354370Y2010730D01*
X9346320Y1998040D01*
X9339890Y1983210D01*
X9338280Y1962050D01*
X9339890Y1940880D01*
X9346320Y1926060D01*
X9354370Y1913360D01*
X9364020Y1904900D01*
X9376890Y1898550D01*
X9409060D01*
G01X9279520D02*
Y2025550D01*
X9247350D01*
X9234480Y2019200D01*
X9224830Y2010730D01*
X9216780Y1998040D01*
X9210350Y1983210D01*
X9208740Y1962050D01*
X9210350Y1940880D01*
X9216780Y1926060D01*
X9224830Y1913360D01*
X9234480Y1904900D01*
X9247350Y1898550D01*
X9279520D01*
G01X9145160Y1951460D02*
X9133890Y1966280D01*
X9124240Y1974750D01*
X9111370Y1978980D01*
X9100110Y1974750D01*
X9092070Y1966280D01*
X9085630Y1953580D01*
X9084020Y1938770D01*
X9085630Y1926060D01*
X9092070Y1913360D01*
X9101720Y1902780D01*
X9112980Y1898550D01*
X9125850Y1902780D01*
X9137110Y1915480D01*
X9143550Y1934530D01*
X9145160Y1955700D01*
X9141940Y1983210D01*
X9137110Y1998040D01*
X9129070Y2012850D01*
X9117810Y2023430D01*
X9106550Y2025550D01*
X9095290Y2021320D01*
X9087240Y2010730D01*
G01X8984670Y2659980D02*
X8964130D01*
X8963230Y2659080D01*
Y2249980D01*
X8964130Y2249080D01*
X8984670D01*
G01X9345550Y3402280D02*
Y3014610D01*
G01X8946260Y3402280D02*
Y3014610D01*
G01X9288410Y3172880D02*
G03I-14190J0D01*
G01X9084540Y2583200D02*
G03I-35590J0D01*
G01X9407410Y3041730D02*
Y3120470D01*
X9419090Y3104720D01*
G01Y3041730D02*
X9395730D01*
G01X8912750Y2733140D02*
Y2811880D01*
X8924430Y2796130D01*
G01Y2733140D02*
X8901070D01*
G01X9574480Y3795230D02*
Y3922230D01*
X9534270D01*
X9521400Y3915880D01*
X9513350Y3907410D01*
X9510140Y3890480D01*
X9513350Y3873550D01*
X9523010Y3862960D01*
X9534270Y3856610D01*
X9574480D01*
G01X9534270D02*
X9510140Y3795230D01*
G01X9412770D02*
Y3922230D01*
X9432070Y3896830D01*
G01Y3795230D02*
X9393470D01*
G01X9283230Y3922230D02*
X9296100Y3918000D01*
X9305750Y3907410D01*
X9312190Y3894720D01*
X9317010Y3877780D01*
X9318620Y3858730D01*
X9317010Y3839680D01*
X9312190Y3822740D01*
X9305750Y3810040D01*
X9296100Y3799460D01*
X9283230Y3795230D01*
X9270360Y3799460D01*
X9260710Y3810040D01*
X9254270Y3822740D01*
X9249450Y3839680D01*
X9247840Y3858730D01*
X9249450Y3877780D01*
X9254270Y3894720D01*
X9260710Y3907410D01*
X9270360Y3918000D01*
X9283230Y3922230D01*
G01X9184260Y3848140D02*
X9172990Y3862960D01*
X9163340Y3871430D01*
X9150470Y3875660D01*
X9139210Y3871430D01*
X9131170Y3862960D01*
X9124730Y3850260D01*
X9123120Y3835450D01*
X9124730Y3822740D01*
X9131170Y3810040D01*
X9140820Y3799460D01*
X9152080Y3795230D01*
X9164950Y3799460D01*
X9176210Y3812160D01*
X9182650Y3831210D01*
X9184260Y3852380D01*
X9181040Y3879890D01*
X9176210Y3894720D01*
X9168170Y3909530D01*
X9156910Y3920110D01*
X9145650Y3922230D01*
X9134390Y3918000D01*
X9126340Y3907410D01*
G01X9731300Y3358710D02*
Y3485710D01*
X9699130D01*
X9686260Y3479360D01*
X9676610Y3470890D01*
X9668560Y3458200D01*
X9662130Y3443370D01*
X9660520Y3422210D01*
X9662130Y3401040D01*
X9668560Y3386220D01*
X9676610Y3373520D01*
X9686260Y3365060D01*
X9699130Y3358710D01*
X9731300D01*
G01X9606590D02*
X9566370Y3485710D01*
X9526150Y3358710D01*
G01X9540630Y3403160D02*
X9592110D01*
G01X9472220Y3377760D02*
X9462570Y3367170D01*
X9451310Y3360830D01*
X9436830Y3358710D01*
X9422350Y3362940D01*
X9411090Y3371410D01*
X9403050Y3386220D01*
X9401440Y3403160D01*
X9404660Y3420090D01*
X9412700Y3430680D01*
X9423960Y3439140D01*
X9435220Y3441260D01*
X9446480Y3439140D01*
X9460960Y3430680D01*
X9456130Y3485710D01*
X9412700D01*
G01X9523080Y10081730D02*
X9528920Y10085670D01*
X9535740Y10088290D01*
X9543530D01*
X9552290Y10084350D01*
X9559100Y10077790D01*
X9563970Y10069920D01*
X9567870Y10056790D01*
X9568840Y10044980D01*
X9566890Y10033170D01*
X9563970Y10025300D01*
X9558130Y10017420D01*
X9551320Y10012170D01*
X9544500Y10009550D01*
X9537680D01*
X9530870Y10012170D01*
X9525030Y10016110D01*
X9520160Y10021360D01*
G01X9487180Y10025300D02*
X9481340Y10016110D01*
X9473550Y10010860D01*
X9464790Y10009550D01*
X9457000Y10010860D01*
X9449210Y10017420D01*
X9444340Y10025300D01*
X9443370Y10033170D01*
X9445310Y10042360D01*
X9452130Y10048920D01*
X9458940Y10051550D01*
X9467710D01*
G01X9458940D02*
X9453100Y10055480D01*
X9448230Y10062040D01*
X9446290Y10069920D01*
X9448230Y10077790D01*
X9453100Y10084350D01*
X9461870Y10088290D01*
X9470630Y10086980D01*
X9479390Y10081730D01*
G01X9408440Y10021360D02*
X9402600Y10014800D01*
X9395780Y10010860D01*
X9387020Y10009550D01*
X9378260Y10012170D01*
X9371440Y10017420D01*
X9366570Y10026610D01*
X9365600Y10037110D01*
X9367550Y10047610D01*
X9372420Y10054170D01*
X9379230Y10059420D01*
X9386050Y10060730D01*
X9392860Y10059420D01*
X9401620Y10054170D01*
X9398700Y10088290D01*
X9372420D01*
G01X8990760Y9579020D02*
X9000410Y9585370D01*
X9011670Y9589600D01*
X9024540D01*
X9039020Y9583250D01*
X9050280Y9572670D01*
X9058320Y9559970D01*
X9064760Y9538800D01*
X9066370Y9519750D01*
X9063150Y9500700D01*
X9058320Y9488000D01*
X9048670Y9475300D01*
X9037410Y9466830D01*
X9026150Y9462600D01*
X9014890D01*
X9003630Y9466830D01*
X8993980Y9473180D01*
X8985930Y9481650D01*
G01X8927180Y9568430D02*
X8917520Y9581130D01*
X8906260Y9587480D01*
X8893390Y9589600D01*
X8877310Y9585370D01*
X8866040Y9574780D01*
X8862830Y9562090D01*
X8864440Y9549380D01*
X8870870Y9538800D01*
X8903040Y9517630D01*
X8917520Y9502820D01*
X8927180Y9481650D01*
X8930390Y9462600D01*
X8862830D01*
G01X8794420Y9477410D02*
X8783160Y9466830D01*
X8770290Y9462600D01*
X8757420Y9466830D01*
X8746160Y9479530D01*
X8738110Y9498580D01*
X8734900Y9517630D01*
Y9540920D01*
X8738110Y9559970D01*
X8746160Y9576900D01*
X8755810Y9585370D01*
X8767070Y9589600D01*
X8779940Y9585370D01*
X8789590Y9576900D01*
X8796030Y9564200D01*
X8799240Y9547260D01*
X8796030Y9532450D01*
X8787980Y9517630D01*
X8778330Y9509160D01*
X8767070Y9507050D01*
X8754200Y9511280D01*
X8744550Y9521870D01*
X8734900Y9540920D01*
G01X8808560Y9810860D02*
Y9889600D01*
X8820240Y9873850D01*
G01Y9810860D02*
X8796880D01*
G01X9568870Y10467050D02*
Y10138350D01*
X9565280Y10134760D01*
X9363410D01*
Y10468840D01*
X9365200Y10470630D01*
X9567960D01*
G01X9568870Y10467050D02*
Y10138350D01*
X9565280Y10134760D01*
X9363410D01*
Y10468840D01*
X9365200Y10470630D01*
X9567960D01*
G01X8879260Y10600150D02*
Y10571570D01*
X9411640D01*
X9415220Y10575150D01*
Y10603730D01*
G01X9012720Y10647800D02*
G03I-35590J0D01*
G01X9377540Y11696060D02*
Y11367360D01*
X9373950Y11363770D01*
X9172080D01*
Y11697850D01*
X9173870Y11699640D01*
X9376630D01*
G01X8874070Y11279140D02*
Y11309510D01*
X9417170D01*
Y11271990D01*
G01X9078980Y11779970D02*
X9084820Y11783910D01*
X9091640Y11786530D01*
X9099430D01*
X9108190Y11782590D01*
X9115000Y11776030D01*
X9119870Y11768160D01*
X9123770Y11755030D01*
X9124740Y11743220D01*
X9122790Y11731410D01*
X9119870Y11723540D01*
X9114030Y11715660D01*
X9107220Y11710410D01*
X9100400Y11707790D01*
X9093580D01*
X9086770Y11710410D01*
X9080930Y11714350D01*
X9076060Y11719600D01*
G01X9040160Y11773410D02*
X9034320Y11781280D01*
X9027500Y11785220D01*
X9019710Y11786530D01*
X9009980Y11783910D01*
X9003160Y11777340D01*
X9001210Y11769470D01*
X9002190Y11761590D01*
X9006080Y11755030D01*
X9025550Y11741910D01*
X9034320Y11732720D01*
X9040160Y11719600D01*
X9042110Y11707790D01*
X9001210D01*
G01X8964340Y11723540D02*
X8958500Y11714350D01*
X8950710Y11709100D01*
X8941950Y11707790D01*
X8934160Y11709100D01*
X8926370Y11715660D01*
X8921500Y11723540D01*
X8920530Y11731410D01*
X8922470Y11740600D01*
X8929290Y11747160D01*
X8936100Y11749790D01*
X8944870D01*
G01X8936100D02*
X8930260Y11753720D01*
X8925390Y11760280D01*
X8923450Y11768160D01*
X8925390Y11776030D01*
X8930260Y11782590D01*
X8939030Y11786530D01*
X8947790Y11785220D01*
X8956550Y11779970D01*
G01X9338040Y11794940D02*
X9343880Y11798880D01*
X9350700Y11801500D01*
X9358490D01*
X9367250Y11797560D01*
X9374060Y11791000D01*
X9378930Y11783130D01*
X9382830Y11770000D01*
X9383800Y11758190D01*
X9381850Y11746380D01*
X9378930Y11738510D01*
X9373090Y11730630D01*
X9366280Y11725380D01*
X9359460Y11722760D01*
X9352640D01*
X9345830Y11725380D01*
X9339990Y11729320D01*
X9335120Y11734570D01*
G01X9299220Y11788380D02*
X9293380Y11796250D01*
X9286560Y11800190D01*
X9278770Y11801500D01*
X9269040Y11798880D01*
X9262220Y11792310D01*
X9260270Y11784440D01*
X9261250Y11776560D01*
X9265140Y11770000D01*
X9284610Y11756880D01*
X9293380Y11747690D01*
X9299220Y11734570D01*
X9301170Y11722760D01*
X9260270D01*
G01X9220480Y11788380D02*
X9214640Y11796250D01*
X9207820Y11800190D01*
X9200030Y11801500D01*
X9190300Y11798880D01*
X9183480Y11792310D01*
X9181530Y11784440D01*
X9182510Y11776560D01*
X9186400Y11770000D01*
X9205870Y11756880D01*
X9214640Y11747690D01*
X9220480Y11734570D01*
X9222430Y11722760D01*
X9181530D01*
G01X9492040Y2659090D02*
X9513480D01*
X9515260Y2657310D01*
Y2249970D01*
X9513480Y2248190D01*
X9495610D01*
G01X9796750Y2642250D02*
Y2720990D01*
X9772410D01*
X9764620Y2717050D01*
X9759750Y2711800D01*
X9757810Y2701300D01*
X9759750Y2690810D01*
X9765600Y2684250D01*
X9772410Y2680310D01*
X9796750D01*
G01X9772410D02*
X9757810Y2642250D01*
G01X9719960Y2658000D02*
X9714120Y2648810D01*
X9706330Y2643560D01*
X9697570Y2642250D01*
X9689780Y2643560D01*
X9681990Y2650120D01*
X9677120Y2658000D01*
X9676150Y2665870D01*
X9678090Y2675060D01*
X9684910Y2681620D01*
X9691720Y2684250D01*
X9700490D01*
G01X9691720D02*
X9685880Y2688180D01*
X9681010Y2694740D01*
X9679070Y2702620D01*
X9681010Y2710490D01*
X9685880Y2717050D01*
X9694650Y2720990D01*
X9703410Y2719680D01*
X9712170Y2714430D01*
G01X9619800Y2642250D02*
Y2720990D01*
X9631480Y2705240D01*
G01Y2642250D02*
X9608120D01*
G01X9769460Y10085360D02*
X9775300Y10089300D01*
X9782120Y10091920D01*
X9789910D01*
X9798670Y10087980D01*
X9805480Y10081420D01*
X9810350Y10073550D01*
X9814250Y10060420D01*
X9815220Y10048610D01*
X9813270Y10036800D01*
X9810350Y10028930D01*
X9804510Y10021050D01*
X9797700Y10015800D01*
X9790880Y10013180D01*
X9784060D01*
X9777250Y10015800D01*
X9771410Y10019740D01*
X9766540Y10024990D01*
G01X9733560Y10028930D02*
X9727720Y10019740D01*
X9719930Y10014490D01*
X9711170Y10013180D01*
X9703380Y10014490D01*
X9695590Y10021050D01*
X9690720Y10028930D01*
X9689750Y10036800D01*
X9691690Y10045990D01*
X9698510Y10052550D01*
X9705320Y10055180D01*
X9714090D01*
G01X9705320D02*
X9699480Y10059110D01*
X9694610Y10065670D01*
X9692670Y10073550D01*
X9694610Y10081420D01*
X9699480Y10087980D01*
X9708250Y10091920D01*
X9717010Y10090610D01*
X9725770Y10085360D01*
G01X9621720Y10013180D02*
Y10091920D01*
X9657740Y10035490D01*
X9609060D01*
G01X10127780Y10604470D02*
Y10731470D01*
X10095610D01*
X10082740Y10725120D01*
X10073090Y10716650D01*
X10065040Y10703960D01*
X10058610Y10689130D01*
X10057000Y10667970D01*
X10058610Y10646800D01*
X10065040Y10631980D01*
X10073090Y10619280D01*
X10082740Y10610820D01*
X10095610Y10604470D01*
X10127780D01*
G01X9998240D02*
Y10731470D01*
X9966070D01*
X9953200Y10725120D01*
X9943550Y10716650D01*
X9935500Y10703960D01*
X9929070Y10689130D01*
X9927460Y10667970D01*
X9929070Y10646800D01*
X9935500Y10631980D01*
X9943550Y10619280D01*
X9953200Y10610820D01*
X9966070Y10604470D01*
X9998240D01*
G01X9833310D02*
Y10731470D01*
X9852610Y10706070D01*
G01Y10604470D02*
X9814010D01*
G01X9739160Y10623520D02*
X9729510Y10612930D01*
X9718250Y10606590D01*
X9703770Y10604470D01*
X9689290Y10608700D01*
X9678030Y10617170D01*
X9669990Y10631980D01*
X9668380Y10648920D01*
X9671600Y10665850D01*
X9679640Y10676440D01*
X9690900Y10684900D01*
X9702160Y10687020D01*
X9713420Y10684900D01*
X9727900Y10676440D01*
X9723070Y10731470D01*
X9679640D01*
G01X10752770Y2997970D02*
Y3076710D01*
X10728430D01*
X10720640Y3072770D01*
X10715770Y3067520D01*
X10713830Y3057020D01*
X10715770Y3046530D01*
X10721620Y3039970D01*
X10728430Y3036030D01*
X10752770D01*
G01X10728430D02*
X10713830Y2997970D01*
G01X10654560D02*
Y3076710D01*
X10666240Y3060960D01*
G01Y2997970D02*
X10642880D01*
G01X10575820D02*
Y3076710D01*
X10587500Y3060960D01*
G01Y2997970D02*
X10564140D01*
G01X10515580Y3063590D02*
X10509740Y3071460D01*
X10502920Y3075400D01*
X10495130Y3076710D01*
X10485400Y3074090D01*
X10478580Y3067520D01*
X10476630Y3059650D01*
X10477610Y3051770D01*
X10481500Y3045210D01*
X10500970Y3032090D01*
X10509740Y3022900D01*
X10515580Y3009780D01*
X10517530Y2997970D01*
X10476630D01*
G01X10752850Y3574140D02*
Y3652880D01*
X10728510D01*
X10720720Y3648940D01*
X10715850Y3643690D01*
X10713910Y3633190D01*
X10715850Y3622700D01*
X10721700Y3616140D01*
X10728510Y3612200D01*
X10752850D01*
G01X10728510D02*
X10713910Y3574140D01*
G01X10654640D02*
Y3652880D01*
X10666320Y3637130D01*
G01Y3574140D02*
X10642960D01*
G01X10575900D02*
Y3652880D01*
X10587580Y3637130D01*
G01Y3574140D02*
X10564220D01*
G01X10518580Y3589890D02*
X10512740Y3580700D01*
X10504950Y3575450D01*
X10496190Y3574140D01*
X10488400Y3575450D01*
X10480610Y3582010D01*
X10475740Y3589890D01*
X10474770Y3597760D01*
X10476710Y3606950D01*
X10483530Y3613510D01*
X10490340Y3616140D01*
X10499110D01*
G01X10490340D02*
X10484500Y3620070D01*
X10479630Y3626630D01*
X10477690Y3634510D01*
X10479630Y3642380D01*
X10484500Y3648940D01*
X10493270Y3652880D01*
X10502030Y3651570D01*
X10510790Y3646320D01*
M02*
