G04 ================== begin FILE IDENTIFICATION RECORD ==================*
G04 Layout Name:  C:\PSD_data\PSD_data\Projects\DSP_M5\worklib\interf_m8_v1\physical\interf_m8_v9_nev.brd*
G04 Film Name:    TOP*
G04 File Format:  Gerber RS274X*
G04 File Origin:  15.2-s015*
G04 Origin Date:  Tue May 03 13:49:25 2011*
G04 ================== end FILE IDENTIFICATION RECORD ====================*
%FSLAX55Y55*MOMM*%
%IR0*IPPOS*OFA0.00000B0.00000*MIA0B0*SFA1.00000B1.00000*%
%AMMACRO20*
4,1,7,-.2,-.5,
.2,-.5,
.3,-.5,
.3,.4,
.2,.5,
-.3,.5,
-.3,-.5,
-.2,-.5,
0.0*
%
%ADD20MACRO20*%
%ADD25R,.3X1.5*%
%ADD42R,.8X2.*%
%ADD26R,1.5X.3*%
%ADD43R,2.X.8*%
%ADD40R,.3X1.7*%
%ADD21R,.6X1.3*%
%ADD37R,1.7X.3*%
%AMMACRO34*
4,1,5,-1.6,-.85,
1.6,-.85,
1.6,.85,
-1.1,.85,
-1.6,.35,
-1.6,-.85,
0.0*
%
%ADD34MACRO34*%
%ADD32R,.9X1.3*%
%ADD22R,1.3X.45*%
%ADD19R,.45X1.4*%
%ADD50R,1.7X.6*%
%ADD47R,1.6X.8*%
%ADD52R,2.3X.435*%
%ADD38R,.75X1.8*%
%ADD10C,.7*%
%AMMACRO27*
4,1,5,-.8,-.65,
.8,-.65,
.8,.15,
.3,.65,
-.8,.65,
-.8,-.65,
0.0*
%
%ADD27MACRO27*%
%ADD33R,3.2X1.*%
%ADD31R,2.2X1.1*%
%ADD15R,1.5X1.*%
%ADD41R,2.X1.5*%
%ADD18R,1.X1.5*%
%ADD14R,1.6X1.2*%
%ADD36R,1.2X1.6*%
%ADD28R,1.6X1.3*%
%ADD30R,1.3X1.6*%
%AMMACRO35*
4,1,5,-1.6,.85,
1.6,.85,
1.6,-.85,
-1.1,-.85,
-1.6,-.35,
-1.6,.85,
0.0*
%
%ADD35MACRO35*%
%ADD16R,4.6X2.*%
%ADD51R,2.5X1.5*%
%ADD29R,1.4X1.7*%
%ADD13C,2.*%
%ADD48C,4.*%
%ADD17R,.8X.4*%
%ADD46C,1.4*%
%ADD11C,1.6*%
%ADD45C,2.6*%
%ADD12C,3.5*%
%ADD23C,1.8*%
%ADD49C,3.8*%
%ADD24C,1.75*%
%AMMACRO44*
4,1,5,.8,.65,
-.8,.65,
-.8,-.15,
-.3,-.65,
.8,-.65,
.8,.65,
0.0*
%
%ADD44MACRO44*%
%AMMACRO39*
4,1,5,.65,-.8,
.65,.8,
-.15,.8,
-.65,.3,
-.65,-.8,
.65,-.8,
0.0*
%
%ADD39MACRO39*%
%ADD53C,.2*%
%ADD54C,.3*%
%ADD55C,.4*%
%ADD56C,.5*%
%ADD57C,.6*%
%ADD58C,.8*%
%ADD59C,1.*%
%ADD63C,2.0002*%
%ADD61C,2.2002*%
%ADD60C,1.3002*%
%ADD65C,3.2002*%
%ADD62R,3.1002X5.7102*%
%ADD67R,5.1502X1.7002*%
%ADD66C,4.4002*%
%ADD68C,2.3502*%
%ADD64C,7.3004*%
G75*
%LPD*%
G75*
G36*
G01X22020Y1062040D02*
Y2337140D01*
X1092920D01*
Y1062040D01*
X22020D01*
G37*
G36*
G01X845870Y10653660D02*
Y9747520D01*
X22090D01*
Y10653660D01*
X845870D01*
G37*
G36*
G01X469720Y7585960D02*
X849370D01*
Y6391480D01*
X469720D01*
Y7585960D01*
G37*
G36*
G01X2648920Y1496020D02*
X2385700D01*
Y1796210D01*
X2648920D01*
Y1496020D01*
G37*
G36*
G01X2933940Y3114360D02*
X2196130D01*
Y4149440D01*
X2933940D01*
Y3114360D01*
G37*
G36*
G01X2831760Y5105010D02*
X3153670D01*
Y4861660D01*
X2831760D01*
Y5105010D01*
G37*
G36*
G01X3270620Y4962460D02*
Y6105000D01*
X3507010D01*
Y4962460D01*
X3270620D01*
G37*
G36*
G01X3139820Y7519690D02*
Y8513590D01*
X3382170D01*
Y7519690D01*
X3139820D01*
G37*
G36*
G01X4112190Y1990770D02*
Y1642940D01*
X3893180D01*
Y1990770D01*
X4112190D01*
G37*
G36*
G01X3471120Y4464580D02*
X4001200D01*
Y3705270D01*
X3471120D01*
Y4464580D01*
G37*
G36*
G01X4040600Y7569830D02*
Y8647900D01*
X4327130D01*
Y7569830D01*
X4040600D01*
G37*
G36*
G01X5993860Y22010D02*
X5989560Y26310D01*
Y932020D01*
X5397700D01*
Y1341680D01*
X5378870Y1360510D01*
X4420330D01*
X4268420Y1512420D01*
Y2082790D01*
X6000050D01*
Y1977870D01*
X6082270Y1895650D01*
X6270070D01*
Y2082790D01*
X9437880D01*
X9437900Y2076240D01*
Y1972800D01*
X9826610D01*
Y1316080D01*
X9835310D01*
Y1314660D01*
X11181640D01*
Y22010D01*
X5993860D01*
G37*
G36*
G01X5174460Y4064620D02*
Y3737820D01*
X4853570D01*
Y4064620D01*
X5174460D01*
G37*
G36*
G01X4519430Y8224050D02*
X4518000Y8222620D01*
X4416430D01*
Y8283930D01*
X4416440Y8283940D01*
Y8788850D01*
X4518950D01*
Y8283940D01*
X4519430Y8283460D01*
Y8224050D01*
G37*
G36*
G01X4344600Y11025020D02*
X5624580D01*
Y10923460D01*
X4344600D01*
Y11025020D01*
G37*
G36*
G01X5980990Y3374230D02*
X5270090D01*
Y4014700D01*
X5270490Y4015670D01*
X5708880D01*
X5714630Y4009920D01*
Y3753640D01*
X5980990D01*
Y3374230D01*
G37*
G36*
G01X5523380Y5685900D02*
Y5406530D01*
X4982560D01*
Y5685900D01*
X5523380D01*
G37*
G36*
G01X5754880Y9187660D02*
X5754630Y9187410D01*
X4977870D01*
Y9289930D01*
X5754880D01*
Y9187660D01*
G37*
G36*
G01X6591650Y3328710D02*
X6041010D01*
Y3760000D01*
X6591650D01*
Y3328710D01*
G37*
G36*
G01X7326720Y11223070D02*
Y8601340D01*
X6723230D01*
Y11223070D01*
X7326720D01*
G37*
G36*
G01X7400210Y6556910D02*
Y11798590D01*
X11187110D01*
Y6556910D01*
X8272330D01*
G02X8262190Y6567310I0J10143D01*
G03X8245220Y6612790I-64989J1657D01*
G01X8241960Y6616370D01*
X8268620Y6643030D01*
X8343870D01*
Y6903050D01*
X7958850D01*
Y6643030D01*
X8030580D01*
X8052380Y6621230D01*
Y6615930D01*
X8050930Y6614450D01*
G03X8032400Y6567310I46458J-45474D01*
G02X8022260Y6556910I-10140J-257D01*
G01X7400210D01*
G37*
G36*
G01X9856620Y1346090D02*
Y2002810D01*
X9467910D01*
Y2076240D01*
X9469690Y2078020D01*
X9467900Y2079810D01*
Y2135320D01*
X9467910Y2135330D01*
Y2751370D01*
X9466120Y2753160D01*
X9282340D01*
Y3581140D01*
X9280520Y3582960D01*
Y3793050D01*
G02X9297830Y3800220I10140J0D01*
G01X9860850Y3237210D01*
X9860030Y3234340D01*
G03X9941940Y3315330I112971J-32339D01*
G01X9939090Y3314550D01*
X9926140Y3327510D01*
G02X9936460Y3344320I7170J7171D01*
G03X9861320Y3419460I36541J111681D01*
G02X9844510Y3409140I-9639J-3150D01*
G01X9280520Y3973130D01*
Y4020780D01*
G02X9297830Y4027950I10140J0D01*
G01X9625720Y3700060D01*
X10314400D01*
X10403260Y3611200D01*
Y3261310D01*
X10399570Y3257620D01*
X10330560D01*
X10329100Y3260180D01*
G03X10329750Y3144990I-102100J-58173D01*
G01X10331200Y3147600D01*
X10422360D01*
G03X10461260Y3163710I0J55020D01*
G01X10497170Y3199620D01*
G03X10513280Y3238520I-38910J38900D01*
G01Y3656780D01*
X10359980Y3810080D01*
X10246790D01*
G02X10242710Y3829500I0J10139D01*
G03X10057290I-92710J210499D01*
G02X10053210Y3810080I-4080J-9281D01*
G01X9671300D01*
X9280520Y4200860D01*
Y4331310D01*
X10480050D01*
X10607220Y4204140D01*
Y2197880D01*
X10599450Y2190110D01*
X9996620D01*
G02X9986750Y2202590I0J10143D01*
G03X9860250I-63250J15028D01*
G02X9850380Y2190110I-9870J-2337D01*
G01X9762190D01*
X9737970Y2214330D01*
Y2666660D01*
X9812970D01*
Y2892990D01*
X9869120D01*
X9870570Y2890400D01*
G03Y3005600I102428J57600D01*
G01X9869120Y3003010D01*
X9812970D01*
Y3051680D01*
X9552950D01*
Y2666660D01*
X9627950D01*
Y2168750D01*
X9716610Y2080090D01*
X10040920D01*
G02X10045530Y2060920I0J-10139D01*
G03X10254470I104470J-204919D01*
G02X10259080Y2080090I4610J9031D01*
G01X10645030D01*
X10701130Y2136190D01*
G03X10717240Y2175090I-38910J38900D01*
G01Y4249720D01*
X10525630Y4441330D01*
X9280520D01*
Y4753440D01*
X11179570D01*
Y2152920D01*
X11180790Y2151700D01*
Y1346090D01*
X9856620D01*
G37*
G36*
G01X10556780Y5351140D02*
X10557150Y5351510D01*
Y5858360D01*
X10271750D01*
X10268790Y5861320D01*
Y6241360D01*
X11114640D01*
Y6239880D01*
X11116120D01*
Y5201050D01*
X10268790D01*
Y5351140D01*
X10556780D01*
G37*
%LPC*%
G75*
G36*
G01X5737850Y1148050D02*
G02X5565630Y1148070I-86118J-68451D01*
G01X5566730Y1149460D01*
Y1244590D01*
X5516730D01*
Y1581610D01*
X5445900Y1652440D01*
Y1852020D01*
X5365900D01*
Y1887020D01*
X5338420D01*
G02Y2037040I0J75010D01*
G01X5365900D01*
Y2072040D01*
X5695920D01*
Y1852020D01*
X5615920D01*
Y1722860D01*
X5654170Y1684610D01*
X5786750D01*
Y1244590D01*
X5736750D01*
Y1149440D01*
X5737850Y1148050D01*
G37*
G36*
G01X8734210Y715050D02*
G02X8581780Y722130I-79215J-61050D01*
G01X8583140Y723590D01*
Y869750D01*
X8553140D01*
Y928430D01*
G03X8539810Y938050I-10136J0D01*
G02Y1061470I-20456J61710D01*
G03X8553140Y1071090I3194J9620D01*
G01Y1129770D01*
X8763160D01*
Y869750D01*
X8733160D01*
Y716420D01*
X8734210Y715050D01*
G37*
G36*
G01X9529760Y719040D02*
G02X9357540Y723390I-87838J-66231D01*
G01X9358720Y724810D01*
Y1128870D01*
X9357620Y1130260D01*
G02X9529840I86110J68461D01*
G01X9528740Y1128870D01*
Y720390D01*
X9529760Y719040D01*
G37*
G36*
G01X7310420Y485170D02*
G02X7205580I-52420J-85170D01*
G01X7207990Y486650D01*
Y681860D01*
X7058090Y831760D01*
Y1275890D01*
X7179960Y1397760D01*
Y1738860D01*
X7419660D01*
G03X7428740Y1753530I0J10145D01*
G02X7550400Y1796500I58160J29044D01*
G01X7551270Y1792520D01*
X7851730D01*
Y1532500D01*
X7796730D01*
Y1478860D01*
X7530710Y1212840D01*
X7489980D01*
Y1167840D01*
X7218060D01*
Y904230D01*
X7369470Y752830D01*
X7371950Y753150D01*
G02X7450790Y729330I13061J-99153D01*
G01X7454360Y726210D01*
X7520980Y792830D01*
Y1167070D01*
X7921450Y1567540D01*
X7939830D01*
Y1611860D01*
X8249850D01*
Y1333890D01*
X8272900D01*
Y1124500D01*
X8300110D01*
Y864480D01*
X8090090D01*
Y865120D01*
X7884490D01*
Y1125140D01*
X7909930D01*
Y1300450D01*
G03X7892620Y1307620I-10140J0D01*
G01X7682620Y1097620D01*
Y744050D01*
X7685340Y742630D01*
G02X7643140Y554080I-46340J-88626D01*
G03X7636390Y536770I418J-10134D01*
G01X7698880Y474280D01*
X7702430Y477210D01*
G02X7677010Y354360I63569J-77209D01*
G01X7676650Y355070D01*
X7452060Y579660D01*
X7448500Y576740D01*
G02X7324300Y574510I-63507J77259D01*
G03X7308010Y566460I-6156J-8050D01*
G01Y486650D01*
X7310420Y485170D01*
G37*
G36*
G01X7056420D02*
G02X6951580I-52420J-85170D01*
G01X6953990Y486650D01*
Y566460D01*
G03X6937700Y574510I-10134J0D01*
G02X6825120Y739500I-60698J79487D01*
G01X6827560Y740980D01*
Y1138550D01*
X6626270Y1339840D01*
X6609980D01*
Y1167840D01*
X6299960D01*
Y1187840D01*
X6244360D01*
X6061110Y1004590D01*
X5986230D01*
X5984740Y1003050D01*
G02Y1156150I-79009J76550D01*
G01X5986230Y1154610D01*
X5998970D01*
X6057360Y1213000D01*
Y1354990D01*
X6002970D01*
Y1565010D01*
X6262990D01*
Y1354990D01*
X6207380D01*
Y1337860D01*
X6299960D01*
Y1611860D01*
X6609980D01*
Y1566860D01*
X6640780D01*
X6641370Y1571260D01*
G02X6723230Y1499990I64432J-8641D01*
G03X6718780Y1483050I2720J-9769D01*
G01X6991870Y1209960D01*
Y792220D01*
X7054010Y730080D01*
Y486650D01*
X7056420Y485170D01*
G37*
G36*
G01X9591630Y8249360D02*
G02X9512830Y8328200I-63071J15761D01*
G01X9514190Y8328540D01*
X9671800Y8486150D01*
Y9665720D01*
X9539720Y9797800D01*
X8360140D01*
X8322450Y9760110D01*
X8324080Y9756850D01*
G02X8210190Y9761270I-58158J-29050D01*
G01X8210910Y9762470D01*
Y9781380D01*
G02X8227020Y9820280I55020J0D01*
G01X8314560Y9907820D01*
X9585300D01*
X9781820Y9711300D01*
Y8440570D01*
X9591970Y8250730D01*
X9591630Y8249360D01*
G37*
G36*
G01X8991600Y8975030D02*
G02X8886040Y8888240I-6402J-99803D01*
G03X8873670Y8899430I-10052J1320D01*
G02X8983010Y8989330I-36471J155799D01*
G03X8991600Y8975030I9239J-4180D01*
G37*
G36*
G01X8754920Y7425220D02*
X8494900D01*
Y7635240D01*
X8593910D01*
Y7729170D01*
X8429070D01*
Y7587680D01*
X8430160Y7586300D01*
G02X8327960I-51100J-40189D01*
G01X8329050Y7587680D01*
Y7884820D01*
G03X8311740Y7891990I-10140J0D01*
G01X8235910Y7816160D01*
X8180480D01*
Y7741890D01*
X8140760D01*
G03X8131380Y7727900I0J-10140D01*
G02X8011100I-60140J-24683D01*
G03X8001720Y7741890I-9380J3850D01*
G01X7795460D01*
Y7814040D01*
X7536390D01*
Y8004060D01*
X7806410D01*
Y8001910D01*
X7968840D01*
Y8194840D01*
X7795750D01*
Y8195040D01*
X7536390D01*
Y8385060D01*
X7795750D01*
Y8454860D01*
X8003730D01*
Y8480470D01*
X8003010Y8481680D01*
G02X8114470I55730J33458D01*
G01X8113750Y8480470D01*
Y8454860D01*
X8180770D01*
Y8378700D01*
X8215200D01*
X8339070Y8254830D01*
Y8248080D01*
X8368910D01*
Y8488560D01*
X8753930D01*
Y8413560D01*
X8763130D01*
X8965390Y8211290D01*
X8967990Y8211750D01*
G02X9067250Y8170410I17207J-98519D01*
G01X9068760Y8168240D01*
X9148050D01*
G03X9156440Y8184070I0J10138D01*
G02X9321960I82760J56162D01*
G03X9330350Y8168240I8390J-5692D01*
G01X9438940D01*
X9517330Y8089850D01*
X9674550D01*
Y8049850D01*
X9785470D01*
G02X9831440Y8030810I0J-65015D01*
G01X9862540Y7999710D01*
G02X9881580Y7953740I-45975J-45970D01*
G01Y7605600D01*
X9956580D01*
Y7435580D01*
X9441560D01*
Y7445200D01*
G03X9431000Y7455330I-10139J0D01*
G02Y7585250I-2660J64960D01*
G03X9441560Y7595380I421J10130D01*
G01Y7605600D01*
X9751560D01*
Y7919830D01*
X9674550D01*
Y7879830D01*
X9414530D01*
Y8037050D01*
X9393360Y8058220D01*
X9330350D01*
G03X9321960Y8042390I0J-10138D01*
G02X9157170Y7929020I-82395J-56685D01*
G01X9155660Y7931220D01*
X9076350D01*
G03X9067960Y7915390I0J-10138D01*
G02X8902440I-82760J-56162D01*
G03X8894050Y7931220I-8390J5692D01*
G01X8798760D01*
X8753930Y7886390D01*
Y7729170D01*
X8703930D01*
Y7635240D01*
X8754920D01*
Y7425220D01*
G37*
G54D63*
X8401000Y654000D03*
X8147000D03*
X8020000Y400000D03*
X9239200Y6970230D03*
X8985200Y7097230D03*
X9239200Y7224230D03*
X8985200Y7351230D03*
X9239200Y7478230D03*
Y7732230D03*
X10128000Y7766500D03*
X10412000Y7905000D03*
X10128000Y8043500D03*
X10412000Y8182000D03*
X10128000Y8320500D03*
X8985200Y8367230D03*
X10412000Y8459000D03*
X9239200Y8494230D03*
X10128000Y8597500D03*
X8985200Y8621230D03*
X10412000Y8736000D03*
X9239200Y8748230D03*
G54D61*
X9443730Y1452720D03*
G54D60*
X7022500Y1473070D03*
X6933790Y10349080D03*
X8212620Y9247510D03*
X8143630Y9513880D03*
X7526710Y10540850D03*
X9680700Y10542140D03*
X10866550Y3329390D03*
G54D65*
X8835000Y252000D03*
X6570000D03*
X8837200Y6790230D03*
G54D62*
X8974840Y1453350D03*
G54D67*
X9699070Y7330590D03*
G54D66*
X10270000Y7071000D03*
Y9570000D03*
G54D68*
X9973000Y2440000D03*
X10227000D03*
Y2694000D03*
Y2948000D03*
Y3456000D03*
G54D64*
X10560000Y600000D03*
Y11150000D03*
%LPD*%
G75*
G36*
G01X8241410Y920880D02*
X7939940D01*
Y1303880D01*
X8242890D01*
Y922360D01*
X8241410Y920880D01*
G37*
G36*
G01X8594070Y7989190D02*
Y8228540D01*
X8753930D01*
Y8242680D01*
G02X8771240Y8249850I10140J0D01*
G01X8887290Y8133800D01*
X8886820Y8131190D01*
G03X8902440Y8057070I98382J-17973D01*
G02X8894050Y8041240I-8390J-5692D01*
G01X8753180D01*
X8701130Y7989190D01*
X8594070D01*
G37*
G36*
G01D02*
Y8228540D01*
X8753930D01*
Y8242680D01*
G02X8771240Y8249850I10140J0D01*
G01X8887290Y8133800D01*
X8886820Y8131190D01*
G03X8902440Y8057070I98382J-17973D01*
G02X8894050Y8041240I-8390J-5692D01*
G01X8753180D01*
X8701130Y7989190D01*
X8594070D01*
G37*
G36*
G01D02*
Y8228540D01*
X8753930D01*
Y8242680D01*
G02X8771240Y8249850I10140J0D01*
G01X8887290Y8133800D01*
X8886820Y8131190D01*
G03X8902440Y8057070I98382J-17973D01*
G02X8894050Y8041240I-8390J-5692D01*
G01X8753180D01*
X8701130Y7989190D01*
X8594070D01*
G37*
G36*
G01D02*
Y8228540D01*
X8753930D01*
Y8242680D01*
G02X8771240Y8249850I10140J0D01*
G01X8887290Y8133800D01*
X8886820Y8131190D01*
G03X8902440Y8057070I98382J-17973D01*
G02X8894050Y8041240I-8390J-5692D01*
G01X8753180D01*
X8701130Y7989190D01*
X8594070D01*
G37*
G36*
G01D02*
Y8228540D01*
X8753930D01*
Y8242680D01*
G02X8771240Y8249850I10140J0D01*
G01X8887290Y8133800D01*
X8886820Y8131190D01*
G03X8902440Y8057070I98382J-17973D01*
G02X8894050Y8041240I-8390J-5692D01*
G01X8753180D01*
X8701130Y7989190D01*
X8594070D01*
G37*
G36*
G01D02*
Y8228540D01*
X8753930D01*
Y8242680D01*
G02X8771240Y8249850I10140J0D01*
G01X8887290Y8133800D01*
X8886820Y8131190D01*
G03X8902440Y8057070I98382J-17973D01*
G02X8894050Y8041240I-8390J-5692D01*
G01X8753180D01*
X8701130Y7989190D01*
X8594070D01*
G37*
G36*
G01D02*
Y8228540D01*
X8753930D01*
Y8242680D01*
G02X8771240Y8249850I10140J0D01*
G01X8887290Y8133800D01*
X8886820Y8131190D01*
G03X8902440Y8057070I98382J-17973D01*
G02X8894050Y8041240I-8390J-5692D01*
G01X8753180D01*
X8701130Y7989190D01*
X8594070D01*
G37*
G36*
G01D02*
Y8228540D01*
X8753930D01*
Y8242680D01*
G02X8771240Y8249850I10140J0D01*
G01X8887290Y8133800D01*
X8886820Y8131190D01*
G03X8902440Y8057070I98382J-17973D01*
G02X8894050Y8041240I-8390J-5692D01*
G01X8753180D01*
X8701130Y7989190D01*
X8594070D01*
G37*
G54D10*
G01X599720Y2668010D02*
Y2490630D01*
G01X600410Y3366540D02*
Y2878700D01*
X599720Y2878010D01*
G01X600410Y3566540D02*
Y3366540D01*
G01X4139770Y4866590D02*
X3949700D01*
G01X4907490Y1165220D02*
X4792450D01*
X4726010Y1231660D01*
G01X4794770Y4578300D02*
Y4862990D01*
X4791390Y4866370D01*
G01X4333080Y5098310D02*
X4339770Y5091620D01*
Y4866590D01*
G01X4581390Y4866370D02*
X4339990D01*
X4339770Y4866590D01*
G01X5257450Y963110D02*
Y798550D01*
X5352000Y704000D01*
G01X5077490Y1165220D02*
X5104600Y1138110D01*
X5257450D01*
G01X5509600Y3959140D02*
Y3962030D01*
G01D02*
X5254770Y4216860D01*
Y4578300D01*
G01X6141830Y1643850D02*
X6454970D01*
G01X6132980Y1635000D02*
X6141830Y1643850D01*
G01X6132980Y1635000D02*
Y1843580D01*
G01D02*
X6135060Y1845660D01*
G01X6678830Y2397740D02*
Y2477230D01*
X6623210Y2532850D01*
X6454970D01*
G01X7111400Y7909050D02*
X7074010Y7871660D01*
Y7625100D01*
G01X6898830Y7464770D02*
Y7624920D01*
X6899010Y7625100D01*
G01X7111400Y8290050D02*
Y8442020D01*
G01X7714880Y2409950D02*
X7840250D01*
X7963150Y2532850D01*
X8094840D01*
G01X8370100Y1613850D02*
X8340100Y1643850D01*
G01D02*
X8094840D01*
G01X8370100Y994490D02*
Y1613850D01*
X192160Y1208890D03*
X881610Y1219630D03*
X599720Y2490630D03*
X881610Y2020120D03*
X866920Y5317520D03*
X967920Y6537520D03*
X1089010Y7086220D03*
X670290Y6525790D03*
X807540Y7813730D03*
X659550Y7419410D03*
X1100920Y8141460D03*
X853820Y8134540D03*
X1098590Y8843050D03*
X700740Y9865640D03*
X688200Y10501380D03*
X1516060Y1618980D03*
X1261890Y1459200D03*
X1776060Y2202970D03*
X1516060Y2520860D03*
X1468100Y3919560D03*
X1513150Y4340020D03*
X1391890Y5288000D03*
X1294470Y5067650D03*
X1765350Y6829020D03*
X1552030Y6537520D03*
X1531290Y6737000D03*
X1621140Y6841660D03*
X1297860Y6945500D03*
X1416670Y6843930D03*
X1531290Y7192460D03*
X1713670Y7434110D03*
X1584930Y7838650D03*
X1138560Y8523380D03*
X1607760Y8471220D03*
X1870120Y8689700D03*
X1621700Y8982380D03*
X1604460Y8683460D03*
X1599100Y9203670D03*
X1594310Y8848820D03*
X1172510Y10066940D03*
X1140170Y9500770D03*
X1779100Y9583330D03*
X1173780Y9891940D03*
X2285780Y1358930D03*
X2283320Y1239390D03*
X2544600Y1097670D03*
X2282090Y1102600D03*
X2552800Y1571440D03*
X2094990Y1614710D03*
X2257700Y2786780D03*
X2432700Y2787410D03*
X2566760Y3271900D03*
Y4006130D03*
X2560620Y4674830D03*
X2306720Y4344280D03*
X2437990Y4937350D03*
X2322310Y5903100D03*
X2568280Y6184770D03*
X2149040Y5705740D03*
X2530110Y6814010D03*
X1940530Y6537520D03*
X2338350Y6941660D03*
X1932120Y6805610D03*
X2476310Y7733040D03*
X1904550Y7588190D03*
X2314710Y7725370D03*
X2374750Y7329680D03*
X2501230Y7264130D03*
X2062410Y7418790D03*
X2480150Y7987900D03*
X2125200Y7966650D03*
X2118150Y9760620D03*
X3400880Y1124860D03*
X3196190Y1602320D03*
X3326190Y1604950D03*
X3066190Y2200760D03*
X3261190Y2196480D03*
X2806190Y2515580D03*
X3059810Y1960550D03*
X3001190Y2523130D03*
X2672610Y3005010D03*
X3060740Y4917230D03*
X3390530Y5150450D03*
X2769480Y6046810D03*
X2855550Y6887000D03*
X2734030Y6815740D03*
X3070320Y7010640D03*
X2705300Y6501900D03*
X3261590Y7657580D03*
X2748650Y8387320D03*
X2713920Y8092320D03*
X3150800Y8693050D03*
X3258100Y9070530D03*
X2830800Y8638430D03*
X3150800Y9615870D03*
X3002040Y9815370D03*
X3700460Y862080D03*
X3526780Y1380500D03*
X4051920Y1722540D03*
X3639020Y1717770D03*
X4052380Y1915320D03*
X4124190Y2337780D03*
X3761430Y2775860D03*
X3936430Y2777790D03*
X3741530Y4317730D03*
X3949700Y4866590D03*
X3656880Y5640380D03*
X3434390Y6426210D03*
X3442060Y6891840D03*
X3470800Y6568010D03*
X4135410Y6351170D03*
X4159990Y7079630D03*
X4005900Y9411540D03*
X3601100Y9413270D03*
X3914300Y10206240D03*
X4726010Y1231660D03*
X4436190Y1547960D03*
X4653640Y1962030D03*
X4436200Y1789060D03*
X4825660Y1961460D03*
X4216460Y2470030D03*
X4334790Y4013550D03*
X4590490Y4244960D03*
X4248770Y5487290D03*
X4333080Y5098310D03*
X4227690Y6165610D03*
X4613980Y5967480D03*
X4634270Y6892590D03*
X4474880Y6893760D03*
X4628160Y6736630D03*
X4334990Y6646570D03*
X4436550Y7499260D03*
X4804190Y7595420D03*
X4299090Y7419980D03*
X4185650Y7799060D03*
X4643150Y8308240D03*
X4469600Y8304540D03*
X4182070Y8456280D03*
X4507440Y9101170D03*
X4882300Y9234590D03*
X4907930Y9413270D03*
X4882040Y9616970D03*
X4887010Y10206240D03*
X4429280Y10622720D03*
X4449140Y10970930D03*
X5022170Y1542510D03*
X5338420Y1962030D03*
X5404210Y3447530D03*
X5404220Y3619980D03*
X5403740Y3780000D03*
Y3933280D03*
X5609260Y3623820D03*
X5607810Y3941900D03*
X5607320Y3785730D03*
X4945250Y3899000D03*
X5091650Y3900480D03*
X5652040Y4602260D03*
X5025780Y4804180D03*
X5536440Y4329920D03*
X5014770D03*
X5676030Y5303060D03*
X5492360Y5075320D03*
X5410570Y5544430D03*
X5666730Y5958660D03*
X5556690Y6023820D03*
X5253660Y6979990D03*
X5556560Y6985730D03*
X5329480Y6348890D03*
X5106740Y7071000D03*
X5353660Y6979250D03*
X5641830Y7280760D03*
X5465530Y8087530D03*
X4991700Y8581480D03*
X5222180Y7920820D03*
X5259750Y8133300D03*
X5212410Y8392960D03*
X5225290Y8711480D03*
X5188180Y8972310D03*
X5684690Y9236990D03*
X5442540Y8840580D03*
X5088050Y10743340D03*
X5095860Y10971360D03*
X5787460Y2465490D03*
X5994400D03*
X5902170Y1819380D03*
X5770590Y2161560D03*
X6174040Y3195470D03*
X6037990D03*
X5774520Y3450400D03*
X5905780Y3597950D03*
X6373610Y3468210D03*
X6371520Y3677930D03*
X6032720Y4278470D03*
X6311520Y5526580D03*
X6142060Y5525490D03*
X5940740Y5079140D03*
X5938830Y5979750D03*
X6331640Y5998900D03*
X6095470D03*
X5819160Y5931840D03*
X6377630Y6981900D03*
X5819160Y6503750D03*
X5950320Y7041300D03*
X6405870Y7539900D03*
X6209410Y7574100D03*
X5855060Y7757410D03*
X6059580Y7991750D03*
X5924010Y8226900D03*
X5793910Y8932330D03*
X5919440D03*
X5805610Y9571570D03*
Y10043030D03*
X6237750Y10300700D03*
X6412120Y10469330D03*
X6126610D03*
X6073770Y10671300D03*
X6705800Y1562620D03*
X7022500Y1473070D03*
X6678830Y2397740D03*
X6676560Y3210540D03*
X6882690Y3556350D03*
X6456200Y3893030D03*
X6721580Y3682260D03*
X6960150Y3822560D03*
X6518650Y3677930D03*
X6462390Y4087020D03*
X6460020Y4793630D03*
X6952480Y4639390D03*
X6784820Y4729450D03*
X6603740Y4276200D03*
X7201580Y5050400D03*
X6971620Y5474750D03*
X6832330Y5473780D03*
X6467690Y5081320D03*
X6856010Y5317250D03*
X7041160Y6150290D03*
X6571160Y5908850D03*
X6495220Y6118920D03*
X6724460Y7706210D03*
X7074010Y7454950D03*
X6898830Y7464770D03*
X6494520Y7862650D03*
X6685150Y8528530D03*
X7111400Y8442020D03*
X6942620Y8839300D03*
X6559270Y9566810D03*
X6919900Y9726880D03*
X6933790Y10349080D03*
X6789740Y10837100D03*
X6617210Y10925500D03*
X7899070Y1635790D03*
X7714880Y2409950D03*
X7375900Y1969880D03*
X7486900Y1782570D03*
X7530240Y2819280D03*
X7900990Y2687280D03*
X7300800Y3208290D03*
X7624990Y3493310D03*
X7259910Y3963930D03*
X7265950Y4611600D03*
X7311190Y4962260D03*
X7320330Y5099910D03*
X7332100Y5627850D03*
X7261250Y7012550D03*
X7832010Y7543350D03*
X7310810Y8162260D03*
X7490820Y8104380D03*
X7831620Y9260610D03*
X7526710Y10540850D03*
X7289730Y10521060D03*
X7900990Y10568350D03*
X7841900Y11364490D03*
X8464030Y1579350D03*
X8093230Y1034430D03*
X8519350Y999760D03*
X8464030Y1958970D03*
X8608460Y2557980D03*
X8290410Y3980550D03*
X8367590Y3309450D03*
X8716250Y3983660D03*
X8705170Y4461720D03*
X8098360Y4291380D03*
X8384090Y4131540D03*
X8210550Y4289220D03*
X8060530Y5386190D03*
X8557020Y5230510D03*
X8071520Y4923800D03*
X8687670Y5101660D03*
X8557020Y6055570D03*
X8652090Y6230250D03*
X8659310Y5672940D03*
X8197200Y6568970D03*
X8097390D03*
X8071240Y7703220D03*
X8379060Y7546110D03*
X8058740Y8515140D03*
X8647000Y8105570D03*
X8212620Y9247510D03*
X8337870Y8802260D03*
X8265920Y9727800D03*
X8143630Y9513880D03*
X9430200Y1882560D03*
X9145500Y3208300D03*
X9456570Y3156030D03*
X9460520Y2999300D03*
X9101460Y3629520D03*
X9453590Y3316200D03*
X8810930Y4289220D03*
X9371140Y4671270D03*
X9371150Y4498440D03*
X9372540Y5101660D03*
X9352930Y6230250D03*
X9357280Y5672940D03*
X9370660Y6639700D03*
X9369570Y6806910D03*
X9428340Y7520290D03*
X9466110Y10060800D03*
X8813090Y9517150D03*
X9149370Y11617120D03*
X9923500Y2217620D03*
X9710810Y4673160D03*
X9711200Y4501440D03*
X9547120Y4498440D03*
X9547110Y4671270D03*
X9857600Y5228820D03*
X9856840Y4990470D03*
X9857700Y5954820D03*
X9858140Y5669460D03*
X9715620Y6639700D03*
X9714840Y6810250D03*
X9542610Y6808380D03*
X9543060Y6639690D03*
X9528560Y8265120D03*
X9680700Y10542140D03*
X9677280Y10724170D03*
X10866550Y3329390D03*
G54D11*
X283600Y8592250D03*
X283700Y9342350D03*
X283600Y9092250D03*
Y8842250D03*
X600410Y3366540D03*
Y3566540D03*
X558440Y7735970D03*
Y7989970D03*
X1598840Y10065570D03*
Y9811570D03*
X5651730Y1079600D03*
X5905730D03*
X9441920Y652810D03*
X9443730Y1198720D03*
Y1452720D03*
X9691920Y652810D03*
X10659930Y5499980D03*
Y5949980D03*
G54D20*
X1263530Y8293060D03*
Y8103060D03*
X1480530Y8293060D03*
G54D12*
X600000Y600000D03*
Y11150000D03*
X10560000Y600000D03*
Y11150000D03*
G54D30*
X4907490Y1165220D03*
X4907680Y8138710D03*
X4907420Y7921670D03*
G54D21*
X1480430Y8103060D03*
G54D13*
X541350Y1721050D03*
X670300Y7002140D03*
X426750Y10205900D03*
X2564970Y3640800D03*
X3392320Y5535470D03*
X3263380Y7969180D03*
X3754060Y3991790D03*
X4189220Y8128570D03*
X5150900Y5542640D03*
X7006250Y9414430D03*
X9162310Y9632840D03*
X10079190Y1087110D03*
G54D31*
X4450910Y2470030D03*
Y2216030D03*
Y1962030D03*
Y2724030D03*
X5530910Y1962030D03*
Y2216030D03*
Y2470030D03*
Y2724030D03*
G54D22*
X1279990Y8783820D03*
Y8848820D03*
Y8913820D03*
X1469990D03*
Y8848820D03*
Y8783820D03*
X6243810Y4213470D03*
Y4278470D03*
Y4343470D03*
X6433810D03*
Y4278470D03*
Y4213470D03*
X6903430Y5626310D03*
Y5691310D03*
Y5756310D03*
X7093430D03*
Y5691310D03*
Y5626310D03*
X8421480Y4224220D03*
Y4289220D03*
Y4354220D03*
X8611480D03*
Y4289220D03*
Y4224220D03*
X8284060Y8040570D03*
Y8105570D03*
Y8170570D03*
X8474060D03*
Y8105570D03*
Y8040570D03*
G54D40*
X5103660Y6831320D03*
X5153660D03*
X5203660D03*
X5253660D03*
X5303660D03*
X5353660D03*
X5403660D03*
X5453660D03*
X5503660D03*
X5553660D03*
X5603660D03*
X5653660D03*
Y7661320D03*
X5603660D03*
X5553660D03*
X5503660D03*
X5453660D03*
X5403660D03*
X5353660D03*
X5303660D03*
X5253660D03*
X5203660D03*
X5153660D03*
X5103660D03*
G54D23*
X1478650Y10787740D03*
X1732650D03*
Y11041740D03*
X1478650D03*
X1986650Y10787740D03*
X2240650D03*
X2494650D03*
Y11041740D03*
X2240650D03*
X1986650D03*
X2748650Y10787740D03*
X3002650D03*
X3256650D03*
Y11041740D03*
X3002650D03*
X2748650D03*
X3510650Y10787740D03*
X3764650D03*
Y11041740D03*
X3510650D03*
X6273730Y983250D03*
G54D14*
X599720Y2668010D03*
Y2878010D03*
X5651740Y1569600D03*
Y1359600D03*
X5625970Y3222420D03*
Y3432420D03*
G54D41*
X5618760Y8455700D03*
Y8695700D03*
G54D50*
X9581570Y7520590D03*
Y7425590D03*
Y7330590D03*
X9816570D03*
Y7425590D03*
Y7520590D03*
G54D32*
X4775220Y3221220D03*
X4794770Y4578300D03*
X5005220Y3221220D03*
X5235220D03*
X5254770Y4578300D03*
X5024770D03*
G54D24*
X2050000Y450000D03*
X2304000D03*
X2558000D03*
Y704000D03*
X2304000D03*
X2050000D03*
X2812000Y450000D03*
X3066000D03*
X3320000D03*
Y704000D03*
X3066000D03*
X2812000D03*
X3574000Y450000D03*
X3828000D03*
X4082000D03*
Y704000D03*
X3828000D03*
X3574000D03*
X4336000Y450000D03*
X4590000D03*
X4844000D03*
Y704000D03*
X4590000D03*
X4336000D03*
X5098000Y450000D03*
X5352000D03*
X5606000D03*
Y704000D03*
X5352000D03*
X5098000D03*
X9973000Y2440000D03*
X10227000D03*
X9973000Y3202000D03*
Y2948000D03*
Y2694000D03*
X10227000D03*
Y2948000D03*
Y3202000D03*
X9973000Y3456000D03*
X10227000D03*
G54D51*
X10394930Y5274980D03*
X10954930D03*
X10394930Y6164980D03*
X10954930D03*
G54D15*
X866920Y5456920D03*
Y5631920D03*
X995230Y7813730D03*
Y7988730D03*
X1006060Y9891940D03*
Y10066940D03*
X1261890Y1607450D03*
Y1782450D03*
X2505210Y1746270D03*
X2458580Y2245460D03*
Y2420460D03*
X2505210Y1921270D03*
X2672610Y2873460D03*
Y2698460D03*
X2149040Y6023590D03*
Y5848590D03*
X3000220Y2876320D03*
Y2701320D03*
X3074180Y5442140D03*
Y5617140D03*
X3787310Y2253700D03*
Y2428700D03*
X4613980Y6293980D03*
Y6118980D03*
X4466300Y7748470D03*
X4678540Y7747130D03*
X4466300Y7923470D03*
X4678540Y7922130D03*
X4507440Y9234590D03*
X4736730D03*
X4507440Y9409590D03*
X4736730D03*
X4886600Y10796920D03*
X4632390Y10796830D03*
X4886600Y10971920D03*
X4632390Y10971830D03*
X5257450Y963110D03*
Y1138110D03*
X5054560Y9238270D03*
X5299140Y9238260D03*
X5534170Y9238240D03*
X5054560Y9413270D03*
X5299140Y9413260D03*
X5534170Y9413240D03*
X5299260Y10797640D03*
X5549210Y10798720D03*
X5299260Y10972640D03*
X5549210Y10973720D03*
X6132980Y1635000D03*
Y1460000D03*
X5905830Y3703540D03*
Y3878540D03*
X6289440Y6293920D03*
Y6118920D03*
X6209410Y7255060D03*
Y7430060D03*
X5805610Y9734360D03*
Y9909360D03*
X6883680Y3203260D03*
X7130750Y3203270D03*
X6516690Y3203240D03*
X6883680Y3378260D03*
X7130750Y3378270D03*
X6516690Y3378240D03*
X6789070Y3999940D03*
X6786940Y4562500D03*
Y4387500D03*
X6789070Y4174940D03*
X6785600Y4869870D03*
Y5044870D03*
X6649030Y5487400D03*
Y5662400D03*
X6509150Y7170930D03*
Y7345930D03*
X7774440Y3203050D03*
X7539190Y3203070D03*
X7774440Y3378050D03*
X7539190Y3378070D03*
X8069970Y3203570D03*
Y3378570D03*
X8624910Y7530230D03*
Y7355230D03*
X9323320Y2471140D03*
Y2646140D03*
X8929950Y3993890D03*
Y3818890D03*
X9682960Y2771670D03*
Y2946670D03*
X9544540Y7809840D03*
Y7984840D03*
G54D33*
X5014770Y4012500D03*
X5015220Y3787020D03*
G54D42*
X5170480Y9777590D03*
X5297480D03*
X5424480D03*
X5551480D03*
Y10503590D03*
X5424480D03*
X5297480D03*
X5170480D03*
G54D16*
X866600Y6022890D03*
X1733600D03*
X5023330Y6290300D03*
X5890330D03*
G54D52*
X10384930Y5559980D03*
Y5639980D03*
Y5719980D03*
Y5799980D03*
Y5879980D03*
G54D34*
X4334790Y4244960D03*
X5881730Y2660230D03*
G54D43*
X6454970Y1643850D03*
Y1516850D03*
Y1389850D03*
Y1262850D03*
Y2913850D03*
Y2786850D03*
Y2659850D03*
Y2532850D03*
X7334970Y1262850D03*
Y1389850D03*
Y1516850D03*
Y1643850D03*
Y2532850D03*
Y2659850D03*
Y2786850D03*
Y2913850D03*
X7512380Y5500850D03*
X7862380D03*
X7511620Y5226910D03*
Y5099910D03*
Y4972910D03*
X7861620D03*
Y5099910D03*
Y5226910D03*
X7512380Y5754850D03*
Y5627850D03*
X7862380D03*
Y5754850D03*
X8094840Y1643850D03*
Y1516850D03*
Y1389850D03*
Y1262850D03*
Y2913850D03*
Y2786850D03*
Y2659850D03*
Y2532850D03*
X8974840Y1262850D03*
Y1389850D03*
Y1516850D03*
Y1643850D03*
Y2532850D03*
Y2659850D03*
Y2786850D03*
Y2913850D03*
X8852450Y5228660D03*
Y5101660D03*
Y4974660D03*
X9202450D03*
Y5101660D03*
Y5228660D03*
X8844070Y5545940D03*
X9194070D03*
X8844230Y6230250D03*
Y6103250D03*
X9194230D03*
Y6230250D03*
X8844070Y5799940D03*
Y5672940D03*
X9194070D03*
Y5799940D03*
X8844230Y6357250D03*
X9194230D03*
G54D25*
X2324410Y6337000D03*
X2374410D03*
X2424410D03*
X2474410D03*
X2524410D03*
X2574410D03*
Y7487000D03*
X2524410D03*
X2474410D03*
X2424410D03*
X2374410D03*
X2324410D03*
X2624410Y6337000D03*
X2674410D03*
X2724410D03*
X2774410D03*
X2824410D03*
X2874410D03*
X2924410D03*
X2974410D03*
X3024410D03*
X3074410D03*
Y7487000D03*
X3024410D03*
X2974410D03*
X2924410D03*
X2874410D03*
X2824410D03*
X2774410D03*
X2724410D03*
X2674410D03*
X2624410D03*
G54D53*
G01X1134440Y11704360D02*
X1191330D01*
G01X1162890D02*
Y11513860D01*
G01X1134440D02*
X1191330D01*
G01X1313090D02*
Y11640860D01*
G01Y11609110D02*
X1322570Y11624980D01*
X1336800Y11637680D01*
X1355760Y11640860D01*
X1372350Y11637680D01*
X1386580Y11624980D01*
X1393690Y11602760D01*
Y11513860D01*
G01X1543890Y11704360D02*
Y11513860D01*
G01X1510700Y11640860D02*
X1577080D01*
G01X1698830Y11599580D02*
X1774690D01*
X1767580Y11621810D01*
X1755730Y11634510D01*
X1739130Y11640860D01*
X1722540Y11637680D01*
X1708310Y11628160D01*
X1698830Y11605930D01*
X1694090Y11586880D01*
Y11567840D01*
X1698830Y11548780D01*
X1710680Y11529730D01*
X1724910Y11517030D01*
X1741500Y11513860D01*
X1758100Y11520210D01*
X1774690Y11539250D01*
G01X1891700Y11513860D02*
Y11640860D01*
G01Y11615460D02*
X1903550Y11628160D01*
X1915410Y11637680D01*
X1932000Y11640860D01*
X1943850Y11637680D01*
X1958080Y11628160D01*
G01X2101170Y11513860D02*
Y11675790D01*
X2105910Y11691660D01*
X2115390Y11701190D01*
X2129610Y11704360D01*
X2143840Y11698010D01*
X2150950Y11682130D01*
G01X2122500Y11628160D02*
X2075090D01*
G01X2234770Y11450360D02*
X2377010D01*
G01X2434750Y11513860D02*
Y11704360D01*
X2496390Y11545610D01*
X2558030Y11704360D01*
Y11513860D01*
G01X2686890D02*
X2703480Y11517030D01*
X2722450Y11526560D01*
X2734300Y11542430D01*
X2739040Y11564660D01*
X2734300Y11586880D01*
X2720080Y11605930D01*
X2698740Y11615460D01*
X2675040D01*
X2660810Y11621810D01*
X2648960Y11637680D01*
X2644220Y11659910D01*
X2651330Y11682130D01*
X2667920Y11698010D01*
X2686890Y11704360D01*
X2705850Y11698010D01*
X2722450Y11682130D01*
X2729560Y11659910D01*
X2724820Y11637680D01*
X2712970Y11621810D01*
X2698740Y11615460D01*
X2675040D01*
X2653700Y11605930D01*
X2639480Y11586880D01*
X2634740Y11564660D01*
X2639480Y11542430D01*
X2651330Y11526560D01*
X2670300Y11517030D01*
X2686890Y11513860D01*
G01X3246180Y11641010D02*
X3337770Y11518310D01*
G01X3244450Y11718770D02*
Y11518310D01*
G01X3080280Y11711860D02*
Y11520040D01*
G01X3251360Y11641010D02*
X3256550D01*
X3334310Y11718770D01*
G01X3080280Y11715320D02*
X3180520D01*
X3182240Y11717040D01*
G01X3736960Y11518320D02*
X3776710D01*
Y11482030D01*
G01X3619450Y11725690D02*
Y11520050D01*
X3621180Y11518320D01*
X3736960D01*
X3738690Y11520050D01*
Y11723960D01*
G01X3412080D02*
Y11723950D01*
X3477740Y11658290D01*
X3539950Y11720500D01*
Y11723960D01*
X3543410Y11720500D01*
Y11516580D01*
G01X3408620Y11723960D02*
Y11516580D01*
G01X3890890Y11508890D02*
X3894110Y11511000D01*
Y11515240D01*
X3890890Y11517350D01*
X3887670Y11515240D01*
Y11511000D01*
X3890890Y11508890D01*
G01X4080260Y11524220D02*
Y11714720D01*
X3992540Y11578200D01*
X4111080D01*
G01X4242310Y11524220D02*
Y11714720D01*
X4213860Y11676620D01*
G01Y11524220D02*
X4270750D01*
G01X4432810D02*
Y11714720D01*
X4404360Y11676620D01*
G01Y11524220D02*
X4461250D01*
G01X4578270Y11603590D02*
X4594860Y11625820D01*
X4609090Y11638520D01*
X4628050Y11644870D01*
X4644650Y11638520D01*
X4656500Y11625820D01*
X4665980Y11606770D01*
X4668350Y11584540D01*
X4665980Y11565490D01*
X4656500Y11546440D01*
X4642270Y11530570D01*
X4625680Y11524220D01*
X4606720Y11530570D01*
X4590120Y11549610D01*
X4580640Y11578200D01*
X4578270Y11609940D01*
X4583010Y11651220D01*
X4590120Y11673450D01*
X4601970Y11695670D01*
X4618570Y11711550D01*
X4635160Y11714720D01*
X4651760Y11708370D01*
X4663610Y11692490D01*
G01X4842260Y11524220D02*
Y11714720D01*
X4754540Y11578200D01*
X4873080D01*
G01X4959270Y11603590D02*
X4975860Y11625820D01*
X4990090Y11638520D01*
X5009050Y11644870D01*
X5025650Y11638520D01*
X5037500Y11625820D01*
X5046980Y11606770D01*
X5049350Y11584540D01*
X5046980Y11565490D01*
X5037500Y11546440D01*
X5023270Y11530570D01*
X5006680Y11524220D01*
X4987720Y11530570D01*
X4971120Y11549610D01*
X4961640Y11578200D01*
X4959270Y11609940D01*
X4964010Y11651220D01*
X4971120Y11673450D01*
X4982970Y11695670D01*
X4999570Y11711550D01*
X5016160Y11714720D01*
X5032760Y11708370D01*
X5044610Y11692490D01*
G01X5194810Y11517870D02*
X5190070Y11521050D01*
Y11527390D01*
X5194810Y11530570D01*
X5199550Y11527390D01*
Y11521050D01*
X5194810Y11517870D01*
G01X5340270Y11603590D02*
X5356860Y11625820D01*
X5371090Y11638520D01*
X5390050Y11644870D01*
X5406650Y11638520D01*
X5418500Y11625820D01*
X5427980Y11606770D01*
X5430350Y11584540D01*
X5427980Y11565490D01*
X5418500Y11546440D01*
X5404270Y11530570D01*
X5387680Y11524220D01*
X5368720Y11530570D01*
X5352120Y11549610D01*
X5342640Y11578200D01*
X5340270Y11609940D01*
X5345010Y11651220D01*
X5352120Y11673450D01*
X5363970Y11695670D01*
X5380570Y11711550D01*
X5397160Y11714720D01*
X5413760Y11708370D01*
X5425610Y11692490D01*
G01X5575810Y11714720D02*
X5556840Y11708370D01*
X5542620Y11692490D01*
X5533140Y11673450D01*
X5526030Y11648040D01*
X5523660Y11619470D01*
X5526030Y11590890D01*
X5533140Y11565490D01*
X5542620Y11546440D01*
X5556840Y11530570D01*
X5575810Y11524220D01*
X5594770Y11530570D01*
X5609000Y11546440D01*
X5618480Y11565490D01*
X5625590Y11590890D01*
X5627960Y11619470D01*
X5625590Y11648040D01*
X5618480Y11673450D01*
X5609000Y11692490D01*
X5594770Y11708370D01*
X5575810Y11714720D01*
G01X5766310Y11524220D02*
X5782900Y11527390D01*
X5801870Y11536920D01*
X5813720Y11552790D01*
X5818460Y11575020D01*
X5813720Y11597240D01*
X5799500Y11616290D01*
X5778160Y11625820D01*
X5754460D01*
X5740230Y11632170D01*
X5728380Y11648040D01*
X5723640Y11670270D01*
X5730750Y11692490D01*
X5747340Y11708370D01*
X5766310Y11714720D01*
X5785270Y11708370D01*
X5801870Y11692490D01*
X5808980Y11670270D01*
X5804240Y11648040D01*
X5792390Y11632170D01*
X5778160Y11625820D01*
X5754460D01*
X5733120Y11616290D01*
X5718900Y11597240D01*
X5714160Y11575020D01*
X5718900Y11552790D01*
X5730750Y11536920D01*
X5749720Y11527390D01*
X5766310Y11524220D01*
G01X5956810Y11517870D02*
X5952070Y11521050D01*
Y11527390D01*
X5956810Y11530570D01*
X5961550Y11527390D01*
Y11521050D01*
X5956810Y11517870D01*
G01X6147310Y11714720D02*
X6128340Y11708370D01*
X6114120Y11692490D01*
X6104640Y11673450D01*
X6097530Y11648040D01*
X6095160Y11619470D01*
X6097530Y11590890D01*
X6104640Y11565490D01*
X6114120Y11546440D01*
X6128340Y11530570D01*
X6147310Y11524220D01*
X6166270Y11530570D01*
X6180500Y11546440D01*
X6189980Y11565490D01*
X6197090Y11590890D01*
X6199460Y11619470D01*
X6197090Y11648040D01*
X6189980Y11673450D01*
X6180500Y11692490D01*
X6166270Y11708370D01*
X6147310Y11714720D01*
G01X6292770Y11682970D02*
X6306990Y11702020D01*
X6323590Y11711550D01*
X6342550Y11714720D01*
X6366260Y11708370D01*
X6382850Y11692490D01*
X6387590Y11673450D01*
X6385220Y11654390D01*
X6375740Y11638520D01*
X6328330Y11606770D01*
X6306990Y11584540D01*
X6292770Y11552790D01*
X6288030Y11524220D01*
X6387590D01*
G01X6528310Y11517870D02*
X6523570Y11521050D01*
Y11527390D01*
X6528310Y11530570D01*
X6533050Y11527390D01*
Y11521050D01*
X6528310Y11517870D01*
G01X6718810Y11524220D02*
Y11714720D01*
X6690360Y11676620D01*
G01Y11524220D02*
X6747250D01*
G01X6864270Y11603590D02*
X6880860Y11625820D01*
X6895090Y11638520D01*
X6914050Y11644870D01*
X6930650Y11638520D01*
X6942500Y11625820D01*
X6951980Y11606770D01*
X6954350Y11584540D01*
X6951980Y11565490D01*
X6942500Y11546440D01*
X6928270Y11530570D01*
X6911680Y11524220D01*
X6892720Y11530570D01*
X6876120Y11549610D01*
X6866640Y11578200D01*
X6864270Y11609940D01*
X6869010Y11651220D01*
X6876120Y11673450D01*
X6887970Y11695670D01*
X6904570Y11711550D01*
X6921160Y11714720D01*
X6937760Y11708370D01*
X6949610Y11692490D01*
G01X7099810Y11524220D02*
Y11714720D01*
X7071360Y11676620D01*
G01Y11524220D02*
X7128250D01*
G01X8238860Y6773040D02*
Y6676920D01*
X8197200Y6635260D01*
Y6568970D01*
G01X8063860Y6773040D02*
Y6673400D01*
X8097390Y6639870D01*
Y6568970D01*
G54D44*
X6135060Y2015660D03*
X6187830Y3865380D03*
G54D17*
X872000Y8423940D03*
Y8358940D03*
Y8293940D03*
X1052000D03*
Y8423940D03*
X1599100Y9329960D03*
X1779100D03*
X1599100Y9459960D03*
Y9394960D03*
X1779100Y9459960D03*
X4875430Y8581480D03*
Y8776480D03*
Y8711480D03*
Y8646480D03*
X5320430Y8581480D03*
Y8646480D03*
Y8711480D03*
Y8776480D03*
G54D35*
X4334790Y4544960D03*
X5881730Y2960230D03*
G54D26*
X2124410Y7037000D03*
Y6987000D03*
Y6937000D03*
Y6887000D03*
Y6837000D03*
Y6787000D03*
Y6737000D03*
Y6687000D03*
Y6637000D03*
Y6587000D03*
Y6537000D03*
Y7287000D03*
Y7237000D03*
Y7187000D03*
Y7137000D03*
Y7087000D03*
X3274410Y6537000D03*
Y6587000D03*
Y6637000D03*
Y6687000D03*
Y6737000D03*
Y6787000D03*
Y6837000D03*
Y6887000D03*
Y6937000D03*
Y6987000D03*
Y7037000D03*
Y7087000D03*
Y7137000D03*
Y7187000D03*
Y7237000D03*
Y7287000D03*
G54D54*
G01X872000Y8423940D02*
X704460D01*
X261770Y7981250D01*
Y4665080D01*
X1260340Y3666510D01*
Y2106580D01*
X1290780Y2076140D01*
X1836990D01*
X1973090Y2212240D01*
X2055910D01*
X2101060Y2257390D01*
Y2365580D01*
G01X2124410Y6687000D02*
X2124220Y6686810D01*
X1853560D01*
X1657140Y6490390D01*
X1656180D01*
X1188680Y6022890D01*
X866600D01*
G01X967920Y6537520D02*
X1552030D01*
G01X1089010Y7086220D02*
X1089790Y7087000D01*
X2124410D01*
G01X2283320Y1239390D02*
X2201990D01*
X1841060Y1600320D01*
Y1787980D01*
G01X2282090Y1102600D02*
X2221700D01*
X1776060Y1548240D01*
Y1787980D01*
G01X1646060D02*
X1646780Y1787260D01*
Y1362350D01*
X1987850Y1021280D01*
Y1020960D01*
X2304000Y704810D01*
Y704000D01*
G01X2050000D02*
Y806310D01*
X1581060Y1275250D01*
Y1787980D01*
G01X2812000Y704000D02*
Y598500D01*
X2789890Y576390D01*
X2458450D01*
X2431000Y603840D01*
Y776210D01*
X1711060Y1496150D01*
Y1787980D01*
G01X1841060Y2365580D02*
Y4980420D01*
X2874870Y6014230D01*
Y6336540D01*
X2874410Y6337000D01*
G01X2674410D02*
Y5920110D01*
X1711060Y4956760D01*
Y2365580D01*
G01X2474410Y6337000D02*
Y5826470D01*
X1646060Y4998120D01*
Y2365580D01*
G01X1711060Y1787980D02*
X1709900Y1789140D01*
Y1920050D01*
X1679900Y1950050D01*
X1291890D01*
X1261890Y1920050D01*
Y1782450D01*
G01X1776060Y2365580D02*
Y2202970D01*
G01X2124410Y6637000D02*
X1899550D01*
X1733600Y6471050D01*
Y6022890D01*
G01X2124410Y6887000D02*
X1821540D01*
X1765350Y6830810D01*
Y6829020D01*
G01X1531290Y6737000D02*
X2124410D01*
G01Y6937000D02*
X1681920D01*
X1621140Y6876220D01*
Y6841660D01*
G01X1297860Y6945500D02*
X1389360Y7037000D01*
X2124410D01*
G01X1416670Y6843930D02*
X1559740Y6987000D01*
X2124410D01*
G01X2240650Y10787740D02*
Y8477290D01*
X1935650Y8172290D01*
Y7831850D01*
X1802730Y7698930D01*
Y7187760D01*
X1853490Y7137000D01*
X2124410D01*
G01X1986650Y10787740D02*
Y8402410D01*
X1752470Y8168230D01*
Y7804190D01*
X1531290Y7583010D01*
Y7192460D01*
G01X1713670Y7290400D02*
Y7434110D01*
G01X1870120Y8689700D02*
Y9308010D01*
X1848170Y9329960D01*
X1779100D01*
G01X1469990Y8913820D02*
X1553140D01*
X1621700Y8982380D01*
G01X1469990Y8783820D02*
X1504100D01*
X1604460Y8683460D01*
G01X1599100Y9329960D02*
Y9203670D01*
G01X3256650Y10787740D02*
Y10787870D01*
X3129990Y10914530D01*
X1320220D01*
X1290780Y10885090D01*
Y10113410D01*
X1592620Y9811570D01*
X1598840D01*
G01X2558000Y704000D02*
Y791280D01*
X2411490Y937790D01*
Y1114920D01*
X2936560Y1639990D01*
Y1787610D01*
X2936190Y1787980D01*
G01X2285780Y1358930D02*
X2195180D01*
X1907600Y1646510D01*
Y1786440D01*
X1906060Y1787980D01*
G01X3320000Y704000D02*
X3319980D01*
X3193450Y577470D01*
X2972660D01*
X2938780Y611350D01*
Y767560D01*
X2859750Y846590D01*
X2859740D01*
X2608660Y1097670D01*
X2544600D01*
G01X3024410Y6337000D02*
Y5857190D01*
X2036060Y4868840D01*
Y2365580D01*
G01X5098000Y704000D02*
Y705590D01*
X4907400Y896190D01*
Y896540D01*
X4564760Y1239180D01*
X4125790D01*
X3857010Y1507960D01*
Y2012380D01*
X3749960Y2119430D01*
X1997800D01*
X1970660Y2092290D01*
Y1788380D01*
X1971060Y1787980D01*
G01X2974410Y6337000D02*
Y5909700D01*
X1971060Y4906350D01*
Y2365580D01*
G01X2924410Y6337000D02*
Y5964130D01*
X1906060Y4945780D01*
Y2365580D01*
G01X2505210Y1921270D02*
X2129240D01*
X2101060Y1893090D01*
Y1787980D01*
G01X2458580Y2245460D02*
X2357130D01*
X2320450Y2208780D01*
X2199620D01*
X2166660Y2241740D01*
Y2364980D01*
X2166060Y2365580D01*
G01X3261190Y1787980D02*
Y2026380D01*
X3239800Y2047770D01*
X2057970D01*
X2036580Y2026380D01*
Y1788500D01*
X2036060Y1787980D01*
G01X2437990Y4937350D02*
Y4937340D01*
X3196190Y4179140D01*
Y2365580D01*
G01X2560620Y4674830D02*
X2562550D01*
X3131190Y4106190D01*
Y2365580D01*
G01X2437990Y4937350D02*
X2709490D01*
X2709610Y4937470D01*
G01X2322310Y5903100D02*
X2324410Y5905200D01*
Y6337000D01*
G01X2624410D02*
Y6240900D01*
X2568280Y6184770D01*
G01X6243810Y4343470D02*
X6147560D01*
X6101700Y4389330D01*
X5737620D01*
X3815710Y6311240D01*
X3344340D01*
X3047330Y6608250D01*
X2489730D01*
X2374750Y6493270D01*
Y6337340D01*
X2374410Y6337000D01*
G01X2530110Y6814010D02*
Y6812280D01*
X2656260Y6686130D01*
X3273540D01*
X3274410Y6687000D01*
G01X1940530Y6537520D02*
X2123890D01*
X2124410Y6537000D01*
G01Y6587000D02*
X2308170D01*
X2338170Y6617000D01*
Y6941480D01*
X2338350Y6941660D01*
G01X2124410Y7287000D02*
X2238280D01*
X2337920Y7187360D01*
Y6942090D01*
X2338350Y6941660D01*
G01X2124410Y6837000D02*
Y6787000D01*
G01X1932120Y6805610D02*
Y6807520D01*
X1961600Y6837000D01*
X2124410D01*
G01X2574410Y6337000D02*
X2574040Y6337370D01*
Y6456870D01*
X2619070Y6501900D01*
X2705300D01*
G01X2476310Y7733040D02*
X2524220Y7685130D01*
Y7487190D01*
X2524410Y7487000D01*
G01X2494650Y10787740D02*
Y8174840D01*
X1908000Y7588190D01*
X1904550D01*
G01X2314710Y7725370D02*
Y7720750D01*
X2374410Y7661050D01*
Y7487000D01*
G01X2124410Y7187000D02*
X1992070D01*
X1888670Y7290400D01*
G01D02*
Y7403520D01*
X2012130Y7526980D01*
X2119610D01*
X2313360Y7333230D01*
X2371200D01*
X2374750Y7329680D01*
G01D02*
X2397020Y7351950D01*
X2548480D01*
X2574410Y7377880D01*
Y7487000D01*
G01X2124410Y7237000D02*
X2041980D01*
X2000140Y7278840D01*
Y7356520D01*
X2062410Y7418790D01*
G01X2624410Y7487000D02*
Y7294130D01*
X2594410Y7264130D01*
X2501230D01*
G01X2480150Y7987900D02*
X2669790D01*
X2724410Y7933280D01*
Y7487000D01*
G01X3001190Y1787980D02*
Y1527710D01*
X2916000Y1442520D01*
X2916590Y1441930D01*
Y1068250D01*
X3066000Y918840D01*
Y704000D01*
G01X3131190Y1787980D02*
Y1090190D01*
X3264290Y957090D01*
X3828910D01*
X4082000Y704000D01*
G01X3574000D02*
Y791690D01*
X3503270Y862420D01*
X3236930D01*
X3065540Y1033830D01*
Y1787330D01*
X3066190Y1787980D01*
G01X3196190D02*
Y1602320D01*
G01X4336000Y704000D02*
X4012690Y1027310D01*
X3308980D01*
X3261190Y1075100D01*
Y1787980D01*
G01X3326190D02*
Y1604950D01*
G01X3066190Y2200760D02*
X3065890Y2201060D01*
X2689010D01*
X2672610Y2217460D01*
Y2698460D01*
G01X3066190Y2365580D02*
Y2200760D01*
G01X3001190Y2365580D02*
Y2523130D01*
G01X3261190Y1787980D02*
X3260450Y1787240D01*
G01X4248770Y5487290D02*
X3326190Y4564710D01*
Y2365580D01*
G01X3261190D02*
Y2196480D01*
G01X3001190Y2523130D02*
Y2700350D01*
X3000220Y2701320D01*
G01X3074180Y5442140D02*
Y5210540D01*
X3073360Y5209720D01*
G01X2824410Y6337000D02*
Y6481780D01*
X2886690Y6544060D01*
X3021450D01*
X3319420Y6246090D01*
X3773560D01*
X5858350Y4161300D01*
X6101700D01*
X6153870Y4213470D01*
X6243810D01*
G01X3074410Y6337000D02*
Y5617370D01*
X3074180Y5617140D01*
G01X3274410Y6637000D02*
X3386490D01*
X3419060Y6669570D01*
X3610990D01*
X3640990Y6639570D01*
Y6566700D01*
G01X3979910Y6737550D02*
X3274960D01*
X3274410Y6737000D01*
G01X4876120Y8972310D02*
X4112950D01*
X3879740Y8739100D01*
Y7256700D01*
X3610040Y6987000D01*
X3274410D01*
G01Y7037000D02*
X3563580D01*
X3810630Y7284050D01*
Y9013870D01*
X4386080Y9589320D01*
X4482850D01*
X4633010Y9739480D01*
Y9871820D01*
G01X3274410Y6787000D02*
X3505840D01*
X3635580Y6916740D01*
X3635590D01*
X3949850Y7231000D01*
Y8703580D01*
X4157750Y8911480D01*
X4586000D01*
X4642170Y8855310D01*
Y8712080D01*
G01X2855550Y6887000D02*
X3274410D01*
G01X2734030Y6815740D02*
X2732300D01*
X2674410Y6873630D01*
Y7487000D01*
G01X3434390Y6426210D02*
Y6451130D01*
X3348520Y6537000D01*
X3274410D01*
G01Y6837000D02*
X3387220D01*
X3442060Y6891840D01*
G01X3274410Y6937000D02*
X3187080D01*
X3186980Y6936900D01*
X3144060D01*
X3070320Y7010640D01*
G01X3470800Y6568010D02*
X3451810Y6587000D01*
X3274410D01*
G01X3150800Y8693050D02*
X3074410Y8616660D01*
Y7487000D01*
G01X3258100Y9070530D02*
Y9068610D01*
X3024410Y8834920D01*
Y7487000D01*
G01X2830800Y8638430D02*
Y8282980D01*
X2924410Y8189370D01*
Y7487000D01*
G01X5534170Y9413240D02*
X5534450Y9413520D01*
X5862190D01*
X5961890Y9513220D01*
Y11132900D01*
X5881990Y11212800D01*
X4326410D01*
X4281350Y11167740D01*
X4281340D01*
X4205990Y11092390D01*
Y10352770D01*
X3432180Y9578960D01*
Y7315020D01*
X3404160Y7287000D01*
X3274410D01*
G01X3601100Y9413270D02*
Y7296140D01*
X3491960Y7187000D01*
X3274410D01*
G01X4755880Y10111200D02*
X4529510D01*
X3677740Y9259430D01*
Y7278890D01*
X3535850Y7137000D01*
X3274410D01*
G01X2674410Y7487000D02*
Y7611590D01*
X2636770Y7649230D01*
Y7788690D01*
G01X5551480Y10796450D02*
X5573930Y10774000D01*
X5680810D01*
X5716550Y10809740D01*
Y11076750D01*
X5670560Y11122740D01*
X4338310D01*
X4285850Y11070280D01*
Y10309930D01*
X3504760Y9528840D01*
Y7291790D01*
X3449970Y7237000D01*
X3274410D01*
G01X3914300Y10206240D02*
X3582510D01*
X2974410Y9598140D01*
Y7487000D01*
G01X2713920Y8092320D02*
X2715840D01*
X2811770Y7996390D01*
Y7788690D01*
G01X2748650Y10787740D02*
Y8387320D01*
G01X3700460Y862080D02*
X3767910D01*
X3828000Y801990D01*
Y704000D01*
G01X3400880Y1124860D02*
X4423610D01*
X4844000Y704470D01*
Y704000D01*
G01X3521190Y1787980D02*
X3522870Y1786300D01*
Y1550330D01*
X3552870Y1520330D01*
X3738890D01*
X3768890Y1550330D01*
Y1717770D01*
G01Y1915430D02*
X3420270D01*
X3390270Y1885430D01*
Y1788900D01*
X3391190Y1787980D01*
G01X3787310Y2253700D02*
X3663720D01*
X3618800Y2208780D01*
X3466910D01*
X3456140Y2219550D01*
Y2365530D01*
X3456190Y2365580D01*
G01X3391190D02*
Y2855340D01*
X4907930Y4372080D01*
Y4686330D01*
X5025780Y4804180D01*
G01X5652040Y4602260D02*
X5651870D01*
X3866950Y6387180D01*
X3702360D01*
X3640990Y6448550D01*
Y6566700D01*
G01X4474880Y6893760D02*
X4009910D01*
X3979910Y6863760D01*
Y6737550D01*
G01X5203660Y6831320D02*
X5203020Y6830680D01*
Y6692560D01*
X5077160Y6566700D01*
X3815990D01*
G01X4005900Y9411540D02*
Y9413050D01*
G01Y9411540D02*
X4259710Y9665350D01*
X4458730D01*
X4506010Y9712630D01*
Y9871820D01*
G01X5023330Y6290300D02*
X4617660D01*
X4613980Y6293980D01*
G01X4227690Y6165610D02*
Y6165600D01*
X4614750Y5778540D01*
X5486610D01*
X5666730Y5958660D01*
G01X4963660Y6971320D02*
X4712990D01*
X4643230Y6901560D01*
Y6901550D01*
X4634270Y6892590D01*
G01X4154910Y6737550D02*
X4627240D01*
X4628160Y6736630D01*
G01X4334990Y6646570D02*
X5068880D01*
X5153660Y6731350D01*
Y6831320D01*
G01X4963660Y7421320D02*
X4832580D01*
X4678540Y7575360D01*
Y7747130D01*
G01X4466300Y7748470D02*
Y7682200D01*
X4777180Y7371320D01*
X4963660D01*
G01X4825630Y7221320D02*
X4963660D01*
G01X4613470Y7305720D02*
X4619210Y7299980D01*
X4746970D01*
X4825630Y7221320D01*
G01X4436550Y7499260D02*
X4545770D01*
X4613470Y7431560D01*
Y7305720D01*
G01X4612510Y7097820D02*
X4719180D01*
X4825630Y7204270D01*
Y7221320D01*
G01X4963660Y7521320D02*
X4878290D01*
X4804190Y7595420D01*
G01X4678540Y7922130D02*
X4906960D01*
X4907420Y7921670D01*
G01X4907680Y8138710D02*
X4561320D01*
X4466390Y8043780D01*
Y7923560D01*
X4466300Y7923470D01*
G01X4643150Y8473080D02*
Y8500680D01*
X4788950Y8646480D01*
X4875430D01*
G01X4643150Y8473080D02*
Y8308240D01*
G01X4875430Y8776480D02*
Y8971620D01*
X4876120Y8972310D01*
G01X4875430Y8711480D02*
X4642770D01*
X4642170Y8712080D01*
G01X5297480Y9777590D02*
X5293320Y9781750D01*
Y10022880D01*
X5284500Y10031700D01*
X4645910D01*
X4633010Y10018800D01*
Y9871820D01*
G01X4760010Y10388820D02*
Y10115330D01*
X4755880Y10111200D01*
G01D02*
X5249200D01*
X5425290Y10287290D01*
Y10502780D01*
X5424480Y10503590D01*
G01X4887010Y10388820D02*
Y10206240D01*
G01X5536440Y4329920D02*
X5816200Y4050160D01*
X6258830D01*
X6422140Y4213470D01*
X6433810D01*
G01X5403660Y6831320D02*
Y6541190D01*
X5152770Y6290300D01*
X5023330D01*
G01X5253660Y6831320D02*
Y6979990D01*
G01X5453660Y6831320D02*
Y6547310D01*
X5710670Y6290300D01*
X5890330D01*
G01X5556560Y6985730D02*
X5553660Y6982830D01*
Y6831320D01*
G01D02*
Y6691510D01*
X5581760Y6663410D01*
X6029140D01*
X6059140Y6693410D01*
Y7009020D01*
G01X5603660Y6831320D02*
Y6926480D01*
X5637040Y6959860D01*
Y7275970D01*
X5641830Y7280760D01*
G01X5819160Y6503750D02*
X5677780D01*
X5503660Y6677870D01*
Y6831320D01*
G01X5353660D02*
Y6979250D01*
G01X5603660Y7661320D02*
Y7913060D01*
X5600620Y7916100D01*
G01X5403660Y7661320D02*
Y7753450D01*
X5398660Y7758450D01*
Y7758750D01*
X5381090Y7776320D01*
X5380790D01*
X5351260Y7805850D01*
Y7916100D01*
G01X5106740Y7071000D02*
X5106420Y7071320D01*
X4963660D01*
G01X5641830Y7280760D02*
Y7324910D01*
X5688240Y7371320D01*
X5793660D01*
G01X5526260Y7916100D02*
Y8026800D01*
X5465530Y8087530D01*
G01X5259750Y8133300D02*
Y8127030D01*
X5351260Y8035520D01*
Y7916100D01*
G01X6576910Y4387500D02*
X6567330Y4397080D01*
Y5224760D01*
X6419780Y5372310D01*
Y5786450D01*
X6455990Y5822660D01*
X6712630D01*
X7027680Y6137710D01*
X7028580D01*
X7041160Y6150290D01*
G01X5890330Y6290300D02*
X6285820D01*
X6289440Y6293920D01*
G01X6331640Y5998900D02*
X6095470D01*
G01X5793660Y7071320D02*
X5920300D01*
X5950320Y7041300D01*
G01X6509150Y7345930D02*
X6034600D01*
X5959990Y7271320D01*
X5793660D01*
G01Y7321320D02*
X5930940D01*
X5988640Y7379020D01*
Y7653200D01*
X6041650Y7706210D01*
X6724460D01*
G01X5793660Y7171320D02*
X6508760D01*
X6509150Y7170930D01*
G01X5793660Y7221320D02*
X6012390D01*
X6046130Y7255060D01*
X6209410D01*
G01X8557020Y6055570D02*
X7427560D01*
X6361810Y7121320D01*
X5793660D01*
G01X7385000Y654000D02*
Y666570D01*
X7168050Y883520D01*
Y1231180D01*
X7199720Y1262850D01*
X7334970D01*
G01X7258000Y400000D02*
Y702570D01*
X7108100Y852470D01*
Y1255180D01*
X7242770Y1389850D01*
X7334970D01*
G01X7004000Y400000D02*
Y709370D01*
X6941860Y771510D01*
Y1189250D01*
X6614260Y1516850D01*
X6454970D01*
G01X6877000Y654000D02*
X6877570Y654570D01*
Y1159260D01*
X6646980Y1389850D01*
X6454970D01*
G01X6883680Y3378260D02*
Y3555360D01*
X6882690Y3556350D01*
G01X7130750Y3378270D02*
Y3464740D01*
X7377000Y3710990D01*
Y4641670D01*
X7251050Y4767620D01*
X7111970D01*
X6921300Y4958290D01*
X6671340D01*
X6644270Y4985360D01*
Y5265040D01*
X6492200Y5417110D01*
Y5711550D01*
X6536140Y5755490D01*
X6902610D01*
X6903430Y5756310D01*
G01X6509150Y7345930D02*
X6643340D01*
X7256050Y6733220D01*
Y6512310D01*
X7445380Y6322980D01*
X8323850D01*
G01X7111400Y8036050D02*
X7231250D01*
X7261250Y8006050D01*
Y7012550D01*
G01X7766000Y400000D02*
X7702440D01*
X7505260Y597180D01*
Y706390D01*
X7570990Y772120D01*
Y1146360D01*
X7942160Y1517530D01*
X8094160D01*
X8094840Y1516850D01*
G01X7639000Y654000D02*
X7632610Y660390D01*
Y1118330D01*
X7902830Y1388550D01*
X8093540D01*
X8094840Y1389850D01*
G01X7746720Y1662510D02*
Y1499570D01*
X7510000Y1262850D01*
X7334970D01*
G01X7571720Y1662510D02*
Y1419840D01*
X7541730Y1389850D01*
X7334970D01*
G01X7539190Y3378070D02*
Y3459550D01*
X7569190Y3489550D01*
X7621230D01*
X7624990Y3493310D01*
G01X7774440Y3378050D02*
Y3498380D01*
X7450680Y3822140D01*
Y4678580D01*
X7390830Y4738430D01*
Y4738520D01*
X7201580Y4927770D01*
Y5050400D01*
G01X7311190Y4962260D02*
Y4935050D01*
X7525420Y4720820D01*
Y3850880D01*
X7782190Y3594110D01*
X8713450D01*
X8778590Y3528970D01*
Y2587890D01*
X8833630Y2532850D01*
X8974840D01*
G01X8325160Y5765560D02*
Y5650830D01*
X8083750Y5409420D01*
Y5409410D01*
X8060530Y5386190D01*
G01X8557020Y5230510D02*
X8850600D01*
X8852450Y5228660D01*
G01X8379060Y7546110D02*
Y8075500D01*
X8348990Y8105570D01*
X8284060D01*
G01X8474060D02*
X8647000D01*
G01X9428340Y7520290D02*
X9581270D01*
X9581570Y7520590D01*
G54D45*
X6570000Y252000D03*
X8835000D03*
X8837200Y6790230D03*
Y9055230D03*
G54D36*
X4791390Y4866370D03*
X4581390D03*
G54D18*
X918860Y8843050D03*
X743860D03*
X918790Y9341760D03*
X743790D03*
X1391890Y5606610D03*
X1216890D03*
X1888670Y7290400D03*
X1713670D03*
X1457580Y7838650D03*
X1282580D03*
X1458900Y8523380D03*
X1283900D03*
X1140170Y9341270D03*
X1315170D03*
X2435350Y1569520D03*
X2260350D03*
X2432700Y2619050D03*
X2257700D03*
X2636770Y7788690D03*
X2884610Y4937470D03*
X2709610D03*
X2811770Y7788690D03*
X3943890Y1717770D03*
X3768890D03*
X3943890Y1915430D03*
X3768890D03*
X3936430Y2615860D03*
X3761430D03*
X3640990Y6566700D03*
X3815990D03*
X3979910Y6737550D03*
X4154910D03*
X4612510Y7097820D03*
X4437510D03*
X4613470Y7305720D03*
X4438470D03*
X4643150Y8473080D03*
X4468150D03*
X4891430Y8392960D03*
X4876120Y8972310D03*
X4642170Y8712080D03*
X4467170D03*
X5618920Y8226900D03*
X5066430Y8392960D03*
X5680060Y7916200D03*
X5526260Y7916100D03*
X5351260D03*
X5051120Y8972310D03*
X5618910Y8932330D03*
X5960860Y2270840D03*
X6135860D03*
X6118310Y5079140D03*
X6293310D03*
X6234140Y7009020D03*
X6059140D03*
X5793920Y8226900D03*
X5855060Y7916200D03*
X5793910Y8932330D03*
X7082040Y3822560D03*
X6899010Y7625100D03*
X7074010D03*
X6685150Y8197320D03*
X6860150D03*
X6685870Y7999320D03*
X6860870D03*
X7989500Y995130D03*
X7814500D03*
X7746720Y1662510D03*
X7571720D03*
X7257040Y3822560D03*
X7990090Y3982030D03*
X7991500Y4568570D03*
X7900470Y7871900D03*
X7900760Y8324850D03*
X7898850Y8105680D03*
X8370100Y994490D03*
X8195100D03*
X8658150Y999760D03*
X8414270Y3983660D03*
X8589270D03*
X8165090Y3982030D03*
X8166500Y4568570D03*
X8323850Y6322980D03*
X8498850D03*
X8325160Y5765560D03*
X8500160D03*
X8238860Y6773040D03*
X8063860D03*
X8648920Y7859180D03*
X8473920D03*
X8075470Y7871900D03*
X8648920Y8358550D03*
X8473920D03*
X8075760Y8324850D03*
X8073850Y8105680D03*
X8833150Y999760D03*
X9530310Y5228820D03*
X9705310D03*
X9705430Y4990470D03*
X9530430D03*
X9530260Y5449780D03*
X9705260D03*
X9703850Y5669460D03*
X9528850D03*
X9526490Y5954820D03*
X9701490D03*
G54D27*
X3073360Y5039720D03*
G54D55*
G01X283600Y9092250D02*
X1023210D01*
X1201640Y8913820D01*
X1279990D01*
G01X283600Y8592250D02*
X993970D01*
X1185540Y8783820D01*
X1279990D01*
G01X743860Y8843050D02*
X284400D01*
X283600Y8842250D01*
G01X1052000Y8293940D02*
X1262650D01*
X1263530Y8293060D01*
G01X1100920Y8141460D02*
X1057820D01*
X995230Y8078870D01*
Y7988730D01*
G01X742790Y7989970D02*
X734370Y7998390D01*
Y8318940D01*
X774370Y8358940D01*
X872000D01*
G01X742790Y7989970D02*
X993990D01*
X995230Y7988730D01*
G01X558440Y7989970D02*
X742790D01*
G01X1138560Y8523380D02*
X1110730D01*
X1052000Y8464650D01*
Y8423940D01*
G01X853820Y8134540D02*
Y8275760D01*
X872000Y8293940D01*
G01X1098590Y8843050D02*
X1104360Y8848820D01*
X1279990D01*
G01X918860Y8843050D02*
X1098590D01*
G01X1516060Y1787980D02*
Y1618980D01*
G01Y2365580D02*
Y2520860D01*
G01X1581060Y2365580D02*
X1516060D01*
G01X1315170Y9341270D02*
Y9131050D01*
X1349800Y9096420D01*
X1698780D01*
X1745050Y9050150D01*
Y8336820D01*
X1701290Y8293060D01*
X1480530D01*
G01X1283900Y8523380D02*
X1138560D01*
G01X1599100Y9394960D02*
X1368860D01*
X1315170Y9341270D01*
G01X1469990Y8848820D02*
X1594310D01*
G01X1599100Y9459960D02*
Y9811310D01*
X1598840Y9811570D01*
G01X1779100Y9459960D02*
Y9583330D01*
G01X2231060Y2365580D02*
Y2592410D01*
X2257700Y2619050D01*
G01X2634130Y1569960D02*
X2746510D01*
X2806190Y1629640D01*
Y1787980D01*
G01X2871190Y2365580D02*
X2806190D01*
G01D02*
Y2515580D01*
G01X3768890Y1717770D02*
X3639020D01*
G01X3761430Y2615860D02*
Y2454580D01*
X3787310Y2428700D01*
G01X3521190Y2365580D02*
Y2576900D01*
X3561190Y2616900D01*
X3760390D01*
X3761430Y2615860D01*
G01X4875430Y8581480D02*
X4991700D01*
G01X4875430D02*
Y8408960D01*
X4891430Y8392960D01*
G01X5618760Y8455700D02*
X5618500Y8455440D01*
X5442540D01*
X5320430Y8577550D01*
Y8581480D01*
G01X5618760Y8455700D02*
Y8227060D01*
X5618920Y8226900D01*
G01X5618760Y8695700D02*
X5618020Y8694960D01*
X5459790D01*
X5411310Y8646480D01*
X5320430D01*
G01X5618760Y8695700D02*
Y8932180D01*
X5618910Y8932330D01*
G01X5320430Y8711480D02*
X5225290D01*
G01X5320430Y8776480D02*
X5378440D01*
X5442540Y8840580D01*
G01X6576910Y4387500D02*
X6546150Y4356740D01*
X6447080D01*
X6433810Y4343470D01*
G01X6243810Y4278470D02*
X6032720D01*
G01X6311520Y5526580D02*
X6287580Y5502640D01*
Y5500720D01*
X6089920Y5303060D01*
X5676030D01*
G01X5938830Y5979750D02*
X6009730Y5908850D01*
X6571160D01*
G01X6234140Y7009020D02*
X6350510D01*
X6377630Y6981900D01*
G01X6237750Y10300700D02*
Y8022380D01*
X6207120Y7991750D01*
X6059580D01*
G01X5793920Y8226900D02*
X5924010D01*
G01X5793910Y8932330D02*
X5919440D01*
G01X6412120Y10469330D02*
X6126610D01*
G01X6786940Y4387500D02*
X6576910D01*
G01X6786940D02*
X6919190D01*
X6953770Y4352920D01*
X7111600D01*
G01X6433810Y4213470D02*
X6557210D01*
X6595740Y4174940D01*
X6789070D01*
G01D02*
X6941070D01*
X6992050Y4225920D01*
X7111600D01*
G01X6433810Y4278470D02*
X6601470D01*
X6603740Y4276200D01*
G01X7094440Y5044840D02*
X7093430Y5045850D01*
Y5626310D01*
G01X7094440Y5044840D02*
X6785630D01*
X6785600Y5044870D01*
G01X7511620Y5226910D02*
X7161510D01*
X7159440Y5224840D01*
G01X6971620Y5474750D02*
X6949100D01*
X6904580Y5519270D01*
Y5625160D01*
X6903430Y5626310D01*
G01X6832330Y5473780D02*
X6816910D01*
X6785100Y5505590D01*
Y5682640D01*
X6793770Y5691310D01*
G01X6856010Y5317250D02*
X6734750D01*
X6649030Y5402970D01*
Y5487400D01*
G01X7029440Y5224840D02*
Y5279850D01*
X6992040Y5317250D01*
X6856010D01*
G01X7093430Y5756310D02*
X7510920D01*
X7512380Y5754850D01*
G01X6793770Y5691310D02*
X6677940D01*
X6649030Y5662400D01*
G01X6903430Y5691310D02*
X6793770D01*
G01X7093430D02*
X7268640D01*
X7332100Y5627850D01*
G01X7990090Y3982030D02*
X7910260D01*
X7879310Y4012980D01*
X7879000D01*
X7793230Y4098750D01*
X7671770D01*
X7671600Y4098920D01*
G01X8098360Y4400410D02*
X7923840D01*
X7876350Y4352920D01*
X7671600D01*
G01Y4225920D02*
X7876350D01*
X7929590Y4172680D01*
X8241820D01*
X8293360Y4224220D01*
X8421480D01*
G01X7671600Y4479920D02*
X7671950Y4480270D01*
X7831990D01*
X7920290Y4568570D01*
X7991500D01*
G01X9530260Y5449780D02*
X9354560D01*
X9291880Y5387100D01*
X8238990D01*
X8077460Y5225570D01*
X7862960D01*
X7861620Y5226910D01*
G01X7511620Y5099910D02*
X7320330D01*
G01X9526490Y5954820D02*
X9525240Y5956070D01*
X8207600D01*
X8006380Y5754850D01*
X7862380D01*
G01X7512380Y5627850D02*
X7332100D01*
G01X7671400Y8290050D02*
X7866690D01*
X7900760Y8324120D01*
Y8324850D01*
G01X7671400Y7909050D02*
X7671970Y7909620D01*
X7862750D01*
X7900470Y7871900D01*
G01X8519350Y999760D02*
X8658150D01*
G01X8705170Y4461720D02*
X8780380Y4536930D01*
X9052600D01*
X9203210Y4386320D01*
X10502840D01*
X10662230Y4226930D01*
Y2175090D01*
X10622240Y2135100D01*
X9739400D01*
X9682960Y2191540D01*
Y2771670D01*
G01X8098360Y4291380D02*
Y4400410D01*
G01X8421480Y4354220D02*
X8420180Y4352920D01*
X8287450D01*
X8239960Y4400410D01*
X8098360D01*
G01X8611480Y4354220D02*
X8720370D01*
X8763600Y4397450D01*
X9006130D01*
X9648510Y3755070D01*
X10337190D01*
X10458270Y3633990D01*
Y3238520D01*
X10422360Y3202610D01*
X10227610D01*
X10227000Y3202000D01*
G01X8384090Y4131540D02*
X8421480Y4168930D01*
Y4224220D01*
G01X8926370Y4181530D02*
X8764900D01*
X8722210Y4224220D01*
X8611480D01*
G01X8421480Y4289220D02*
X8210550D01*
G01X8611480D02*
X8810930D01*
G01X8852450Y5101660D02*
X8687670D01*
G01X8844070Y5799940D02*
X8843460Y5799330D01*
X8533930D01*
X8500160Y5765560D01*
G01X8844230Y6230250D02*
X8652090D01*
G01X8844070Y5672940D02*
X8659310D01*
G01X8844230Y6357250D02*
X8533120D01*
X8498850Y6322980D01*
G01X8071240Y7703220D02*
Y7867670D01*
X8075470Y7871900D01*
G01X8648920Y7859180D02*
Y7554240D01*
X8624910Y7530230D01*
G01X8473920Y8358550D02*
Y8170710D01*
X8474060Y8170570D01*
G01Y8040570D02*
Y7859320D01*
X8473920Y7859180D01*
G01X8058740Y8515140D02*
Y8341870D01*
X8075760Y8324850D01*
G01D02*
X8076920Y8323690D01*
X8192410D01*
X8284060Y8232040D01*
Y8170570D01*
G01X8075470Y7871900D02*
X8076200Y7871170D01*
X8213120D01*
X8284060Y7942110D01*
Y8040570D01*
G01X9239200Y7986230D02*
X8775970D01*
X8648920Y7859180D01*
G01X8284060Y8105570D02*
X8073960D01*
X8073850Y8105680D01*
G01X8985200Y8113230D02*
Y8113690D01*
X8740340Y8358550D01*
X8648920D01*
G01X9528560Y8265120D02*
X9528570D01*
X9726810Y8463360D01*
Y9688510D01*
X9562510Y9852810D01*
X8337350D01*
X8265920Y9781380D01*
Y9727800D01*
G01X8929950Y3993890D02*
Y4177950D01*
X8926370Y4181530D01*
G01X9973000Y3202000D02*
Y3202850D01*
X8994320Y4181530D01*
X8926370D01*
G01X9101460Y3629520D02*
X9031780D01*
X8929950Y3731350D01*
Y3818890D01*
G01X9530310Y5228820D02*
X9202610D01*
X9202450Y5228660D01*
G01Y5101660D02*
X9372540D01*
G01X10384930Y5639980D02*
X10126680D01*
X9967440Y5799220D01*
X9194790D01*
X9194070Y5799940D01*
G01X9194230Y6230250D02*
X9352930D01*
G01X9194070Y5672940D02*
X9357280D01*
G01X10384930Y5719980D02*
X10242700D01*
X9604480Y6358200D01*
X9195180D01*
X9194230Y6357250D01*
G01X8985200Y8113230D02*
X9416150D01*
X9544540Y7984840D01*
G01X9973000Y2948000D02*
X9684290D01*
X9682960Y2946670D01*
G01X9528850Y5669460D02*
Y5451190D01*
X9530260Y5449780D01*
G01X9705310Y5228820D02*
X9857600D01*
G01X10384930Y5559980D02*
X10121340D01*
X10011700Y5450340D01*
X9705820D01*
X9705260Y5449780D01*
G01D02*
Y5228870D01*
X9705310Y5228820D01*
G01X9530310D02*
Y4990590D01*
X9530430Y4990470D01*
G01X9705430D02*
X9856840D01*
G01X9701490Y5954820D02*
X9857700D01*
G01X9703850Y5669460D02*
X9858140D01*
G54D46*
X6750000Y400000D03*
X7004000D03*
X7131000Y654000D03*
X6877000D03*
X7258000Y400000D03*
X7512000D03*
X7766000D03*
X7893000Y654000D03*
X7639000D03*
X7385000D03*
X8020000Y400000D03*
X8274000D03*
X8528000D03*
X8655000Y654000D03*
X8401000D03*
X8147000D03*
X8985200Y7097230D03*
X9239200Y6970230D03*
X8985200Y7859230D03*
Y7605230D03*
Y7351230D03*
X9239200Y7224230D03*
Y7478230D03*
Y7732230D03*
X8985200Y8621230D03*
Y8367230D03*
Y8113230D03*
X9239200Y7986230D03*
Y8240230D03*
Y8494230D03*
X8985200Y8875230D03*
X9239200Y8748230D03*
X10128000Y7766500D03*
Y8597500D03*
Y8320500D03*
Y8043500D03*
Y8874500D03*
X10412000Y7905000D03*
Y8182000D03*
Y8459000D03*
Y8736000D03*
G54D28*
X3073360Y5209720D03*
X6135060Y1845660D03*
X6187830Y3695380D03*
G54D19*
X1516060Y1787980D03*
X1581060D03*
X1646060D03*
X1711060D03*
X1776060D03*
X1841060D03*
Y2365580D03*
X1776060D03*
X1711060D03*
X1646060D03*
X1581060D03*
X1516060D03*
X1906060Y1787980D03*
X1971060D03*
X2036060D03*
X2101060D03*
X2166060D03*
X2231060D03*
Y2365580D03*
X2166060D03*
X2101060D03*
X2036060D03*
X1971060D03*
X1906060D03*
X2806190Y1787980D03*
X2871190D03*
X2936190D03*
X3001190D03*
X3066190D03*
X3131190D03*
X3196190D03*
X3261190D03*
X3326190D03*
X3391190D03*
Y2365580D03*
X3326190D03*
X3261190D03*
X3196190D03*
X3131190D03*
X3066190D03*
X3001190D03*
X2936190D03*
X2871190D03*
X2806190D03*
X3456190Y1787980D03*
X3521190D03*
Y2365580D03*
X3456190D03*
X7159440Y5224840D03*
X7029440D03*
X7094440Y5044840D03*
G54D37*
X4963660Y7021320D03*
Y6971320D03*
Y7521320D03*
Y7471320D03*
Y7421320D03*
Y7371320D03*
Y7321320D03*
Y7271320D03*
Y7221320D03*
Y7171320D03*
Y7121320D03*
Y7071320D03*
X5793660Y6971320D03*
Y7021320D03*
Y7071320D03*
Y7121320D03*
Y7171320D03*
Y7221320D03*
Y7271320D03*
Y7321320D03*
Y7371320D03*
Y7421320D03*
Y7471320D03*
Y7521320D03*
G54D56*
G01X283700Y9342350D02*
X743200D01*
X743790Y9341760D01*
G01X866920Y5456920D02*
Y5317520D01*
G01X1216890Y5606610D02*
X1191580Y5631920D01*
X866920D01*
G01X866600Y6022890D02*
Y5632240D01*
X866920Y5631920D01*
G01X995230Y7813730D02*
X807540D01*
G01X995230D02*
X1257660D01*
X1282580Y7838650D01*
G01X918790Y9341760D02*
X1139680D01*
X1140170Y9341270D01*
G01X1006060Y10066940D02*
X1172510D01*
G01X1006060Y9891940D02*
X1173780D01*
G01X1261890Y1607450D02*
Y1459200D01*
G01X1391890Y5288000D02*
Y5606610D01*
G01X1733600Y6022890D02*
X1732840Y6022130D01*
Y5648240D01*
X1691210Y5606610D01*
X1391890D01*
G01X1733600Y6022890D02*
X2148340D01*
X2149040Y6023590D01*
G01X1282580Y7838650D02*
X1263530Y7857700D01*
Y8103060D01*
G01X1480430D02*
Y7861500D01*
X1457580Y7838650D01*
G01X1458900Y8523380D02*
X1555600D01*
X1607760Y8471220D01*
G01X1457580Y7838650D02*
X1584930D01*
G01X1140170Y9341270D02*
Y9500770D01*
G01X1598840Y10065570D02*
Y10652250D01*
X1732650Y10786060D01*
Y10787740D01*
G01X2260350Y1569520D02*
X2140180D01*
X2094990Y1614710D01*
G01X2231060Y1787980D02*
Y1598810D01*
X2260350Y1569520D01*
G01X2257700Y2619050D02*
Y2786780D01*
G01X2149040Y5848590D02*
Y5705740D01*
G01X2672610Y2873460D02*
Y3005010D01*
G01Y2873460D02*
X2997360D01*
X3000220Y2876320D01*
G01X3761430Y2615860D02*
Y2775860D01*
G01X4613980Y6118980D02*
Y5967480D01*
G01X4438470Y7305720D02*
Y7098780D01*
X4437510Y7097820D01*
G01X4299090Y7419980D02*
Y7356360D01*
X4349730Y7305720D01*
X4438470D01*
G01X4507440Y9234590D02*
Y9101170D01*
G01X4736730Y9234590D02*
X4882300D01*
G01X4760010Y9871820D02*
Y9738600D01*
X4507040Y9485630D01*
Y9409990D01*
X4507440Y9409590D01*
G01X4907930Y9413270D02*
X5054560D01*
G01X4887010Y9871820D02*
Y9621940D01*
X4882040Y9616970D01*
G01D02*
X4880310D01*
X4736730Y9473390D01*
Y9409590D01*
G01X4633010Y10388820D02*
Y10796210D01*
X4632390Y10796830D01*
G01X4887010Y10388820D02*
X4886600Y10389230D01*
Y10796920D01*
G01X4506010Y10388820D02*
Y10545990D01*
X4429280Y10622720D01*
G01X5077680Y8138710D02*
Y7921930D01*
X5077420Y7921670D01*
G01X5600620Y7916100D02*
X5679960D01*
X5680060Y7916200D01*
G01X5526260Y7916100D02*
X5600620D01*
G01X5077420Y7921670D02*
X5078270Y7920820D01*
X5222180D01*
G01X5066430Y8392960D02*
X5212410D01*
G01X5051120Y8972310D02*
X5188180D01*
G01X5297480Y9777590D02*
Y9414920D01*
X5299140Y9413260D01*
G01X5534170Y9413240D02*
Y9515430D01*
X5424480Y9625120D01*
Y9777590D01*
G01X5170480D02*
Y9626250D01*
X5054520Y9510290D01*
Y9413310D01*
X5054560Y9413270D01*
G01X5551480Y9777590D02*
X5594710Y9734360D01*
X5805610D01*
G01X5297480Y10503590D02*
Y10795860D01*
X5299260Y10797640D01*
G01X5551480Y10796450D02*
X5549210Y10798720D01*
G01X5551480Y10503590D02*
Y10796450D01*
G01X5088050Y10743340D02*
Y10739520D01*
X5170480Y10657090D01*
Y10503590D01*
G01X5905830Y3878540D02*
X6174670D01*
X6187830Y3865380D01*
G01X6118310Y5079140D02*
X5940740D01*
G01X6293310D02*
X6465510D01*
X6467690Y5081320D01*
G01X6289440Y6118920D02*
X6495220D01*
G01X6209410Y7430060D02*
Y7574100D01*
G01X5855060Y7916200D02*
Y7757410D01*
G01X5805610Y9734360D02*
Y9571570D01*
G01Y9909360D02*
Y10043030D01*
G01X7074010Y7625100D02*
Y7454950D01*
G01X6494520Y7862650D02*
X6490680Y7866490D01*
Y8621650D01*
X6656430Y8787400D01*
Y10886280D01*
X6617210Y10925500D01*
G01X7310810Y8162260D02*
X7112190D01*
X7111400Y8163050D01*
G01D02*
X6894420D01*
X6860150Y8197320D01*
G01X7111400Y8036050D02*
X6897600D01*
X6860870Y7999320D01*
G01X6685150Y8197320D02*
Y8528530D01*
G01X6685870Y7999320D02*
Y8196600D01*
X6685150Y8197320D01*
G01X7861620Y5099910D02*
X8075940D01*
X8361380Y4814470D01*
X9313710D01*
X9372860Y4873620D01*
Y5101340D01*
X9372540Y5101660D01*
G01X7861620Y5099910D02*
X7716130D01*
X7686130Y5129910D01*
Y5613000D01*
X7700920Y5627790D01*
X7862320D01*
X7862380Y5627850D01*
G54D29*
X4139770Y4866590D03*
X4339770D03*
X6111070Y3457730D03*
X5911070D03*
G54D38*
X4506010Y9871820D03*
X4633010D03*
X4760010D03*
X4887010D03*
Y10388820D03*
X4760010D03*
X4633010D03*
X4506010D03*
G54D47*
X7111600Y4098920D03*
Y4225920D03*
Y4352920D03*
Y4479920D03*
X7111400Y7909050D03*
Y8036050D03*
Y8163050D03*
Y8290050D03*
X7671600Y4479920D03*
Y4352920D03*
Y4225920D03*
Y4098920D03*
X7671400Y8290050D03*
Y8163050D03*
Y8036050D03*
Y7909050D03*
G54D57*
G01X9411100Y7425590D02*
X9581570D01*
G01X9816570Y7520590D02*
Y7953740D01*
X9785470Y7984840D01*
X9544540D01*
G01X10010570Y7425590D02*
X9816570D01*
G01D02*
X9581570D01*
G54D39*
X5077490Y1165220D03*
X5077680Y8138710D03*
X5077420Y7921670D03*
G54D48*
X10150000Y1856000D03*
Y4040000D03*
G54D58*
G01X2432700Y2619050D02*
Y2446340D01*
X2458580Y2420460D01*
G01X2432700Y2619050D02*
Y2787410D01*
G01X3936430Y2615860D02*
Y1922890D01*
G01D02*
X3943890Y1915430D01*
G01X4216460Y2470030D02*
X4206050D01*
X4124190Y2388170D01*
Y2337780D01*
G01X3936430Y2615860D02*
Y2777790D01*
G01X4450910Y2724030D02*
X4228690D01*
X4120520Y2615860D01*
X3936430D01*
G01X4450910Y1962030D02*
X4653640D01*
G01X4775220Y3221220D02*
X4773010Y3219010D01*
Y2550030D01*
X4693010Y2470030D01*
X4450910D01*
G01D02*
X4216460D01*
G01X4334790Y4244960D02*
Y4013550D01*
G01X4794770Y4578300D02*
X4368130D01*
X4334790Y4544960D01*
G01Y4244960D02*
X4590490D01*
G01X5530910Y1962030D02*
X5338420D01*
G01X5005220Y3777020D02*
Y3221220D01*
G01X5015220Y3787020D02*
X5005220Y3777020D01*
G01X5014770Y4012500D02*
Y4329920D01*
G01D02*
Y4568300D01*
X5024770Y4578300D01*
G01X5905730Y1079600D02*
X6030040D01*
X6132370Y1181930D01*
G01D02*
Y1459390D01*
X6132980Y1460000D01*
G01X6454970Y1262850D02*
X6213290D01*
X6132370Y1181930D01*
G01X6193520Y3046000D02*
X6174100Y3026580D01*
Y2512220D01*
X6499060Y2187260D01*
X8077050D01*
X8196410Y2306620D01*
X8346600D01*
G01X5994400Y2465490D02*
Y2469310D01*
X5885550Y2578160D01*
X5881730D01*
G01X5787460Y2465490D02*
X5881730Y2559760D01*
Y2578160D01*
G01X6135060Y2015660D02*
Y2270040D01*
X6135860Y2270840D01*
G01X5928450Y1845660D02*
X6135060D01*
G01X5902170Y1819380D02*
X5928450Y1845660D01*
G01X5960860Y2270840D02*
X5800590D01*
X5770590Y2240840D01*
Y2161560D01*
G01X6516690Y3203240D02*
X6508920Y3195470D01*
X6174040D01*
G01D02*
X6037990D01*
G01X6174040D02*
Y3065480D01*
X6193520Y3046000D01*
G01D02*
X6325670Y2913850D01*
X6454970D01*
G01X6883680Y3203260D02*
Y2613330D01*
X6963680Y2533330D01*
X7334490D01*
X7334970Y2532850D01*
G01X7130750Y3203270D02*
Y2867420D01*
X7210750Y2787420D01*
X7334400D01*
X7334970Y2786850D01*
G01X6960150Y3822560D02*
X6819070D01*
X6789070Y3852560D01*
Y3999940D01*
G01X7111600Y4098920D02*
X7082040Y4069360D01*
Y3822560D01*
G01D02*
X6960150D01*
G01X6786940Y4562500D02*
Y4727330D01*
X6784820Y4729450D01*
G01X6785600Y4869870D02*
X6784820Y4869090D01*
Y4729450D01*
G01X7265950Y4611600D02*
X7151180D01*
X7111600Y4572020D01*
Y4479920D01*
G01X7814500Y732500D02*
X7893000Y654000D01*
G01X7814500Y995130D02*
Y732500D01*
G01X7539190Y3203070D02*
Y2986710D01*
X7466330Y2913850D01*
X7334970D01*
G01X7774440Y3203050D02*
X7775790Y3201700D01*
Y2829960D01*
X7605680Y2659850D01*
X7334970D01*
G01X7257040Y3822560D02*
Y3961060D01*
X7259910Y3963930D01*
G01X8532080Y395920D02*
X8674890D01*
G01D02*
X8833150Y554180D01*
G01X8370100Y799890D02*
X8274000Y703790D01*
G01D02*
Y400000D01*
G01X8528000D02*
X8532080Y395920D01*
G01X8370100Y994490D02*
Y799890D01*
G01X8655000Y654000D02*
X8658150Y657150D01*
Y999760D01*
G01X8346600Y2306620D02*
X8618150D01*
X8619480Y2305290D01*
X8694060D01*
X8695390Y2306620D01*
X9293320D01*
X9323320Y2336620D01*
Y2471140D01*
G01X8346600Y2306620D02*
Y2815180D01*
X8247930Y2913850D01*
X8094840D01*
G01X8069970Y3203570D02*
Y2938720D01*
X8094840Y2913850D01*
G01X8414270Y3983660D02*
X8293520D01*
X8290410Y3980550D01*
G01X8165090Y3982030D02*
X8288930D01*
X8290410Y3980550D01*
G01X8367590Y3309450D02*
Y3356110D01*
X8345130Y3378570D01*
X8069970D01*
G01X8589270Y3983660D02*
X8716250D01*
G01X8166500Y4568570D02*
Y4828820D01*
X8071520Y4923800D01*
G01X8833150Y554180D02*
Y999760D01*
G01X8974840Y2659850D02*
X9309610D01*
X9323320Y2646140D01*
G54D49*
X10270000Y7071000D03*
Y9570000D03*
G54D59*
G01X5352000Y704000D02*
X5606000D01*
G01X5651740Y1359600D02*
Y1079610D01*
X5651730Y1079600D01*
G01X5651740Y1569600D02*
X5648960D01*
X5530910Y1687650D01*
Y1962030D01*
G01X5235220Y3221220D02*
X5624770D01*
X5625970Y3222420D01*
G01X5881730Y2960230D02*
X5882980Y2961480D01*
Y3181910D01*
X5842470Y3222420D01*
X5625970D01*
G01X5881730Y2578160D02*
Y2660230D01*
G01X9443730Y1198720D02*
Y654620D01*
X9441920Y652810D01*
M02*
